<?xml version="1.0" encoding="UTF-8" standalone="no"?><svg xmlns="http://www.w3.org/2000/svg" xmlns:xlink="http://www.w3.org/1999/xlink" contentScriptType="application/ecmascript" contentStyleType="text/css" height="235px" preserveAspectRatio="none" style="width:254px;height:235px;" version="1.1" viewBox="0 0 254 235" width="254px" zoomAndPan="magnify"><defs><filter height="300%" id="f14vylaftbjvgz" width="300%" x="-1" y="-1"><feGaussianBlur result="blurOut" stdDeviation="2.0"/><feColorMatrix in="blurOut" result="blurOut2" type="matrix" values="0 0 0 0 0 0 0 0 0 0 0 0 0 0 0 0 0 0 .4 0"/><feOffset dx="4.0" dy="4.0" in="blurOut2" result="blurOut3"/><feBlend in="SourceGraphic" in2="blurOut3" mode="normal"/></filter></defs><g><!--class algo.genetic.Chromosome--><a href="Chromosome.html" target="_top" xlink:actuate="onRequest" xlink:show="new" xlink:title="Chromosome.html" xlink:type="simple"><rect fill="#FEFECE" filter="url(#f14vylaftbjvgz)" height="194.7891" id="algo.genetic.Chromosome" style="stroke: #A80036; stroke-width: 1.5;" width="237" x="6" y="8"/><ellipse cx="73.25" cy="26.9688" fill="#ADD1B2" rx="11" ry="11" style="stroke: #A80036; stroke-width: 1.0;"/><path d="M76.2188,32.6094 Q75.6406,32.9063 75,33.0469 Q74.3594,33.2031 73.6563,33.2031 Q71.1563,33.2031 69.8281,31.5625 Q68.5156,29.9063 68.5156,26.7813 Q68.5156,23.6563 69.8281,22 Q71.1563,20.3438 73.6563,20.3438 Q74.3594,20.3438 75,20.5 Q75.6563,20.6563 76.2188,20.9531 L76.2188,23.6719 Q75.5938,23.0938 75,22.8281 Q74.4063,22.5469 73.7813,22.5469 Q72.4375,22.5469 71.75,23.625 Q71.0625,24.6875 71.0625,26.7813 Q71.0625,28.875 71.75,29.9531 Q72.4375,31.0156 73.7813,31.0156 Q74.4063,31.0156 75,30.75 Q75.5938,30.4688 76.2188,29.8906 L76.2188,32.6094 Z "/><text fill="#000000" font-family="sans-serif" font-size="14" lengthAdjust="spacingAndGlyphs" textLength="94" x="93.75" y="25.9951">Chromosome</text><text fill="#000000" font-family="sans-serif" font-size="10" lengthAdjust="spacingAndGlyphs" textLength="58" x="111.75" y="38.5791">algo.genetic</text><line style="stroke: #A80036; stroke-width: 1.5;" x1="7" x2="242" y1="45.9375" y2="45.9375"/><rect fill="none" height="6" style="stroke: #C82930; stroke-width: 1.0;" width="6" x="14" y="54.8398"/><text fill="#000000" font-family="sans-serif" font-size="11" lengthAdjust="spacingAndGlyphs" textLength="115" x="26" y="60.1479">clients: List&lt;Client&gt;</text><rect fill="none" height="6" style="stroke: #C82930; stroke-width: 1.0;" width="6" x="14" y="67.6445"/><text fill="#000000" font-family="sans-serif" font-size="11" lengthAdjust="spacingAndGlyphs" textLength="99" x="26" y="72.9526">tournee: Tournee</text><rect fill="none" height="6" style="stroke: #C82930; stroke-width: 1.0;" width="6" x="14" y="80.4492"/><text fill="#000000" font-family="sans-serif" font-size="11" lengthAdjust="spacingAndGlyphs" textLength="104" x="26" y="85.7573">instance: Instance</text><line style="stroke: #A80036; stroke-width: 1.5;" x1="7" x2="242" y1="92.3516" y2="92.3516"/><ellipse cx="17" cy="104.2539" fill="#84BE84" rx="3" ry="3" style="stroke: #038048; stroke-width: 1.0;"/><text fill="#000000" font-family="sans-serif" font-size="11" lengthAdjust="spacingAndGlyphs" textLength="85" x="26" y="106.562">Chromosome()</text><ellipse cx="17" cy="117.0586" fill="#84BE84" rx="3" ry="3" style="stroke: #038048; stroke-width: 1.0;"/><text fill="#000000" font-family="sans-serif" font-size="11" lengthAdjust="spacingAndGlyphs" textLength="133" x="26" y="119.3667">Chromosome(Instance)</text><ellipse cx="17" cy="129.8633" fill="#84BE84" rx="3" ry="3" style="stroke: #038048; stroke-width: 1.0;"/><text fill="#000000" font-family="sans-serif" font-size="11" lengthAdjust="spacingAndGlyphs" textLength="162" x="26" y="132.1714">Chromosome(Chromosome)</text><polygon fill="#4177AF" points="17,138.668,13,144.668,21,144.668" style="stroke: #1963A0; stroke-width: 1.0;"/><text fill="#000000" font-family="sans-serif" font-size="11" lengthAdjust="spacingAndGlyphs" textLength="211" x="26" y="144.9761">Chromosome(Instance, List&lt;Client&gt;)</text><ellipse cx="17" cy="155.4727" fill="#84BE84" rx="3" ry="3" style="stroke: #038048; stroke-width: 1.0;"/><text fill="#000000" font-family="sans-serif" font-size="11" lengthAdjust="spacingAndGlyphs" textLength="143" x="26" y="157.7808">getClients(): List&lt;Client&gt;</text><ellipse cx="17" cy="168.2773" fill="#84BE84" rx="3" ry="3" style="stroke: #038048; stroke-width: 1.0;"/><text fill="#000000" font-family="sans-serif" font-size="11" lengthAdjust="spacingAndGlyphs" textLength="128" x="26" y="170.5854">getTournee(): Tournee</text><ellipse cx="17" cy="181.082" fill="#84BE84" rx="3" ry="3" style="stroke: #038048; stroke-width: 1.0;"/><text fill="#000000" font-family="sans-serif" font-size="11" lengthAdjust="spacingAndGlyphs" textLength="130" x="26" y="183.3901">getInstance(): Instance</text><ellipse cx="17" cy="193.8867" fill="#84BE84" rx="3" ry="3" style="stroke: #038048; stroke-width: 1.0;"/><text fill="#000000" font-family="sans-serif" font-size="11" lengthAdjust="spacingAndGlyphs" textLength="137" x="26" y="196.1948">generateTournee(): void</text></a><text fill="#888888" font-family="sans-serif" font-size="10" lengthAdjust="spacingAndGlyphs" textLength="186" x="37.5" y="222.2822">UMLDoclet 2.0.3, PlantUML 1.2019.06</text><!--
@startuml
    set namespaceSeparator none
    hide empty fields
    hide empty methods

    class "<size:14>Chromosome\n<size:10>algo.genetic" as algo.genetic.Chromosome [[Chromosome.html]] {
        -clients: List<Client>
        -tournee: Tournee
        -instance: Instance
        +Chromosome()
        +Chromosome(Instance)
        +Chromosome(Chromosome)
        ~Chromosome(Instance, List<Client>)
        +getClients(): List<Client>
        +getTournee(): Tournee
        +getInstance(): Instance
        +generateTournee(): void
    }

    center footer UMLDoclet 2.0.3, PlantUML 1.2019.06
@enduml

PlantUML version 1.2019.06(Fri May 24 19:10:25 CEST 2019)
(APACHE source distribution)
Java Runtime: OpenJDK Runtime Environment
JVM: OpenJDK 64-Bit Server VM
Java Version: 11.0.4+4-post-Debian-1
Operating System: Linux
OS Version: 4.19.0-5-amd64
Default Encoding: UTF-8
Language: fr
Country: FR
--></g></svg>