<?xml version="1.0" encoding="UTF-8" standalone="no"?><svg xmlns="http://www.w3.org/2000/svg" xmlns:xlink="http://www.w3.org/1999/xlink" contentScriptType="application/ecmascript" contentStyleType="text/css" height="184px" preserveAspectRatio="none" style="width:212px;height:184px;" version="1.1" viewBox="0 0 212 184" width="212px" zoomAndPan="magnify"><defs><filter height="300%" id="f1ezy206zkpubp" width="300%" x="-1" y="-1"><feGaussianBlur result="blurOut" stdDeviation="2.0"/><feColorMatrix in="blurOut" result="blurOut2" type="matrix" values="0 0 0 0 0 0 0 0 0 0 0 0 0 0 0 0 0 0 .4 0"/><feOffset dx="4.0" dy="4.0" in="blurOut2" result="blurOut3"/><feBlend in="SourceGraphic" in2="blurOut3" mode="normal"/></filter></defs><g><!--class algo.genetic.ClientLabels--><a href="ClientLabels.html" target="_top" xlink:actuate="onRequest" xlink:show="new" xlink:title="ClientLabels.html" xlink:type="simple"><rect fill="#FEFECE" filter="url(#f1ezy206zkpubp)" height="143.5703" id="algo.genetic.ClientLabels" style="stroke: #A80036; stroke-width: 1.5;" width="191" x="6" y="8"/><ellipse cx="55.75" cy="26.9688" fill="#ADD1B2" rx="11" ry="11" style="stroke: #A80036; stroke-width: 1.0;"/><path d="M58.7188,32.6094 Q58.1406,32.9063 57.5,33.0469 Q56.8594,33.2031 56.1563,33.2031 Q53.6563,33.2031 52.3281,31.5625 Q51.0156,29.9063 51.0156,26.7813 Q51.0156,23.6563 52.3281,22 Q53.6563,20.3438 56.1563,20.3438 Q56.8594,20.3438 57.5,20.5 Q58.1563,20.6563 58.7188,20.9531 L58.7188,23.6719 Q58.0938,23.0938 57.5,22.8281 Q56.9063,22.5469 56.2813,22.5469 Q54.9375,22.5469 54.25,23.625 Q53.5625,24.6875 53.5625,26.7813 Q53.5625,28.875 54.25,29.9531 Q54.9375,31.0156 56.2813,31.0156 Q56.9063,31.0156 57.5,30.75 Q58.0938,30.4688 58.7188,29.8906 L58.7188,32.6094 Z "/><text fill="#000000" font-family="sans-serif" font-size="14" lengthAdjust="spacingAndGlyphs" textLength="83" x="76.25" y="25.9951">ClientLabels</text><text fill="#000000" font-family="sans-serif" font-size="10" lengthAdjust="spacingAndGlyphs" textLength="58" x="88.75" y="38.5791">algo.genetic</text><line style="stroke: #A80036; stroke-width: 1.5;" x1="7" x2="196" y1="45.9375" y2="45.9375"/><rect fill="none" height="6" style="stroke: #C82930; stroke-width: 1.0;" width="6" x="14" y="54.8398"/><text fill="#000000" font-family="sans-serif" font-size="11" lengthAdjust="spacingAndGlyphs" textLength="67" x="26" y="60.1479">clientNb: int</text><rect fill="none" height="6" style="stroke: #C82930; stroke-width: 1.0;" width="6" x="14" y="67.6445"/><text fill="#000000" font-family="sans-serif" font-size="11" lengthAdjust="spacingAndGlyphs" textLength="110" x="26" y="72.9526">labels: List&lt;Label&gt;</text><line style="stroke: #A80036; stroke-width: 1.5;" x1="7" x2="196" y1="79.5469" y2="79.5469"/><ellipse cx="17" cy="91.4492" fill="#84BE84" rx="3" ry="3" style="stroke: #038048; stroke-width: 1.0;"/><text fill="#000000" font-family="sans-serif" font-size="11" lengthAdjust="spacingAndGlyphs" textLength="91" x="26" y="93.7573">ClientLabels(int)</text><ellipse cx="17" cy="104.2539" fill="#84BE84" rx="3" ry="3" style="stroke: #038048; stroke-width: 1.0;"/><text fill="#000000" font-family="sans-serif" font-size="11" lengthAdjust="spacingAndGlyphs" textLength="139" x="26" y="106.562">getLabels(): List&lt;Label&gt;</text><ellipse cx="17" cy="117.0586" fill="#84BE84" rx="3" ry="3" style="stroke: #038048; stroke-width: 1.0;"/><text fill="#000000" font-family="sans-serif" font-size="11" lengthAdjust="spacingAndGlyphs" textLength="95" x="26" y="119.3667">getClientNb(): int</text><ellipse cx="17" cy="129.8633" fill="#84BE84" rx="3" ry="3" style="stroke: #038048; stroke-width: 1.0;"/><text fill="#000000" font-family="sans-serif" font-size="11" lengthAdjust="spacingAndGlyphs" textLength="165" x="26" y="132.1714">addLabels(List&lt;Label&gt;): void</text><ellipse cx="17" cy="142.668" fill="#84BE84" rx="3" ry="3" style="stroke: #038048; stroke-width: 1.0;"/><text fill="#000000" font-family="sans-serif" font-size="11" lengthAdjust="spacingAndGlyphs" textLength="120" x="26" y="144.9761">addLabel(Label): void</text></a><text fill="#888888" font-family="sans-serif" font-size="10" lengthAdjust="spacingAndGlyphs" textLength="186" x="14.5" y="171.2822">UMLDoclet 2.0.3, PlantUML 1.2019.06</text><!--
@startuml
    set namespaceSeparator none
    hide empty fields
    hide empty methods

    class "<size:14>ClientLabels\n<size:10>algo.genetic" as algo.genetic.ClientLabels [[ClientLabels.html]] {
        -clientNb: int
        -labels: List<Label>
        +ClientLabels(int)
        +getLabels(): List<Label>
        +getClientNb(): int
        +addLabels(List<Label>): void
        +addLabel(Label): void
    }

    center footer UMLDoclet 2.0.3, PlantUML 1.2019.06
@enduml

PlantUML version 1.2019.06(Fri May 24 19:10:25 CEST 2019)
(APACHE source distribution)
Java Runtime: OpenJDK Runtime Environment
JVM: OpenJDK 64-Bit Server VM
Java Version: 11.0.4+4-post-Debian-1
Operating System: Linux
OS Version: 4.19.0-5-amd64
Default Encoding: UTF-8
Language: fr
Country: FR
--></g></svg>