<?xml version="1.0" encoding="UTF-8" standalone="no"?><svg xmlns="http://www.w3.org/2000/svg" xmlns:xlink="http://www.w3.org/1999/xlink" contentScriptType="application/ecmascript" contentStyleType="text/css" height="1568px" preserveAspectRatio="none" style="width:1096px;height:1568px;" version="1.1" viewBox="0 0 1096 1568" width="1096px" zoomAndPan="magnify"><defs><filter height="300%" id="fnlvsu07o6o55" width="300%" x="-1" y="-1"><feGaussianBlur result="blurOut" stdDeviation="2.0"/><feColorMatrix in="blurOut" result="blurOut2" type="matrix" values="0 0 0 0 0 0 0 0 0 0 0 0 0 0 0 0 0 0 .4 0"/><feOffset dx="4.0" dy="4.0" in="blurOut2" result="blurOut3"/><feBlend in="SourceGraphic" in2="blurOut3" mode="normal"/></filter></defs><g><!--cluster algo.genetic--><polygon fill="#FFFFFF" filter="url(#fnlvsu07o6o55)" points="14,168,117,168,124,190.2969,1074,190.2969,1074,1528,14,1528,14,168" style="stroke: #000000; stroke-width: 1.5;"/><line style="stroke: #000000; stroke-width: 1.5;" x1="14" x2="124" y1="190.2969" y2="190.2969"/><text fill="#000000" font-family="sans-serif" font-size="14" font-weight="bold" lengthAdjust="spacingAndGlyphs" textLength="97" x="18" y="182.9951">algo.genetic</text><!--cluster algo--><polygon fill="#FFFFFF" filter="url(#fnlvsu07o6o55)" points="209,16,248,16,255,38.2969,401,38.2969,401,137,209,137,209,16" style="stroke: #000000; stroke-width: 1.5;"/><line style="stroke: #000000; stroke-width: 1.5;" x1="209" x2="255" y1="38.2969" y2="38.2969"/><text fill="#000000" font-family="sans-serif" font-size="14" font-weight="bold" lengthAdjust="spacingAndGlyphs" textLength="33" x="213" y="30.9951">algo</text><!--class algo.genetic.ShortestPathClients--><a href="ShortestPathClients.html" target="_top" xlink:actuate="onRequest" xlink:show="new" xlink:title="ShortestPathClients.html" xlink:type="simple"><rect fill="#FEFECE" filter="url(#fnlvsu07o6o55)" height="188.8516" id="algo.genetic.ShortestPathClients" style="stroke: #A80036; stroke-width: 1.5;" width="427" x="638.5" y="239.5"/><ellipse cx="785.25" cy="255.5" fill="#ADD1B2" rx="11" ry="11" style="stroke: #A80036; stroke-width: 1.0;"/><path d="M788.2188,261.1406 Q787.6406,261.4375 787,261.5781 Q786.3594,261.7344 785.6563,261.7344 Q783.1563,261.7344 781.8281,260.0938 Q780.5156,258.4375 780.5156,255.3125 Q780.5156,252.1875 781.8281,250.5313 Q783.1563,248.875 785.6563,248.875 Q786.3594,248.875 787,249.0313 Q787.6563,249.1875 788.2188,249.4844 L788.2188,252.2031 Q787.5938,251.625 787,251.3594 Q786.4063,251.0781 785.7813,251.0781 Q784.4375,251.0781 783.75,252.1563 Q783.0625,253.2188 783.0625,255.3125 Q783.0625,257.4063 783.75,258.4844 Q784.4375,259.5469 785.7813,259.5469 Q786.4063,259.5469 787,259.2813 Q787.5938,259 788.2188,258.4219 L788.2188,261.1406 Z "/><text fill="#000000" font-family="sans-serif" font-size="12" lengthAdjust="spacingAndGlyphs" textLength="125" x="805.75" y="259.6543">ShortestPathClients</text><line style="stroke: #A80036; stroke-width: 1.5;" x1="639.5" x2="1064.5" y1="271.5" y2="271.5"/><rect fill="none" height="6" style="stroke: #C82930; stroke-width: 1.0;" width="6" x="646.5" y="280.4023"/><text fill="#000000" font-family="sans-serif" font-size="11" lengthAdjust="spacingAndGlyphs" textLength="104" x="658.5" y="285.7104">instance: Instance</text><line style="stroke: #A80036; stroke-width: 1.5;" x1="639.5" x2="1064.5" y1="292.3047" y2="292.3047"/><ellipse cx="649.5" cy="304.207" fill="#84BE84" rx="3" ry="3" style="stroke: #038048; stroke-width: 1.0;"/><text fill="#000000" font-family="sans-serif" font-size="11" lengthAdjust="spacingAndGlyphs" textLength="121" x="658.5" y="306.5151">ShortestPathClients()</text><ellipse cx="649.5" cy="317.0117" fill="#84BE84" rx="3" ry="3" style="stroke: #038048; stroke-width: 1.0;"/><text fill="#000000" font-family="sans-serif" font-size="11" lengthAdjust="spacingAndGlyphs" textLength="169" x="658.5" y="319.3198">ShortestPathClients(Instance)</text><ellipse cx="649.5" cy="329.8164" fill="#84BE84" rx="3" ry="3" style="stroke: #038048; stroke-width: 1.0;"/><text fill="#000000" font-family="sans-serif" font-size="11" lengthAdjust="spacingAndGlyphs" textLength="254" x="658.5" y="332.1245">ShortestPathClients(Instance, Chromosome)</text><ellipse cx="649.5" cy="342.6211" fill="#84BE84" rx="3" ry="3" style="stroke: #038048; stroke-width: 1.0;"/><text fill="#000000" font-family="sans-serif" font-size="11" lengthAdjust="spacingAndGlyphs" textLength="157" x="658.5" y="344.9292">findBestTournee(): Tournee</text><ellipse cx="649.5" cy="355.4258" fill="#84BE84" rx="3" ry="3" style="stroke: #038048; stroke-width: 1.0;"/><text fill="#000000" font-family="sans-serif" font-size="11" lengthAdjust="spacingAndGlyphs" textLength="256" x="658.5" y="357.7339">getBestTournee(Tournee, Tournee): Tournee</text><rect fill="#F24D5C" height="6" style="stroke: #C82930; stroke-width: 1.0;" width="6" x="646.5" y="365.2305"/><text fill="#000000" font-family="sans-serif" font-size="11" lengthAdjust="spacingAndGlyphs" textLength="196" x="658.5" y="370.5386">findShortestPath(double): Tournee</text><rect fill="#F24D5C" height="6" style="stroke: #C82930; stroke-width: 1.0;" width="6" x="646.5" y="378.0352"/><text fill="#000000" font-family="sans-serif" font-size="11" lengthAdjust="spacingAndGlyphs" textLength="382" x="658.5" y="383.3433">shouldReplaceCurrentLabel(BestLabel, BestLabel, double): boolean</text><rect fill="#F24D5C" height="6" style="stroke: #C82930; stroke-width: 1.0;" width="6" x="646.5" y="390.8398"/><text fill="#000000" font-family="sans-serif" font-size="11" lengthAdjust="spacingAndGlyphs" textLength="254" x="658.5" y="396.1479">findPartialShortestPath(Chromosome): Label</text><rect fill="#F24D5C" height="6" style="stroke: #C82930; stroke-width: 1.0;" width="6" x="646.5" y="403.6445"/><text fill="#000000" font-family="sans-serif" font-size="11" lengthAdjust="spacingAndGlyphs" textLength="401" x="658.5" y="408.9526">extendsPreviousLabels(Emplacement, ClientLabels, ClientLabels): void</text><rect fill="#F24D5C" height="6" style="stroke: #C82930; stroke-width: 1.0;" width="6" x="646.5" y="416.4492"/><text fill="#000000" font-family="sans-serif" font-size="11" lengthAdjust="spacingAndGlyphs" textLength="287" x="658.5" y="421.7573">getBestLabelFromClientLabels(ClientLabels): Label</text></a><!--class algo.genetic.ShortestPathSolver--><a href="ShortestPathSolver.html" target="_top" xlink:actuate="onRequest" xlink:show="new" xlink:title="ShortestPathSolver.html" xlink:type="simple"><rect fill="#FEFECE" filter="url(#fnlvsu07o6o55)" height="137.6328" id="algo.genetic.ShortestPathSolver" style="stroke: #A80036; stroke-width: 1.5;" width="192" x="22" y="265"/><ellipse cx="54.55" cy="281" fill="#ADD1B2" rx="11" ry="11" style="stroke: #A80036; stroke-width: 1.0;"/><path d="M57.5188,286.6406 Q56.9406,286.9375 56.3,287.0781 Q55.6594,287.2344 54.9563,287.2344 Q52.4563,287.2344 51.1281,285.5938 Q49.8156,283.9375 49.8156,280.8125 Q49.8156,277.6875 51.1281,276.0313 Q52.4563,274.375 54.9563,274.375 Q55.6594,274.375 56.3,274.5313 Q56.9563,274.6875 57.5188,274.9844 L57.5188,277.7031 Q56.8938,277.125 56.3,276.8594 Q55.7063,276.5781 55.0813,276.5781 Q53.7375,276.5781 53.05,277.6563 Q52.3625,278.7188 52.3625,280.8125 Q52.3625,282.9063 53.05,283.9844 Q53.7375,285.0469 55.0813,285.0469 Q55.7063,285.0469 56.3,284.7813 Q56.8938,284.5 57.5188,283.9219 L57.5188,286.6406 Z "/><text fill="#000000" font-family="sans-serif" font-size="12" lengthAdjust="spacingAndGlyphs" textLength="121" x="72.45" y="285.1543">ShortestPathSolver</text><line style="stroke: #A80036; stroke-width: 1.5;" x1="23" x2="213" y1="297" y2="297"/><rect fill="none" height="6" style="stroke: #C82930; stroke-width: 1.0;" width="6" x="30" y="305.9023"/><text fill="#000000" font-family="sans-serif" font-size="11" lengthAdjust="spacingAndGlyphs" text-decoration="underline" textLength="94" x="42" y="311.2104">LOGGER: Logger</text><rect fill="none" height="6" style="stroke: #C82930; stroke-width: 1.0;" width="6" x="30" y="318.707"/><text fill="#000000" font-family="sans-serif" font-size="11" lengthAdjust="spacingAndGlyphs" textLength="104" x="42" y="324.0151">instance: Instance</text><line style="stroke: #A80036; stroke-width: 1.5;" x1="23" x2="213" y1="330.6094" y2="330.6094"/><ellipse cx="33" cy="342.5117" fill="#84BE84" rx="3" ry="3" style="stroke: #038048; stroke-width: 1.0;"/><text fill="#000000" font-family="sans-serif" font-size="11" lengthAdjust="spacingAndGlyphs" textLength="118" x="42" y="344.8198">ShortestPathSolver()</text><ellipse cx="33" cy="355.3164" fill="#84BE84" rx="3" ry="3" style="stroke: #038048; stroke-width: 1.0;"/><text fill="#000000" font-family="sans-serif" font-size="11" lengthAdjust="spacingAndGlyphs" textLength="166" x="42" y="357.6245">ShortestPathSolver(Instance)</text><ellipse cx="33" cy="368.1211" fill="#84BE84" rx="3" ry="3" style="stroke: #038048; stroke-width: 1.0;"/><text fill="#000000" font-family="sans-serif" font-size="11" lengthAdjust="spacingAndGlyphs" textLength="130" x="42" y="370.4292">getInstance(): Instance</text><ellipse cx="33" cy="380.9258" fill="#84BE84" rx="3" ry="3" style="stroke: #038048; stroke-width: 1.0;"/><text fill="#000000" font-family="sans-serif" font-size="11" lengthAdjust="spacingAndGlyphs" textLength="153" x="42" y="383.2339">setInstance(Instance): void</text><ellipse cx="33" cy="393.7305" fill="#84BE84" rx="3" ry="3" style="stroke: #038048; stroke-width: 1.0;"/><text fill="#000000" font-family="sans-serif" font-size="11" lengthAdjust="spacingAndGlyphs" textLength="91" x="42" y="396.0386">solve(): boolean</text></a><!--class algo.genetic.GeneticSolver--><a href="GeneticSolver.html" target="_top" xlink:actuate="onRequest" xlink:show="new" xlink:title="GeneticSolver.html" xlink:type="simple"><rect fill="#FEFECE" filter="url(#fnlvsu07o6o55)" height="278.4844" id="algo.genetic.GeneticSolver" style="stroke: #A80036; stroke-width: 1.5;" width="354" x="249" y="195"/><ellipse cx="378.75" cy="211" fill="#ADD1B2" rx="11" ry="11" style="stroke: #A80036; stroke-width: 1.0;"/><path d="M381.7188,216.6406 Q381.1406,216.9375 380.5,217.0781 Q379.8594,217.2344 379.1563,217.2344 Q376.6563,217.2344 375.3281,215.5938 Q374.0156,213.9375 374.0156,210.8125 Q374.0156,207.6875 375.3281,206.0313 Q376.6563,204.375 379.1563,204.375 Q379.8594,204.375 380.5,204.5313 Q381.1563,204.6875 381.7188,204.9844 L381.7188,207.7031 Q381.0938,207.125 380.5,206.8594 Q379.9063,206.5781 379.2813,206.5781 Q377.9375,206.5781 377.25,207.6563 Q376.5625,208.7188 376.5625,210.8125 Q376.5625,212.9063 377.25,213.9844 Q377.9375,215.0469 379.2813,215.0469 Q379.9063,215.0469 380.5,214.7813 Q381.0938,214.5 381.7188,213.9219 L381.7188,216.6406 Z "/><text fill="#000000" font-family="sans-serif" font-size="12" lengthAdjust="spacingAndGlyphs" textLength="86" x="399.25" y="215.1543">GeneticSolver</text><line style="stroke: #A80036; stroke-width: 1.5;" x1="250" x2="602" y1="227" y2="227"/><rect fill="none" height="6" style="stroke: #C82930; stroke-width: 1.0;" width="6" x="257" y="235.9023"/><text fill="#000000" font-family="sans-serif" font-size="11" lengthAdjust="spacingAndGlyphs" text-decoration="underline" textLength="94" x="269" y="241.2104">LOGGER: Logger</text><rect fill="none" height="6" style="stroke: #C82930; stroke-width: 1.0;" width="6" x="257" y="248.707"/><text fill="#000000" font-family="sans-serif" font-size="11" lengthAdjust="spacingAndGlyphs" textLength="104" x="269" y="254.0151">instance: Instance</text><rect fill="none" height="6" style="stroke: #C82930; stroke-width: 1.0;" width="6" x="257" y="261.5117"/><text fill="#000000" font-family="sans-serif" font-size="11" lengthAdjust="spacingAndGlyphs" textLength="104" x="269" y="266.8198">minCostSpace: int</text><rect fill="none" height="6" style="stroke: #C82930; stroke-width: 1.0;" width="6" x="257" y="274.3164"/><text fill="#000000" font-family="sans-serif" font-size="11" lengthAdjust="spacingAndGlyphs" textLength="100" x="269" y="279.6245">maxIterations: int</text><rect fill="none" height="6" style="stroke: #C82930; stroke-width: 1.0;" width="6" x="257" y="287.1211"/><text fill="#000000" font-family="sans-serif" font-size="11" lengthAdjust="spacingAndGlyphs" textLength="197" x="269" y="292.4292">maxIterationsWithoutImproving: int</text><rect fill="none" height="6" style="stroke: #C82930; stroke-width: 1.0;" width="6" x="257" y="299.9258"/><text fill="#000000" font-family="sans-serif" font-size="11" lengthAdjust="spacingAndGlyphs" textLength="121" x="269" y="305.2339">mutationRate: double</text><line style="stroke: #A80036; stroke-width: 1.5;" x1="250" x2="602" y1="311.8281" y2="311.8281"/><ellipse cx="260" cy="323.7305" fill="#84BE84" rx="3" ry="3" style="stroke: #038048; stroke-width: 1.0;"/><text fill="#000000" font-family="sans-serif" font-size="11" lengthAdjust="spacingAndGlyphs" textLength="191" x="269" y="326.0386">GeneticSolver(int, int, int, double)</text><ellipse cx="260" cy="336.5352" fill="#84BE84" rx="3" ry="3" style="stroke: #038048; stroke-width: 1.0;"/><text fill="#000000" font-family="sans-serif" font-size="11" lengthAdjust="spacingAndGlyphs" textLength="247" x="269" y="338.8433">GeneticSolver(Instance, int, int, int, double)</text><ellipse cx="260" cy="349.3398" fill="#84BE84" rx="3" ry="3" style="stroke: #038048; stroke-width: 1.0;"/><text fill="#000000" font-family="sans-serif" font-size="11" lengthAdjust="spacingAndGlyphs" textLength="225" x="269" y="351.6479">GeneticSolver(Instance, int, int, double)</text><ellipse cx="260" cy="362.1445" fill="#84BE84" rx="3" ry="3" style="stroke: #038048; stroke-width: 1.0;"/><text fill="#000000" font-family="sans-serif" font-size="11" lengthAdjust="spacingAndGlyphs" textLength="130" x="269" y="364.4526">getInstance(): Instance</text><ellipse cx="260" cy="374.9492" fill="#84BE84" rx="3" ry="3" style="stroke: #038048; stroke-width: 1.0;"/><text fill="#000000" font-family="sans-serif" font-size="11" lengthAdjust="spacingAndGlyphs" textLength="153" x="269" y="377.2573">setInstance(Instance): void</text><ellipse cx="260" cy="387.7539" fill="#84BE84" rx="3" ry="3" style="stroke: #038048; stroke-width: 1.0;"/><text fill="#000000" font-family="sans-serif" font-size="11" lengthAdjust="spacingAndGlyphs" textLength="91" x="269" y="390.062">solve(): boolean</text><rect fill="#F24D5C" height="6" style="stroke: #C82930; stroke-width: 1.0;" width="6" x="257" y="397.5586"/><text fill="#000000" font-family="sans-serif" font-size="11" lengthAdjust="spacingAndGlyphs" textLength="111" x="269" y="402.8667">geneticSolve(): void</text><rect fill="#F24D5C" height="6" style="stroke: #C82930; stroke-width: 1.0;" width="6" x="257" y="410.3633"/><text fill="#000000" font-family="sans-serif" font-size="11" lengthAdjust="spacingAndGlyphs" textLength="191" x="269" y="415.6714">generateChromosomePool(): void</text><rect fill="#F24D5C" height="6" style="stroke: #C82930; stroke-width: 1.0;" width="6" x="257" y="423.168"/><text fill="#000000" font-family="sans-serif" font-size="11" lengthAdjust="spacingAndGlyphs" textLength="163" x="269" y="428.4761">sortChromosomePool(): void</text><rect fill="#F24D5C" height="6" style="stroke: #C82930; stroke-width: 1.0;" width="6" x="257" y="435.9727"/><text fill="#000000" font-family="sans-serif" font-size="11" lengthAdjust="spacingAndGlyphs" textLength="308" x="269" y="441.2808">isChromosomePoolDuplicates(Chromosome): boolean</text><rect fill="#F24D5C" height="6" style="stroke: #C82930; stroke-width: 1.0;" width="6" x="257" y="448.7773"/><text fill="#000000" font-family="sans-serif" font-size="11" lengthAdjust="spacingAndGlyphs" textLength="328" x="269" y="454.0854">doCrossover(Chromosome, Chromosome): Chromosome</text><ellipse cx="260" cy="464.582" fill="#84BE84" rx="3" ry="3" style="stroke: #038048; stroke-width: 1.0;"/><text fill="#000000" font-family="sans-serif" font-size="11" lengthAdjust="spacingAndGlyphs" text-decoration="underline" textLength="109" x="269" y="466.8901">main(String[]): void</text></a><!--class algo.genetic.Chromosome--><a href="Chromosome.html" target="_top" xlink:actuate="onRequest" xlink:show="new" xlink:title="Chromosome.html" xlink:type="simple"><rect fill="#FEFECE" filter="url(#fnlvsu07o6o55)" height="163.2422" id="algo.genetic.Chromosome" style="stroke: #A80036; stroke-width: 1.5;" width="237" x="516.5" y="612"/><ellipse cx="589.75" cy="628" fill="#ADD1B2" rx="11" ry="11" style="stroke: #A80036; stroke-width: 1.0;"/><path d="M592.7188,633.6406 Q592.1406,633.9375 591.5,634.0781 Q590.8594,634.2344 590.1563,634.2344 Q587.6563,634.2344 586.3281,632.5938 Q585.0156,630.9375 585.0156,627.8125 Q585.0156,624.6875 586.3281,623.0313 Q587.6563,621.375 590.1563,621.375 Q590.8594,621.375 591.5,621.5313 Q592.1563,621.6875 592.7188,621.9844 L592.7188,624.7031 Q592.0938,624.125 591.5,623.8594 Q590.9063,623.5781 590.2813,623.5781 Q588.9375,623.5781 588.25,624.6563 Q587.5625,625.7188 587.5625,627.8125 Q587.5625,629.9063 588.25,630.9844 Q588.9375,632.0469 590.2813,632.0469 Q590.9063,632.0469 591.5,631.7813 Q592.0938,631.5 592.7188,630.9219 L592.7188,633.6406 Z "/><text fill="#000000" font-family="sans-serif" font-size="12" lengthAdjust="spacingAndGlyphs" textLength="82" x="610.25" y="632.1543">Chromosome</text><line style="stroke: #A80036; stroke-width: 1.5;" x1="517.5" x2="752.5" y1="644" y2="644"/><rect fill="none" height="6" style="stroke: #C82930; stroke-width: 1.0;" width="6" x="524.5" y="652.9023"/><text fill="#000000" font-family="sans-serif" font-size="11" lengthAdjust="spacingAndGlyphs" textLength="115" x="536.5" y="658.2104">clients: List&lt;Client&gt;</text><rect fill="none" height="6" style="stroke: #C82930; stroke-width: 1.0;" width="6" x="524.5" y="665.707"/><text fill="#000000" font-family="sans-serif" font-size="11" lengthAdjust="spacingAndGlyphs" textLength="104" x="536.5" y="671.0151">instance: Instance</text><line style="stroke: #A80036; stroke-width: 1.5;" x1="517.5" x2="752.5" y1="677.6094" y2="677.6094"/><ellipse cx="527.5" cy="689.5117" fill="#84BE84" rx="3" ry="3" style="stroke: #038048; stroke-width: 1.0;"/><text fill="#000000" font-family="sans-serif" font-size="11" lengthAdjust="spacingAndGlyphs" textLength="85" x="536.5" y="691.8198">Chromosome()</text><ellipse cx="527.5" cy="702.3164" fill="#84BE84" rx="3" ry="3" style="stroke: #038048; stroke-width: 1.0;"/><text fill="#000000" font-family="sans-serif" font-size="11" lengthAdjust="spacingAndGlyphs" textLength="133" x="536.5" y="704.6245">Chromosome(Instance)</text><ellipse cx="527.5" cy="715.1211" fill="#84BE84" rx="3" ry="3" style="stroke: #038048; stroke-width: 1.0;"/><text fill="#000000" font-family="sans-serif" font-size="11" lengthAdjust="spacingAndGlyphs" textLength="162" x="536.5" y="717.4292">Chromosome(Chromosome)</text><polygon fill="#4177AF" points="527.5,723.9258,523.5,729.9258,531.5,729.9258" style="stroke: #1963A0; stroke-width: 1.0;"/><text fill="#000000" font-family="sans-serif" font-size="11" lengthAdjust="spacingAndGlyphs" textLength="211" x="536.5" y="730.2339">Chromosome(Instance, List&lt;Client&gt;)</text><ellipse cx="527.5" cy="740.7305" fill="#84BE84" rx="3" ry="3" style="stroke: #038048; stroke-width: 1.0;"/><text fill="#000000" font-family="sans-serif" font-size="11" lengthAdjust="spacingAndGlyphs" textLength="143" x="536.5" y="743.0386">getClients(): List&lt;Client&gt;</text><ellipse cx="527.5" cy="753.5352" fill="#84BE84" rx="3" ry="3" style="stroke: #038048; stroke-width: 1.0;"/><text fill="#000000" font-family="sans-serif" font-size="11" lengthAdjust="spacingAndGlyphs" textLength="130" x="536.5" y="755.8433">getInstance(): Instance</text><ellipse cx="527.5" cy="766.3398" fill="#84BE84" rx="3" ry="3" style="stroke: #038048; stroke-width: 1.0;"/><text fill="#000000" font-family="sans-serif" font-size="11" lengthAdjust="spacingAndGlyphs" textLength="137" x="536.5" y="768.6479">generateTournee(): void</text></a><!--class algo.genetic.Tournee--><a href="Tournee.html" target="_top" xlink:actuate="onRequest" xlink:show="new" xlink:title="Tournee.html" xlink:type="simple"><rect fill="#FEFECE" filter="url(#fnlvsu07o6o55)" height="214.4609" id="algo.genetic.Tournee" style="stroke: #A80036; stroke-width: 1.5;" width="205" x="532.5" y="914"/><ellipse cx="604.75" cy="930" fill="#ADD1B2" rx="11" ry="11" style="stroke: #A80036; stroke-width: 1.0;"/><path d="M607.7188,935.6406 Q607.1406,935.9375 606.5,936.0781 Q605.8594,936.2344 605.1563,936.2344 Q602.6563,936.2344 601.3281,934.5938 Q600.0156,932.9375 600.0156,929.8125 Q600.0156,926.6875 601.3281,925.0313 Q602.6563,923.375 605.1563,923.375 Q605.8594,923.375 606.5,923.5313 Q607.1563,923.6875 607.7188,923.9844 L607.7188,926.7031 Q607.0938,926.125 606.5,925.8594 Q605.9063,925.5781 605.2813,925.5781 Q603.9375,925.5781 603.25,926.6563 Q602.5625,927.7188 602.5625,929.8125 Q602.5625,931.9063 603.25,932.9844 Q603.9375,934.0469 605.2813,934.0469 Q605.9063,934.0469 606.5,933.7813 Q607.0938,933.5 607.7188,932.9219 L607.7188,935.6406 Z "/><text fill="#000000" font-family="sans-serif" font-size="12" lengthAdjust="spacingAndGlyphs" textLength="52" x="625.25" y="934.1543">Tournee</text><line style="stroke: #A80036; stroke-width: 1.5;" x1="533.5" x2="736.5" y1="946" y2="946"/><rect fill="none" height="6" style="stroke: #C82930; stroke-width: 1.0;" width="6" x="540.5" y="954.9023"/><text fill="#000000" font-family="sans-serif" font-size="11" lengthAdjust="spacingAndGlyphs" textLength="70" x="552.5" y="960.2104">cost: double</text><rect fill="none" height="6" style="stroke: #C82930; stroke-width: 1.0;" width="6" x="540.5" y="967.707"/><text fill="#000000" font-family="sans-serif" font-size="11" lengthAdjust="spacingAndGlyphs" textLength="83" x="552.5" y="973.0151">nbVehicule: int</text><rect fill="none" height="6" style="stroke: #C82930; stroke-width: 1.0;" width="6" x="540.5" y="980.5117"/><text fill="#000000" font-family="sans-serif" font-size="11" lengthAdjust="spacingAndGlyphs" textLength="146" x="552.5" y="985.8198">costExtraVehicule: double</text><line style="stroke: #A80036; stroke-width: 1.5;" x1="533.5" x2="736.5" y1="992.4141" y2="992.4141"/><ellipse cx="543.5" cy="1004.3164" fill="#84BE84" rx="3" ry="3" style="stroke: #038048; stroke-width: 1.0;"/><text fill="#000000" font-family="sans-serif" font-size="11" lengthAdjust="spacingAndGlyphs" textLength="115" x="552.5" y="1006.6245">Tournee(int, double)</text><ellipse cx="543.5" cy="1017.1211" fill="#84BE84" rx="3" ry="3" style="stroke: #038048; stroke-width: 1.0;"/><text fill="#000000" font-family="sans-serif" font-size="11" lengthAdjust="spacingAndGlyphs" textLength="140" x="552.5" y="1019.4292">Tournee(Label, Tournee)</text><ellipse cx="543.5" cy="1029.9258" fill="#84BE84" rx="3" ry="3" style="stroke: #038048; stroke-width: 1.0;"/><text fill="#000000" font-family="sans-serif" font-size="11" lengthAdjust="spacingAndGlyphs" textLength="102" x="552.5" y="1032.2339">Tournee(Tournee)</text><ellipse cx="543.5" cy="1042.7305" fill="#84BE84" rx="3" ry="3" style="stroke: #038048; stroke-width: 1.0;"/><text fill="#000000" font-family="sans-serif" font-size="11" lengthAdjust="spacingAndGlyphs" textLength="179" x="552.5" y="1045.0386">Tournee(BestLabel, int, double)</text><rect fill="#F24D5C" height="6" style="stroke: #C82930; stroke-width: 1.0;" width="6" x="540.5" y="1052.5352"/><text fill="#000000" font-family="sans-serif" font-size="11" lengthAdjust="spacingAndGlyphs" textLength="104" x="552.5" y="1057.8433">updateCost(): void</text><ellipse cx="543.5" cy="1068.3398" fill="#84BE84" rx="3" ry="3" style="stroke: #038048; stroke-width: 1.0;"/><text fill="#000000" font-family="sans-serif" font-size="11" lengthAdjust="spacingAndGlyphs" textLength="98" x="552.5" y="1070.6479">getCost(): double</text><ellipse cx="543.5" cy="1081.1445" fill="#84BE84" rx="3" ry="3" style="stroke: #038048; stroke-width: 1.0;"/><text fill="#000000" font-family="sans-serif" font-size="11" lengthAdjust="spacingAndGlyphs" textLength="120" x="552.5" y="1083.4526">addLabel(Label): void</text><ellipse cx="543.5" cy="1093.9492" fill="#84BE84" rx="3" ry="3" style="stroke: #038048; stroke-width: 1.0;"/><text fill="#000000" font-family="sans-serif" font-size="11" lengthAdjust="spacingAndGlyphs" textLength="165" x="552.5" y="1096.2573">addLabels(List&lt;Label&gt;): void</text><ellipse cx="543.5" cy="1106.7539" fill="#84BE84" rx="3" ry="3" style="stroke: #038048; stroke-width: 1.0;"/><text fill="#000000" font-family="sans-serif" font-size="11" lengthAdjust="spacingAndGlyphs" textLength="110" x="552.5" y="1109.062">getNbVehicule(): int</text><ellipse cx="543.5" cy="1119.5586" fill="#84BE84" rx="3" ry="3" style="stroke: #038048; stroke-width: 1.0;"/><text fill="#000000" font-family="sans-serif" font-size="11" lengthAdjust="spacingAndGlyphs" textLength="174" x="552.5" y="1121.8667">getCostExtraVehicule(): double</text></a><!--class algo.genetic.BestLabel--><a href="BestLabel.html" target="_top" xlink:actuate="onRequest" xlink:show="new" xlink:title="BestLabel.html" xlink:type="simple"><rect fill="#FEFECE" filter="url(#fnlvsu07o6o55)" height="112.0234" id="algo.genetic.BestLabel" style="stroke: #A80036; stroke-width: 1.5;" width="184" x="313" y="965"/><ellipse cx="370.25" cy="981" fill="#ADD1B2" rx="11" ry="11" style="stroke: #A80036; stroke-width: 1.0;"/><path d="M373.2188,986.6406 Q372.6406,986.9375 372,987.0781 Q371.3594,987.2344 370.6563,987.2344 Q368.1563,987.2344 366.8281,985.5938 Q365.5156,983.9375 365.5156,980.8125 Q365.5156,977.6875 366.8281,976.0313 Q368.1563,974.375 370.6563,974.375 Q371.3594,974.375 372,974.5313 Q372.6563,974.6875 373.2188,974.9844 L373.2188,977.7031 Q372.5938,977.125 372,976.8594 Q371.4063,976.5781 370.7813,976.5781 Q369.4375,976.5781 368.75,977.6563 Q368.0625,978.7188 368.0625,980.8125 Q368.0625,982.9063 368.75,983.9844 Q369.4375,985.0469 370.7813,985.0469 Q371.4063,985.0469 372,984.7813 Q372.5938,984.5 373.2188,983.9219 L373.2188,986.6406 Z "/><text fill="#000000" font-family="sans-serif" font-size="12" lengthAdjust="spacingAndGlyphs" textLength="61" x="390.75" y="985.1543">BestLabel</text><line style="stroke: #A80036; stroke-width: 1.5;" x1="314" x2="496" y1="997" y2="997"/><rect fill="none" height="6" style="stroke: #C82930; stroke-width: 1.0;" width="6" x="321" y="1005.9023"/><text fill="#000000" font-family="sans-serif" font-size="11" lengthAdjust="spacingAndGlyphs" textLength="70" x="333" y="1011.2104">cost: double</text><line style="stroke: #A80036; stroke-width: 1.5;" x1="314" x2="496" y1="1017.8047" y2="1017.8047"/><ellipse cx="324" cy="1029.707" fill="#84BE84" rx="3" ry="3" style="stroke: #038048; stroke-width: 1.0;"/><text fill="#000000" font-family="sans-serif" font-size="11" lengthAdjust="spacingAndGlyphs" textLength="64" x="333" y="1032.0151">BestLabel()</text><ellipse cx="324" cy="1042.5117" fill="#84BE84" rx="3" ry="3" style="stroke: #038048; stroke-width: 1.0;"/><text fill="#000000" font-family="sans-serif" font-size="11" lengthAdjust="spacingAndGlyphs" textLength="94" x="333" y="1044.8198">BestLabel(Label)</text><ellipse cx="324" cy="1055.3164" fill="#84BE84" rx="3" ry="3" style="stroke: #038048; stroke-width: 1.0;"/><text fill="#000000" font-family="sans-serif" font-size="11" lengthAdjust="spacingAndGlyphs" textLength="158" x="333" y="1057.6245">BestLabel(Label, BestLabel)</text><ellipse cx="324" cy="1068.1211" fill="#84BE84" rx="3" ry="3" style="stroke: #038048; stroke-width: 1.0;"/><text fill="#000000" font-family="sans-serif" font-size="11" lengthAdjust="spacingAndGlyphs" textLength="98" x="333" y="1070.4292">getCost(): double</text></a><!--class algo.genetic.ClientLabels--><a href="ClientLabels.html" target="_top" xlink:actuate="onRequest" xlink:show="new" xlink:title="ClientLabels.html" xlink:type="simple"><rect fill="#FEFECE" filter="url(#fnlvsu07o6o55)" height="112.0234" id="algo.genetic.ClientLabels" style="stroke: #A80036; stroke-width: 1.5;" width="191" x="86.5" y="965"/><ellipse cx="140.25" cy="981" fill="#ADD1B2" rx="11" ry="11" style="stroke: #A80036; stroke-width: 1.0;"/><path d="M143.2188,986.6406 Q142.6406,986.9375 142,987.0781 Q141.3594,987.2344 140.6563,987.2344 Q138.1563,987.2344 136.8281,985.5938 Q135.5156,983.9375 135.5156,980.8125 Q135.5156,977.6875 136.8281,976.0313 Q138.1563,974.375 140.6563,974.375 Q141.3594,974.375 142,974.5313 Q142.6563,974.6875 143.2188,974.9844 L143.2188,977.7031 Q142.5938,977.125 142,976.8594 Q141.4063,976.5781 140.7813,976.5781 Q139.4375,976.5781 138.75,977.6563 Q138.0625,978.7188 138.0625,980.8125 Q138.0625,982.9063 138.75,983.9844 Q139.4375,985.0469 140.7813,985.0469 Q141.4063,985.0469 142,984.7813 Q142.5938,984.5 143.2188,983.9219 L143.2188,986.6406 Z "/><text fill="#000000" font-family="sans-serif" font-size="12" lengthAdjust="spacingAndGlyphs" textLength="75" x="160.75" y="985.1543">ClientLabels</text><line style="stroke: #A80036; stroke-width: 1.5;" x1="87.5" x2="276.5" y1="997" y2="997"/><rect fill="none" height="6" style="stroke: #C82930; stroke-width: 1.0;" width="6" x="94.5" y="1005.9023"/><text fill="#000000" font-family="sans-serif" font-size="11" lengthAdjust="spacingAndGlyphs" textLength="67" x="106.5" y="1011.2104">clientNb: int</text><line style="stroke: #A80036; stroke-width: 1.5;" x1="87.5" x2="276.5" y1="1017.8047" y2="1017.8047"/><ellipse cx="97.5" cy="1029.707" fill="#84BE84" rx="3" ry="3" style="stroke: #038048; stroke-width: 1.0;"/><text fill="#000000" font-family="sans-serif" font-size="11" lengthAdjust="spacingAndGlyphs" textLength="91" x="106.5" y="1032.0151">ClientLabels(int)</text><ellipse cx="97.5" cy="1042.5117" fill="#84BE84" rx="3" ry="3" style="stroke: #038048; stroke-width: 1.0;"/><text fill="#000000" font-family="sans-serif" font-size="11" lengthAdjust="spacingAndGlyphs" textLength="95" x="106.5" y="1044.8198">getClientNb(): int</text><ellipse cx="97.5" cy="1055.3164" fill="#84BE84" rx="3" ry="3" style="stroke: #038048; stroke-width: 1.0;"/><text fill="#000000" font-family="sans-serif" font-size="11" lengthAdjust="spacingAndGlyphs" textLength="165" x="106.5" y="1057.6245">addLabels(List&lt;Label&gt;): void</text><ellipse cx="97.5" cy="1068.1211" fill="#84BE84" rx="3" ry="3" style="stroke: #038048; stroke-width: 1.0;"/><text fill="#000000" font-family="sans-serif" font-size="11" lengthAdjust="spacingAndGlyphs" textLength="120" x="106.5" y="1070.4292">addLabel(Label): void</text></a><!--class algo.genetic.Label--><a href="Label.html" target="_top" xlink:actuate="onRequest" xlink:show="new" xlink:title="Label.html" xlink:type="simple"><rect fill="#FEFECE" filter="url(#fnlvsu07o6o55)" height="252.875" id="algo.genetic.Label" style="stroke: #A80036; stroke-width: 1.5;" width="354" x="202" y="1267"/><ellipse cx="358.25" cy="1283" fill="#ADD1B2" rx="11" ry="11" style="stroke: #A80036; stroke-width: 1.0;"/><path d="M361.2188,1288.6406 Q360.6406,1288.9375 360,1289.0781 Q359.3594,1289.2344 358.6563,1289.2344 Q356.1563,1289.2344 354.8281,1287.5938 Q353.5156,1285.9375 353.5156,1282.8125 Q353.5156,1279.6875 354.8281,1278.0313 Q356.1563,1276.375 358.6563,1276.375 Q359.3594,1276.375 360,1276.5313 Q360.6563,1276.6875 361.2188,1276.9844 L361.2188,1279.7031 Q360.5938,1279.125 360,1278.8594 Q359.4063,1278.5781 358.7813,1278.5781 Q357.4375,1278.5781 356.75,1279.6563 Q356.0625,1280.7188 356.0625,1282.8125 Q356.0625,1284.9063 356.75,1285.9844 Q357.4375,1287.0469 358.7813,1287.0469 Q359.4063,1287.0469 360,1286.7813 Q360.5938,1286.5 361.2188,1285.9219 L361.2188,1288.6406 Z "/><text fill="#000000" font-family="sans-serif" font-size="12" lengthAdjust="spacingAndGlyphs" textLength="33" x="378.75" y="1287.1543">Label</text><line style="stroke: #A80036; stroke-width: 1.5;" x1="203" x2="555" y1="1299" y2="1299"/><rect fill="none" height="6" style="stroke: #C82930; stroke-width: 1.0;" width="6" x="210" y="1307.9023"/><text fill="#000000" font-family="sans-serif" font-size="11" lengthAdjust="spacingAndGlyphs" textLength="46" x="222" y="1313.2104">load: int</text><rect fill="none" height="6" style="stroke: #C82930; stroke-width: 1.0;" width="6" x="210" y="1320.707"/><text fill="#000000" font-family="sans-serif" font-size="11" lengthAdjust="spacingAndGlyphs" textLength="70" x="222" y="1326.0151">cost: double</text><rect fill="none" height="6" style="stroke: #C82930; stroke-width: 1.0;" width="6" x="210" y="1333.5117"/><text fill="#000000" font-family="sans-serif" font-size="11" lengthAdjust="spacingAndGlyphs" textLength="47" x="222" y="1338.8198">time: int</text><rect fill="none" height="6" style="stroke: #C82930; stroke-width: 1.0;" width="6" x="210" y="1346.3164"/><text fill="#000000" font-family="sans-serif" font-size="11" lengthAdjust="spacingAndGlyphs" textLength="162" x="222" y="1351.6245">emplacement: Emplacement</text><rect fill="none" height="6" style="stroke: #C82930; stroke-width: 1.0;" width="6" x="210" y="1359.1211"/><text fill="#000000" font-family="sans-serif" font-size="11" lengthAdjust="spacingAndGlyphs" textLength="187" x="222" y="1364.4292">precedents: List&lt;Emplacement&gt;</text><rect fill="none" height="6" style="stroke: #C82930; stroke-width: 1.0;" width="6" x="210" y="1371.9258"/><text fill="#000000" font-family="sans-serif" font-size="11" lengthAdjust="spacingAndGlyphs" textLength="171" x="222" y="1377.2339">suivants: List&lt;Emplacement&gt;</text><line style="stroke: #A80036; stroke-width: 1.5;" x1="203" x2="555" y1="1383.8281" y2="1383.8281"/><ellipse cx="213" cy="1395.7305" fill="#84BE84" rx="3" ry="3" style="stroke: #038048; stroke-width: 1.0;"/><text fill="#000000" font-family="sans-serif" font-size="11" lengthAdjust="spacingAndGlyphs" textLength="205" x="222" y="1398.0386">Label(int, double, int, Emplacement)</text><ellipse cx="213" cy="1408.5352" fill="#84BE84" rx="3" ry="3" style="stroke: #038048; stroke-width: 1.0;"/><text fill="#000000" font-family="sans-serif" font-size="11" lengthAdjust="spacingAndGlyphs" textLength="290" x="222" y="1410.8433">Label(int, double, int, Emplacement, Emplacement)</text><ellipse cx="213" cy="1421.3398" fill="#84BE84" rx="3" ry="3" style="stroke: #038048; stroke-width: 1.0;"/><text fill="#000000" font-family="sans-serif" font-size="11" lengthAdjust="spacingAndGlyphs" textLength="328" x="222" y="1423.6479">Label(int, double, int, Emplacement, List&lt;Emplacement&gt;)</text><ellipse cx="213" cy="1434.1445" fill="#84BE84" rx="3" ry="3" style="stroke: #038048; stroke-width: 1.0;"/><text fill="#000000" font-family="sans-serif" font-size="11" lengthAdjust="spacingAndGlyphs" textLength="75" x="222" y="1436.4526">getLoad(): int</text><ellipse cx="213" cy="1446.9492" fill="#84BE84" rx="3" ry="3" style="stroke: #038048; stroke-width: 1.0;"/><text fill="#000000" font-family="sans-serif" font-size="11" lengthAdjust="spacingAndGlyphs" textLength="98" x="222" y="1449.2573">getCost(): double</text><ellipse cx="213" cy="1459.7539" fill="#84BE84" rx="3" ry="3" style="stroke: #038048; stroke-width: 1.0;"/><text fill="#000000" font-family="sans-serif" font-size="11" lengthAdjust="spacingAndGlyphs" textLength="76" x="222" y="1462.062">getTime(): int</text><ellipse cx="213" cy="1472.5586" fill="#84BE84" rx="3" ry="3" style="stroke: #038048; stroke-width: 1.0;"/><text fill="#000000" font-family="sans-serif" font-size="11" lengthAdjust="spacingAndGlyphs" textLength="188" x="222" y="1474.8667">getEmplacement(): Emplacement</text><ellipse cx="213" cy="1485.3633" fill="#84BE84" rx="3" ry="3" style="stroke: #038048; stroke-width: 1.0;"/><text fill="#000000" font-family="sans-serif" font-size="11" lengthAdjust="spacingAndGlyphs" textLength="213" x="222" y="1487.6714">getPrecedents(): List&lt;Emplacement&gt;</text><ellipse cx="213" cy="1498.168" fill="#84BE84" rx="3" ry="3" style="stroke: #038048; stroke-width: 1.0;"/><text fill="#000000" font-family="sans-serif" font-size="11" lengthAdjust="spacingAndGlyphs" textLength="194" x="222" y="1500.4761">addPrecedent(Emplacement): void</text><ellipse cx="213" cy="1510.9727" fill="#84BE84" rx="3" ry="3" style="stroke: #038048; stroke-width: 1.0;"/><text fill="#000000" font-family="sans-serif" font-size="11" lengthAdjust="spacingAndGlyphs" textLength="179" x="222" y="1513.2808">addSuivant(Emplacement): void</text></a><!--class algo.ISolver--><a href="../ISolver.html" target="_top" xlink:actuate="onRequest" xlink:show="new" xlink:title="../ISolver.html" xlink:type="simple"><rect fill="#FEFECE" filter="url(#fnlvsu07o6o55)" height="86.4141" id="algo.ISolver" style="stroke: #A80036; stroke-width: 1.5;" width="177" x="216.5" y="43"/><ellipse cx="279.75" cy="59" fill="#B4A7E5" rx="11" ry="11" style="stroke: #A80036; stroke-width: 1.0;"/><path d="M275.6719,54.7656 L275.6719,52.6094 L283.0625,52.6094 L283.0625,54.7656 L280.5938,54.7656 L280.5938,62.8438 L283.0625,62.8438 L283.0625,65 L275.6719,65 L275.6719,62.8438 L278.1406,62.8438 L278.1406,54.7656 L275.6719,54.7656 Z "/><text fill="#000000" font-family="sans-serif" font-size="12" font-style="italic" lengthAdjust="spacingAndGlyphs" textLength="42" x="300.25" y="63.1543">ISolver</text><line style="stroke: #A80036; stroke-width: 1.5;" x1="217.5" x2="392.5" y1="75" y2="75"/><line style="stroke: #A80036; stroke-width: 1.5;" x1="217.5" x2="392.5" y1="83" y2="83"/><ellipse cx="227.5" cy="94.9023" fill="#84BE84" rx="3" ry="3" style="stroke: #038048; stroke-width: 1.0;"/><text fill="#000000" font-family="sans-serif" font-size="11" font-style="italic" lengthAdjust="spacingAndGlyphs" textLength="128" x="236.5" y="97.2104">getInstance(): Instance</text><ellipse cx="227.5" cy="107.707" fill="#84BE84" rx="3" ry="3" style="stroke: #038048; stroke-width: 1.0;"/><text fill="#000000" font-family="sans-serif" font-size="11" font-style="italic" lengthAdjust="spacingAndGlyphs" textLength="151" x="236.5" y="110.0151">setInstance(Instance): void</text><ellipse cx="227.5" cy="120.5117" fill="#84BE84" rx="3" ry="3" style="stroke: #038048; stroke-width: 1.0;"/><text fill="#000000" font-family="sans-serif" font-size="11" font-style="italic" lengthAdjust="spacingAndGlyphs" textLength="91" x="236.5" y="122.8198">solve(): boolean</text></a><!--link algo.genetic.ShortestPathClients to algo.genetic.Chromosome--><path d="M794.702,428.9246 C761.2982,484.264 719.4933,553.5215 687.0348,607.2949 " fill="none" id="algo.genetic.ShortestPathClients-algo.genetic.Chromosome" style="stroke: #A80036; stroke-width: 1.0;"/><polygon fill="#A80036" points="684.3199,611.7926,692.3954,606.1546,686.9038,607.512,685.5464,602.0204,684.3199,611.7926" style="stroke: #A80036; stroke-width: 1.0;"/><text fill="#000000" font-family="sans-serif" font-size="13" lengthAdjust="spacingAndGlyphs" textLength="85" x="731" y="547.0669">chromosome</text><!--link algo.ISolver to algo.genetic.ShortestPathSolver--><path d="M251.3543,144.4817 C244.6861,152.2644 238.0814,160.238 232,168 C207.851,198.8227 183.012,234.449 162.7091,264.7761 " fill="none" id="algo.ISolver-algo.genetic.ShortestPathSolver" style="stroke: #A80036; stroke-width: 1.0; stroke-dasharray: 7.0,7.0;"/><polygon fill="none" points="246.1194,139.8341,264.5539,129.3855,256.6588,149.0494,246.1194,139.8341" style="stroke: #A80036; stroke-width: 1.0;"/><!--link algo.ISolver to algo.genetic.GeneticSolver--><path d="M334.9744,147.4352 C342.1178,162.0761 350.0305,178.2939 358.1219,194.8779 " fill="none" id="algo.ISolver-algo.genetic.GeneticSolver" style="stroke: #A80036; stroke-width: 1.0; stroke-dasharray: 7.0,7.0;"/><polygon fill="none" points="328.5554,150.2425,326.0766,129.1983,341.1377,144.1035,328.5554,150.2425" style="stroke: #A80036; stroke-width: 1.0;"/><!--link algo.genetic.GeneticSolver to algo.genetic.Chromosome--><path d="M535.4004,473.2384 C548.9004,493.1058 561.8491,513.6988 573,534 C585.5375,556.8256 596.7582,582.7201 606.0939,606.9057 " fill="none" id="algo.genetic.GeneticSolver-algo.genetic.Chromosome" style="stroke: #A80036; stroke-width: 1.0;"/><polygon fill="#A80036" points="607.9357,611.7187,608.4546,601.8835,606.1486,607.049,600.9831,604.7429,607.9357,611.7187" style="stroke: #A80036; stroke-width: 1.0;"/><text fill="#000000" font-family="sans-serif" font-size="13" lengthAdjust="spacingAndGlyphs" textLength="112" x="582" y="547.0669">chromosomePool</text><text fill="#000000" font-family="sans-serif" font-size="13" lengthAdjust="spacingAndGlyphs" textLength="7" x="598.2136" y="600.8291">*</text><!--link algo.genetic.GeneticSolver to algo.genetic.Chromosome--><path d="M406.4188,473.1337 C407.9359,500.1287 413.5016,527.3513 426,551 C445.0494,587.044 477.766,615.6854 511.7329,637.5533 " fill="none" id="algo.genetic.GeneticSolver-algo.genetic.Chromosome-1" style="stroke: #A80036; stroke-width: 1.0;"/><polygon fill="#A80036" points="516.3144,640.4579,510.855,632.2606,512.0915,637.7807,506.5715,639.0172,516.3144,640.4579" style="stroke: #A80036; stroke-width: 1.0;"/><text fill="#000000" font-family="sans-serif" font-size="13" lengthAdjust="spacingAndGlyphs" textLength="137" x="427" y="547.0669">randomChromosome</text><!--link algo.genetic.Chromosome to algo.genetic.Tournee--><path d="M635,775.2973 C635,815.7052 635,865.0838 635,908.9475 " fill="none" id="algo.genetic.Chromosome-algo.genetic.Tournee" style="stroke: #A80036; stroke-width: 1.0;"/><polygon fill="#A80036" points="635,913.9935,639,904.9935,635,908.9935,631,904.9935,635,913.9935" style="stroke: #A80036; stroke-width: 1.0;"/><text fill="#000000" font-family="sans-serif" font-size="13" lengthAdjust="spacingAndGlyphs" textLength="50" x="636" y="849.0669">tournee</text><!--link algo.genetic.Tournee to algo.genetic.Label--><path d="M561.2976,1128.2427 C532.4642,1170.1976 499.1185,1218.7182 468.8924,1262.6996 " fill="none" id="algo.genetic.Tournee-algo.genetic.Label" style="stroke: #A80036; stroke-width: 1.0;"/><polygon fill="#A80036" points="465.9772,1266.9413,474.3713,1261.7897,468.8092,1262.8206,467.7782,1257.2585,465.9772,1266.9413" style="stroke: #A80036; stroke-width: 1.0;"/><text fill="#000000" font-family="sans-serif" font-size="13" lengthAdjust="spacingAndGlyphs" textLength="50" x="519" y="1202.0669">tournee</text><text fill="#000000" font-family="sans-serif" font-size="13" lengthAdjust="spacingAndGlyphs" textLength="7" x="464.0641" y="1255.8468">*</text><!--link algo.genetic.BestLabel to algo.genetic.Label--><path d="M383.82,1077.233 C372.8222,1109.4389 360.5484,1150.9067 355,1189 C351.5848,1212.4476 351.5472,1237.4631 353.3671,1261.6625 " fill="none" id="algo.genetic.BestLabel-algo.genetic.Label" style="stroke: #A80036; stroke-width: 1.0;"/><polygon fill="#A80036" points="353.783,1266.8132,357.0454,1257.5204,353.3804,1261.8294,349.0714,1258.1645,353.783,1266.8132" style="stroke: #A80036; stroke-width: 1.0;"/><text fill="#000000" font-family="sans-serif" font-size="13" lengthAdjust="spacingAndGlyphs" textLength="30" x="356" y="1202.0669">label</text><!--link algo.genetic.BestLabel to algo.genetic.Label--><path d="M401.0794,1077.1703 C397.6781,1125.9002 392.6206,1198.3585 388.2039,1261.6363 " fill="none" id="algo.genetic.BestLabel-algo.genetic.Label-1" style="stroke: #A80036; stroke-width: 1.0;"/><polygon fill="#A80036" points="387.833,1266.9505,392.4502,1258.251,388.1813,1261.9626,384.4696,1257.6937,387.833,1266.9505" style="stroke: #A80036; stroke-width: 1.0;"/><text fill="#000000" font-family="sans-serif" font-size="13" lengthAdjust="spacingAndGlyphs" textLength="58" x="394" y="1202.0669">labelsPre</text><text fill="#000000" font-family="sans-serif" font-size="13" lengthAdjust="spacingAndGlyphs" textLength="7" x="381.158" y="1255.8566">*</text><!--link algo.genetic.ClientLabels to algo.genetic.Label--><path d="M211.7062,1077.1703 C237.5809,1126.0959 276.1057,1198.9409 309.6656,1262.3982 " fill="none" id="algo.genetic.ClientLabels-algo.genetic.Label" style="stroke: #A80036; stroke-width: 1.0;"/><polygon fill="#A80036" points="312.0731,1266.9505,311.4013,1257.1246,309.7355,1262.5306,304.3295,1260.8647,312.0731,1266.9505" style="stroke: #A80036; stroke-width: 1.0;"/><text fill="#000000" font-family="sans-serif" font-size="13" lengthAdjust="spacingAndGlyphs" textLength="37" x="280" y="1202.0669">labels</text><text fill="#000000" font-family="sans-serif" font-size="13" lengthAdjust="spacingAndGlyphs" textLength="7" x="300.7815" y="1255.8566">*</text><text fill="#888888" font-family="sans-serif" font-size="10" lengthAdjust="spacingAndGlyphs" textLength="186" x="457" y="1555.2822">UMLDoclet 2.0.3, PlantUML 1.2019.06</text><!--
@startuml
    namespace algo.genetic {

        class ShortestPathClients [[ShortestPathClients.html]] {
            -instance: Instance
            +ShortestPathClients()
            +ShortestPathClients(Instance)
            +ShortestPathClients(Instance, Chromosome)
            +findBestTournee(): Tournee
            +getBestTournee(Tournee, Tournee): Tournee
            -findShortestPath(double): Tournee
            -shouldReplaceCurrentLabel(BestLabel, BestLabel, double): boolean
            -findPartialShortestPath(Chromosome): Label
            -extendsPreviousLabels(Emplacement, ClientLabels, ClientLabels): void
            -getBestLabelFromClientLabels(ClientLabels): Label
        }

        class ShortestPathSolver [[ShortestPathSolver.html]] {
            {static} -LOGGER: Logger
            -instance: Instance
            +ShortestPathSolver()
            +ShortestPathSolver(Instance)
            +getInstance(): Instance
            +setInstance(Instance): void
            +solve(): boolean
        }

        class GeneticSolver [[GeneticSolver.html]] {
            {static} -LOGGER: Logger
            -instance: Instance
            -minCostSpace: int
            -maxIterations: int
            -maxIterationsWithoutImproving: int
            -mutationRate: double
            +GeneticSolver(int, int, int, double)
            +GeneticSolver(Instance, int, int, int, double)
            +GeneticSolver(Instance, int, int, double)
            +getInstance(): Instance
            +setInstance(Instance): void
            +solve(): boolean
            -geneticSolve(): void
            -generateChromosomePool(): void
            -sortChromosomePool(): void
            -isChromosomePoolDuplicates(Chromosome): boolean
            -doCrossover(Chromosome, Chromosome): Chromosome
            {static} +main(String[]): void
        }

        class Chromosome [[Chromosome.html]] {
            -clients: List<Client>
            -instance: Instance
            +Chromosome()
            +Chromosome(Instance)
            +Chromosome(Chromosome)
            ~Chromosome(Instance, List<Client>)
            +getClients(): List<Client>
            +getInstance(): Instance
            +generateTournee(): void
        }

        class Tournee [[Tournee.html]] {
            -cost: double
            -nbVehicule: int
            -costExtraVehicule: double
            +Tournee(int, double)
            +Tournee(Label, Tournee)
            +Tournee(Tournee)
            +Tournee(BestLabel, int, double)
            -updateCost(): void
            +getCost(): double
            +addLabel(Label): void
            +addLabels(List<Label>): void
            +getNbVehicule(): int
            +getCostExtraVehicule(): double
        }

        class BestLabel [[BestLabel.html]] {
            -cost: double
            +BestLabel()
            +BestLabel(Label)
            +BestLabel(Label, BestLabel)
            +getCost(): double
        }

        class ClientLabels [[ClientLabels.html]] {
            -clientNb: int
            +ClientLabels(int)
            +getClientNb(): int
            +addLabels(List<Label>): void
            +addLabel(Label): void
        }

        class Label [[Label.html]] {
            -load: int
            -cost: double
            -time: int
            -emplacement: Emplacement
            -precedents: List<Emplacement>
            -suivants: List<Emplacement>
            +Label(int, double, int, Emplacement)
            +Label(int, double, int, Emplacement, Emplacement)
            +Label(int, double, int, Emplacement, List<Emplacement>)
            +getLoad(): int
            +getCost(): double
            +getTime(): int
            +getEmplacement(): Emplacement
            +getPrecedents(): List<Emplacement>
            +addPrecedent(Emplacement): void
            +addSuivant(Emplacement): void
        }

        ShortestPathClients - -> Chromosome: chromosome
        algo.ISolver <|.. ShortestPathSolver
        algo.ISolver <|.. GeneticSolver
        GeneticSolver - -> "*" Chromosome: chromosomePool
        GeneticSolver - -> Chromosome: randomChromosome
        Chromosome - -> Tournee: tournee
        Tournee - -> "*" Label: tournee
        BestLabel - -> Label: label
        BestLabel - -> "*" Label: labelsPre
        ClientLabels - -> "*" Label: labels
    }

    namespace algo {
        interface ISolver [[../ISolver.html]] {
            {abstract} +getInstance(): Instance
            {abstract} +setInstance(Instance): void
            {abstract} +solve(): boolean
        }
    }

    center footer UMLDoclet 2.0.3, PlantUML 1.2019.06
@enduml

PlantUML version 1.2019.06(Fri May 24 19:10:25 CEST 2019)
(APACHE source distribution)
Java Runtime: OpenJDK Runtime Environment
JVM: OpenJDK 64-Bit Server VM
Java Version: 11.0.4+4-post-Debian-1
Operating System: Linux
OS Version: 4.19.0-5-amd64
Default Encoding: UTF-8
Language: fr
Country: FR
--></g></svg>