<?xml version="1.0" encoding="UTF-8" standalone="no"?><svg xmlns="http://www.w3.org/2000/svg" xmlns:xlink="http://www.w3.org/1999/xlink" contentScriptType="application/ecmascript" contentStyleType="text/css" height="328px" preserveAspectRatio="none" style="width:213px;height:328px;" version="1.1" viewBox="0 0 213 328" width="213px" zoomAndPan="magnify"><defs><filter height="300%" id="f1r8dmei3wth3c" width="300%" x="-1" y="-1"><feGaussianBlur result="blurOut" stdDeviation="2.0"/><feColorMatrix in="blurOut" result="blurOut2" type="matrix" values="0 0 0 0 0 0 0 0 0 0 0 0 0 0 0 0 0 0 .4 0"/><feOffset dx="4.0" dy="4.0" in="blurOut2" result="blurOut3"/><feBlend in="SourceGraphic" in2="blurOut3" mode="normal"/></filter></defs><g><!--class algo.genetic.ShortestPathSolver--><a href="ShortestPathSolver.html" target="_top" xlink:actuate="onRequest" xlink:show="new" xlink:title="ShortestPathSolver.html" xlink:type="simple"><rect fill="#FEFECE" filter="url(#f1r8dmei3wth3c)" height="143.5703" id="algo.genetic.ShortestPathSolver" style="stroke: #A80036; stroke-width: 1.5;" width="192" x="6" y="152"/><ellipse cx="33.6" cy="170.9688" fill="#ADD1B2" rx="11" ry="11" style="stroke: #A80036; stroke-width: 1.0;"/><path d="M36.5688,176.6094 Q35.9906,176.9063 35.35,177.0469 Q34.7094,177.2031 34.0063,177.2031 Q31.5063,177.2031 30.1781,175.5625 Q28.8656,173.9063 28.8656,170.7813 Q28.8656,167.6563 30.1781,166 Q31.5063,164.3438 34.0063,164.3438 Q34.7094,164.3438 35.35,164.5 Q36.0063,164.6563 36.5688,164.9531 L36.5688,167.6719 Q35.9438,167.0938 35.35,166.8281 Q34.7563,166.5469 34.1313,166.5469 Q32.7875,166.5469 32.1,167.625 Q31.4125,168.6875 31.4125,170.7813 Q31.4125,172.875 32.1,173.9531 Q32.7875,175.0156 34.1313,175.0156 Q34.7563,175.0156 35.35,174.75 Q35.9438,174.4688 36.5688,173.8906 L36.5688,176.6094 Z "/><text fill="#000000" font-family="sans-serif" font-size="14" lengthAdjust="spacingAndGlyphs" textLength="132" x="50.4" y="169.9951">ShortestPathSolver</text><text fill="#000000" font-family="sans-serif" font-size="10" lengthAdjust="spacingAndGlyphs" textLength="58" x="87.4" y="182.5791">algo.genetic</text><line style="stroke: #A80036; stroke-width: 1.5;" x1="7" x2="197" y1="189.9375" y2="189.9375"/><rect fill="none" height="6" style="stroke: #C82930; stroke-width: 1.0;" width="6" x="14" y="198.8398"/><text fill="#000000" font-family="sans-serif" font-size="11" lengthAdjust="spacingAndGlyphs" text-decoration="underline" textLength="94" x="26" y="204.1479">LOGGER: Logger</text><rect fill="none" height="6" style="stroke: #C82930; stroke-width: 1.0;" width="6" x="14" y="211.6445"/><text fill="#000000" font-family="sans-serif" font-size="11" lengthAdjust="spacingAndGlyphs" textLength="104" x="26" y="216.9526">instance: Instance</text><line style="stroke: #A80036; stroke-width: 1.5;" x1="7" x2="197" y1="223.5469" y2="223.5469"/><ellipse cx="17" cy="235.4492" fill="#84BE84" rx="3" ry="3" style="stroke: #038048; stroke-width: 1.0;"/><text fill="#000000" font-family="sans-serif" font-size="11" lengthAdjust="spacingAndGlyphs" textLength="118" x="26" y="237.7573">ShortestPathSolver()</text><ellipse cx="17" cy="248.2539" fill="#84BE84" rx="3" ry="3" style="stroke: #038048; stroke-width: 1.0;"/><text fill="#000000" font-family="sans-serif" font-size="11" lengthAdjust="spacingAndGlyphs" textLength="166" x="26" y="250.562">ShortestPathSolver(Instance)</text><ellipse cx="17" cy="261.0586" fill="#84BE84" rx="3" ry="3" style="stroke: #038048; stroke-width: 1.0;"/><text fill="#000000" font-family="sans-serif" font-size="11" lengthAdjust="spacingAndGlyphs" textLength="130" x="26" y="263.3667">getInstance(): Instance</text><ellipse cx="17" cy="273.8633" fill="#84BE84" rx="3" ry="3" style="stroke: #038048; stroke-width: 1.0;"/><text fill="#000000" font-family="sans-serif" font-size="11" lengthAdjust="spacingAndGlyphs" textLength="153" x="26" y="276.1714">setInstance(Instance): void</text><ellipse cx="17" cy="286.668" fill="#84BE84" rx="3" ry="3" style="stroke: #038048; stroke-width: 1.0;"/><text fill="#000000" font-family="sans-serif" font-size="11" lengthAdjust="spacingAndGlyphs" textLength="91" x="26" y="288.9761">solve(): boolean</text></a><!--class algo.ISolver--><a href="../ISolver.html" target="_top" xlink:actuate="onRequest" xlink:show="new" xlink:title="../ISolver.html" xlink:type="simple"><rect fill="#FEFECE" filter="url(#f1r8dmei3wth3c)" height="84.3516" id="algo.ISolver" style="stroke: #A80036; stroke-width: 1.5;" width="177" x="13.5" y="8"/><ellipse cx="74.25" cy="26.9688" fill="#B4A7E5" rx="11" ry="11" style="stroke: #A80036; stroke-width: 1.0;"/><path d="M70.1719,22.7344 L70.1719,20.5781 L77.5625,20.5781 L77.5625,22.7344 L75.0938,22.7344 L75.0938,30.8125 L77.5625,30.8125 L77.5625,32.9688 L70.1719,32.9688 L70.1719,30.8125 L72.6406,30.8125 L72.6406,22.7344 L70.1719,22.7344 Z "/><text fill="#000000" font-family="sans-serif" font-size="14" font-style="italic" lengthAdjust="spacingAndGlyphs" textLength="47" x="94.75" y="25.9951">ISolver</text><text fill="#000000" font-family="sans-serif" font-size="10" font-style="italic" lengthAdjust="spacingAndGlyphs" textLength="21" x="107.75" y="38.5791">algo</text><line style="stroke: #A80036; stroke-width: 1.5;" x1="14.5" x2="189.5" y1="45.9375" y2="45.9375"/><ellipse cx="24.5" cy="57.8398" fill="#84BE84" rx="3" ry="3" style="stroke: #038048; stroke-width: 1.0;"/><text fill="#000000" font-family="sans-serif" font-size="11" font-style="italic" lengthAdjust="spacingAndGlyphs" textLength="128" x="33.5" y="60.1479">getInstance(): Instance</text><ellipse cx="24.5" cy="70.6445" fill="#84BE84" rx="3" ry="3" style="stroke: #038048; stroke-width: 1.0;"/><text fill="#000000" font-family="sans-serif" font-size="11" font-style="italic" lengthAdjust="spacingAndGlyphs" textLength="151" x="33.5" y="72.9526">setInstance(Instance): void</text><ellipse cx="24.5" cy="83.4492" fill="#84BE84" rx="3" ry="3" style="stroke: #038048; stroke-width: 1.0;"/><text fill="#000000" font-family="sans-serif" font-size="11" font-style="italic" lengthAdjust="spacingAndGlyphs" textLength="91" x="33.5" y="85.7573">solve(): boolean</text></a><!--link algo.ISolver to algo.genetic.ShortestPathSolver--><path d="M102,112.5617 C102,125.2585 102,138.711 102,151.7121 " fill="none" id="algo.ISolver-algo.genetic.ShortestPathSolver" style="stroke: #A80036; stroke-width: 1.0; stroke-dasharray: 7.0,7.0;"/><polygon fill="none" points="95.0001,112.1206,102,92.1205,109.0001,112.1205,95.0001,112.1206" style="stroke: #A80036; stroke-width: 1.0;"/><text fill="#888888" font-family="sans-serif" font-size="10" lengthAdjust="spacingAndGlyphs" textLength="186" x="15" y="315.2822">UMLDoclet 2.0.3, PlantUML 1.2019.06</text><!--
@startuml
    set namespaceSeparator none
    hide empty fields
    hide empty methods

    class "<size:14>ShortestPathSolver\n<size:10>algo.genetic" as algo.genetic.ShortestPathSolver [[ShortestPathSolver.html]] {
        {static} -LOGGER: Logger
        -instance: Instance
        +ShortestPathSolver()
        +ShortestPathSolver(Instance)
        +getInstance(): Instance
        +setInstance(Instance): void
        +solve(): boolean
    }

    interface "<size:14>ISolver\n<size:10>algo" as algo.ISolver [[../ISolver.html]] {
        {abstract} +getInstance(): Instance
        {abstract} +setInstance(Instance): void
        {abstract} +solve(): boolean
    }

    algo.ISolver <|.. algo.genetic.ShortestPathSolver

    center footer UMLDoclet 2.0.3, PlantUML 1.2019.06
@enduml

PlantUML version 1.2019.06(Fri May 24 19:10:25 CEST 2019)
(APACHE source distribution)
Java Runtime: OpenJDK Runtime Environment
JVM: OpenJDK 64-Bit Server VM
Java Version: 11.0.4+4-post-Debian-1
Operating System: Linux
OS Version: 4.19.0-5-amd64
Default Encoding: UTF-8
Language: fr
Country: FR
--></g></svg>