<?xml version="1.0" encoding="UTF-8" standalone="no"?><svg xmlns="http://www.w3.org/2000/svg" xmlns:xlink="http://www.w3.org/1999/xlink" contentScriptType="application/ecmascript" contentStyleType="text/css" height="132px" preserveAspectRatio="none" style="width:198px;height:132px;" version="1.1" viewBox="0 0 198 132" width="198px" zoomAndPan="magnify"><defs><filter height="300%" id="f96dapbykd9lu" width="300%" x="-1" y="-1"><feGaussianBlur result="blurOut" stdDeviation="2.0"/><feColorMatrix in="blurOut" result="blurOut2" type="matrix" values="0 0 0 0 0 0 0 0 0 0 0 0 0 0 0 0 0 0 .4 0"/><feOffset dx="4.0" dy="4.0" in="blurOut2" result="blurOut3"/><feBlend in="SourceGraphic" in2="blurOut3" mode="normal"/></filter></defs><g><!--class main.Gui--><a href="Gui.html" target="_top" xlink:actuate="onRequest" xlink:show="new" xlink:title="Gui.html" xlink:type="simple"><rect fill="#FEFECE" filter="url(#f96dapbykd9lu)" height="92.3516" id="main.Gui" style="stroke: #A80036; stroke-width: 1.5;" width="135" x="19.5" y="8"/><ellipse cx="70.75" cy="26.9688" fill="#ADD1B2" rx="11" ry="11" style="stroke: #A80036; stroke-width: 1.0;"/><path d="M73.7188,32.6094 Q73.1406,32.9063 72.5,33.0469 Q71.8594,33.2031 71.1563,33.2031 Q68.6563,33.2031 67.3281,31.5625 Q66.0156,29.9063 66.0156,26.7813 Q66.0156,23.6563 67.3281,22 Q68.6563,20.3438 71.1563,20.3438 Q71.8594,20.3438 72.5,20.5 Q73.1563,20.6563 73.7188,20.9531 L73.7188,23.6719 Q73.0938,23.0938 72.5,22.8281 Q71.9063,22.5469 71.2813,22.5469 Q69.9375,22.5469 69.25,23.625 Q68.5625,24.6875 68.5625,26.7813 Q68.5625,28.875 69.25,29.9531 Q69.9375,31.0156 71.2813,31.0156 Q71.9063,31.0156 72.5,30.75 Q73.0938,30.4688 73.7188,29.8906 L73.7188,32.6094 Z "/><text fill="#000000" font-family="sans-serif" font-size="14" lengthAdjust="spacingAndGlyphs" textLength="23" x="91.75" y="25.9951">Gui</text><text fill="#000000" font-family="sans-serif" font-size="10" lengthAdjust="spacingAndGlyphs" textLength="24" x="91.25" y="38.5791">main</text><line style="stroke: #A80036; stroke-width: 1.5;" x1="20.5" x2="153.5" y1="45.9375" y2="45.9375"/><rect fill="none" height="6" style="stroke: #C82930; stroke-width: 1.0;" width="6" x="27.5" y="54.8398"/><text fill="#000000" font-family="sans-serif" font-size="11" lengthAdjust="spacingAndGlyphs" text-decoration="underline" textLength="94" x="39.5" y="60.1479">LOGGER: Logger</text><line style="stroke: #A80036; stroke-width: 1.5;" x1="20.5" x2="153.5" y1="66.7422" y2="66.7422"/><ellipse cx="30.5" cy="78.6445" fill="#84BE84" rx="3" ry="3" style="stroke: #038048; stroke-width: 1.0;"/><text fill="#000000" font-family="sans-serif" font-size="11" lengthAdjust="spacingAndGlyphs" text-decoration="underline" textLength="109" x="39.5" y="80.9526">main(String[]): void</text><ellipse cx="30.5" cy="91.4492" fill="#84BE84" rx="3" ry="3" style="stroke: #038048; stroke-width: 1.0;"/><text fill="#000000" font-family="sans-serif" font-size="11" lengthAdjust="spacingAndGlyphs" textLength="69" x="39.5" y="93.7573">show(): void</text></a><text fill="#888888" font-family="sans-serif" font-size="10" lengthAdjust="spacingAndGlyphs" textLength="186" x="0" y="119.2822">UMLDoclet 2.0.3, PlantUML 1.2019.06</text><!--
@startuml
    set namespaceSeparator none
    hide empty fields
    hide empty methods

    class "<size:14>Gui\n<size:10>main" as main.Gui [[Gui.html]] {
        {static} -LOGGER: Logger
        {static} +main(String[]): void
        +show(): void
    }

    center footer UMLDoclet 2.0.3, PlantUML 1.2019.06
@enduml

PlantUML version 1.2019.06(Fri May 24 19:10:25 CEST 2019)
(APACHE source distribution)
Java Runtime: OpenJDK Runtime Environment
JVM: OpenJDK 64-Bit Server VM
Java Version: 11.0.4+4-post-Debian-1
Operating System: Linux
OS Version: 4.19.0-5-amd64
Default Encoding: UTF-8
Language: fr
Country: FR
--></g></svg>