<?xml version="1.0" encoding="UTF-8" standalone="no"?><svg xmlns="http://www.w3.org/2000/svg" xmlns:xlink="http://www.w3.org/1999/xlink" contentScriptType="application/ecmascript" contentStyleType="text/css" height="451px" preserveAspectRatio="none" style="width:749px;height:451px;" version="1.1" viewBox="0 0 749 451" width="749px" zoomAndPan="magnify"><defs><filter height="300%" id="fr1kegd9uxakz" width="300%" x="-1" y="-1"><feGaussianBlur result="blurOut" stdDeviation="2.0"/><feColorMatrix in="blurOut" result="blurOut2" type="matrix" values="0 0 0 0 0 0 0 0 0 0 0 0 0 0 0 0 0 0 .4 0"/><feOffset dx="4.0" dy="4.0" in="blurOut2" result="blurOut3"/><feBlend in="SourceGraphic" in2="blurOut3" mode="normal"/></filter></defs><g><!--cluster main--><polygon fill="#FFFFFF" filter="url(#fr1kegd9uxakz)" points="14,16,57,16,64,38.2969,727,38.2969,727,411,14,411,14,16" style="stroke: #000000; stroke-width: 1.5;"/><line style="stroke: #000000; stroke-width: 1.5;" x1="14" x2="64" y1="38.2969" y2="38.2969"/><text fill="#000000" font-family="sans-serif" font-size="14" font-weight="bold" lengthAdjust="spacingAndGlyphs" textLength="37" x="18" y="30.9951">main</text><!--class main.PopulateDatabase--><a href="PopulateDatabase.html" target="_top" xlink:actuate="onRequest" xlink:show="new" xlink:title="PopulateDatabase.html" xlink:type="simple"><rect fill="#FEFECE" filter="url(#fr1kegd9uxakz)" height="176.0469" id="main.PopulateDatabase" style="stroke: #A80036; stroke-width: 1.5;" width="289" x="21.5" y="62"/><ellipse cx="103.25" cy="78" fill="#ADD1B2" rx="11" ry="11" style="stroke: #A80036; stroke-width: 1.0;"/><path d="M106.2188,83.6406 Q105.6406,83.9375 105,84.0781 Q104.3594,84.2344 103.6563,84.2344 Q101.1563,84.2344 99.8281,82.5938 Q98.5156,80.9375 98.5156,77.8125 Q98.5156,74.6875 99.8281,73.0313 Q101.1563,71.375 103.6563,71.375 Q104.3594,71.375 105,71.5313 Q105.6563,71.6875 106.2188,71.9844 L106.2188,74.7031 Q105.5938,74.125 105,73.8594 Q104.4063,73.5781 103.7813,73.5781 Q102.4375,73.5781 101.75,74.6563 Q101.0625,75.7188 101.0625,77.8125 Q101.0625,79.9063 101.75,80.9844 Q102.4375,82.0469 103.7813,82.0469 Q104.4063,82.0469 105,81.7813 Q105.5938,81.5 106.2188,80.9219 L106.2188,83.6406 Z "/><text fill="#000000" font-family="sans-serif" font-size="12" lengthAdjust="spacingAndGlyphs" textLength="117" x="123.75" y="82.1543">PopulateDatabase</text><line style="stroke: #A80036; stroke-width: 1.5;" x1="22.5" x2="309.5" y1="94" y2="94"/><rect fill="none" height="6" style="stroke: #C82930; stroke-width: 1.0;" width="6" x="29.5" y="102.9023"/><text fill="#000000" font-family="sans-serif" font-size="11" lengthAdjust="spacingAndGlyphs" text-decoration="underline" textLength="94" x="41.5" y="108.2104">LOGGER: Logger</text><rect fill="none" height="6" style="stroke: #C82930; stroke-width: 1.0;" width="6" x="29.5" y="115.707"/><text fill="#000000" font-family="sans-serif" font-size="11" lengthAdjust="spacingAndGlyphs" text-decoration="underline" textLength="91" x="41.5" y="121.0151">PS: PrintStream</text><rect fill="none" height="6" style="stroke: #C82930; stroke-width: 1.0;" width="6" x="29.5" y="128.5117"/><text fill="#000000" font-family="sans-serif" font-size="11" lengthAdjust="spacingAndGlyphs" text-decoration="underline" textLength="263" x="41.5" y="133.8198">JAR_INSTANCE_RR: JarInstanceResourceReader</text><rect fill="none" height="6" style="stroke: #C82930; stroke-width: 1.0;" width="6" x="29.5" y="141.3164"/><text fill="#000000" font-family="sans-serif" font-size="11" lengthAdjust="spacingAndGlyphs" textLength="127" x="41.5" y="146.6245">ifp: InstanceFileParser</text><rect fill="none" height="6" style="stroke: #C82930; stroke-width: 1.0;" width="6" x="29.5" y="154.1211"/><text fill="#000000" font-family="sans-serif" font-size="11" lengthAdjust="spacingAndGlyphs" textLength="133" x="41.5" y="159.4292">daoFactory: DaoFactory</text><line style="stroke: #A80036; stroke-width: 1.5;" x1="22.5" x2="309.5" y1="166.0234" y2="166.0234"/><ellipse cx="32.5" cy="177.9258" fill="#84BE84" rx="3" ry="3" style="stroke: #038048; stroke-width: 1.0;"/><text fill="#000000" font-family="sans-serif" font-size="11" lengthAdjust="spacingAndGlyphs" textLength="69" x="41.5" y="180.2339">clean(): void</text><ellipse cx="32.5" cy="190.7305" fill="#84BE84" rx="3" ry="3" style="stroke: #038048; stroke-width: 1.0;"/><text fill="#000000" font-family="sans-serif" font-size="11" lengthAdjust="spacingAndGlyphs" textLength="88" x="41.5" y="193.0386">populate(): void</text><ellipse cx="32.5" cy="203.5352" fill="#84BE84" rx="3" ry="3" style="stroke: #038048; stroke-width: 1.0;"/><text fill="#000000" font-family="sans-serif" font-size="11" lengthAdjust="spacingAndGlyphs" textLength="102" x="41.5" y="205.8433">populate(int): void</text><rect fill="#F24D5C" height="6" style="stroke: #C82930; stroke-width: 1.0;" width="6" x="29.5" y="213.3398"/><text fill="#000000" font-family="sans-serif" font-size="11" lengthAdjust="spacingAndGlyphs" textLength="90" x="41.5" y="218.6479">printHelp(): void</text><ellipse cx="32.5" cy="229.1445" fill="#84BE84" rx="3" ry="3" style="stroke: #038048; stroke-width: 1.0;"/><text fill="#000000" font-family="sans-serif" font-size="11" lengthAdjust="spacingAndGlyphs" text-decoration="underline" textLength="109" x="41.5" y="231.4526">main(String[]): void</text></a><!--class main.Cli--><a href="Cli.html" target="_top" xlink:actuate="onRequest" xlink:show="new" xlink:title="Cli.html" xlink:type="simple"><rect fill="#FEFECE" filter="url(#fr1kegd9uxakz)" height="214.4609" id="main.Cli" style="stroke: #A80036; stroke-width: 1.5;" width="374" x="345" y="43"/><ellipse cx="520.75" cy="59" fill="#ADD1B2" rx="11" ry="11" style="stroke: #A80036; stroke-width: 1.0;"/><path d="M523.7188,64.6406 Q523.1406,64.9375 522.5,65.0781 Q521.8594,65.2344 521.1563,65.2344 Q518.6563,65.2344 517.3281,63.5938 Q516.0156,61.9375 516.0156,58.8125 Q516.0156,55.6875 517.3281,54.0313 Q518.6563,52.375 521.1563,52.375 Q521.8594,52.375 522.5,52.5313 Q523.1563,52.6875 523.7188,52.9844 L523.7188,55.7031 Q523.0938,55.125 522.5,54.8594 Q521.9063,54.5781 521.2813,54.5781 Q519.9375,54.5781 519.25,55.6563 Q518.5625,56.7188 518.5625,58.8125 Q518.5625,60.9063 519.25,61.9844 Q519.9375,63.0469 521.2813,63.0469 Q521.9063,63.0469 522.5,62.7813 Q523.0938,62.5 523.7188,61.9219 L523.7188,64.6406 Z "/><text fill="#000000" font-family="sans-serif" font-size="12" lengthAdjust="spacingAndGlyphs" textLength="14" x="541.25" y="63.1543">Cli</text><line style="stroke: #A80036; stroke-width: 1.5;" x1="346" x2="718" y1="75" y2="75"/><rect fill="none" height="6" style="stroke: #C82930; stroke-width: 1.0;" width="6" x="353" y="83.9023"/><text fill="#000000" font-family="sans-serif" font-size="11" lengthAdjust="spacingAndGlyphs" text-decoration="underline" textLength="94" x="365" y="89.2104">LOGGER: Logger</text><rect fill="none" height="6" style="stroke: #C82930; stroke-width: 1.0;" width="6" x="353" y="96.707"/><text fill="#000000" font-family="sans-serif" font-size="11" lengthAdjust="spacingAndGlyphs" text-decoration="underline" textLength="137" x="365" y="102.0151">SOLVERS: List&lt;ISolver&gt;</text><rect fill="none" height="6" style="stroke: #C82930; stroke-width: 1.0;" width="6" x="353" y="109.5117"/><text fill="#000000" font-family="sans-serif" font-size="11" lengthAdjust="spacingAndGlyphs" text-decoration="underline" textLength="91" x="365" y="114.8198">PS: PrintStream</text><rect fill="none" height="6" style="stroke: #C82930; stroke-width: 1.0;" width="6" x="353" y="122.3164"/><text fill="#000000" font-family="sans-serif" font-size="11" lengthAdjust="spacingAndGlyphs" text-decoration="underline" textLength="263" x="365" y="127.6245">JAR_INSTANCE_RR: JarInstanceResourceReader</text><rect fill="none" height="6" style="stroke: #C82930; stroke-width: 1.0;" width="6" x="353" y="135.1211"/><text fill="#000000" font-family="sans-serif" font-size="11" lengthAdjust="spacingAndGlyphs" text-decoration="underline" textLength="104" x="365" y="140.4292">SW: SolutionWriter</text><rect fill="none" height="6" style="stroke: #C82930; stroke-width: 1.0;" width="6" x="353" y="147.9258"/><text fill="#000000" font-family="sans-serif" font-size="11" lengthAdjust="spacingAndGlyphs" textLength="127" x="365" y="153.2339">ifp: InstanceFileParser</text><line style="stroke: #A80036; stroke-width: 1.5;" x1="346" x2="718" y1="159.8281" y2="159.8281"/><rect fill="#F24D5C" height="6" style="stroke: #C82930; stroke-width: 1.0;" width="6" x="353" y="168.7305"/><text fill="#000000" font-family="sans-serif" font-size="11" lengthAdjust="spacingAndGlyphs" textLength="90" x="365" y="174.0386">printHelp(): void</text><rect fill="#F24D5C" height="6" style="stroke: #C82930; stroke-width: 1.0;" width="6" x="353" y="181.5352"/><text fill="#000000" font-family="sans-serif" font-size="11" lengthAdjust="spacingAndGlyphs" textLength="279" x="365" y="186.8433">printCostSummary(ISolver, List&lt;Instance&gt;): void</text><rect fill="#F24D5C" height="6" style="stroke: #C82930; stroke-width: 1.0;" width="6" x="353" y="194.3398"/><text fill="#000000" font-family="sans-serif" font-size="11" lengthAdjust="spacingAndGlyphs" textLength="198" x="365" y="199.6479">runAllInstancesOnAllSolvers(): void</text><rect fill="#F24D5C" height="6" style="stroke: #C82930; stroke-width: 1.0;" width="6" x="353" y="207.1445"/><text fill="#000000" font-family="sans-serif" font-size="11" lengthAdjust="spacingAndGlyphs" textLength="240" x="365" y="212.4526">runAllInstancesOnOneSolver(ISolver): void</text><rect fill="#F24D5C" height="6" style="stroke: #C82930; stroke-width: 1.0;" width="6" x="353" y="219.9492"/><text fill="#000000" font-family="sans-serif" font-size="11" lengthAdjust="spacingAndGlyphs" textLength="348" x="365" y="225.2573">runOneInstancesOnOneSolver(ISolver, Instance, String): void</text><ellipse cx="356" cy="235.7539" fill="#84BE84" rx="3" ry="3" style="stroke: #038048; stroke-width: 1.0;"/><text fill="#000000" font-family="sans-serif" font-size="11" lengthAdjust="spacingAndGlyphs" text-decoration="underline" textLength="109" x="365" y="238.062">main(String[]): void</text><rect fill="#F24D5C" height="6" style="stroke: #C82930; stroke-width: 1.0;" width="6" x="353" y="245.5586"/><text fill="#000000" font-family="sans-serif" font-size="11" lengthAdjust="spacingAndGlyphs" text-decoration="underline" textLength="216" x="365" y="250.8667">defineSolutionFilename(String): String</text></a><!--class main.Gui--><a href="Gui.html" target="_top" xlink:actuate="onRequest" xlink:show="new" xlink:title="Gui.html" xlink:type="simple"><rect fill="#FEFECE" filter="url(#fr1kegd9uxakz)" height="86.4141" id="main.Gui" style="stroke: #A80036; stroke-width: 1.5;" width="135" x="98.5" y="317"/><ellipse cx="151.75" cy="333" fill="#ADD1B2" rx="11" ry="11" style="stroke: #A80036; stroke-width: 1.0;"/><path d="M154.7188,338.6406 Q154.1406,338.9375 153.5,339.0781 Q152.8594,339.2344 152.1563,339.2344 Q149.6563,339.2344 148.3281,337.5938 Q147.0156,335.9375 147.0156,332.8125 Q147.0156,329.6875 148.3281,328.0313 Q149.6563,326.375 152.1563,326.375 Q152.8594,326.375 153.5,326.5313 Q154.1563,326.6875 154.7188,326.9844 L154.7188,329.7031 Q154.0938,329.125 153.5,328.8594 Q152.9063,328.5781 152.2813,328.5781 Q150.9375,328.5781 150.25,329.6563 Q149.5625,330.7188 149.5625,332.8125 Q149.5625,334.9063 150.25,335.9844 Q150.9375,337.0469 152.2813,337.0469 Q152.9063,337.0469 153.5,336.7813 Q154.0938,336.5 154.7188,335.9219 L154.7188,338.6406 Z "/><text fill="#000000" font-family="sans-serif" font-size="12" lengthAdjust="spacingAndGlyphs" textLength="20" x="172.25" y="337.1543">Gui</text><line style="stroke: #A80036; stroke-width: 1.5;" x1="99.5" x2="232.5" y1="349" y2="349"/><rect fill="none" height="6" style="stroke: #C82930; stroke-width: 1.0;" width="6" x="106.5" y="357.9023"/><text fill="#000000" font-family="sans-serif" font-size="11" lengthAdjust="spacingAndGlyphs" text-decoration="underline" textLength="94" x="118.5" y="363.2104">LOGGER: Logger</text><line style="stroke: #A80036; stroke-width: 1.5;" x1="99.5" x2="232.5" y1="369.8047" y2="369.8047"/><ellipse cx="109.5" cy="381.707" fill="#84BE84" rx="3" ry="3" style="stroke: #038048; stroke-width: 1.0;"/><text fill="#000000" font-family="sans-serif" font-size="11" lengthAdjust="spacingAndGlyphs" text-decoration="underline" textLength="109" x="118.5" y="384.0151">main(String[]): void</text><ellipse cx="109.5" cy="394.5117" fill="#84BE84" rx="3" ry="3" style="stroke: #038048; stroke-width: 1.0;"/><text fill="#000000" font-family="sans-serif" font-size="11" lengthAdjust="spacingAndGlyphs" textLength="69" x="118.5" y="396.8198">show(): void</text></a><!--link main.PopulateDatabase to main.Cli--><!--link main.PopulateDatabase to main.Gui--><text fill="#888888" font-family="sans-serif" font-size="10" lengthAdjust="spacingAndGlyphs" textLength="186" x="283.5" y="438.2822">UMLDoclet 2.0.3, PlantUML 1.2019.06</text><!--
@startuml
    namespace main {

        class PopulateDatabase [[PopulateDatabase.html]] {
            {static} -LOGGER: Logger
            {static} -PS: PrintStream
            {static} -JAR_INSTANCE_RR: JarInstanceResourceReader
            -ifp: InstanceFileParser
            -daoFactory: DaoFactory
            +clean(): void
            +populate(): void
            +populate(int): void
            -printHelp(): void
            {static} +main(String[]): void
        }

        class Cli [[Cli.html]] {
            {static} -LOGGER: Logger
            {static} -SOLVERS: List<ISolver>
            {static} -PS: PrintStream
            {static} -JAR_INSTANCE_RR: JarInstanceResourceReader
            {static} -SW: SolutionWriter
            -ifp: InstanceFileParser
            -printHelp(): void
            -printCostSummary(ISolver, List<Instance>): void
            -runAllInstancesOnAllSolvers(): void
            -runAllInstancesOnOneSolver(ISolver): void
            -runOneInstancesOnOneSolver(ISolver, Instance, String): void
            {static} +main(String[]): void
            {static} -defineSolutionFilename(String): String
        }

        class Gui [[Gui.html]] {
            {static} -LOGGER: Logger
            {static} +main(String[]): void
            +show(): void
        }

    }

    center footer UMLDoclet 2.0.3, PlantUML 1.2019.06
@enduml

PlantUML version 1.2019.06(Fri May 24 19:10:25 CEST 2019)
(APACHE source distribution)
Java Runtime: OpenJDK Runtime Environment
JVM: OpenJDK 64-Bit Server VM
Java Version: 11.0.4+4-post-Debian-1
Operating System: Linux
OS Version: 4.19.0-5-amd64
Default Encoding: UTF-8
Language: fr
Country: FR
--></g></svg>