<?xml version="1.0" encoding="UTF-8" standalone="no"?><svg xmlns="http://www.w3.org/2000/svg" xmlns:xlink="http://www.w3.org/1999/xlink" contentScriptType="application/ecmascript" contentStyleType="text/css" height="222px" preserveAspectRatio="none" style="width:306px;height:222px;" version="1.1" viewBox="0 0 306 222" width="306px" zoomAndPan="magnify"><defs><filter height="300%" id="fcyt3y7llui22" width="300%" x="-1" y="-1"><feGaussianBlur result="blurOut" stdDeviation="2.0"/><feColorMatrix in="blurOut" result="blurOut2" type="matrix" values="0 0 0 0 0 0 0 0 0 0 0 0 0 0 0 0 0 0 .4 0"/><feOffset dx="4.0" dy="4.0" in="blurOut2" result="blurOut3"/><feBlend in="SourceGraphic" in2="blurOut3" mode="normal"/></filter></defs><g><!--class main.PopulateDatabase--><a href="PopulateDatabase.html" target="_top" xlink:actuate="onRequest" xlink:show="new" xlink:title="PopulateDatabase.html" xlink:type="simple"><rect fill="#FEFECE" filter="url(#fcyt3y7llui22)" height="181.9844" id="main.PopulateDatabase" style="stroke: #A80036; stroke-width: 1.5;" width="289" x="6" y="8"/><ellipse cx="82.75" cy="26.9688" fill="#ADD1B2" rx="11" ry="11" style="stroke: #A80036; stroke-width: 1.0;"/><path d="M85.7188,32.6094 Q85.1406,32.9063 84.5,33.0469 Q83.8594,33.2031 83.1563,33.2031 Q80.6563,33.2031 79.3281,31.5625 Q78.0156,29.9063 78.0156,26.7813 Q78.0156,23.6563 79.3281,22 Q80.6563,20.3438 83.1563,20.3438 Q83.8594,20.3438 84.5,20.5 Q85.1563,20.6563 85.7188,20.9531 L85.7188,23.6719 Q85.0938,23.0938 84.5,22.8281 Q83.9063,22.5469 83.2813,22.5469 Q81.9375,22.5469 81.25,23.625 Q80.5625,24.6875 80.5625,26.7813 Q80.5625,28.875 81.25,29.9531 Q81.9375,31.0156 83.2813,31.0156 Q83.9063,31.0156 84.5,30.75 Q85.0938,30.4688 85.7188,29.8906 L85.7188,32.6094 Z "/><text fill="#000000" font-family="sans-serif" font-size="14" lengthAdjust="spacingAndGlyphs" textLength="127" x="103.25" y="25.9951">PopulateDatabase</text><text fill="#000000" font-family="sans-serif" font-size="10" lengthAdjust="spacingAndGlyphs" textLength="24" x="154.75" y="38.5791">main</text><line style="stroke: #A80036; stroke-width: 1.5;" x1="7" x2="294" y1="45.9375" y2="45.9375"/><rect fill="none" height="6" style="stroke: #C82930; stroke-width: 1.0;" width="6" x="14" y="54.8398"/><text fill="#000000" font-family="sans-serif" font-size="11" lengthAdjust="spacingAndGlyphs" text-decoration="underline" textLength="94" x="26" y="60.1479">LOGGER: Logger</text><rect fill="none" height="6" style="stroke: #C82930; stroke-width: 1.0;" width="6" x="14" y="67.6445"/><text fill="#000000" font-family="sans-serif" font-size="11" lengthAdjust="spacingAndGlyphs" text-decoration="underline" textLength="91" x="26" y="72.9526">PS: PrintStream</text><rect fill="none" height="6" style="stroke: #C82930; stroke-width: 1.0;" width="6" x="14" y="80.4492"/><text fill="#000000" font-family="sans-serif" font-size="11" lengthAdjust="spacingAndGlyphs" text-decoration="underline" textLength="263" x="26" y="85.7573">JAR_INSTANCE_RR: JarInstanceResourceReader</text><rect fill="none" height="6" style="stroke: #C82930; stroke-width: 1.0;" width="6" x="14" y="93.2539"/><text fill="#000000" font-family="sans-serif" font-size="11" lengthAdjust="spacingAndGlyphs" textLength="127" x="26" y="98.562">ifp: InstanceFileParser</text><rect fill="none" height="6" style="stroke: #C82930; stroke-width: 1.0;" width="6" x="14" y="106.0586"/><text fill="#000000" font-family="sans-serif" font-size="11" lengthAdjust="spacingAndGlyphs" textLength="133" x="26" y="111.3667">daoFactory: DaoFactory</text><line style="stroke: #A80036; stroke-width: 1.5;" x1="7" x2="294" y1="117.9609" y2="117.9609"/><ellipse cx="17" cy="129.8633" fill="#84BE84" rx="3" ry="3" style="stroke: #038048; stroke-width: 1.0;"/><text fill="#000000" font-family="sans-serif" font-size="11" lengthAdjust="spacingAndGlyphs" textLength="69" x="26" y="132.1714">clean(): void</text><ellipse cx="17" cy="142.668" fill="#84BE84" rx="3" ry="3" style="stroke: #038048; stroke-width: 1.0;"/><text fill="#000000" font-family="sans-serif" font-size="11" lengthAdjust="spacingAndGlyphs" textLength="88" x="26" y="144.9761">populate(): void</text><ellipse cx="17" cy="155.4727" fill="#84BE84" rx="3" ry="3" style="stroke: #038048; stroke-width: 1.0;"/><text fill="#000000" font-family="sans-serif" font-size="11" lengthAdjust="spacingAndGlyphs" textLength="102" x="26" y="157.7808">populate(int): void</text><rect fill="#F24D5C" height="6" style="stroke: #C82930; stroke-width: 1.0;" width="6" x="14" y="165.2773"/><text fill="#000000" font-family="sans-serif" font-size="11" lengthAdjust="spacingAndGlyphs" textLength="90" x="26" y="170.5854">printHelp(): void</text><ellipse cx="17" cy="181.082" fill="#84BE84" rx="3" ry="3" style="stroke: #038048; stroke-width: 1.0;"/><text fill="#000000" font-family="sans-serif" font-size="11" lengthAdjust="spacingAndGlyphs" text-decoration="underline" textLength="109" x="26" y="183.3901">main(String[]): void</text></a><text fill="#888888" font-family="sans-serif" font-size="10" lengthAdjust="spacingAndGlyphs" textLength="186" x="63.5" y="209.2822">UMLDoclet 2.0.3, PlantUML 1.2019.06</text><!--
@startuml
    set namespaceSeparator none
    hide empty fields
    hide empty methods

    class "<size:14>PopulateDatabase\n<size:10>main" as main.PopulateDatabase [[PopulateDatabase.html]] {
        {static} -LOGGER: Logger
        {static} -PS: PrintStream
        {static} -JAR_INSTANCE_RR: JarInstanceResourceReader
        -ifp: InstanceFileParser
        -daoFactory: DaoFactory
        +clean(): void
        +populate(): void
        +populate(int): void
        -printHelp(): void
        {static} +main(String[]): void
    }

    center footer UMLDoclet 2.0.3, PlantUML 1.2019.06
@enduml

PlantUML version 1.2019.06(Fri May 24 19:10:25 CEST 2019)
(APACHE source distribution)
Java Runtime: OpenJDK Runtime Environment
JVM: OpenJDK 64-Bit Server VM
Java Version: 11.0.4+4-post-Debian-1
Operating System: Linux
OS Version: 4.19.0-5-amd64
Default Encoding: UTF-8
Language: fr
Country: FR
--></g></svg>