<?xml version="1.0" encoding="UTF-8" standalone="no"?><svg xmlns="http://www.w3.org/2000/svg" xmlns:xlink="http://www.w3.org/1999/xlink" contentScriptType="application/ecmascript" contentStyleType="text/css" height="243px" preserveAspectRatio="none" style="width:261px;height:243px;" version="1.1" viewBox="0 0 261 243" width="261px" zoomAndPan="magnify"><defs><filter height="300%" id="feq2052c2hdpj" width="300%" x="-1" y="-1"><feGaussianBlur result="blurOut" stdDeviation="2.0"/><feColorMatrix in="blurOut" result="blurOut2" type="matrix" values="0 0 0 0 0 0 0 0 0 0 0 0 0 0 0 0 0 0 .4 0"/><feOffset dx="4.0" dy="4.0" in="blurOut2" result="blurOut3"/><feBlend in="SourceGraphic" in2="blurOut3" mode="normal"/></filter></defs><g><!--class algo.iterative.CvCostCapacitySortedSolver--><a href="CvCostCapacitySortedSolver.html" target="_top" xlink:actuate="onRequest" xlink:show="new" xlink:title="CvCostCapacitySortedSolver.html" xlink:type="simple"><rect fill="#FEFECE" filter="url(#feq2052c2hdpj)" height="105.1563" id="algo.iterative.CvCostCapacitySortedSolver" style="stroke: #A80036; stroke-width: 1.5;" width="244" x="6" y="106"/><ellipse cx="28.65" cy="124.9688" fill="#ADD1B2" rx="11" ry="11" style="stroke: #A80036; stroke-width: 1.0;"/><path d="M31.6188,130.6094 Q31.0406,130.9063 30.4,131.0469 Q29.7594,131.2031 29.0563,131.2031 Q26.5563,131.2031 25.2281,129.5625 Q23.9156,127.9063 23.9156,124.7813 Q23.9156,121.6563 25.2281,120 Q26.5563,118.3438 29.0563,118.3438 Q29.7594,118.3438 30.4,118.5 Q31.0563,118.6563 31.6188,118.9531 L31.6188,121.6719 Q30.9938,121.0938 30.4,120.8281 Q29.8063,120.5469 29.1813,120.5469 Q27.8375,120.5469 27.15,121.625 Q26.4625,122.6875 26.4625,124.7813 Q26.4625,126.875 27.15,127.9531 Q27.8375,129.0156 29.1813,129.0156 Q29.8063,129.0156 30.4,128.75 Q30.9938,128.4688 31.6188,127.8906 L31.6188,130.6094 Z "/><text fill="#000000" font-family="sans-serif" font-size="14" lengthAdjust="spacingAndGlyphs" textLength="195" x="44.35" y="123.9951">CvCostCapacitySortedSolver</text><text fill="#000000" font-family="sans-serif" font-size="10" lengthAdjust="spacingAndGlyphs" textLength="63" x="110.35" y="136.5791">algo.iterative</text><line style="stroke: #A80036; stroke-width: 1.5;" x1="7" x2="249" y1="143.9375" y2="143.9375"/><rect fill="none" height="6" style="stroke: #C82930; stroke-width: 1.0;" width="6" x="14" y="152.8398"/><text fill="#000000" font-family="sans-serif" font-size="11" lengthAdjust="spacingAndGlyphs" text-decoration="underline" textLength="120" x="26" y="158.1479">CM: Modifier&lt;Client&gt;</text><rect fill="none" height="6" style="stroke: #C82930; stroke-width: 1.0;" width="6" x="14" y="165.6445"/><text fill="#000000" font-family="sans-serif" font-size="11" lengthAdjust="spacingAndGlyphs" text-decoration="underline" textLength="134" x="26" y="170.9526">VM: Modifier&lt;Vehicule&gt;</text><line style="stroke: #A80036; stroke-width: 1.5;" x1="7" x2="249" y1="177.5469" y2="177.5469"/><ellipse cx="17" cy="189.4492" fill="#84BE84" rx="3" ry="3" style="stroke: #038048; stroke-width: 1.0;"/><text fill="#000000" font-family="sans-serif" font-size="11" lengthAdjust="spacingAndGlyphs" textLength="170" x="26" y="191.7573">CvCostCapacitySortedSolver()</text><ellipse cx="17" cy="202.2539" fill="#84BE84" rx="3" ry="3" style="stroke: #038048; stroke-width: 1.0;"/><text fill="#000000" font-family="sans-serif" font-size="11" lengthAdjust="spacingAndGlyphs" textLength="218" x="26" y="204.562">CvCostCapacitySortedSolver(Instance)</text></a><!--class algo.iterative.IterativeSolver--><a href="IterativeSolver.html" target="_top" xlink:actuate="onRequest" xlink:show="new" xlink:title="IterativeSolver.html" xlink:type="simple"><rect fill="#FEFECE" filter="url(#feq2052c2hdpj)" height="37.9375" id="algo.iterative.IterativeSolver" style="stroke: #A80036; stroke-width: 1.5;" width="128" x="64" y="8"/><ellipse cx="79" cy="26.9688" fill="#ADD1B2" rx="11" ry="11" style="stroke: #A80036; stroke-width: 1.0;"/><path d="M81.9688,32.6094 Q81.3906,32.9063 80.75,33.0469 Q80.1094,33.2031 79.4063,33.2031 Q76.9063,33.2031 75.5781,31.5625 Q74.2656,29.9063 74.2656,26.7813 Q74.2656,23.6563 75.5781,22 Q76.9063,20.3438 79.4063,20.3438 Q80.1094,20.3438 80.75,20.5 Q81.4063,20.6563 81.9688,20.9531 L81.9688,23.6719 Q81.3438,23.0938 80.75,22.8281 Q80.1563,22.5469 79.5313,22.5469 Q78.1875,22.5469 77.5,23.625 Q76.8125,24.6875 76.8125,26.7813 Q76.8125,28.875 77.5,29.9531 Q78.1875,31.0156 79.5313,31.0156 Q80.1563,31.0156 80.75,30.75 Q81.3438,30.4688 81.9688,29.8906 L81.9688,32.6094 Z "/><text fill="#000000" font-family="sans-serif" font-size="14" lengthAdjust="spacingAndGlyphs" textLength="96" x="93" y="25.9951">IterativeSolver</text><text fill="#000000" font-family="sans-serif" font-size="10" lengthAdjust="spacingAndGlyphs" textLength="63" x="109.5" y="38.5791">algo.iterative</text></a><!--link algo.iterative.IterativeSolver to algo.iterative.CvCostCapacitySortedSolver--><path d="M128,66.3406 C128,78.7439 128,92.651 128,105.8278 " fill="none" id="algo.iterative.IterativeSolver-algo.iterative.CvCostCapacitySortedSolver" style="stroke: #A80036; stroke-width: 1.0;"/><polygon fill="none" points="121.0001,66.1213,128,46.1212,135.0001,66.1212,121.0001,66.1213" style="stroke: #A80036; stroke-width: 1.0;"/><text fill="#888888" font-family="sans-serif" font-size="10" lengthAdjust="spacingAndGlyphs" textLength="186" x="41" y="230.2822">UMLDoclet 2.0.3, PlantUML 1.2019.06</text><!--
@startuml
    set namespaceSeparator none
    hide empty fields
    hide empty methods

    class "<size:14>CvCostCapacitySortedSolver\n<size:10>algo.iterative" as algo.iterative.CvCostCapacitySortedSolver [[CvCostCapacitySortedSolver.html]] {
        {static} -CM: Modifier<Client>
        {static} -VM: Modifier<Vehicule>
        +CvCostCapacitySortedSolver()
        +CvCostCapacitySortedSolver(Instance)
    }

    class "<size:14>IterativeSolver\n<size:10>algo.iterative" as algo.iterative.IterativeSolver [[IterativeSolver.html]]

    algo.iterative.IterativeSolver <|- - algo.iterative.CvCostCapacitySortedSolver

    center footer UMLDoclet 2.0.3, PlantUML 1.2019.06
@enduml

PlantUML version 1.2019.06(Fri May 24 19:10:25 CEST 2019)
(APACHE source distribution)
Java Runtime: OpenJDK Runtime Environment
JVM: OpenJDK 64-Bit Server VM
Java Version: 11.0.4+4-post-Debian-1
Operating System: Linux
OS Version: 4.19.0-5-amd64
Default Encoding: UTF-8
Language: fr
Country: FR
--></g></svg>