<?xml version="1.0" encoding="UTF-8" standalone="no"?><svg xmlns="http://www.w3.org/2000/svg" xmlns:xlink="http://www.w3.org/1999/xlink" contentScriptType="application/ecmascript" contentStyleType="text/css" height="243px" preserveAspectRatio="none" style="width:198px;height:243px;" version="1.1" viewBox="0 0 198 243" width="198px" zoomAndPan="magnify"><defs><filter height="300%" id="f1dpb4w9zw31c5" width="300%" x="-1" y="-1"><feGaussianBlur result="blurOut" stdDeviation="2.0"/><feColorMatrix in="blurOut" result="blurOut2" type="matrix" values="0 0 0 0 0 0 0 0 0 0 0 0 0 0 0 0 0 0 .4 0"/><feOffset dx="4.0" dy="4.0" in="blurOut2" result="blurOut3"/><feBlend in="SourceGraphic" in2="blurOut3" mode="normal"/></filter></defs><g><!--class algo.iterative.NaiveSolver--><a href="NaiveSolver.html" target="_top" xlink:actuate="onRequest" xlink:show="new" xlink:title="NaiveSolver.html" xlink:type="simple"><rect fill="#FEFECE" filter="url(#f1dpb4w9zw31c5)" height="105.1563" id="algo.iterative.NaiveSolver" style="stroke: #A80036; stroke-width: 1.5;" width="160" x="7" y="106"/><ellipse cx="44.05" cy="124.9688" fill="#ADD1B2" rx="11" ry="11" style="stroke: #A80036; stroke-width: 1.0;"/><path d="M47.0188,130.6094 Q46.4406,130.9063 45.8,131.0469 Q45.1594,131.2031 44.4563,131.2031 Q41.9563,131.2031 40.6281,129.5625 Q39.3156,127.9063 39.3156,124.7813 Q39.3156,121.6563 40.6281,120 Q41.9563,118.3438 44.4563,118.3438 Q45.1594,118.3438 45.8,118.5 Q46.4563,118.6563 47.0188,118.9531 L47.0188,121.6719 Q46.3938,121.0938 45.8,120.8281 Q45.2063,120.5469 44.5813,120.5469 Q43.2375,120.5469 42.55,121.625 Q41.8625,122.6875 41.8625,124.7813 Q41.8625,126.875 42.55,127.9531 Q43.2375,129.0156 44.5813,129.0156 Q45.2063,129.0156 45.8,128.75 Q46.3938,128.4688 47.0188,127.8906 L47.0188,130.6094 Z "/><text fill="#000000" font-family="sans-serif" font-size="14" lengthAdjust="spacingAndGlyphs" textLength="79" x="62.95" y="123.9951">NaiveSolver</text><text fill="#000000" font-family="sans-serif" font-size="10" lengthAdjust="spacingAndGlyphs" textLength="63" x="70.95" y="136.5791">algo.iterative</text><line style="stroke: #A80036; stroke-width: 1.5;" x1="8" x2="166" y1="143.9375" y2="143.9375"/><rect fill="none" height="6" style="stroke: #C82930; stroke-width: 1.0;" width="6" x="15" y="152.8398"/><text fill="#000000" font-family="sans-serif" font-size="11" lengthAdjust="spacingAndGlyphs" text-decoration="underline" textLength="120" x="27" y="158.1479">CM: Modifier&lt;Client&gt;</text><rect fill="none" height="6" style="stroke: #C82930; stroke-width: 1.0;" width="6" x="15" y="165.6445"/><text fill="#000000" font-family="sans-serif" font-size="11" lengthAdjust="spacingAndGlyphs" text-decoration="underline" textLength="134" x="27" y="170.9526">VM: Modifier&lt;Vehicule&gt;</text><line style="stroke: #A80036; stroke-width: 1.5;" x1="8" x2="166" y1="177.5469" y2="177.5469"/><ellipse cx="18" cy="189.4492" fill="#84BE84" rx="3" ry="3" style="stroke: #038048; stroke-width: 1.0;"/><text fill="#000000" font-family="sans-serif" font-size="11" lengthAdjust="spacingAndGlyphs" textLength="75" x="27" y="191.7573">NaiveSolver()</text><ellipse cx="18" cy="202.2539" fill="#84BE84" rx="3" ry="3" style="stroke: #038048; stroke-width: 1.0;"/><text fill="#000000" font-family="sans-serif" font-size="11" lengthAdjust="spacingAndGlyphs" textLength="123" x="27" y="204.562">NaiveSolver(Instance)</text></a><!--class algo.iterative.IterativeSolver--><a href="IterativeSolver.html" target="_top" xlink:actuate="onRequest" xlink:show="new" xlink:title="IterativeSolver.html" xlink:type="simple"><rect fill="#FEFECE" filter="url(#f1dpb4w9zw31c5)" height="37.9375" id="algo.iterative.IterativeSolver" style="stroke: #A80036; stroke-width: 1.5;" width="128" x="23" y="8"/><ellipse cx="38" cy="26.9688" fill="#ADD1B2" rx="11" ry="11" style="stroke: #A80036; stroke-width: 1.0;"/><path d="M40.9688,32.6094 Q40.3906,32.9063 39.75,33.0469 Q39.1094,33.2031 38.4063,33.2031 Q35.9063,33.2031 34.5781,31.5625 Q33.2656,29.9063 33.2656,26.7813 Q33.2656,23.6563 34.5781,22 Q35.9063,20.3438 38.4063,20.3438 Q39.1094,20.3438 39.75,20.5 Q40.4063,20.6563 40.9688,20.9531 L40.9688,23.6719 Q40.3438,23.0938 39.75,22.8281 Q39.1563,22.5469 38.5313,22.5469 Q37.1875,22.5469 36.5,23.625 Q35.8125,24.6875 35.8125,26.7813 Q35.8125,28.875 36.5,29.9531 Q37.1875,31.0156 38.5313,31.0156 Q39.1563,31.0156 39.75,30.75 Q40.3438,30.4688 40.9688,29.8906 L40.9688,32.6094 Z "/><text fill="#000000" font-family="sans-serif" font-size="14" lengthAdjust="spacingAndGlyphs" textLength="96" x="52" y="25.9951">IterativeSolver</text><text fill="#000000" font-family="sans-serif" font-size="10" lengthAdjust="spacingAndGlyphs" textLength="63" x="68.5" y="38.5791">algo.iterative</text></a><!--link algo.iterative.IterativeSolver to algo.iterative.NaiveSolver--><path d="M87,66.3406 C87,78.7439 87,92.651 87,105.8278 " fill="none" id="algo.iterative.IterativeSolver-algo.iterative.NaiveSolver" style="stroke: #A80036; stroke-width: 1.0;"/><polygon fill="none" points="80.0001,66.1213,87,46.1212,94.0001,66.1212,80.0001,66.1213" style="stroke: #A80036; stroke-width: 1.0;"/><text fill="#888888" font-family="sans-serif" font-size="10" lengthAdjust="spacingAndGlyphs" textLength="186" x="0" y="230.2822">UMLDoclet 2.0.3, PlantUML 1.2019.06</text><!--
@startuml
    set namespaceSeparator none
    hide empty fields
    hide empty methods

    class "<size:14>NaiveSolver\n<size:10>algo.iterative" as algo.iterative.NaiveSolver [[NaiveSolver.html]] {
        {static} -CM: Modifier<Client>
        {static} -VM: Modifier<Vehicule>
        +NaiveSolver()
        +NaiveSolver(Instance)
    }

    class "<size:14>IterativeSolver\n<size:10>algo.iterative" as algo.iterative.IterativeSolver [[IterativeSolver.html]]

    algo.iterative.IterativeSolver <|- - algo.iterative.NaiveSolver

    center footer UMLDoclet 2.0.3, PlantUML 1.2019.06
@enduml

PlantUML version 1.2019.06(Fri May 24 19:10:25 CEST 2019)
(APACHE source distribution)
Java Runtime: OpenJDK Runtime Environment
JVM: OpenJDK 64-Bit Server VM
Java Version: 11.0.4+4-post-Debian-1
Operating System: Linux
OS Version: 4.19.0-5-amd64
Default Encoding: UTF-8
Language: fr
Country: FR
--></g></svg>