<?xml version="1.0" encoding="UTF-8" standalone="no"?><svg xmlns="http://www.w3.org/2000/svg" xmlns:xlink="http://www.w3.org/1999/xlink" contentScriptType="application/ecmascript" contentStyleType="text/css" height="243px" preserveAspectRatio="none" style="width:199px;height:243px;" version="1.1" viewBox="0 0 199 243" width="199px" zoomAndPan="magnify"><defs><filter height="300%" id="f1cidaco4by6op" width="300%" x="-1" y="-1"><feGaussianBlur result="blurOut" stdDeviation="2.0"/><feColorMatrix in="blurOut" result="blurOut2" type="matrix" values="0 0 0 0 0 0 0 0 0 0 0 0 0 0 0 0 0 0 .4 0"/><feOffset dx="4.0" dy="4.0" in="blurOut2" result="blurOut3"/><feBlend in="SourceGraphic" in2="blurOut3" mode="normal"/></filter></defs><g><!--class algo.iterative.RandomSolver--><a href="RandomSolver.html" target="_top" xlink:actuate="onRequest" xlink:show="new" xlink:title="RandomSolver.html" xlink:type="simple"><rect fill="#FEFECE" filter="url(#f1cidaco4by6op)" height="105.1563" id="algo.iterative.RandomSolver" style="stroke: #A80036; stroke-width: 1.5;" width="164" x="6" y="106"/><ellipse cx="35.4" cy="124.9688" fill="#ADD1B2" rx="11" ry="11" style="stroke: #A80036; stroke-width: 1.0;"/><path d="M38.3688,130.6094 Q37.7906,130.9063 37.15,131.0469 Q36.5094,131.2031 35.8063,131.2031 Q33.3063,131.2031 31.9781,129.5625 Q30.6656,127.9063 30.6656,124.7813 Q30.6656,121.6563 31.9781,120 Q33.3063,118.3438 35.8063,118.3438 Q36.5094,118.3438 37.15,118.5 Q37.8063,118.6563 38.3688,118.9531 L38.3688,121.6719 Q37.7438,121.0938 37.15,120.8281 Q36.5563,120.5469 35.9313,120.5469 Q34.5875,120.5469 33.9,121.625 Q33.2125,122.6875 33.2125,124.7813 Q33.2125,126.875 33.9,127.9531 Q34.5875,129.0156 35.9313,129.0156 Q36.5563,129.0156 37.15,128.75 Q37.7438,128.4688 38.3688,127.8906 L38.3688,130.6094 Z "/><text fill="#000000" font-family="sans-serif" font-size="14" lengthAdjust="spacingAndGlyphs" textLength="100" x="52.6" y="123.9951">RandomSolver</text><text fill="#000000" font-family="sans-serif" font-size="10" lengthAdjust="spacingAndGlyphs" textLength="63" x="71.1" y="136.5791">algo.iterative</text><line style="stroke: #A80036; stroke-width: 1.5;" x1="7" x2="169" y1="143.9375" y2="143.9375"/><rect fill="none" height="6" style="stroke: #C82930; stroke-width: 1.0;" width="6" x="14" y="152.8398"/><text fill="#000000" font-family="sans-serif" font-size="11" lengthAdjust="spacingAndGlyphs" text-decoration="underline" textLength="120" x="26" y="158.1479">CM: Modifier&lt;Client&gt;</text><rect fill="none" height="6" style="stroke: #C82930; stroke-width: 1.0;" width="6" x="14" y="165.6445"/><text fill="#000000" font-family="sans-serif" font-size="11" lengthAdjust="spacingAndGlyphs" text-decoration="underline" textLength="134" x="26" y="170.9526">VM: Modifier&lt;Vehicule&gt;</text><line style="stroke: #A80036; stroke-width: 1.5;" x1="7" x2="169" y1="177.5469" y2="177.5469"/><ellipse cx="17" cy="189.4492" fill="#84BE84" rx="3" ry="3" style="stroke: #038048; stroke-width: 1.0;"/><text fill="#000000" font-family="sans-serif" font-size="11" lengthAdjust="spacingAndGlyphs" textLength="90" x="26" y="191.7573">RandomSolver()</text><ellipse cx="17" cy="202.2539" fill="#84BE84" rx="3" ry="3" style="stroke: #038048; stroke-width: 1.0;"/><text fill="#000000" font-family="sans-serif" font-size="11" lengthAdjust="spacingAndGlyphs" textLength="138" x="26" y="204.562">RandomSolver(Instance)</text></a><!--class algo.iterative.IterativeSolver--><a href="IterativeSolver.html" target="_top" xlink:actuate="onRequest" xlink:show="new" xlink:title="IterativeSolver.html" xlink:type="simple"><rect fill="#FEFECE" filter="url(#f1cidaco4by6op)" height="37.9375" id="algo.iterative.IterativeSolver" style="stroke: #A80036; stroke-width: 1.5;" width="128" x="24" y="8"/><ellipse cx="39" cy="26.9688" fill="#ADD1B2" rx="11" ry="11" style="stroke: #A80036; stroke-width: 1.0;"/><path d="M41.9688,32.6094 Q41.3906,32.9063 40.75,33.0469 Q40.1094,33.2031 39.4063,33.2031 Q36.9063,33.2031 35.5781,31.5625 Q34.2656,29.9063 34.2656,26.7813 Q34.2656,23.6563 35.5781,22 Q36.9063,20.3438 39.4063,20.3438 Q40.1094,20.3438 40.75,20.5 Q41.4063,20.6563 41.9688,20.9531 L41.9688,23.6719 Q41.3438,23.0938 40.75,22.8281 Q40.1563,22.5469 39.5313,22.5469 Q38.1875,22.5469 37.5,23.625 Q36.8125,24.6875 36.8125,26.7813 Q36.8125,28.875 37.5,29.9531 Q38.1875,31.0156 39.5313,31.0156 Q40.1563,31.0156 40.75,30.75 Q41.3438,30.4688 41.9688,29.8906 L41.9688,32.6094 Z "/><text fill="#000000" font-family="sans-serif" font-size="14" lengthAdjust="spacingAndGlyphs" textLength="96" x="53" y="25.9951">IterativeSolver</text><text fill="#000000" font-family="sans-serif" font-size="10" lengthAdjust="spacingAndGlyphs" textLength="63" x="69.5" y="38.5791">algo.iterative</text></a><!--link algo.iterative.IterativeSolver to algo.iterative.RandomSolver--><path d="M88,66.3406 C88,78.7439 88,92.651 88,105.8278 " fill="none" id="algo.iterative.IterativeSolver-algo.iterative.RandomSolver" style="stroke: #A80036; stroke-width: 1.0;"/><polygon fill="none" points="81.0001,66.1213,88,46.1212,95.0001,66.1212,81.0001,66.1213" style="stroke: #A80036; stroke-width: 1.0;"/><text fill="#888888" font-family="sans-serif" font-size="10" lengthAdjust="spacingAndGlyphs" textLength="186" x="1" y="230.2822">UMLDoclet 2.0.3, PlantUML 1.2019.06</text><!--
@startuml
    set namespaceSeparator none
    hide empty fields
    hide empty methods

    class "<size:14>RandomSolver\n<size:10>algo.iterative" as algo.iterative.RandomSolver [[RandomSolver.html]] {
        {static} -CM: Modifier<Client>
        {static} -VM: Modifier<Vehicule>
        +RandomSolver()
        +RandomSolver(Instance)
    }

    class "<size:14>IterativeSolver\n<size:10>algo.iterative" as algo.iterative.IterativeSolver [[IterativeSolver.html]]

    algo.iterative.IterativeSolver <|- - algo.iterative.RandomSolver

    center footer UMLDoclet 2.0.3, PlantUML 1.2019.06
@enduml

PlantUML version 1.2019.06(Fri May 24 19:10:25 CEST 2019)
(APACHE source distribution)
Java Runtime: OpenJDK Runtime Environment
JVM: OpenJDK 64-Bit Server VM
Java Version: 11.0.4+4-post-Debian-1
Operating System: Linux
OS Version: 4.19.0-5-amd64
Default Encoding: UTF-8
Language: fr
Country: FR
--></g></svg>