<?xml version="1.0" encoding="UTF-8" standalone="no"?><svg xmlns="http://www.w3.org/2000/svg" xmlns:xlink="http://www.w3.org/1999/xlink" contentScriptType="application/ecmascript" contentStyleType="text/css" height="251px" preserveAspectRatio="none" style="width:399px;height:251px;" version="1.1" viewBox="0 0 399 251" width="399px" zoomAndPan="magnify"><defs><filter height="300%" id="fuzolf33kr3ck" width="300%" x="-1" y="-1"><feGaussianBlur result="blurOut" stdDeviation="2.0"/><feColorMatrix in="blurOut" result="blurOut2" type="matrix" values="0 0 0 0 0 0 0 0 0 0 0 0 0 0 0 0 0 0 .4 0"/><feOffset dx="4.0" dy="4.0" in="blurOut2" result="blurOut3"/><feBlend in="SourceGraphic" in2="blurOut3" mode="normal"/></filter></defs><g><!--class dao.jpa.JpaClientDao--><a href="JpaClientDao.html" target="_top" xlink:actuate="onRequest" xlink:show="new" xlink:title="JpaClientDao.html" xlink:type="simple"><rect fill="#FEFECE" filter="url(#fuzolf33kr3ck)" height="92.3516" id="dao.jpa.JpaClientDao" style="stroke: #A80036; stroke-width: 1.5;" width="227" x="56.5" y="127"/><ellipse cx="122.25" cy="145.9688" fill="#ADD1B2" rx="11" ry="11" style="stroke: #A80036; stroke-width: 1.0;"/><path d="M125.2188,151.6094 Q124.6406,151.9063 124,152.0469 Q123.3594,152.2031 122.6563,152.2031 Q120.1563,152.2031 118.8281,150.5625 Q117.5156,148.9063 117.5156,145.7813 Q117.5156,142.6563 118.8281,141 Q120.1563,139.3438 122.6563,139.3438 Q123.3594,139.3438 124,139.5 Q124.6563,139.6563 125.2188,139.9531 L125.2188,142.6719 Q124.5938,142.0938 124,141.8281 Q123.4063,141.5469 122.7813,141.5469 Q121.4375,141.5469 120.75,142.625 Q120.0625,143.6875 120.0625,145.7813 Q120.0625,147.875 120.75,148.9531 Q121.4375,150.0156 122.7813,150.0156 Q123.4063,150.0156 124,149.75 Q124.5938,149.4688 125.2188,148.8906 L125.2188,151.6094 Z "/><text fill="#000000" font-family="sans-serif" font-size="14" lengthAdjust="spacingAndGlyphs" textLength="87" x="142.75" y="144.9951">JpaClientDao</text><text fill="#000000" font-family="sans-serif" font-size="10" lengthAdjust="spacingAndGlyphs" textLength="35" x="168.75" y="157.5791">dao.jpa</text><line style="stroke: #A80036; stroke-width: 1.5;" x1="57.5" x2="282.5" y1="164.9375" y2="164.9375"/><rect fill="none" height="6" style="stroke: #C82930; stroke-width: 1.0;" width="6" x="64.5" y="173.8398"/><text fill="#000000" font-family="sans-serif" font-size="11" lengthAdjust="spacingAndGlyphs" text-decoration="underline" textLength="127" x="76.5" y="179.1479">instance: JpaClientDao</text><line style="stroke: #A80036; stroke-width: 1.5;" x1="57.5" x2="282.5" y1="185.7422" y2="185.7422"/><polygon fill="#FFFF44" points="67.5,192.6445,71.5,196.6445,67.5,200.6445,63.5,196.6445" style="stroke: #B38D22; stroke-width: 1.0;"/><text fill="#000000" font-family="sans-serif" font-size="11" lengthAdjust="spacingAndGlyphs" text-decoration="underline" textLength="153" x="76.5" y="199.9526">getInstance(): JpaClientDao</text><ellipse cx="67.5" cy="210.4492" fill="#84BE84" rx="3" ry="3" style="stroke: #038048; stroke-width: 1.0;"/><text fill="#000000" font-family="sans-serif" font-size="11" lengthAdjust="spacingAndGlyphs" textLength="201" x="76.5" y="212.7573">findNotServed(): Collection&lt;Client&gt;</text></a><!--class dao.jpa.JpaDao--><a href="JpaDao.html" target="_top" xlink:actuate="onRequest" xlink:show="new" xlink:title="JpaDao.html" xlink:type="simple"><rect fill="#FEFECE" filter="url(#fuzolf33kr3ck)" height="37.9375" id="dao.jpa.JpaDao" style="stroke: #A80036; stroke-width: 1.5;" width="120" x="6" y="18.5"/><ellipse cx="21" cy="37.4688" fill="#A9DCDF" rx="11" ry="11" style="stroke: #A80036; stroke-width: 1.0;"/><path d="M21.1094,32.8125 L19.9531,37.8906 L22.2813,37.8906 L21.1094,32.8125 Z M19.625,30.5781 L22.6094,30.5781 L25.9688,42.9688 L23.5156,42.9688 L22.75,39.9063 L19.4688,39.9063 L18.7188,42.9688 L16.2813,42.9688 L19.625,30.5781 Z "/><text fill="#000000" font-family="sans-serif" font-size="14" font-style="italic" lengthAdjust="spacingAndGlyphs" textLength="49" x="35" y="36.4951">JpaDao</text><text fill="#000000" font-family="sans-serif" font-size="10" font-style="italic" lengthAdjust="spacingAndGlyphs" textLength="36" x="41.5" y="49.0791">dao.jpa</text><rect fill="#FFFFFF" height="15.9688" style="stroke: #000000; stroke-width: 1.0; stroke-dasharray: 2.0,2.0;" width="37" x="92" y="15.5"/><text fill="#000000" font-family="sans-serif" font-size="12" font-style="italic" lengthAdjust="spacingAndGlyphs" textLength="35" x="93" y="27.6387">Client</text></a><!--class dao.ClientDao--><a href="../ClientDao.html" target="_top" xlink:actuate="onRequest" xlink:show="new" xlink:title="../ClientDao.html" xlink:type="simple"><rect fill="#FEFECE" filter="url(#fuzolf33kr3ck)" height="58.7422" id="dao.ClientDao" style="stroke: #A80036; stroke-width: 1.5;" width="227" x="161.5" y="8"/><ellipse cx="237.25" cy="26.9688" fill="#B4A7E5" rx="11" ry="11" style="stroke: #A80036; stroke-width: 1.0;"/><path d="M233.1719,22.7344 L233.1719,20.5781 L240.5625,20.5781 L240.5625,22.7344 L238.0938,22.7344 L238.0938,30.8125 L240.5625,30.8125 L240.5625,32.9688 L233.1719,32.9688 L233.1719,30.8125 L235.6406,30.8125 L235.6406,22.7344 L233.1719,22.7344 Z "/><text fill="#000000" font-family="sans-serif" font-size="14" font-style="italic" lengthAdjust="spacingAndGlyphs" textLength="67" x="257.75" y="25.9951">ClientDao</text><text fill="#000000" font-family="sans-serif" font-size="10" font-style="italic" lengthAdjust="spacingAndGlyphs" textLength="18" x="282.25" y="38.5791">dao</text><line style="stroke: #A80036; stroke-width: 1.5;" x1="162.5" x2="387.5" y1="45.9375" y2="45.9375"/><ellipse cx="172.5" cy="57.8398" fill="#84BE84" rx="3" ry="3" style="stroke: #038048; stroke-width: 1.0;"/><text fill="#000000" font-family="sans-serif" font-size="11" font-style="italic" lengthAdjust="spacingAndGlyphs" textLength="201" x="181.5" y="60.1479">findNotServed(): Collection&lt;Client&gt;</text></a><!--link dao.jpa.JpaDao to dao.jpa.JpaClientDao--><path d="M92.9901,72.665 C105.6677,89.1824 120.9485,109.0916 134.5448,126.806 " fill="none" id="dao.jpa.JpaDao-dao.jpa.JpaClientDao" style="stroke: #A80036; stroke-width: 1.0;"/><polygon fill="none" points="87.3044,76.754,80.6801,56.6265,98.4103,68.23,87.3044,76.754" style="stroke: #A80036; stroke-width: 1.0;"/><!--link dao.ClientDao to dao.jpa.JpaClientDao--><path d="M239.4085,83.43 C228.5645,97.4239 216.6431,112.8082 205.7864,126.8186 " fill="none" id="dao.ClientDao-dao.jpa.JpaClientDao" style="stroke: #A80036; stroke-width: 1.0; stroke-dasharray: 7.0,7.0;"/><polygon fill="none" points="234.1736,78.7574,251.9573,67.2361,245.2399,87.3328,234.1736,78.7574" style="stroke: #A80036; stroke-width: 1.0;"/><text fill="#888888" font-family="sans-serif" font-size="10" lengthAdjust="spacingAndGlyphs" textLength="186" x="110.5" y="238.2822">UMLDoclet 2.0.3, PlantUML 1.2019.06</text><!--
@startuml
    set namespaceSeparator none
    hide empty fields
    hide empty methods

    class "<size:14>JpaClientDao\n<size:10>dao.jpa" as dao.jpa.JpaClientDao [[JpaClientDao.html]] {
        {static} -instance: JpaClientDao
        {static} #getInstance(): JpaClientDao
        +findNotServed(): Collection<Client>
    }

    abstract class "<size:14>JpaDao\n<size:10>dao.jpa" as dao.jpa.JpaDao<Client> [[JpaDao.html]]
    interface "<size:14>ClientDao\n<size:10>dao" as dao.ClientDao [[../ClientDao.html]] {
        {abstract} +findNotServed(): Collection<Client>
    }

    dao.jpa.JpaDao <|- - dao.jpa.JpaClientDao
    dao.ClientDao <|.. dao.jpa.JpaClientDao

    center footer UMLDoclet 2.0.3, PlantUML 1.2019.06
@enduml

PlantUML version 1.2019.06(Fri May 24 19:10:25 CEST 2019)
(APACHE source distribution)
Java Runtime: OpenJDK Runtime Environment
JVM: OpenJDK 64-Bit Server VM
Java Version: 11.0.4+4-post-Debian-1
Operating System: Linux
OS Version: 4.19.0-5-amd64
Default Encoding: UTF-8
Language: fr
Country: FR
--></g></svg>