<?xml version="1.0" encoding="UTF-8" standalone="no"?><svg xmlns="http://www.w3.org/2000/svg" xmlns:xlink="http://www.w3.org/1999/xlink" contentScriptType="application/ecmascript" contentStyleType="text/css" height="218px" preserveAspectRatio="none" style="width:278px;height:218px;" version="1.1" viewBox="0 0 278 218" width="278px" zoomAndPan="magnify"><defs><filter height="300%" id="f183499ol343uv" width="300%" x="-1" y="-1"><feGaussianBlur result="blurOut" stdDeviation="2.0"/><feColorMatrix in="blurOut" result="blurOut2" type="matrix" values="0 0 0 0 0 0 0 0 0 0 0 0 0 0 0 0 0 0 .4 0"/><feOffset dx="4.0" dy="4.0" in="blurOut2" result="blurOut3"/><feBlend in="SourceGraphic" in2="blurOut3" mode="normal"/></filter></defs><g><!--class dao.jpa.JpaDepotDao--><a href="JpaDepotDao.html" target="_top" xlink:actuate="onRequest" xlink:show="new" xlink:title="JpaDepotDao.html" xlink:type="simple"><rect fill="#FEFECE" filter="url(#f183499ol343uv)" height="79.5469" id="dao.jpa.JpaDepotDao" style="stroke: #A80036; stroke-width: 1.5;" width="180" x="51.5" y="106"/><ellipse cx="92.15" cy="124.9688" fill="#ADD1B2" rx="11" ry="11" style="stroke: #A80036; stroke-width: 1.0;"/><path d="M95.1188,130.6094 Q94.5406,130.9063 93.9,131.0469 Q93.2594,131.2031 92.5563,131.2031 Q90.0563,131.2031 88.7281,129.5625 Q87.4156,127.9063 87.4156,124.7813 Q87.4156,121.6563 88.7281,120 Q90.0563,118.3438 92.5563,118.3438 Q93.2594,118.3438 93.9,118.5 Q94.5563,118.6563 95.1188,118.9531 L95.1188,121.6719 Q94.4938,121.0938 93.9,120.8281 Q93.3063,120.5469 92.6813,120.5469 Q91.3375,120.5469 90.65,121.625 Q89.9625,122.6875 89.9625,124.7813 Q89.9625,126.875 90.65,127.9531 Q91.3375,129.0156 92.6813,129.0156 Q93.3063,129.0156 93.9,128.75 Q94.4938,128.4688 95.1188,127.8906 L95.1188,130.6094 Z "/><text fill="#000000" font-family="sans-serif" font-size="14" lengthAdjust="spacingAndGlyphs" textLength="91" x="111.85" y="123.9951">JpaDepotDao</text><text fill="#000000" font-family="sans-serif" font-size="10" lengthAdjust="spacingAndGlyphs" textLength="35" x="139.85" y="136.5791">dao.jpa</text><line style="stroke: #A80036; stroke-width: 1.5;" x1="52.5" x2="230.5" y1="143.9375" y2="143.9375"/><rect fill="none" height="6" style="stroke: #C82930; stroke-width: 1.0;" width="6" x="59.5" y="152.8398"/><text fill="#000000" font-family="sans-serif" font-size="11" lengthAdjust="spacingAndGlyphs" text-decoration="underline" textLength="128" x="71.5" y="158.1479">instance: JpaDepotDao</text><line style="stroke: #A80036; stroke-width: 1.5;" x1="52.5" x2="230.5" y1="164.7422" y2="164.7422"/><polygon fill="#FFFF44" points="62.5,171.6445,66.5,175.6445,62.5,179.6445,58.5,175.6445" style="stroke: #B38D22; stroke-width: 1.0;"/><text fill="#000000" font-family="sans-serif" font-size="11" lengthAdjust="spacingAndGlyphs" text-decoration="underline" textLength="154" x="71.5" y="178.9526">getInstance(): JpaDepotDao</text></a><!--class dao.jpa.JpaDao--><a href="JpaDao.html" target="_top" xlink:actuate="onRequest" xlink:show="new" xlink:title="JpaDao.html" xlink:type="simple"><rect fill="#FEFECE" filter="url(#f183499ol343uv)" height="37.9375" id="dao.jpa.JpaDao" style="stroke: #A80036; stroke-width: 1.5;" width="123" x="6" y="8"/><ellipse cx="21" cy="26.9688" fill="#A9DCDF" rx="11" ry="11" style="stroke: #A80036; stroke-width: 1.0;"/><path d="M21.1094,22.3125 L19.9531,27.3906 L22.2813,27.3906 L21.1094,22.3125 Z M19.625,20.0781 L22.6094,20.0781 L25.9688,32.4688 L23.5156,32.4688 L22.75,29.4063 L19.4688,29.4063 L18.7188,32.4688 L16.2813,32.4688 L19.625,20.0781 Z "/><text fill="#000000" font-family="sans-serif" font-size="14" font-style="italic" lengthAdjust="spacingAndGlyphs" textLength="49" x="35" y="25.9951">JpaDao</text><text fill="#000000" font-family="sans-serif" font-size="10" font-style="italic" lengthAdjust="spacingAndGlyphs" textLength="36" x="41.5" y="38.5791">dao.jpa</text><rect fill="#FFFFFF" height="15.9688" style="stroke: #000000; stroke-width: 1.0; stroke-dasharray: 2.0,2.0;" width="40" x="92" y="5"/><text fill="#000000" font-family="sans-serif" font-size="12" font-style="italic" lengthAdjust="spacingAndGlyphs" textLength="38" x="93" y="17.1387">Depot</text></a><!--class dao.DepotDao--><a href="../DepotDao.html" target="_top" xlink:actuate="onRequest" xlink:show="new" xlink:title="../DepotDao.html" xlink:type="simple"><rect fill="#FEFECE" filter="url(#f183499ol343uv)" height="37.9375" id="dao.DepotDao" style="stroke: #A80036; stroke-width: 1.5;" width="103" x="164" y="8"/><ellipse cx="179" cy="26.9688" fill="#B4A7E5" rx="11" ry="11" style="stroke: #A80036; stroke-width: 1.0;"/><path d="M174.9219,22.7344 L174.9219,20.5781 L182.3125,20.5781 L182.3125,22.7344 L179.8438,22.7344 L179.8438,30.8125 L182.3125,30.8125 L182.3125,32.9688 L174.9219,32.9688 L174.9219,30.8125 L177.3906,30.8125 L177.3906,22.7344 L174.9219,22.7344 Z "/><text fill="#000000" font-family="sans-serif" font-size="14" font-style="italic" lengthAdjust="spacingAndGlyphs" textLength="71" x="193" y="25.9951">DepotDao</text><text fill="#000000" font-family="sans-serif" font-size="10" font-style="italic" lengthAdjust="spacingAndGlyphs" textLength="18" x="219.5" y="38.5791">dao</text></a><!--link dao.jpa.JpaDao to dao.jpa.JpaDepotDao--><path d="M90.1674,63.4516 C98.4841,76.8257 107.9435,92.0375 116.4567,105.7276 " fill="none" id="dao.jpa.JpaDao-dao.jpa.JpaDepotDao" style="stroke: #A80036; stroke-width: 1.0;"/><polygon fill="none" points="84.0065,66.7999,79.3894,46.1194,95.8953,59.4069,84.0065,66.7999" style="stroke: #A80036; stroke-width: 1.0;"/><!--link dao.DepotDao to dao.jpa.JpaDepotDao--><path d="M192.8326,63.4516 C184.5159,76.8257 175.0565,92.0375 166.5433,105.7276 " fill="none" id="dao.DepotDao-dao.jpa.JpaDepotDao" style="stroke: #A80036; stroke-width: 1.0; stroke-dasharray: 7.0,7.0;"/><polygon fill="none" points="187.1047,59.4069,203.6106,46.1194,198.9935,66.7999,187.1047,59.4069" style="stroke: #A80036; stroke-width: 1.0;"/><text fill="#888888" font-family="sans-serif" font-size="10" lengthAdjust="spacingAndGlyphs" textLength="186" x="49.5" y="205.2822">UMLDoclet 2.0.3, PlantUML 1.2019.06</text><!--
@startuml
    set namespaceSeparator none
    hide empty fields
    hide empty methods

    class "<size:14>JpaDepotDao\n<size:10>dao.jpa" as dao.jpa.JpaDepotDao [[JpaDepotDao.html]] {
        {static} -instance: JpaDepotDao
        {static} #getInstance(): JpaDepotDao
    }

    abstract class "<size:14>JpaDao\n<size:10>dao.jpa" as dao.jpa.JpaDao<Depot> [[JpaDao.html]]
    interface "<size:14>DepotDao\n<size:10>dao" as dao.DepotDao [[../DepotDao.html]]

    dao.jpa.JpaDao <|- - dao.jpa.JpaDepotDao
    dao.DepotDao <|.. dao.jpa.JpaDepotDao

    center footer UMLDoclet 2.0.3, PlantUML 1.2019.06
@enduml

PlantUML version 1.2019.06(Fri May 24 19:10:25 CEST 2019)
(APACHE source distribution)
Java Runtime: OpenJDK Runtime Environment
JVM: OpenJDK 64-Bit Server VM
Java Version: 11.0.4+4-post-Debian-1
Operating System: Linux
OS Version: 4.19.0-5-amd64
Default Encoding: UTF-8
Language: fr
Country: FR
--></g></svg>