<?xml version="1.0" encoding="UTF-8" standalone="no"?><svg xmlns="http://www.w3.org/2000/svg" xmlns:xlink="http://www.w3.org/1999/xlink" contentScriptType="application/ecmascript" contentStyleType="text/css" height="372px" preserveAspectRatio="none" style="width:292px;height:372px;" version="1.1" viewBox="0 0 292 372" width="292px" zoomAndPan="magnify"><defs><filter height="300%" id="fo6p5jh6liti9" width="300%" x="-1" y="-1"><feGaussianBlur result="blurOut" stdDeviation="2.0"/><feColorMatrix in="blurOut" result="blurOut2" type="matrix" values="0 0 0 0 0 0 0 0 0 0 0 0 0 0 0 0 0 0 .4 0"/><feOffset dx="4.0" dy="4.0" in="blurOut2" result="blurOut3"/><feBlend in="SourceGraphic" in2="blurOut3" mode="normal"/></filter></defs><g><!--class dao.jpa.JpaDaoFactory--><a href="JpaDaoFactory.html" target="_top" xlink:actuate="onRequest" xlink:show="new" xlink:title="JpaDaoFactory.html" xlink:type="simple"><rect fill="#FEFECE" filter="url(#fo6p5jh6liti9)" height="135.5703" id="dao.jpa.JpaDaoFactory" style="stroke: #A80036; stroke-width: 1.5;" width="275" x="6" y="204"/><ellipse cx="90.25" cy="222.9688" fill="#ADD1B2" rx="11" ry="11" style="stroke: #A80036; stroke-width: 1.0;"/><path d="M93.2188,228.6094 Q92.6406,228.9063 92,229.0469 Q91.3594,229.2031 90.6563,229.2031 Q88.1563,229.2031 86.8281,227.5625 Q85.5156,225.9063 85.5156,222.7813 Q85.5156,219.6563 86.8281,218 Q88.1563,216.3438 90.6563,216.3438 Q91.3594,216.3438 92,216.5 Q92.6563,216.6563 93.2188,216.9531 L93.2188,219.6719 Q92.5938,219.0938 92,218.8281 Q91.4063,218.5469 90.7813,218.5469 Q89.4375,218.5469 88.75,219.625 Q88.0625,220.6875 88.0625,222.7813 Q88.0625,224.875 88.75,225.9531 Q89.4375,227.0156 90.7813,227.0156 Q91.4063,227.0156 92,226.75 Q92.5938,226.4688 93.2188,225.8906 L93.2188,228.6094 Z "/><text fill="#000000" font-family="sans-serif" font-size="14" lengthAdjust="spacingAndGlyphs" textLength="98" x="110.75" y="221.9951">JpaDaoFactory</text><text fill="#000000" font-family="sans-serif" font-size="10" lengthAdjust="spacingAndGlyphs" textLength="35" x="142.25" y="234.5791">dao.jpa</text><line style="stroke: #A80036; stroke-width: 1.5;" x1="7" x2="280" y1="241.9375" y2="241.9375"/><ellipse cx="17" cy="253.8398" fill="#84BE84" rx="3" ry="3" style="stroke: #038048; stroke-width: 1.0;"/><text fill="#000000" font-family="sans-serif" font-size="11" lengthAdjust="spacingAndGlyphs" textLength="159" x="26" y="256.1479">getClientDao(): JpaClientDao</text><ellipse cx="17" cy="266.6445" fill="#84BE84" rx="3" ry="3" style="stroke: #038048; stroke-width: 1.0;"/><text fill="#000000" font-family="sans-serif" font-size="11" lengthAdjust="spacingAndGlyphs" textLength="161" x="26" y="268.9526">getDepotDao(): JpaDepotDao</text><ellipse cx="17" cy="279.4492" fill="#84BE84" rx="3" ry="3" style="stroke: #038048; stroke-width: 1.0;"/><text fill="#000000" font-family="sans-serif" font-size="11" lengthAdjust="spacingAndGlyphs" textLength="249" x="26" y="281.7573">getEmplacementDao(): JpaEmplacementDao</text><ellipse cx="17" cy="292.2539" fill="#84BE84" rx="3" ry="3" style="stroke: #038048; stroke-width: 1.0;"/><text fill="#000000" font-family="sans-serif" font-size="11" lengthAdjust="spacingAndGlyphs" textLength="191" x="26" y="294.562">getPlanningDao(): JpaPlanningDao</text><ellipse cx="17" cy="305.0586" fill="#84BE84" rx="3" ry="3" style="stroke: #038048; stroke-width: 1.0;"/><text fill="#000000" font-family="sans-serif" font-size="11" lengthAdjust="spacingAndGlyphs" textLength="159" x="26" y="307.3667">getRouteDao(): JpaRouteDao</text><ellipse cx="17" cy="317.8633" fill="#84BE84" rx="3" ry="3" style="stroke: #038048; stroke-width: 1.0;"/><text fill="#000000" font-family="sans-serif" font-size="11" lengthAdjust="spacingAndGlyphs" textLength="189" x="26" y="320.1714">getVehiculeDao(): JpaVehiculeDao</text><ellipse cx="17" cy="330.668" fill="#84BE84" rx="3" ry="3" style="stroke: #038048; stroke-width: 1.0;"/><text fill="#000000" font-family="sans-serif" font-size="11" lengthAdjust="spacingAndGlyphs" textLength="191" x="26" y="332.9761">getInstanceDao(): JpaInstanceDao</text></a><!--class dao.DaoFactory--><a href="../DaoFactory.html" target="_top" xlink:actuate="onRequest" xlink:show="new" xlink:title="../DaoFactory.html" xlink:type="simple"><rect fill="#FEFECE" filter="url(#fo6p5jh6liti9)" height="135.5703" id="dao.DaoFactory" style="stroke: #A80036; stroke-width: 1.5;" width="258" x="14.5" y="8"/><ellipse cx="99.75" cy="26.9688" fill="#A9DCDF" rx="11" ry="11" style="stroke: #A80036; stroke-width: 1.0;"/><path d="M99.8594,22.3125 L98.7031,27.3906 L101.0313,27.3906 L99.8594,22.3125 Z M98.375,20.0781 L101.3594,20.0781 L104.7188,32.4688 L102.2656,32.4688 L101.5,29.4063 L98.2188,29.4063 L97.4688,32.4688 L95.0313,32.4688 L98.375,20.0781 Z "/><text fill="#000000" font-family="sans-serif" font-size="14" font-style="italic" lengthAdjust="spacingAndGlyphs" textLength="79" x="120.25" y="25.9951">DaoFactory</text><text fill="#000000" font-family="sans-serif" font-size="10" font-style="italic" lengthAdjust="spacingAndGlyphs" textLength="18" x="150.75" y="38.5791">dao</text><line style="stroke: #A80036; stroke-width: 1.5;" x1="15.5" x2="271.5" y1="45.9375" y2="45.9375"/><ellipse cx="25.5" cy="57.8398" fill="#84BE84" rx="3" ry="3" style="stroke: #038048; stroke-width: 1.0;"/><text fill="#000000" font-family="sans-serif" font-size="11" font-style="italic" lengthAdjust="spacingAndGlyphs" textLength="142" x="34.5" y="60.1479">getClientDao(): ClientDao</text><ellipse cx="25.5" cy="70.6445" fill="#84BE84" rx="3" ry="3" style="stroke: #038048; stroke-width: 1.0;"/><text fill="#000000" font-family="sans-serif" font-size="11" font-style="italic" lengthAdjust="spacingAndGlyphs" textLength="144" x="34.5" y="72.9526">getDepotDao(): DepotDao</text><ellipse cx="25.5" cy="83.4492" fill="#84BE84" rx="3" ry="3" style="stroke: #038048; stroke-width: 1.0;"/><text fill="#000000" font-family="sans-serif" font-size="11" font-style="italic" lengthAdjust="spacingAndGlyphs" textLength="232" x="34.5" y="85.7573">getEmplacementDao(): EmplacementDao</text><ellipse cx="25.5" cy="96.2539" fill="#84BE84" rx="3" ry="3" style="stroke: #038048; stroke-width: 1.0;"/><text fill="#000000" font-family="sans-serif" font-size="11" font-style="italic" lengthAdjust="spacingAndGlyphs" textLength="174" x="34.5" y="98.562">getPlanningDao(): PlanningDao</text><ellipse cx="25.5" cy="109.0586" fill="#84BE84" rx="3" ry="3" style="stroke: #038048; stroke-width: 1.0;"/><text fill="#000000" font-family="sans-serif" font-size="11" font-style="italic" lengthAdjust="spacingAndGlyphs" textLength="144" x="34.5" y="111.3667">getRouteDao(): RouteDao</text><ellipse cx="25.5" cy="121.8633" fill="#84BE84" rx="3" ry="3" style="stroke: #038048; stroke-width: 1.0;"/><text fill="#000000" font-family="sans-serif" font-size="11" font-style="italic" lengthAdjust="spacingAndGlyphs" textLength="174" x="34.5" y="124.1714">getVehiculeDao(): VehiculeDao</text><ellipse cx="25.5" cy="134.668" fill="#84BE84" rx="3" ry="3" style="stroke: #038048; stroke-width: 1.0;"/><text fill="#000000" font-family="sans-serif" font-size="11" font-style="italic" lengthAdjust="spacingAndGlyphs" textLength="172" x="34.5" y="136.9761">getInstanceDao(): InstanceDao</text></a><!--link dao.DaoFactory to dao.jpa.JpaDaoFactory--><path d="M143.5,164.4271 C143.5,177.6371 143.5,191.0813 143.5,203.7872 " fill="none" id="dao.DaoFactory-dao.jpa.JpaDaoFactory" style="stroke: #A80036; stroke-width: 1.0;"/><polygon fill="none" points="136.5001,164.0013,143.5,144.0012,150.5001,164.0012,136.5001,164.0013" style="stroke: #A80036; stroke-width: 1.0;"/><text fill="#888888" font-family="sans-serif" font-size="10" lengthAdjust="spacingAndGlyphs" textLength="186" x="56.5" y="359.2822">UMLDoclet 2.0.3, PlantUML 1.2019.06</text><!--
@startuml
    set namespaceSeparator none
    hide empty fields
    hide empty methods

    class "<size:14>JpaDaoFactory\n<size:10>dao.jpa" as dao.jpa.JpaDaoFactory [[JpaDaoFactory.html]] {
        +getClientDao(): JpaClientDao
        +getDepotDao(): JpaDepotDao
        +getEmplacementDao(): JpaEmplacementDao
        +getPlanningDao(): JpaPlanningDao
        +getRouteDao(): JpaRouteDao
        +getVehiculeDao(): JpaVehiculeDao
        +getInstanceDao(): JpaInstanceDao
    }

    abstract class "<size:14>DaoFactory\n<size:10>dao" as dao.DaoFactory [[../DaoFactory.html]] {
        {abstract} +getClientDao(): ClientDao
        {abstract} +getDepotDao(): DepotDao
        {abstract} +getEmplacementDao(): EmplacementDao
        {abstract} +getPlanningDao(): PlanningDao
        {abstract} +getRouteDao(): RouteDao
        {abstract} +getVehiculeDao(): VehiculeDao
        {abstract} +getInstanceDao(): InstanceDao
    }

    dao.DaoFactory <|- - dao.jpa.JpaDaoFactory

    center footer UMLDoclet 2.0.3, PlantUML 1.2019.06
@enduml

PlantUML version 1.2019.06(Fri May 24 19:10:25 CEST 2019)
(APACHE source distribution)
Java Runtime: OpenJDK Runtime Environment
JVM: OpenJDK 64-Bit Server VM
Java Version: 11.0.4+4-post-Debian-1
Operating System: Linux
OS Version: 4.19.0-5-amd64
Default Encoding: UTF-8
Language: fr
Country: FR
--></g></svg>