<?xml version="1.0" encoding="UTF-8" standalone="no"?><svg xmlns="http://www.w3.org/2000/svg" xmlns:xlink="http://www.w3.org/1999/xlink" contentScriptType="application/ecmascript" contentStyleType="text/css" height="218px" preserveAspectRatio="none" style="width:377px;height:218px;" version="1.1" viewBox="0 0 377 218" width="377px" zoomAndPan="magnify"><defs><filter height="300%" id="f18vnjqosipl2j" width="300%" x="-1" y="-1"><feGaussianBlur result="blurOut" stdDeviation="2.0"/><feColorMatrix in="blurOut" result="blurOut2" type="matrix" values="0 0 0 0 0 0 0 0 0 0 0 0 0 0 0 0 0 0 .4 0"/><feOffset dx="4.0" dy="4.0" in="blurOut2" result="blurOut3"/><feBlend in="SourceGraphic" in2="blurOut3" mode="normal"/></filter></defs><g><!--class dao.jpa.JpaEmplacementDao--><a href="JpaEmplacementDao.html" target="_top" xlink:actuate="onRequest" xlink:show="new" xlink:title="JpaEmplacementDao.html" xlink:type="simple"><rect fill="#FEFECE" filter="url(#f18vnjqosipl2j)" height="79.5469" id="dao.jpa.JpaEmplacementDao" style="stroke: #A80036; stroke-width: 1.5;" width="224" x="78" y="106"/><ellipse cx="115.05" cy="124.9688" fill="#ADD1B2" rx="11" ry="11" style="stroke: #A80036; stroke-width: 1.0;"/><path d="M118.0188,130.6094 Q117.4406,130.9063 116.8,131.0469 Q116.1594,131.2031 115.4563,131.2031 Q112.9563,131.2031 111.6281,129.5625 Q110.3156,127.9063 110.3156,124.7813 Q110.3156,121.6563 111.6281,120 Q112.9563,118.3438 115.4563,118.3438 Q116.1594,118.3438 116.8,118.5 Q117.4563,118.6563 118.0188,118.9531 L118.0188,121.6719 Q117.3938,121.0938 116.8,120.8281 Q116.2063,120.5469 115.5813,120.5469 Q114.2375,120.5469 113.55,121.625 Q112.8625,122.6875 112.8625,124.7813 Q112.8625,126.875 113.55,127.9531 Q114.2375,129.0156 115.5813,129.0156 Q116.2063,129.0156 116.8,128.75 Q117.3938,128.4688 118.0188,127.8906 L118.0188,130.6094 Z "/><text fill="#000000" font-family="sans-serif" font-size="14" lengthAdjust="spacingAndGlyphs" textLength="143" x="133.95" y="123.9951">JpaEmplacementDao</text><text fill="#000000" font-family="sans-serif" font-size="10" lengthAdjust="spacingAndGlyphs" textLength="35" x="187.95" y="136.5791">dao.jpa</text><line style="stroke: #A80036; stroke-width: 1.5;" x1="79" x2="301" y1="143.9375" y2="143.9375"/><rect fill="none" height="6" style="stroke: #C82930; stroke-width: 1.0;" width="6" x="86" y="152.8398"/><text fill="#000000" font-family="sans-serif" font-size="11" lengthAdjust="spacingAndGlyphs" text-decoration="underline" textLength="172" x="98" y="158.1479">instance: JpaEmplacementDao</text><line style="stroke: #A80036; stroke-width: 1.5;" x1="79" x2="301" y1="164.7422" y2="164.7422"/><polygon fill="#FFFF44" points="89,171.6445,93,175.6445,89,179.6445,85,175.6445" style="stroke: #B38D22; stroke-width: 1.0;"/><text fill="#000000" font-family="sans-serif" font-size="11" lengthAdjust="spacingAndGlyphs" text-decoration="underline" textLength="198" x="98" y="178.9526">getInstance(): JpaEmplacementDao</text></a><!--class dao.jpa.JpaDao--><a href="JpaDao.html" target="_top" xlink:actuate="onRequest" xlink:show="new" xlink:title="JpaDao.html" xlink:type="simple"><rect fill="#FEFECE" filter="url(#f18vnjqosipl2j)" height="37.9375" id="dao.jpa.JpaDao" style="stroke: #A80036; stroke-width: 1.5;" width="170" x="6" y="8"/><ellipse cx="21" cy="26.9688" fill="#A9DCDF" rx="11" ry="11" style="stroke: #A80036; stroke-width: 1.0;"/><path d="M21.1094,22.3125 L19.9531,27.3906 L22.2813,27.3906 L21.1094,22.3125 Z M19.625,20.0781 L22.6094,20.0781 L25.9688,32.4688 L23.5156,32.4688 L22.75,29.4063 L19.4688,29.4063 L18.7188,32.4688 L16.2813,32.4688 L19.625,20.0781 Z "/><text fill="#000000" font-family="sans-serif" font-size="14" font-style="italic" lengthAdjust="spacingAndGlyphs" textLength="49" x="35" y="25.9951">JpaDao</text><text fill="#000000" font-family="sans-serif" font-size="10" font-style="italic" lengthAdjust="spacingAndGlyphs" textLength="36" x="41.5" y="38.5791">dao.jpa</text><rect fill="#FFFFFF" height="15.9688" style="stroke: #000000; stroke-width: 1.0; stroke-dasharray: 2.0,2.0;" width="87" x="92" y="5"/><text fill="#000000" font-family="sans-serif" font-size="12" font-style="italic" lengthAdjust="spacingAndGlyphs" textLength="85" x="93" y="17.1387">Emplacement</text></a><!--class dao.EmplacementDao--><a href="../EmplacementDao.html" target="_top" xlink:actuate="onRequest" xlink:show="new" xlink:title="../EmplacementDao.html" xlink:type="simple"><rect fill="#FEFECE" filter="url(#f18vnjqosipl2j)" height="37.9375" id="dao.EmplacementDao" style="stroke: #A80036; stroke-width: 1.5;" width="155" x="211.5" y="8"/><ellipse cx="226.5" cy="26.9688" fill="#B4A7E5" rx="11" ry="11" style="stroke: #A80036; stroke-width: 1.0;"/><path d="M222.4219,22.7344 L222.4219,20.5781 L229.8125,20.5781 L229.8125,22.7344 L227.3438,22.7344 L227.3438,30.8125 L229.8125,30.8125 L229.8125,32.9688 L222.4219,32.9688 L222.4219,30.8125 L224.8906,30.8125 L224.8906,22.7344 L222.4219,22.7344 Z "/><text fill="#000000" font-family="sans-serif" font-size="14" font-style="italic" lengthAdjust="spacingAndGlyphs" textLength="123" x="240.5" y="25.9951">EmplacementDao</text><text fill="#000000" font-family="sans-serif" font-size="10" font-style="italic" lengthAdjust="spacingAndGlyphs" textLength="18" x="293" y="38.5791">dao</text></a><!--link dao.jpa.JpaDao to dao.jpa.JpaEmplacementDao--><path d="M119.8006,61.6189 C131.2853,75.4237 144.5831,91.408 156.4961,105.7276 " fill="none" id="dao.jpa.JpaDao-dao.jpa.JpaEmplacementDao" style="stroke: #A80036; stroke-width: 1.0;"/><polygon fill="none" points="114.3158,65.9713,106.9061,46.1194,125.0783,57.0176,114.3158,65.9713" style="stroke: #A80036; stroke-width: 1.0;"/><!--link dao.EmplacementDao to dao.jpa.JpaEmplacementDao--><path d="M260.1994,61.6189 C248.7147,75.4237 235.4169,91.408 223.5039,105.7276 " fill="none" id="dao.EmplacementDao-dao.jpa.JpaEmplacementDao" style="stroke: #A80036; stroke-width: 1.0; stroke-dasharray: 7.0,7.0;"/><polygon fill="none" points="254.9217,57.0176,273.0939,46.1194,265.6842,65.9713,254.9217,57.0176" style="stroke: #A80036; stroke-width: 1.0;"/><text fill="#888888" font-family="sans-serif" font-size="10" lengthAdjust="spacingAndGlyphs" textLength="186" x="99.5" y="205.2822">UMLDoclet 2.0.3, PlantUML 1.2019.06</text><!--
@startuml
    set namespaceSeparator none
    hide empty fields
    hide empty methods

    class "<size:14>JpaEmplacementDao\n<size:10>dao.jpa" as dao.jpa.JpaEmplacementDao [[JpaEmplacementDao.html]] {
        {static} -instance: JpaEmplacementDao
        {static} #getInstance(): JpaEmplacementDao
    }

    abstract class "<size:14>JpaDao\n<size:10>dao.jpa" as dao.jpa.JpaDao<Emplacement> [[JpaDao.html]]
    interface "<size:14>EmplacementDao\n<size:10>dao" as dao.EmplacementDao [[../EmplacementDao.html]]

    dao.jpa.JpaDao <|- - dao.jpa.JpaEmplacementDao
    dao.EmplacementDao <|.. dao.jpa.JpaEmplacementDao

    center footer UMLDoclet 2.0.3, PlantUML 1.2019.06
@enduml

PlantUML version 1.2019.06(Fri May 24 19:10:25 CEST 2019)
(APACHE source distribution)
Java Runtime: OpenJDK Runtime Environment
JVM: OpenJDK 64-Bit Server VM
Java Version: 11.0.4+4-post-Debian-1
Operating System: Linux
OS Version: 4.19.0-5-amd64
Default Encoding: UTF-8
Language: fr
Country: FR
--></g></svg>