<?xml version="1.0" encoding="UTF-8" standalone="no"?><svg xmlns="http://www.w3.org/2000/svg" xmlns:xlink="http://www.w3.org/1999/xlink" contentScriptType="application/ecmascript" contentStyleType="text/css" height="251px" preserveAspectRatio="none" style="width:382px;height:251px;" version="1.1" viewBox="0 0 382 251" width="382px" zoomAndPan="magnify"><defs><filter height="300%" id="f2n8oj5b700zy" width="300%" x="-1" y="-1"><feGaussianBlur result="blurOut" stdDeviation="2.0"/><feColorMatrix in="blurOut" result="blurOut2" type="matrix" values="0 0 0 0 0 0 0 0 0 0 0 0 0 0 0 0 0 0 .4 0"/><feOffset dx="4.0" dy="4.0" in="blurOut2" result="blurOut3"/><feBlend in="SourceGraphic" in2="blurOut3" mode="normal"/></filter></defs><g><!--class dao.jpa.JpaInstanceDao--><a href="JpaInstanceDao.html" target="_top" xlink:actuate="onRequest" xlink:show="new" xlink:title="JpaInstanceDao.html" xlink:type="simple"><rect fill="#FEFECE" filter="url(#f2n8oj5b700zy)" height="92.3516" id="dao.jpa.JpaInstanceDao" style="stroke: #A80036; stroke-width: 1.5;" width="195" x="78" y="127"/><ellipse cx="118.2" cy="145.9688" fill="#ADD1B2" rx="11" ry="11" style="stroke: #A80036; stroke-width: 1.0;"/><path d="M121.1688,151.6094 Q120.5906,151.9063 119.95,152.0469 Q119.3094,152.2031 118.6063,152.2031 Q116.1063,152.2031 114.7781,150.5625 Q113.4656,148.9063 113.4656,145.7813 Q113.4656,142.6563 114.7781,141 Q116.1063,139.3438 118.6063,139.3438 Q119.3094,139.3438 119.95,139.5 Q120.6063,139.6563 121.1688,139.9531 L121.1688,142.6719 Q120.5438,142.0938 119.95,141.8281 Q119.3563,141.5469 118.7313,141.5469 Q117.3875,141.5469 116.7,142.625 Q116.0125,143.6875 116.0125,145.7813 Q116.0125,147.875 116.7,148.9531 Q117.3875,150.0156 118.7313,150.0156 Q119.3563,150.0156 119.95,149.75 Q120.5438,149.4688 121.1688,148.8906 L121.1688,151.6094 Z "/><text fill="#000000" font-family="sans-serif" font-size="14" lengthAdjust="spacingAndGlyphs" textLength="107" x="137.8" y="144.9951">JpaInstanceDao</text><text fill="#000000" font-family="sans-serif" font-size="10" lengthAdjust="spacingAndGlyphs" textLength="35" x="173.8" y="157.5791">dao.jpa</text><line style="stroke: #A80036; stroke-width: 1.5;" x1="79" x2="272" y1="164.9375" y2="164.9375"/><rect fill="none" height="6" style="stroke: #C82930; stroke-width: 1.0;" width="6" x="86" y="173.8398"/><text fill="#000000" font-family="sans-serif" font-size="11" lengthAdjust="spacingAndGlyphs" text-decoration="underline" textLength="143" x="98" y="179.1479">instance: JpaInstanceDao</text><line style="stroke: #A80036; stroke-width: 1.5;" x1="79" x2="272" y1="185.7422" y2="185.7422"/><polygon fill="#FFFF44" points="89,192.6445,93,196.6445,89,200.6445,85,196.6445" style="stroke: #B38D22; stroke-width: 1.0;"/><text fill="#000000" font-family="sans-serif" font-size="11" lengthAdjust="spacingAndGlyphs" text-decoration="underline" textLength="169" x="98" y="199.9526">getInstance(): JpaInstanceDao</text><ellipse cx="89" cy="210.4492" fill="#84BE84" rx="3" ry="3" style="stroke: #038048; stroke-width: 1.0;"/><text fill="#000000" font-family="sans-serif" font-size="11" lengthAdjust="spacingAndGlyphs" textLength="166" x="98" y="212.7573">findByName(String): Instance</text></a><!--class dao.jpa.JpaDao--><a href="JpaDao.html" target="_top" xlink:actuate="onRequest" xlink:show="new" xlink:title="JpaDao.html" xlink:type="simple"><rect fill="#FEFECE" filter="url(#f2n8oj5b700zy)" height="37.9375" id="dao.jpa.JpaDao" style="stroke: #A80036; stroke-width: 1.5;" width="139" x="6" y="18.5"/><ellipse cx="21" cy="37.4688" fill="#A9DCDF" rx="11" ry="11" style="stroke: #A80036; stroke-width: 1.0;"/><path d="M21.1094,32.8125 L19.9531,37.8906 L22.2813,37.8906 L21.1094,32.8125 Z M19.625,30.5781 L22.6094,30.5781 L25.9688,42.9688 L23.5156,42.9688 L22.75,39.9063 L19.4688,39.9063 L18.7188,42.9688 L16.2813,42.9688 L19.625,30.5781 Z "/><text fill="#000000" font-family="sans-serif" font-size="14" font-style="italic" lengthAdjust="spacingAndGlyphs" textLength="49" x="35" y="36.4951">JpaDao</text><text fill="#000000" font-family="sans-serif" font-size="10" font-style="italic" lengthAdjust="spacingAndGlyphs" textLength="36" x="41.5" y="49.0791">dao.jpa</text><rect fill="#FFFFFF" height="15.9688" style="stroke: #000000; stroke-width: 1.0; stroke-dasharray: 2.0,2.0;" width="56" x="92" y="15.5"/><text fill="#000000" font-family="sans-serif" font-size="12" font-style="italic" lengthAdjust="spacingAndGlyphs" textLength="54" x="93" y="27.6387">Instance</text></a><!--class dao.InstanceDao--><a href="../InstanceDao.html" target="_top" xlink:actuate="onRequest" xlink:show="new" xlink:title="../InstanceDao.html" xlink:type="simple"><rect fill="#FEFECE" filter="url(#f2n8oj5b700zy)" height="58.7422" id="dao.InstanceDao" style="stroke: #A80036; stroke-width: 1.5;" width="191" x="180" y="8"/><ellipse cx="227.75" cy="26.9688" fill="#B4A7E5" rx="11" ry="11" style="stroke: #A80036; stroke-width: 1.0;"/><path d="M223.6719,22.7344 L223.6719,20.5781 L231.0625,20.5781 L231.0625,22.7344 L228.5938,22.7344 L228.5938,30.8125 L231.0625,30.8125 L231.0625,32.9688 L223.6719,32.9688 L223.6719,30.8125 L226.1406,30.8125 L226.1406,22.7344 L223.6719,22.7344 Z "/><text fill="#000000" font-family="sans-serif" font-size="14" font-style="italic" lengthAdjust="spacingAndGlyphs" textLength="87" x="248.25" y="25.9951">InstanceDao</text><text fill="#000000" font-family="sans-serif" font-size="10" font-style="italic" lengthAdjust="spacingAndGlyphs" textLength="18" x="282.75" y="38.5791">dao</text><line style="stroke: #A80036; stroke-width: 1.5;" x1="181" x2="370" y1="45.9375" y2="45.9375"/><ellipse cx="191" cy="57.8398" fill="#84BE84" rx="3" ry="3" style="stroke: #038048; stroke-width: 1.0;"/><text fill="#000000" font-family="sans-serif" font-size="11" font-style="italic" lengthAdjust="spacingAndGlyphs" textLength="165" x="200" y="60.1479">findByName(String): Instance</text></a><!--link dao.jpa.JpaDao to dao.jpa.JpaInstanceDao--><path d="M101.6457,72.9275 C113.7975,89.3931 128.4043,109.1853 141.4085,126.806 " fill="none" id="dao.jpa.JpaDao-dao.jpa.JpaInstanceDao" style="stroke: #A80036; stroke-width: 1.0;"/><polygon fill="none" points="95.8594,76.8753,89.6155,56.6265,107.1239,68.562,95.8594,76.8753" style="stroke: #A80036; stroke-width: 1.0;"/><!--link dao.InstanceDao to dao.jpa.JpaInstanceDao--><path d="M241.6033,83.43 C231.2757,97.4239 219.922,112.8082 209.5822,126.8186 " fill="none" id="dao.InstanceDao-dao.jpa.JpaInstanceDao" style="stroke: #A80036; stroke-width: 1.0; stroke-dasharray: 7.0,7.0;"/><polygon fill="none" points="236.0461,79.1716,253.5546,67.2361,247.3107,87.4849,236.0461,79.1716" style="stroke: #A80036; stroke-width: 1.0;"/><text fill="#888888" font-family="sans-serif" font-size="10" lengthAdjust="spacingAndGlyphs" textLength="186" x="101.5" y="238.2822">UMLDoclet 2.0.3, PlantUML 1.2019.06</text><!--
@startuml
    set namespaceSeparator none
    hide empty fields
    hide empty methods

    class "<size:14>JpaInstanceDao\n<size:10>dao.jpa" as dao.jpa.JpaInstanceDao [[JpaInstanceDao.html]] {
        {static} -instance: JpaInstanceDao
        {static} #getInstance(): JpaInstanceDao
        +findByName(String): Instance
    }

    abstract class "<size:14>JpaDao\n<size:10>dao.jpa" as dao.jpa.JpaDao<Instance> [[JpaDao.html]]
    interface "<size:14>InstanceDao\n<size:10>dao" as dao.InstanceDao [[../InstanceDao.html]] {
        {abstract} +findByName(String): Instance
    }

    dao.jpa.JpaDao <|- - dao.jpa.JpaInstanceDao
    dao.InstanceDao <|.. dao.jpa.JpaInstanceDao

    center footer UMLDoclet 2.0.3, PlantUML 1.2019.06
@enduml

PlantUML version 1.2019.06(Fri May 24 19:10:25 CEST 2019)
(APACHE source distribution)
Java Runtime: OpenJDK Runtime Environment
JVM: OpenJDK 64-Bit Server VM
Java Version: 11.0.4+4-post-Debian-1
Operating System: Linux
OS Version: 4.19.0-5-amd64
Default Encoding: UTF-8
Language: fr
Country: FR
--></g></svg>