<?xml version="1.0" encoding="UTF-8" standalone="no"?><svg xmlns="http://www.w3.org/2000/svg" xmlns:xlink="http://www.w3.org/1999/xlink" contentScriptType="application/ecmascript" contentStyleType="text/css" height="218px" preserveAspectRatio="none" style="width:308px;height:218px;" version="1.1" viewBox="0 0 308 218" width="308px" zoomAndPan="magnify"><defs><filter height="300%" id="f1wirkpbio89kn" width="300%" x="-1" y="-1"><feGaussianBlur result="blurOut" stdDeviation="2.0"/><feColorMatrix in="blurOut" result="blurOut2" type="matrix" values="0 0 0 0 0 0 0 0 0 0 0 0 0 0 0 0 0 0 .4 0"/><feOffset dx="4.0" dy="4.0" in="blurOut2" result="blurOut3"/><feBlend in="SourceGraphic" in2="blurOut3" mode="normal"/></filter></defs><g><!--class dao.jpa.JpaPlanningDao--><a href="JpaPlanningDao.html" target="_top" xlink:actuate="onRequest" xlink:show="new" xlink:title="JpaPlanningDao.html" xlink:type="simple"><rect fill="#FEFECE" filter="url(#f1wirkpbio89kn)" height="79.5469" id="dao.jpa.JpaPlanningDao" style="stroke: #A80036; stroke-width: 1.5;" width="195" x="58.5" y="106"/><ellipse cx="98.7" cy="124.9688" fill="#ADD1B2" rx="11" ry="11" style="stroke: #A80036; stroke-width: 1.0;"/><path d="M101.6688,130.6094 Q101.0906,130.9063 100.45,131.0469 Q99.8094,131.2031 99.1063,131.2031 Q96.6063,131.2031 95.2781,129.5625 Q93.9656,127.9063 93.9656,124.7813 Q93.9656,121.6563 95.2781,120 Q96.6063,118.3438 99.1063,118.3438 Q99.8094,118.3438 100.45,118.5 Q101.1063,118.6563 101.6688,118.9531 L101.6688,121.6719 Q101.0438,121.0938 100.45,120.8281 Q99.8563,120.5469 99.2313,120.5469 Q97.8875,120.5469 97.2,121.625 Q96.5125,122.6875 96.5125,124.7813 Q96.5125,126.875 97.2,127.9531 Q97.8875,129.0156 99.2313,129.0156 Q99.8563,129.0156 100.45,128.75 Q101.0438,128.4688 101.6688,127.8906 L101.6688,130.6094 Z "/><text fill="#000000" font-family="sans-serif" font-size="14" lengthAdjust="spacingAndGlyphs" textLength="107" x="118.3" y="123.9951">JpaPlanningDao</text><text fill="#000000" font-family="sans-serif" font-size="10" lengthAdjust="spacingAndGlyphs" textLength="35" x="154.3" y="136.5791">dao.jpa</text><line style="stroke: #A80036; stroke-width: 1.5;" x1="59.5" x2="252.5" y1="143.9375" y2="143.9375"/><rect fill="none" height="6" style="stroke: #C82930; stroke-width: 1.0;" width="6" x="66.5" y="152.8398"/><text fill="#000000" font-family="sans-serif" font-size="11" lengthAdjust="spacingAndGlyphs" text-decoration="underline" textLength="143" x="78.5" y="158.1479">instance: JpaPlanningDao</text><line style="stroke: #A80036; stroke-width: 1.5;" x1="59.5" x2="252.5" y1="164.7422" y2="164.7422"/><polygon fill="#FFFF44" points="69.5,171.6445,73.5,175.6445,69.5,179.6445,65.5,175.6445" style="stroke: #B38D22; stroke-width: 1.0;"/><text fill="#000000" font-family="sans-serif" font-size="11" lengthAdjust="spacingAndGlyphs" text-decoration="underline" textLength="169" x="78.5" y="178.9526">getInstance(): JpaPlanningDao</text></a><!--class dao.jpa.JpaDao--><a href="JpaDao.html" target="_top" xlink:actuate="onRequest" xlink:show="new" xlink:title="JpaDao.html" xlink:type="simple"><rect fill="#FEFECE" filter="url(#f1wirkpbio89kn)" height="37.9375" id="dao.jpa.JpaDao" style="stroke: #A80036; stroke-width: 1.5;" width="138" x="6" y="8"/><ellipse cx="21" cy="26.9688" fill="#A9DCDF" rx="11" ry="11" style="stroke: #A80036; stroke-width: 1.0;"/><path d="M21.1094,22.3125 L19.9531,27.3906 L22.2813,27.3906 L21.1094,22.3125 Z M19.625,20.0781 L22.6094,20.0781 L25.9688,32.4688 L23.5156,32.4688 L22.75,29.4063 L19.4688,29.4063 L18.7188,32.4688 L16.2813,32.4688 L19.625,20.0781 Z "/><text fill="#000000" font-family="sans-serif" font-size="14" font-style="italic" lengthAdjust="spacingAndGlyphs" textLength="49" x="35" y="25.9951">JpaDao</text><text fill="#000000" font-family="sans-serif" font-size="10" font-style="italic" lengthAdjust="spacingAndGlyphs" textLength="36" x="41.5" y="38.5791">dao.jpa</text><rect fill="#FFFFFF" height="15.9688" style="stroke: #000000; stroke-width: 1.0; stroke-dasharray: 2.0,2.0;" width="55" x="92" y="5"/><text fill="#000000" font-family="sans-serif" font-size="12" font-style="italic" lengthAdjust="spacingAndGlyphs" textLength="53" x="93" y="17.1387">Planning</text></a><!--class dao.PlanningDao--><a href="../PlanningDao.html" target="_top" xlink:actuate="onRequest" xlink:show="new" xlink:title="../PlanningDao.html" xlink:type="simple"><rect fill="#FEFECE" filter="url(#f1wirkpbio89kn)" height="37.9375" id="dao.PlanningDao" style="stroke: #A80036; stroke-width: 1.5;" width="118" x="179" y="8"/><ellipse cx="194" cy="26.9688" fill="#B4A7E5" rx="11" ry="11" style="stroke: #A80036; stroke-width: 1.0;"/><path d="M189.9219,22.7344 L189.9219,20.5781 L197.3125,20.5781 L197.3125,22.7344 L194.8438,22.7344 L194.8438,30.8125 L197.3125,30.8125 L197.3125,32.9688 L189.9219,32.9688 L189.9219,30.8125 L192.3906,30.8125 L192.3906,22.7344 L189.9219,22.7344 Z "/><text fill="#000000" font-family="sans-serif" font-size="14" font-style="italic" lengthAdjust="spacingAndGlyphs" textLength="86" x="208" y="25.9951">PlanningDao</text><text fill="#000000" font-family="sans-serif" font-size="10" font-style="italic" lengthAdjust="spacingAndGlyphs" textLength="18" x="242" y="38.5791">dao</text></a><!--link dao.jpa.JpaDao to dao.jpa.JpaPlanningDao--><path d="M99.4982,62.9912 C108.6768,76.4758 119.1621,91.8801 128.5877,105.7276 " fill="none" id="dao.jpa.JpaDao-dao.jpa.JpaPlanningDao" style="stroke: #A80036; stroke-width: 1.0;"/><polygon fill="none" points="93.4812,66.5916,88.0141,46.1194,105.0546,58.7139,93.4812,66.5916" style="stroke: #A80036; stroke-width: 1.0;"/><!--link dao.PlanningDao to dao.jpa.JpaPlanningDao--><path d="M213.1993,62.9912 C203.9074,76.4758 193.2927,91.8801 183.7507,105.7276 " fill="none" id="dao.PlanningDao-dao.jpa.JpaPlanningDao" style="stroke: #A80036; stroke-width: 1.0; stroke-dasharray: 7.0,7.0;"/><polygon fill="none" points="207.713,58.6163,224.8253,46.1194,219.2411,66.56,207.713,58.6163" style="stroke: #A80036; stroke-width: 1.0;"/><text fill="#888888" font-family="sans-serif" font-size="10" lengthAdjust="spacingAndGlyphs" textLength="186" x="64.5" y="205.2822">UMLDoclet 2.0.3, PlantUML 1.2019.06</text><!--
@startuml
    set namespaceSeparator none
    hide empty fields
    hide empty methods

    class "<size:14>JpaPlanningDao\n<size:10>dao.jpa" as dao.jpa.JpaPlanningDao [[JpaPlanningDao.html]] {
        {static} -instance: JpaPlanningDao
        {static} #getInstance(): JpaPlanningDao
    }

    abstract class "<size:14>JpaDao\n<size:10>dao.jpa" as dao.jpa.JpaDao<Planning> [[JpaDao.html]]
    interface "<size:14>PlanningDao\n<size:10>dao" as dao.PlanningDao [[../PlanningDao.html]]

    dao.jpa.JpaDao <|- - dao.jpa.JpaPlanningDao
    dao.PlanningDao <|.. dao.jpa.JpaPlanningDao

    center footer UMLDoclet 2.0.3, PlantUML 1.2019.06
@enduml

PlantUML version 1.2019.06(Fri May 24 19:10:25 CEST 2019)
(APACHE source distribution)
Java Runtime: OpenJDK Runtime Environment
JVM: OpenJDK 64-Bit Server VM
Java Version: 11.0.4+4-post-Debian-1
Operating System: Linux
OS Version: 4.19.0-5-amd64
Default Encoding: UTF-8
Language: fr
Country: FR
--></g></svg>