<?xml version="1.0" encoding="UTF-8" standalone="no"?><svg xmlns="http://www.w3.org/2000/svg" xmlns:xlink="http://www.w3.org/1999/xlink" contentScriptType="application/ecmascript" contentStyleType="text/css" height="218px" preserveAspectRatio="none" style="width:276px;height:218px;" version="1.1" viewBox="0 0 276 218" width="276px" zoomAndPan="magnify"><defs><filter height="300%" id="fb3kqchtut2zp" width="300%" x="-1" y="-1"><feGaussianBlur result="blurOut" stdDeviation="2.0"/><feColorMatrix in="blurOut" result="blurOut2" type="matrix" values="0 0 0 0 0 0 0 0 0 0 0 0 0 0 0 0 0 0 .4 0"/><feOffset dx="4.0" dy="4.0" in="blurOut2" result="blurOut3"/><feBlend in="SourceGraphic" in2="blurOut3" mode="normal"/></filter></defs><g><!--class dao.jpa.JpaRouteDao--><a href="JpaRouteDao.html" target="_top" xlink:actuate="onRequest" xlink:show="new" xlink:title="JpaRouteDao.html" xlink:type="simple"><rect fill="#FEFECE" filter="url(#fb3kqchtut2zp)" height="79.5469" id="dao.jpa.JpaRouteDao" style="stroke: #A80036; stroke-width: 1.5;" width="179" x="50.5" y="106"/><ellipse cx="91.15" cy="124.9688" fill="#ADD1B2" rx="11" ry="11" style="stroke: #A80036; stroke-width: 1.0;"/><path d="M94.1188,130.6094 Q93.5406,130.9063 92.9,131.0469 Q92.2594,131.2031 91.5563,131.2031 Q89.0563,131.2031 87.7281,129.5625 Q86.4156,127.9063 86.4156,124.7813 Q86.4156,121.6563 87.7281,120 Q89.0563,118.3438 91.5563,118.3438 Q92.2594,118.3438 92.9,118.5 Q93.5563,118.6563 94.1188,118.9531 L94.1188,121.6719 Q93.4938,121.0938 92.9,120.8281 Q92.3063,120.5469 91.6813,120.5469 Q90.3375,120.5469 89.65,121.625 Q88.9625,122.6875 88.9625,124.7813 Q88.9625,126.875 89.65,127.9531 Q90.3375,129.0156 91.6813,129.0156 Q92.3063,129.0156 92.9,128.75 Q93.4938,128.4688 94.1188,127.8906 L94.1188,130.6094 Z "/><text fill="#000000" font-family="sans-serif" font-size="14" lengthAdjust="spacingAndGlyphs" textLength="90" x="110.85" y="123.9951">JpaRouteDao</text><text fill="#000000" font-family="sans-serif" font-size="10" lengthAdjust="spacingAndGlyphs" textLength="35" x="138.35" y="136.5791">dao.jpa</text><line style="stroke: #A80036; stroke-width: 1.5;" x1="51.5" x2="228.5" y1="143.9375" y2="143.9375"/><rect fill="none" height="6" style="stroke: #C82930; stroke-width: 1.0;" width="6" x="58.5" y="152.8398"/><text fill="#000000" font-family="sans-serif" font-size="11" lengthAdjust="spacingAndGlyphs" text-decoration="underline" textLength="127" x="70.5" y="158.1479">instance: JpaRouteDao</text><line style="stroke: #A80036; stroke-width: 1.5;" x1="51.5" x2="228.5" y1="164.7422" y2="164.7422"/><polygon fill="#FFFF44" points="61.5,171.6445,65.5,175.6445,61.5,179.6445,57.5,175.6445" style="stroke: #B38D22; stroke-width: 1.0;"/><text fill="#000000" font-family="sans-serif" font-size="11" lengthAdjust="spacingAndGlyphs" text-decoration="underline" textLength="153" x="70.5" y="178.9526">getInstance(): JpaRouteDao</text></a><!--class dao.jpa.JpaDao--><a href="JpaDao.html" target="_top" xlink:actuate="onRequest" xlink:show="new" xlink:title="JpaDao.html" xlink:type="simple"><rect fill="#FEFECE" filter="url(#fb3kqchtut2zp)" height="37.9375" id="dao.jpa.JpaDao" style="stroke: #A80036; stroke-width: 1.5;" width="122" x="6" y="8"/><ellipse cx="21" cy="26.9688" fill="#A9DCDF" rx="11" ry="11" style="stroke: #A80036; stroke-width: 1.0;"/><path d="M21.1094,22.3125 L19.9531,27.3906 L22.2813,27.3906 L21.1094,22.3125 Z M19.625,20.0781 L22.6094,20.0781 L25.9688,32.4688 L23.5156,32.4688 L22.75,29.4063 L19.4688,29.4063 L18.7188,32.4688 L16.2813,32.4688 L19.625,20.0781 Z "/><text fill="#000000" font-family="sans-serif" font-size="14" font-style="italic" lengthAdjust="spacingAndGlyphs" textLength="49" x="35" y="25.9951">JpaDao</text><text fill="#000000" font-family="sans-serif" font-size="10" font-style="italic" lengthAdjust="spacingAndGlyphs" textLength="36" x="41.5" y="38.5791">dao.jpa</text><rect fill="#FFFFFF" height="15.9688" style="stroke: #000000; stroke-width: 1.0; stroke-dasharray: 2.0,2.0;" width="39" x="92" y="5"/><text fill="#000000" font-family="sans-serif" font-size="12" font-style="italic" lengthAdjust="spacingAndGlyphs" textLength="37" x="93" y="17.1387">Route</text></a><!--class dao.RouteDao--><a href="../RouteDao.html" target="_top" xlink:actuate="onRequest" xlink:show="new" xlink:title="../RouteDao.html" xlink:type="simple"><rect fill="#FEFECE" filter="url(#fb3kqchtut2zp)" height="37.9375" id="dao.RouteDao" style="stroke: #A80036; stroke-width: 1.5;" width="102" x="163" y="8"/><ellipse cx="178" cy="26.9688" fill="#B4A7E5" rx="11" ry="11" style="stroke: #A80036; stroke-width: 1.0;"/><path d="M173.9219,22.7344 L173.9219,20.5781 L181.3125,20.5781 L181.3125,22.7344 L178.8438,22.7344 L178.8438,30.8125 L181.3125,30.8125 L181.3125,32.9688 L173.9219,32.9688 L173.9219,30.8125 L176.3906,30.8125 L176.3906,22.7344 L173.9219,22.7344 Z "/><text fill="#000000" font-family="sans-serif" font-size="14" font-style="italic" lengthAdjust="spacingAndGlyphs" textLength="70" x="192" y="25.9951">RouteDao</text><text fill="#000000" font-family="sans-serif" font-size="10" font-style="italic" lengthAdjust="spacingAndGlyphs" textLength="18" x="218" y="38.5791">dao</text></a><!--link dao.jpa.JpaDao to dao.jpa.JpaRouteDao--><path d="M89.3611,63.4516 C97.5654,76.8257 106.8969,92.0375 115.2951,105.7276 " fill="none" id="dao.jpa.JpaDao-dao.jpa.JpaRouteDao" style="stroke: #A80036; stroke-width: 1.0;"/><polygon fill="none" points="83.2199,66.8276,78.7287,46.1194,95.1535,59.507,83.2199,66.8276" style="stroke: #A80036; stroke-width: 1.0;"/><!--link dao.RouteDao to dao.jpa.JpaRouteDao--><path d="M191.3326,63.4516 C183.0159,76.8257 173.5565,92.0375 165.0433,105.7276 " fill="none" id="dao.RouteDao-dao.jpa.JpaRouteDao" style="stroke: #A80036; stroke-width: 1.0; stroke-dasharray: 7.0,7.0;"/><polygon fill="none" points="185.6047,59.4069,202.1106,46.1194,197.4935,66.7999,185.6047,59.4069" style="stroke: #A80036; stroke-width: 1.0;"/><text fill="#888888" font-family="sans-serif" font-size="10" lengthAdjust="spacingAndGlyphs" textLength="186" x="48.5" y="205.2822">UMLDoclet 2.0.3, PlantUML 1.2019.06</text><!--
@startuml
    set namespaceSeparator none
    hide empty fields
    hide empty methods

    class "<size:14>JpaRouteDao\n<size:10>dao.jpa" as dao.jpa.JpaRouteDao [[JpaRouteDao.html]] {
        {static} -instance: JpaRouteDao
        {static} #getInstance(): JpaRouteDao
    }

    abstract class "<size:14>JpaDao\n<size:10>dao.jpa" as dao.jpa.JpaDao<Route> [[JpaDao.html]]
    interface "<size:14>RouteDao\n<size:10>dao" as dao.RouteDao [[../RouteDao.html]]

    dao.jpa.JpaDao <|- - dao.jpa.JpaRouteDao
    dao.RouteDao <|.. dao.jpa.JpaRouteDao

    center footer UMLDoclet 2.0.3, PlantUML 1.2019.06
@enduml

PlantUML version 1.2019.06(Fri May 24 19:10:25 CEST 2019)
(APACHE source distribution)
Java Runtime: OpenJDK Runtime Environment
JVM: OpenJDK 64-Bit Server VM
Java Version: 11.0.4+4-post-Debian-1
Operating System: Linux
OS Version: 4.19.0-5-amd64
Default Encoding: UTF-8
Language: fr
Country: FR
--></g></svg>