<?xml version="1.0" encoding="UTF-8" standalone="no"?><svg xmlns="http://www.w3.org/2000/svg" xmlns:xlink="http://www.w3.org/1999/xlink" contentScriptType="application/ecmascript" contentStyleType="text/css" height="251px" preserveAspectRatio="none" style="width:435px;height:251px;" version="1.1" viewBox="0 0 435 251" width="435px" zoomAndPan="magnify"><defs><filter height="300%" id="f1ak7ypr7u3dsm" width="300%" x="-1" y="-1"><feGaussianBlur result="blurOut" stdDeviation="2.0"/><feColorMatrix in="blurOut" result="blurOut2" type="matrix" values="0 0 0 0 0 0 0 0 0 0 0 0 0 0 0 0 0 0 .4 0"/><feOffset dx="4.0" dy="4.0" in="blurOut2" result="blurOut3"/><feBlend in="SourceGraphic" in2="blurOut3" mode="normal"/></filter></defs><g><!--class dao.jpa.JpaVehiculeDao--><a href="JpaVehiculeDao.html" target="_top" xlink:actuate="onRequest" xlink:show="new" xlink:title="JpaVehiculeDao.html" xlink:type="simple"><rect fill="#FEFECE" filter="url(#f1ak7ypr7u3dsm)" height="92.3516" id="dao.jpa.JpaVehiculeDao" style="stroke: #A80036; stroke-width: 1.5;" width="244" x="66" y="127"/><ellipse cx="130.25" cy="145.9688" fill="#ADD1B2" rx="11" ry="11" style="stroke: #A80036; stroke-width: 1.0;"/><path d="M133.2188,151.6094 Q132.6406,151.9063 132,152.0469 Q131.3594,152.2031 130.6563,152.2031 Q128.1563,152.2031 126.8281,150.5625 Q125.5156,148.9063 125.5156,145.7813 Q125.5156,142.6563 126.8281,141 Q128.1563,139.3438 130.6563,139.3438 Q131.3594,139.3438 132,139.5 Q132.6563,139.6563 133.2188,139.9531 L133.2188,142.6719 Q132.5938,142.0938 132,141.8281 Q131.4063,141.5469 130.7813,141.5469 Q129.4375,141.5469 128.75,142.625 Q128.0625,143.6875 128.0625,145.7813 Q128.0625,147.875 128.75,148.9531 Q129.4375,150.0156 130.7813,150.0156 Q131.4063,150.0156 132,149.75 Q132.5938,149.4688 133.2188,148.8906 L133.2188,151.6094 Z "/><text fill="#000000" font-family="sans-serif" font-size="14" lengthAdjust="spacingAndGlyphs" textLength="107" x="150.75" y="144.9951">JpaVehiculeDao</text><text fill="#000000" font-family="sans-serif" font-size="10" lengthAdjust="spacingAndGlyphs" textLength="35" x="186.75" y="157.5791">dao.jpa</text><line style="stroke: #A80036; stroke-width: 1.5;" x1="67" x2="309" y1="164.9375" y2="164.9375"/><rect fill="none" height="6" style="stroke: #C82930; stroke-width: 1.0;" width="6" x="74" y="173.8398"/><text fill="#000000" font-family="sans-serif" font-size="11" lengthAdjust="spacingAndGlyphs" text-decoration="underline" textLength="142" x="86" y="179.1479">instance: JpaVehiculeDao</text><line style="stroke: #A80036; stroke-width: 1.5;" x1="67" x2="309" y1="185.7422" y2="185.7422"/><polygon fill="#FFFF44" points="77,192.6445,81,196.6445,77,200.6445,73,196.6445" style="stroke: #B38D22; stroke-width: 1.0;"/><text fill="#000000" font-family="sans-serif" font-size="11" lengthAdjust="spacingAndGlyphs" text-decoration="underline" textLength="168" x="86" y="199.9526">getInstance(): JpaVehiculeDao</text><ellipse cx="77" cy="210.4492" fill="#84BE84" rx="3" ry="3" style="stroke: #038048; stroke-width: 1.0;"/><text fill="#000000" font-family="sans-serif" font-size="11" lengthAdjust="spacingAndGlyphs" textLength="218" x="86" y="212.7573">findAllNotUsed(): Collection&lt;Vehicule&gt;</text></a><!--class dao.jpa.JpaDao--><a href="JpaDao.html" target="_top" xlink:actuate="onRequest" xlink:show="new" xlink:title="JpaDao.html" xlink:type="simple"><rect fill="#FEFECE" filter="url(#f1ak7ypr7u3dsm)" height="37.9375" id="dao.jpa.JpaDao" style="stroke: #A80036; stroke-width: 1.5;" width="138" x="6" y="18.5"/><ellipse cx="21" cy="37.4688" fill="#A9DCDF" rx="11" ry="11" style="stroke: #A80036; stroke-width: 1.0;"/><path d="M21.1094,32.8125 L19.9531,37.8906 L22.2813,37.8906 L21.1094,32.8125 Z M19.625,30.5781 L22.6094,30.5781 L25.9688,42.9688 L23.5156,42.9688 L22.75,39.9063 L19.4688,39.9063 L18.7188,42.9688 L16.2813,42.9688 L19.625,30.5781 Z "/><text fill="#000000" font-family="sans-serif" font-size="14" font-style="italic" lengthAdjust="spacingAndGlyphs" textLength="49" x="35" y="36.4951">JpaDao</text><text fill="#000000" font-family="sans-serif" font-size="10" font-style="italic" lengthAdjust="spacingAndGlyphs" textLength="36" x="41.5" y="49.0791">dao.jpa</text><rect fill="#FFFFFF" height="15.9688" style="stroke: #000000; stroke-width: 1.0; stroke-dasharray: 2.0,2.0;" width="55" x="92" y="15.5"/><text fill="#000000" font-family="sans-serif" font-size="12" font-style="italic" lengthAdjust="spacingAndGlyphs" textLength="53" x="93" y="27.6387">Vehicule</text></a><!--class dao.VehiculeDao--><a href="../VehiculeDao.html" target="_top" xlink:actuate="onRequest" xlink:show="new" xlink:title="../VehiculeDao.html" xlink:type="simple"><rect fill="#FEFECE" filter="url(#f1ak7ypr7u3dsm)" height="58.7422" id="dao.VehiculeDao" style="stroke: #A80036; stroke-width: 1.5;" width="245" x="179.5" y="8"/><ellipse cx="253.75" cy="26.9688" fill="#B4A7E5" rx="11" ry="11" style="stroke: #A80036; stroke-width: 1.0;"/><path d="M249.6719,22.7344 L249.6719,20.5781 L257.0625,20.5781 L257.0625,22.7344 L254.5938,22.7344 L254.5938,30.8125 L257.0625,30.8125 L257.0625,32.9688 L249.6719,32.9688 L249.6719,30.8125 L252.1406,30.8125 L252.1406,22.7344 L249.6719,22.7344 Z "/><text fill="#000000" font-family="sans-serif" font-size="14" font-style="italic" lengthAdjust="spacingAndGlyphs" textLength="88" x="274.25" y="25.9951">VehiculeDao</text><text fill="#000000" font-family="sans-serif" font-size="10" font-style="italic" lengthAdjust="spacingAndGlyphs" textLength="18" x="309.25" y="38.5791">dao</text><line style="stroke: #A80036; stroke-width: 1.5;" x1="180.5" x2="423.5" y1="45.9375" y2="45.9375"/><ellipse cx="190.5" cy="57.8398" fill="#84BE84" rx="3" ry="3" style="stroke: #038048; stroke-width: 1.0;"/><text fill="#000000" font-family="sans-serif" font-size="11" font-style="italic" lengthAdjust="spacingAndGlyphs" textLength="219" x="199.5" y="60.1479">findAllNotUsed(): Collection&lt;Vehicule&gt;</text></a><!--link dao.jpa.JpaDao to dao.jpa.JpaVehiculeDao--><path d="M103.8895,72.1418 C117.7489,88.7608 134.5474,108.9042 149.4766,126.806 " fill="none" id="dao.jpa.JpaDao-dao.jpa.JpaVehiculeDao" style="stroke: #A80036; stroke-width: 1.0;"/><polygon fill="none" points="98.3838,76.4695,90.9505,56.6265,109.1357,67.503,98.3838,76.4695" style="stroke: #A80036; stroke-width: 1.0;"/><!--link dao.VehiculeDao to dao.jpa.JpaVehiculeDao--><path d="M263.7455,82.9692 C251.8689,97.0856 238.7706,112.6542 226.8538,126.8186 " fill="none" id="dao.VehiculeDao-dao.jpa.JpaVehiculeDao" style="stroke: #A80036; stroke-width: 1.0; stroke-dasharray: 7.0,7.0;"/><polygon fill="none" points="258.75,78.0336,276.9822,67.2361,269.4629,87.0467,258.75,78.0336" style="stroke: #A80036; stroke-width: 1.0;"/><text fill="#888888" font-family="sans-serif" font-size="10" lengthAdjust="spacingAndGlyphs" textLength="186" x="128.5" y="238.2822">UMLDoclet 2.0.3, PlantUML 1.2019.06</text><!--
@startuml
    set namespaceSeparator none
    hide empty fields
    hide empty methods

    class "<size:14>JpaVehiculeDao\n<size:10>dao.jpa" as dao.jpa.JpaVehiculeDao [[JpaVehiculeDao.html]] {
        {static} -instance: JpaVehiculeDao
        {static} #getInstance(): JpaVehiculeDao
        +findAllNotUsed(): Collection<Vehicule>
    }

    abstract class "<size:14>JpaDao\n<size:10>dao.jpa" as dao.jpa.JpaDao<Vehicule> [[JpaDao.html]]
    interface "<size:14>VehiculeDao\n<size:10>dao" as dao.VehiculeDao [[../VehiculeDao.html]] {
        {abstract} +findAllNotUsed(): Collection<Vehicule>
    }

    dao.jpa.JpaDao <|- - dao.jpa.JpaVehiculeDao
    dao.VehiculeDao <|.. dao.jpa.JpaVehiculeDao

    center footer UMLDoclet 2.0.3, PlantUML 1.2019.06
@enduml

PlantUML version 1.2019.06(Fri May 24 19:10:25 CEST 2019)
(APACHE source distribution)
Java Runtime: OpenJDK Runtime Environment
JVM: OpenJDK 64-Bit Server VM
Java Version: 11.0.4+4-post-Debian-1
Operating System: Linux
OS Version: 4.19.0-5-amd64
Default Encoding: UTF-8
Language: fr
Country: FR
--></g></svg>