<?xml version="1.0" encoding="UTF-8" standalone="no"?><svg xmlns="http://www.w3.org/2000/svg" xmlns:xlink="http://www.w3.org/1999/xlink" contentScriptType="application/ecmascript" contentStyleType="text/css" height="196px" preserveAspectRatio="none" style="width:250px;height:196px;" version="1.1" viewBox="0 0 250 196" width="250px" zoomAndPan="magnify"><defs><filter height="300%" id="f1fms21r61tbgb" width="300%" x="-1" y="-1"><feGaussianBlur result="blurOut" stdDeviation="2.0"/><feColorMatrix in="blurOut" result="blurOut2" type="matrix" values="0 0 0 0 0 0 0 0 0 0 0 0 0 0 0 0 0 0 .4 0"/><feOffset dx="4.0" dy="4.0" in="blurOut2" result="blurOut3"/><feBlend in="SourceGraphic" in2="blurOut3" mode="normal"/></filter></defs><g><!--class model.DepotTest--><a href="DepotTest.html" target="_top" xlink:actuate="onRequest" xlink:show="new" xlink:title="DepotTest.html" xlink:type="simple"><rect fill="#FEFECE" filter="url(#f1fms21r61tbgb)" height="156.375" id="model.DepotTest" style="stroke: #A80036; stroke-width: 1.5;" width="233" x="6" y="8"/><ellipse cx="81.25" cy="26.9688" fill="#ADD1B2" rx="11" ry="11" style="stroke: #A80036; stroke-width: 1.0;"/><path d="M84.2188,32.6094 Q83.6406,32.9063 83,33.0469 Q82.3594,33.2031 81.6563,33.2031 Q79.1563,33.2031 77.8281,31.5625 Q76.5156,29.9063 76.5156,26.7813 Q76.5156,23.6563 77.8281,22 Q79.1563,20.3438 81.6563,20.3438 Q82.3594,20.3438 83,20.5 Q83.6563,20.6563 84.2188,20.9531 L84.2188,23.6719 Q83.5938,23.0938 83,22.8281 Q82.4063,22.5469 81.7813,22.5469 Q80.4375,22.5469 79.75,23.625 Q79.0625,24.6875 79.0625,26.7813 Q79.0625,28.875 79.75,29.9531 Q80.4375,31.0156 81.7813,31.0156 Q82.4063,31.0156 83,30.75 Q83.5938,30.4688 84.2188,29.8906 L84.2188,32.6094 Z "/><text fill="#000000" font-family="sans-serif" font-size="14" lengthAdjust="spacingAndGlyphs" textLength="74" x="101.75" y="25.9951">DepotTest</text><text fill="#000000" font-family="sans-serif" font-size="10" lengthAdjust="spacingAndGlyphs" textLength="30" x="123.75" y="38.5791">model</text><line style="stroke: #A80036; stroke-width: 1.5;" x1="7" x2="238" y1="45.9375" y2="45.9375"/><rect fill="none" height="6" style="stroke: #C82930; stroke-width: 1.0;" width="6" x="14" y="54.8398"/><text fill="#000000" font-family="sans-serif" font-size="11" lengthAdjust="spacingAndGlyphs" textLength="121" x="26" y="60.1479">depotInstance: Depot</text><rect fill="none" height="6" style="stroke: #C82930; stroke-width: 1.0;" width="6" x="14" y="67.6445"/><text fill="#000000" font-family="sans-serif" font-size="11" lengthAdjust="spacingAndGlyphs" text-decoration="underline" textLength="158" x="26" y="72.9526">DEFAULT_HEURE_DEBUT: int</text><rect fill="none" height="6" style="stroke: #C82930; stroke-width: 1.0;" width="6" x="14" y="80.4492"/><text fill="#000000" font-family="sans-serif" font-size="11" lengthAdjust="spacingAndGlyphs" text-decoration="underline" textLength="137" x="26" y="85.7573">DEFAULT_HEURE_FIN: int</text><rect fill="none" height="6" style="stroke: #C82930; stroke-width: 1.0;" width="6" x="14" y="93.2539"/><text fill="#000000" font-family="sans-serif" font-size="11" lengthAdjust="spacingAndGlyphs" text-decoration="underline" textLength="108" x="26" y="98.562">DEFAULT_X: double</text><rect fill="none" height="6" style="stroke: #C82930; stroke-width: 1.0;" width="6" x="14" y="106.0586"/><text fill="#000000" font-family="sans-serif" font-size="11" lengthAdjust="spacingAndGlyphs" text-decoration="underline" textLength="108" x="26" y="111.3667">DEFAULT_Y: double</text><line style="stroke: #A80036; stroke-width: 1.5;" x1="7" x2="238" y1="117.9609" y2="117.9609"/><polygon fill="#4177AF" points="17,125.8633,13,131.8633,21,131.8633" style="stroke: #1963A0; stroke-width: 1.0;"/><text fill="#000000" font-family="sans-serif" font-size="11" lengthAdjust="spacingAndGlyphs" textLength="132" x="26" y="132.1714">createNewDepot(): void</text><ellipse cx="17" cy="142.668" fill="#84BE84" rx="3" ry="3" style="stroke: #038048; stroke-width: 1.0;"/><text fill="#000000" font-family="sans-serif" font-size="11" lengthAdjust="spacingAndGlyphs" textLength="207" x="26" y="144.9761">instanciateFromEmplacement(): void</text><ellipse cx="17" cy="155.4727" fill="#84BE84" rx="3" ry="3" style="stroke: #038048; stroke-width: 1.0;"/><text fill="#000000" font-family="sans-serif" font-size="11" lengthAdjust="spacingAndGlyphs" textLength="109" x="26" y="157.7808">testToString(): void</text></a><text fill="#888888" font-family="sans-serif" font-size="10" lengthAdjust="spacingAndGlyphs" textLength="186" x="35.5" y="183.2822">UMLDoclet 2.0.3, PlantUML 1.2019.06</text><!--
@startuml
    set namespaceSeparator none
    hide empty fields
    hide empty methods

    class "<size:14>DepotTest\n<size:10>model" as model.DepotTest [[DepotTest.html]] {
        -depotInstance: Depot
        {static} -DEFAULT_HEURE_DEBUT: int
        {static} -DEFAULT_HEURE_FIN: int
        {static} -DEFAULT_X: double
        {static} -DEFAULT_Y: double
        ~createNewDepot(): void
        +instanciateFromEmplacement(): void
        +testToString(): void
    }

    center footer UMLDoclet 2.0.3, PlantUML 1.2019.06
@enduml

PlantUML version 1.2019.06(Fri May 24 19:10:25 CEST 2019)
(APACHE source distribution)
Java Runtime: OpenJDK Runtime Environment
JVM: OpenJDK 64-Bit Server VM
Java Version: 11.0.4+4-post-Debian-1
Operating System: Linux
OS Version: 4.19.0-5-amd64
Default Encoding: UTF-8
Language: fr
Country: FR
--></g></svg>