<?xml version="1.0" encoding="UTF-8" standalone="no"?><svg xmlns="http://www.w3.org/2000/svg" xmlns:xlink="http://www.w3.org/1999/xlink" contentScriptType="application/ecmascript" contentStyleType="text/css" height="286px" preserveAspectRatio="none" style="width:209px;height:286px;" version="1.1" viewBox="0 0 209 286" width="209px" zoomAndPan="magnify"><defs><filter height="300%" id="f14cafa1rormr5" width="300%" x="-1" y="-1"><feGaussianBlur result="blurOut" stdDeviation="2.0"/><feColorMatrix in="blurOut" result="blurOut2" type="matrix" values="0 0 0 0 0 0 0 0 0 0 0 0 0 0 0 0 0 0 .4 0"/><feOffset dx="4.0" dy="4.0" in="blurOut2" result="blurOut3"/><feBlend in="SourceGraphic" in2="blurOut3" mode="normal"/></filter></defs><g><!--class model.InstanceTest--><a href="InstanceTest.html" target="_top" xlink:actuate="onRequest" xlink:show="new" xlink:title="InstanceTest.html" xlink:type="simple"><rect fill="#FEFECE" filter="url(#f14cafa1rormr5)" height="246.0078" id="model.InstanceTest" style="stroke: #A80036; stroke-width: 1.5;" width="184" x="6" y="8"/><ellipse cx="48.9" cy="26.9688" fill="#ADD1B2" rx="11" ry="11" style="stroke: #A80036; stroke-width: 1.0;"/><path d="M51.8688,32.6094 Q51.2906,32.9063 50.65,33.0469 Q50.0094,33.2031 49.3063,33.2031 Q46.8063,33.2031 45.4781,31.5625 Q44.1656,29.9063 44.1656,26.7813 Q44.1656,23.6563 45.4781,22 Q46.8063,20.3438 49.3063,20.3438 Q50.0094,20.3438 50.65,20.5 Q51.3063,20.6563 51.8688,20.9531 L51.8688,23.6719 Q51.2438,23.0938 50.65,22.8281 Q50.0563,22.5469 49.4313,22.5469 Q48.0875,22.5469 47.4,23.625 Q46.7125,24.6875 46.7125,26.7813 Q46.7125,28.875 47.4,29.9531 Q48.0875,31.0156 49.4313,31.0156 Q50.0563,31.0156 50.65,30.75 Q51.2438,30.4688 51.8688,29.8906 L51.8688,32.6094 Z "/><text fill="#000000" font-family="sans-serif" font-size="14" lengthAdjust="spacingAndGlyphs" textLength="90" x="69.1" y="25.9951">InstanceTest</text><text fill="#000000" font-family="sans-serif" font-size="10" lengthAdjust="spacingAndGlyphs" textLength="30" x="99.1" y="38.5791">model</text><line style="stroke: #A80036; stroke-width: 1.5;" x1="7" x2="189" y1="45.9375" y2="45.9375"/><rect fill="none" height="6" style="stroke: #C82930; stroke-width: 1.0;" width="6" x="14" y="54.8398"/><text fill="#000000" font-family="sans-serif" font-size="11" lengthAdjust="spacingAndGlyphs" text-decoration="underline" textLength="158" x="26" y="60.1479">DEFAULT_HEURE_DEBUT: int</text><rect fill="none" height="6" style="stroke: #C82930; stroke-width: 1.0;" width="6" x="14" y="67.6445"/><text fill="#000000" font-family="sans-serif" font-size="11" lengthAdjust="spacingAndGlyphs" text-decoration="underline" textLength="137" x="26" y="72.9526">DEFAULT_HEURE_FIN: int</text><rect fill="none" height="6" style="stroke: #C82930; stroke-width: 1.0;" width="6" x="14" y="80.4492"/><text fill="#000000" font-family="sans-serif" font-size="11" lengthAdjust="spacingAndGlyphs" text-decoration="underline" textLength="108" x="26" y="85.7573">DEFAULT_X: double</text><rect fill="none" height="6" style="stroke: #C82930; stroke-width: 1.0;" width="6" x="14" y="93.2539"/><text fill="#000000" font-family="sans-serif" font-size="11" lengthAdjust="spacingAndGlyphs" text-decoration="underline" textLength="108" x="26" y="98.562">DEFAULT_Y: double</text><rect fill="none" height="6" style="stroke: #C82930; stroke-width: 1.0;" width="6" x="14" y="106.0586"/><text fill="#000000" font-family="sans-serif" font-size="11" lengthAdjust="spacingAndGlyphs" textLength="152" x="26" y="111.3667">instanceInstance: Instance</text><line style="stroke: #A80036; stroke-width: 1.5;" x1="7" x2="189" y1="117.9609" y2="117.9609"/><polygon fill="#4177AF" points="17,125.8633,13,131.8633,21,131.8633" style="stroke: #1963A0; stroke-width: 1.0;"/><text fill="#000000" font-family="sans-serif" font-size="11" lengthAdjust="spacingAndGlyphs" textLength="147" x="26" y="132.1714">createNewInstance(): void</text><ellipse cx="17" cy="142.668" fill="#84BE84" rx="3" ry="3" style="stroke: #038048; stroke-width: 1.0;"/><text fill="#000000" font-family="sans-serif" font-size="11" lengthAdjust="spacingAndGlyphs" textLength="157" x="26" y="144.9761">testCapaciteVehicule(): void</text><ellipse cx="17" cy="155.4727" fill="#84BE84" rx="3" ry="3" style="stroke: #038048; stroke-width: 1.0;"/><text fill="#000000" font-family="sans-serif" font-size="11" lengthAdjust="spacingAndGlyphs" textLength="134" x="26" y="157.7808">testCoutVehicule(): void</text><ellipse cx="17" cy="168.2773" fill="#84BE84" rx="3" ry="3" style="stroke: #038048; stroke-width: 1.0;"/><text fill="#000000" font-family="sans-serif" font-size="11" lengthAdjust="spacingAndGlyphs" textLength="94" x="26" y="170.5854">testDepot(): void</text><ellipse cx="17" cy="181.082" fill="#84BE84" rx="3" ry="3" style="stroke: #038048; stroke-width: 1.0;"/><text fill="#000000" font-family="sans-serif" font-size="11" lengthAdjust="spacingAndGlyphs" textLength="100" x="26" y="183.3901">testClients(): void</text><ellipse cx="17" cy="193.8867" fill="#84BE84" rx="3" ry="3" style="stroke: #038048; stroke-width: 1.0;"/><text fill="#000000" font-family="sans-serif" font-size="11" lengthAdjust="spacingAndGlyphs" textLength="152" x="26" y="196.1948">testPlanningCurrent(): void</text><ellipse cx="17" cy="206.6914" fill="#84BE84" rx="3" ry="3" style="stroke: #038048; stroke-width: 1.0;"/><text fill="#000000" font-family="sans-serif" font-size="11" lengthAdjust="spacingAndGlyphs" textLength="130" x="26" y="208.9995">testNbVehicules(): void</text><ellipse cx="17" cy="219.4961" fill="#84BE84" rx="3" ry="3" style="stroke: #038048; stroke-width: 1.0;"/><text fill="#000000" font-family="sans-serif" font-size="11" lengthAdjust="spacingAndGlyphs" textLength="154" x="26" y="221.8042">testAddNewPlanning(): void</text><ellipse cx="17" cy="232.3008" fill="#84BE84" rx="3" ry="3" style="stroke: #038048; stroke-width: 1.0;"/><text fill="#000000" font-family="sans-serif" font-size="11" lengthAdjust="spacingAndGlyphs" textLength="129" x="26" y="234.6089">testAddVehicule(): void</text><ellipse cx="17" cy="245.1055" fill="#84BE84" rx="3" ry="3" style="stroke: #038048; stroke-width: 1.0;"/><text fill="#000000" font-family="sans-serif" font-size="11" lengthAdjust="spacingAndGlyphs" textLength="109" x="26" y="247.4136">testToString(): void</text></a><text fill="#888888" font-family="sans-serif" font-size="10" lengthAdjust="spacingAndGlyphs" textLength="186" x="11" y="273.2822">UMLDoclet 2.0.3, PlantUML 1.2019.06</text><!--
@startuml
    set namespaceSeparator none
    hide empty fields
    hide empty methods

    class "<size:14>InstanceTest\n<size:10>model" as model.InstanceTest [[InstanceTest.html]] {
        {static} -DEFAULT_HEURE_DEBUT: int
        {static} -DEFAULT_HEURE_FIN: int
        {static} -DEFAULT_X: double
        {static} -DEFAULT_Y: double
        -instanceInstance: Instance
        ~createNewInstance(): void
        +testCapaciteVehicule(): void
        +testCoutVehicule(): void
        +testDepot(): void
        +testClients(): void
        +testPlanningCurrent(): void
        +testNbVehicules(): void
        +testAddNewPlanning(): void
        +testAddVehicule(): void
        +testToString(): void
    }

    center footer UMLDoclet 2.0.3, PlantUML 1.2019.06
@enduml

PlantUML version 1.2019.06(Fri May 24 19:10:25 CEST 2019)
(APACHE source distribution)
Java Runtime: OpenJDK Runtime Environment
JVM: OpenJDK 64-Bit Server VM
Java Version: 11.0.4+4-post-Debian-1
Operating System: Linux
OS Version: 4.19.0-5-amd64
Default Encoding: UTF-8
Language: fr
Country: FR
--></g></svg>