<?xml version="1.0" encoding="UTF-8" standalone="no"?><svg xmlns="http://www.w3.org/2000/svg" xmlns:xlink="http://www.w3.org/1999/xlink" contentScriptType="application/ecmascript" contentStyleType="text/css" height="520px" preserveAspectRatio="none" style="width:1637px;height:520px;" version="1.1" viewBox="0 0 1637 520" width="1637px" zoomAndPan="magnify"><defs><filter height="300%" id="fkybxdfeuq3s1" width="300%" x="-1" y="-1"><feGaussianBlur result="blurOut" stdDeviation="2.0"/><feColorMatrix in="blurOut" result="blurOut2" type="matrix" values="0 0 0 0 0 0 0 0 0 0 0 0 0 0 0 0 0 0 .4 0"/><feOffset dx="4.0" dy="4.0" in="blurOut2" result="blurOut3"/><feBlend in="SourceGraphic" in2="blurOut3" mode="normal"/></filter></defs><g><!--cluster model--><polygon fill="#FFFFFF" filter="url(#fkybxdfeuq3s1)" points="14,16,68,16,75,38.2969,1615,38.2969,1615,480,14,480,14,16" style="stroke: #000000; stroke-width: 1.5;"/><line style="stroke: #000000; stroke-width: 1.5;" x1="14" x2="75" y1="38.2969" y2="38.2969"/><text fill="#000000" font-family="sans-serif" font-size="14" font-weight="bold" lengthAdjust="spacingAndGlyphs" textLength="48" x="18" y="30.9951">model</text><!--class model.ClientTest--><a href="ClientTest.html" target="_top" xlink:actuate="onRequest" xlink:show="new" xlink:title="ClientTest.html" xlink:type="simple"><rect fill="#FEFECE" filter="url(#fkybxdfeuq3s1)" height="176.0469" id="model.ClientTest" style="stroke: #A80036; stroke-width: 1.5;" width="191" x="1415.5" y="68.5"/><ellipse cx="1475.75" cy="84.5" fill="#ADD1B2" rx="11" ry="11" style="stroke: #A80036; stroke-width: 1.0;"/><path d="M1478.7188,90.1406 Q1478.1406,90.4375 1477.5,90.5781 Q1476.8594,90.7344 1476.1563,90.7344 Q1473.6563,90.7344 1472.3281,89.0938 Q1471.0156,87.4375 1471.0156,84.3125 Q1471.0156,81.1875 1472.3281,79.5313 Q1473.6563,77.875 1476.1563,77.875 Q1476.8594,77.875 1477.5,78.0313 Q1478.1563,78.1875 1478.7188,78.4844 L1478.7188,81.2031 Q1478.0938,80.625 1477.5,80.3594 Q1476.9063,80.0781 1476.2813,80.0781 Q1474.9375,80.0781 1474.25,81.1563 Q1473.5625,82.2188 1473.5625,84.3125 Q1473.5625,86.4063 1474.25,87.4844 Q1474.9375,88.5469 1476.2813,88.5469 Q1476.9063,88.5469 1477.5,88.2813 Q1478.0938,88 1478.7188,87.4219 L1478.7188,90.1406 Z "/><text fill="#000000" font-family="sans-serif" font-size="12" lengthAdjust="spacingAndGlyphs" textLength="62" x="1496.25" y="88.6543">ClientTest</text><line style="stroke: #A80036; stroke-width: 1.5;" x1="1416.5" x2="1605.5" y1="100.5" y2="100.5"/><rect fill="none" height="6" style="stroke: #C82930; stroke-width: 1.0;" width="6" x="1423.5" y="109.4023"/><text fill="#000000" font-family="sans-serif" font-size="11" lengthAdjust="spacingAndGlyphs" text-decoration="underline" textLength="131" x="1435.5" y="114.7104">DEFAULT_DEMANDE: int</text><line style="stroke: #A80036; stroke-width: 1.5;" x1="1416.5" x2="1605.5" y1="121.3047" y2="121.3047"/><polygon fill="#4177AF" points="1426.5,129.207,1422.5,135.207,1430.5,135.207" style="stroke: #1963A0; stroke-width: 1.0;"/><text fill="#000000" font-family="sans-serif" font-size="11" lengthAdjust="spacingAndGlyphs" textLength="131" x="1435.5" y="135.5151">createNewClient(): void</text><ellipse cx="1426.5" cy="146.0117" fill="#84BE84" rx="3" ry="3" style="stroke: #038048; stroke-width: 1.0;"/><text fill="#000000" font-family="sans-serif" font-size="11" lengthAdjust="spacingAndGlyphs" textLength="159" x="1435.5" y="148.3198">testAddEmplacement(): void</text><ellipse cx="1426.5" cy="158.8164" fill="#84BE84" rx="3" ry="3" style="stroke: #038048; stroke-width: 1.0;"/><text fill="#000000" font-family="sans-serif" font-size="11" lengthAdjust="spacingAndGlyphs" textLength="135" x="1435.5" y="161.1245">testGetDemande(): void</text><ellipse cx="1426.5" cy="171.6211" fill="#84BE84" rx="3" ry="3" style="stroke: #038048; stroke-width: 1.0;"/><text fill="#000000" font-family="sans-serif" font-size="11" lengthAdjust="spacingAndGlyphs" textLength="106" x="1435.5" y="173.9292">testPosition(): void</text><ellipse cx="1426.5" cy="184.4258" fill="#84BE84" rx="3" ry="3" style="stroke: #038048; stroke-width: 1.0;"/><text fill="#000000" font-family="sans-serif" font-size="11" lengthAdjust="spacingAndGlyphs" textLength="165" x="1435.5" y="186.7339">testGetEmplacements(): void</text><ellipse cx="1426.5" cy="197.2305" fill="#84BE84" rx="3" ry="3" style="stroke: #038048; stroke-width: 1.0;"/><text fill="#000000" font-family="sans-serif" font-size="11" lengthAdjust="spacingAndGlyphs" textLength="108" x="1435.5" y="199.5386">testVehicule(): void</text><ellipse cx="1426.5" cy="210.0352" fill="#84BE84" rx="3" ry="3" style="stroke: #038048; stroke-width: 1.0;"/><text fill="#000000" font-family="sans-serif" font-size="11" lengthAdjust="spacingAndGlyphs" textLength="109" x="1435.5" y="212.3433">testToString(): void</text><ellipse cx="1426.5" cy="222.8398" fill="#84BE84" rx="3" ry="3" style="stroke: #038048; stroke-width: 1.0;"/><text fill="#000000" font-family="sans-serif" font-size="11" lengthAdjust="spacingAndGlyphs" textLength="91" x="1435.5" y="225.1479">testClear(): void</text><ellipse cx="1426.5" cy="235.6445" fill="#84BE84" rx="3" ry="3" style="stroke: #038048; stroke-width: 1.0;"/><text fill="#000000" font-family="sans-serif" font-size="11" lengthAdjust="spacingAndGlyphs" textLength="95" x="1435.5" y="237.9526">testCheck(): void</text></a><!--class model.VehiculeTest--><a href="VehiculeTest.html" target="_top" xlink:actuate="onRequest" xlink:show="new" xlink:title="VehiculeTest.html" xlink:type="simple"><rect fill="#FEFECE" filter="url(#fkybxdfeuq3s1)" height="176.0469" id="model.VehiculeTest" style="stroke: #A80036; stroke-width: 1.5;" width="206" x="955" y="68.5"/><ellipse cx="1013.75" cy="84.5" fill="#ADD1B2" rx="11" ry="11" style="stroke: #A80036; stroke-width: 1.0;"/><path d="M1016.7188,90.1406 Q1016.1406,90.4375 1015.5,90.5781 Q1014.8594,90.7344 1014.1563,90.7344 Q1011.6563,90.7344 1010.3281,89.0938 Q1009.0156,87.4375 1009.0156,84.3125 Q1009.0156,81.1875 1010.3281,79.5313 Q1011.6563,77.875 1014.1563,77.875 Q1014.8594,77.875 1015.5,78.0313 Q1016.1563,78.1875 1016.7188,78.4844 L1016.7188,81.2031 Q1016.0938,80.625 1015.5,80.3594 Q1014.9063,80.0781 1014.2813,80.0781 Q1012.9375,80.0781 1012.25,81.1563 Q1011.5625,82.2188 1011.5625,84.3125 Q1011.5625,86.4063 1012.25,87.4844 Q1012.9375,88.5469 1014.2813,88.5469 Q1014.9063,88.5469 1015.5,88.2813 Q1016.0938,88 1016.7188,87.4219 L1016.7188,90.1406 Z "/><text fill="#000000" font-family="sans-serif" font-size="12" lengthAdjust="spacingAndGlyphs" textLength="80" x="1034.25" y="88.6543">VehiculeTest</text><line style="stroke: #A80036; stroke-width: 1.5;" x1="956" x2="1160" y1="100.5" y2="100.5"/><rect fill="none" height="6" style="stroke: #C82930; stroke-width: 1.0;" width="6" x="963" y="109.4023"/><text fill="#000000" font-family="sans-serif" font-size="11" lengthAdjust="spacingAndGlyphs" text-decoration="underline" textLength="158" x="975" y="114.7104">DEFAULT_HEURE_DEBUT: int</text><rect fill="none" height="6" style="stroke: #C82930; stroke-width: 1.0;" width="6" x="963" y="122.207"/><text fill="#000000" font-family="sans-serif" font-size="11" lengthAdjust="spacingAndGlyphs" text-decoration="underline" textLength="137" x="975" y="127.5151">DEFAULT_HEURE_FIN: int</text><rect fill="none" height="6" style="stroke: #C82930; stroke-width: 1.0;" width="6" x="963" y="135.0117"/><text fill="#000000" font-family="sans-serif" font-size="11" lengthAdjust="spacingAndGlyphs" text-decoration="underline" textLength="108" x="975" y="140.3198">DEFAULT_X: double</text><rect fill="none" height="6" style="stroke: #C82930; stroke-width: 1.0;" width="6" x="963" y="147.8164"/><text fill="#000000" font-family="sans-serif" font-size="11" lengthAdjust="spacingAndGlyphs" text-decoration="underline" textLength="108" x="975" y="153.1245">DEFAULT_Y: double</text><rect fill="none" height="6" style="stroke: #C82930; stroke-width: 1.0;" width="6" x="963" y="160.6211"/><text fill="#000000" font-family="sans-serif" font-size="11" lengthAdjust="spacingAndGlyphs" text-decoration="underline" textLength="131" x="975" y="165.9292">DEFAULT_CAPACITY: int</text><line style="stroke: #A80036; stroke-width: 1.5;" x1="956" x2="1160" y1="172.5234" y2="172.5234"/><polygon fill="#4177AF" points="966,180.4258,962,186.4258,970,186.4258" style="stroke: #1963A0; stroke-width: 1.0;"/><text fill="#000000" font-family="sans-serif" font-size="11" lengthAdjust="spacingAndGlyphs" textLength="127" x="975" y="186.7339">createNewPoint(): void</text><ellipse cx="966" cy="197.2305" fill="#84BE84" rx="3" ry="3" style="stroke: #038048; stroke-width: 1.0;"/><text fill="#000000" font-family="sans-serif" font-size="11" lengthAdjust="spacingAndGlyphs" textLength="95" x="975" y="199.5386">testCheck(): void</text><ellipse cx="966" cy="210.0352" fill="#84BE84" rx="3" ry="3" style="stroke: #038048; stroke-width: 1.0;"/><text fill="#000000" font-family="sans-serif" font-size="11" lengthAdjust="spacingAndGlyphs" textLength="91" x="975" y="212.3433">testClear(): void</text><ellipse cx="966" cy="222.8398" fill="#84BE84" rx="3" ry="3" style="stroke: #038048; stroke-width: 1.0;"/><text fill="#000000" font-family="sans-serif" font-size="11" lengthAdjust="spacingAndGlyphs" textLength="180" x="975" y="225.1479">testGetCapaciteRestante(): void</text><ellipse cx="966" cy="235.6445" fill="#84BE84" rx="3" ry="3" style="stroke: #038048; stroke-width: 1.0;"/><text fill="#000000" font-family="sans-serif" font-size="11" lengthAdjust="spacingAndGlyphs" textLength="109" x="975" y="237.9526">testToString(): void</text></a><!--class model.InstanceTest--><a href="InstanceTest.html" target="_top" xlink:actuate="onRequest" xlink:show="new" xlink:title="InstanceTest.html" xlink:type="simple"><rect fill="#FEFECE" filter="url(#fkybxdfeuq3s1)" height="227.2656" id="model.InstanceTest" style="stroke: #A80036; stroke-width: 1.5;" width="184" x="1196" y="43"/><ellipse cx="1243.25" cy="59" fill="#ADD1B2" rx="11" ry="11" style="stroke: #A80036; stroke-width: 1.0;"/><path d="M1246.2188,64.6406 Q1245.6406,64.9375 1245,65.0781 Q1244.3594,65.2344 1243.6563,65.2344 Q1241.1563,65.2344 1239.8281,63.5938 Q1238.5156,61.9375 1238.5156,58.8125 Q1238.5156,55.6875 1239.8281,54.0313 Q1241.1563,52.375 1243.6563,52.375 Q1244.3594,52.375 1245,52.5313 Q1245.6563,52.6875 1246.2188,52.9844 L1246.2188,55.7031 Q1245.5938,55.125 1245,54.8594 Q1244.4063,54.5781 1243.7813,54.5781 Q1242.4375,54.5781 1241.75,55.6563 Q1241.0625,56.7188 1241.0625,58.8125 Q1241.0625,60.9063 1241.75,61.9844 Q1242.4375,63.0469 1243.7813,63.0469 Q1244.4063,63.0469 1245,62.7813 Q1245.5938,62.5 1246.2188,61.9219 L1246.2188,64.6406 Z "/><text fill="#000000" font-family="sans-serif" font-size="12" lengthAdjust="spacingAndGlyphs" textLength="81" x="1263.75" y="63.1543">InstanceTest</text><line style="stroke: #A80036; stroke-width: 1.5;" x1="1197" x2="1379" y1="75" y2="75"/><rect fill="none" height="6" style="stroke: #C82930; stroke-width: 1.0;" width="6" x="1204" y="83.9023"/><text fill="#000000" font-family="sans-serif" font-size="11" lengthAdjust="spacingAndGlyphs" text-decoration="underline" textLength="158" x="1216" y="89.2104">DEFAULT_HEURE_DEBUT: int</text><rect fill="none" height="6" style="stroke: #C82930; stroke-width: 1.0;" width="6" x="1204" y="96.707"/><text fill="#000000" font-family="sans-serif" font-size="11" lengthAdjust="spacingAndGlyphs" text-decoration="underline" textLength="137" x="1216" y="102.0151">DEFAULT_HEURE_FIN: int</text><rect fill="none" height="6" style="stroke: #C82930; stroke-width: 1.0;" width="6" x="1204" y="109.5117"/><text fill="#000000" font-family="sans-serif" font-size="11" lengthAdjust="spacingAndGlyphs" text-decoration="underline" textLength="108" x="1216" y="114.8198">DEFAULT_X: double</text><rect fill="none" height="6" style="stroke: #C82930; stroke-width: 1.0;" width="6" x="1204" y="122.3164"/><text fill="#000000" font-family="sans-serif" font-size="11" lengthAdjust="spacingAndGlyphs" text-decoration="underline" textLength="108" x="1216" y="127.6245">DEFAULT_Y: double</text><line style="stroke: #A80036; stroke-width: 1.5;" x1="1197" x2="1379" y1="134.2188" y2="134.2188"/><polygon fill="#4177AF" points="1207,142.1211,1203,148.1211,1211,148.1211" style="stroke: #1963A0; stroke-width: 1.0;"/><text fill="#000000" font-family="sans-serif" font-size="11" lengthAdjust="spacingAndGlyphs" textLength="147" x="1216" y="148.4292">createNewInstance(): void</text><ellipse cx="1207" cy="158.9258" fill="#84BE84" rx="3" ry="3" style="stroke: #038048; stroke-width: 1.0;"/><text fill="#000000" font-family="sans-serif" font-size="11" lengthAdjust="spacingAndGlyphs" textLength="157" x="1216" y="161.2339">testCapaciteVehicule(): void</text><ellipse cx="1207" cy="171.7305" fill="#84BE84" rx="3" ry="3" style="stroke: #038048; stroke-width: 1.0;"/><text fill="#000000" font-family="sans-serif" font-size="11" lengthAdjust="spacingAndGlyphs" textLength="134" x="1216" y="174.0386">testCoutVehicule(): void</text><ellipse cx="1207" cy="184.5352" fill="#84BE84" rx="3" ry="3" style="stroke: #038048; stroke-width: 1.0;"/><text fill="#000000" font-family="sans-serif" font-size="11" lengthAdjust="spacingAndGlyphs" textLength="94" x="1216" y="186.8433">testDepot(): void</text><ellipse cx="1207" cy="197.3398" fill="#84BE84" rx="3" ry="3" style="stroke: #038048; stroke-width: 1.0;"/><text fill="#000000" font-family="sans-serif" font-size="11" lengthAdjust="spacingAndGlyphs" textLength="100" x="1216" y="199.6479">testClients(): void</text><ellipse cx="1207" cy="210.1445" fill="#84BE84" rx="3" ry="3" style="stroke: #038048; stroke-width: 1.0;"/><text fill="#000000" font-family="sans-serif" font-size="11" lengthAdjust="spacingAndGlyphs" textLength="152" x="1216" y="212.4526">testPlanningCurrent(): void</text><ellipse cx="1207" cy="222.9492" fill="#84BE84" rx="3" ry="3" style="stroke: #038048; stroke-width: 1.0;"/><text fill="#000000" font-family="sans-serif" font-size="11" lengthAdjust="spacingAndGlyphs" textLength="130" x="1216" y="225.2573">testNbVehicules(): void</text><ellipse cx="1207" cy="235.7539" fill="#84BE84" rx="3" ry="3" style="stroke: #038048; stroke-width: 1.0;"/><text fill="#000000" font-family="sans-serif" font-size="11" lengthAdjust="spacingAndGlyphs" textLength="154" x="1216" y="238.062">testAddNewPlanning(): void</text><ellipse cx="1207" cy="248.5586" fill="#84BE84" rx="3" ry="3" style="stroke: #038048; stroke-width: 1.0;"/><text fill="#000000" font-family="sans-serif" font-size="11" lengthAdjust="spacingAndGlyphs" textLength="129" x="1216" y="250.8667">testAddVehicule(): void</text><ellipse cx="1207" cy="261.3633" fill="#84BE84" rx="3" ry="3" style="stroke: #038048; stroke-width: 1.0;"/><text fill="#000000" font-family="sans-serif" font-size="11" lengthAdjust="spacingAndGlyphs" textLength="109" x="1216" y="263.6714">testToString(): void</text></a><!--class model.PlanningTest--><a href="PlanningTest.html" target="_top" xlink:actuate="onRequest" xlink:show="new" xlink:title="PlanningTest.html" xlink:type="simple"><rect fill="#FEFECE" filter="url(#fkybxdfeuq3s1)" height="86.4141" id="model.PlanningTest" style="stroke: #A80036; stroke-width: 1.5;" width="173" x="478.5" y="113.5"/><ellipse cx="520.5" cy="129.5" fill="#ADD1B2" rx="11" ry="11" style="stroke: #A80036; stroke-width: 1.0;"/><path d="M523.4688,135.1406 Q522.8906,135.4375 522.25,135.5781 Q521.6094,135.7344 520.9063,135.7344 Q518.4063,135.7344 517.0781,134.0938 Q515.7656,132.4375 515.7656,129.3125 Q515.7656,126.1875 517.0781,124.5313 Q518.4063,122.875 520.9063,122.875 Q521.6094,122.875 522.25,123.0313 Q522.9063,123.1875 523.4688,123.4844 L523.4688,126.2031 Q522.8438,125.625 522.25,125.3594 Q521.6563,125.0781 521.0313,125.0781 Q519.6875,125.0781 519,126.1563 Q518.3125,127.2188 518.3125,129.3125 Q518.3125,131.4063 519,132.4844 Q519.6875,133.5469 521.0313,133.5469 Q521.6563,133.5469 522.25,133.2813 Q522.8438,133 523.4688,132.4219 L523.4688,135.1406 Z "/><text fill="#000000" font-family="sans-serif" font-size="12" lengthAdjust="spacingAndGlyphs" textLength="81" x="540.5" y="133.6543">PlanningTest</text><line style="stroke: #A80036; stroke-width: 1.5;" x1="479.5" x2="650.5" y1="145.5" y2="145.5"/><line style="stroke: #A80036; stroke-width: 1.5;" x1="479.5" x2="650.5" y1="153.5" y2="153.5"/><polygon fill="#4177AF" points="489.5,161.4023,485.5,167.4023,493.5,167.4023" style="stroke: #1963A0; stroke-width: 1.0;"/><text fill="#000000" font-family="sans-serif" font-size="11" lengthAdjust="spacingAndGlyphs" textLength="147" x="498.5" y="167.7104">createNewInstance(): void</text><ellipse cx="489.5" cy="178.207" fill="#84BE84" rx="3" ry="3" style="stroke: #038048; stroke-width: 1.0;"/><text fill="#000000" font-family="sans-serif" font-size="11" lengthAdjust="spacingAndGlyphs" textLength="115" x="498.5" y="180.5151">testVehicules(): void</text><ellipse cx="489.5" cy="191.0117" fill="#84BE84" rx="3" ry="3" style="stroke: #038048; stroke-width: 1.0;"/><text fill="#000000" font-family="sans-serif" font-size="11" lengthAdjust="spacingAndGlyphs" textLength="109" x="498.5" y="193.3198">testToString(): void</text></a><!--class model.DepotTest--><a href="DepotTest.html" target="_top" xlink:actuate="onRequest" xlink:show="new" xlink:title="DepotTest.html" xlink:type="simple"><rect fill="#FEFECE" filter="url(#fkybxdfeuq3s1)" height="137.6328" id="model.DepotTest" style="stroke: #A80036; stroke-width: 1.5;" width="233" x="686.5" y="87.5"/><ellipse cx="766.25" cy="103.5" fill="#ADD1B2" rx="11" ry="11" style="stroke: #A80036; stroke-width: 1.0;"/><path d="M769.2188,109.1406 Q768.6406,109.4375 768,109.5781 Q767.3594,109.7344 766.6563,109.7344 Q764.1563,109.7344 762.8281,108.0938 Q761.5156,106.4375 761.5156,103.3125 Q761.5156,100.1875 762.8281,98.5313 Q764.1563,96.875 766.6563,96.875 Q767.3594,96.875 768,97.0313 Q768.6563,97.1875 769.2188,97.4844 L769.2188,100.2031 Q768.5938,99.625 768,99.3594 Q767.4063,99.0781 766.7813,99.0781 Q765.4375,99.0781 764.75,100.1563 Q764.0625,101.2188 764.0625,103.3125 Q764.0625,105.4063 764.75,106.4844 Q765.4375,107.5469 766.7813,107.5469 Q767.4063,107.5469 768,107.2813 Q768.5938,107 769.2188,106.4219 L769.2188,109.1406 Z "/><text fill="#000000" font-family="sans-serif" font-size="12" lengthAdjust="spacingAndGlyphs" textLength="65" x="786.75" y="107.6543">DepotTest</text><line style="stroke: #A80036; stroke-width: 1.5;" x1="687.5" x2="918.5" y1="119.5" y2="119.5"/><rect fill="none" height="6" style="stroke: #C82930; stroke-width: 1.0;" width="6" x="694.5" y="128.4023"/><text fill="#000000" font-family="sans-serif" font-size="11" lengthAdjust="spacingAndGlyphs" text-decoration="underline" textLength="158" x="706.5" y="133.7104">DEFAULT_HEURE_DEBUT: int</text><rect fill="none" height="6" style="stroke: #C82930; stroke-width: 1.0;" width="6" x="694.5" y="141.207"/><text fill="#000000" font-family="sans-serif" font-size="11" lengthAdjust="spacingAndGlyphs" text-decoration="underline" textLength="137" x="706.5" y="146.5151">DEFAULT_HEURE_FIN: int</text><rect fill="none" height="6" style="stroke: #C82930; stroke-width: 1.0;" width="6" x="694.5" y="154.0117"/><text fill="#000000" font-family="sans-serif" font-size="11" lengthAdjust="spacingAndGlyphs" text-decoration="underline" textLength="108" x="706.5" y="159.3198">DEFAULT_X: double</text><rect fill="none" height="6" style="stroke: #C82930; stroke-width: 1.0;" width="6" x="694.5" y="166.8164"/><text fill="#000000" font-family="sans-serif" font-size="11" lengthAdjust="spacingAndGlyphs" text-decoration="underline" textLength="108" x="706.5" y="172.1245">DEFAULT_Y: double</text><line style="stroke: #A80036; stroke-width: 1.5;" x1="687.5" x2="918.5" y1="178.7188" y2="178.7188"/><polygon fill="#4177AF" points="697.5,186.6211,693.5,192.6211,701.5,192.6211" style="stroke: #1963A0; stroke-width: 1.0;"/><text fill="#000000" font-family="sans-serif" font-size="11" lengthAdjust="spacingAndGlyphs" textLength="132" x="706.5" y="192.9292">createNewDepot(): void</text><ellipse cx="697.5" cy="203.4258" fill="#84BE84" rx="3" ry="3" style="stroke: #038048; stroke-width: 1.0;"/><text fill="#000000" font-family="sans-serif" font-size="11" lengthAdjust="spacingAndGlyphs" textLength="207" x="706.5" y="205.7339">instanciateFromEmplacement(): void</text><ellipse cx="697.5" cy="216.2305" fill="#84BE84" rx="3" ry="3" style="stroke: #038048; stroke-width: 1.0;"/><text fill="#000000" font-family="sans-serif" font-size="11" lengthAdjust="spacingAndGlyphs" textLength="109" x="706.5" y="218.5386">testToString(): void</text></a><!--class model.EmplacementTest--><a href="EmplacementTest.html" target="_top" xlink:actuate="onRequest" xlink:show="new" xlink:title="EmplacementTest.html" xlink:type="simple"><rect fill="#FEFECE" filter="url(#fkybxdfeuq3s1)" height="176.0469" id="model.EmplacementTest" style="stroke: #A80036; stroke-width: 1.5;" width="202" x="241" y="68.5"/><ellipse cx="282.1" cy="84.5" fill="#ADD1B2" rx="11" ry="11" style="stroke: #A80036; stroke-width: 1.0;"/><path d="M285.0688,90.1406 Q284.4906,90.4375 283.85,90.5781 Q283.2094,90.7344 282.5063,90.7344 Q280.0063,90.7344 278.6781,89.0938 Q277.3656,87.4375 277.3656,84.3125 Q277.3656,81.1875 278.6781,79.5313 Q280.0063,77.875 282.5063,77.875 Q283.2094,77.875 283.85,78.0313 Q284.5063,78.1875 285.0688,78.4844 L285.0688,81.2031 Q284.4438,80.625 283.85,80.3594 Q283.2563,80.0781 282.6313,80.0781 Q281.2875,80.0781 280.6,81.1563 Q279.9125,82.2188 279.9125,84.3125 Q279.9125,86.4063 280.6,87.4844 Q281.2875,88.5469 282.6313,88.5469 Q283.2563,88.5469 283.85,88.2813 Q284.4438,88 285.0688,87.4219 L285.0688,90.1406 Z "/><text fill="#000000" font-family="sans-serif" font-size="12" lengthAdjust="spacingAndGlyphs" textLength="112" x="301.9" y="88.6543">EmplacementTest</text><line style="stroke: #A80036; stroke-width: 1.5;" x1="242" x2="442" y1="100.5" y2="100.5"/><rect fill="none" height="6" style="stroke: #C82930; stroke-width: 1.0;" width="6" x="249" y="109.4023"/><text fill="#000000" font-family="sans-serif" font-size="11" lengthAdjust="spacingAndGlyphs" text-decoration="underline" textLength="158" x="261" y="114.7104">DEFAULT_HEURE_DEBUT: int</text><rect fill="none" height="6" style="stroke: #C82930; stroke-width: 1.0;" width="6" x="249" y="122.207"/><text fill="#000000" font-family="sans-serif" font-size="11" lengthAdjust="spacingAndGlyphs" text-decoration="underline" textLength="137" x="261" y="127.5151">DEFAULT_HEURE_FIN: int</text><rect fill="none" height="6" style="stroke: #C82930; stroke-width: 1.0;" width="6" x="249" y="135.0117"/><text fill="#000000" font-family="sans-serif" font-size="11" lengthAdjust="spacingAndGlyphs" text-decoration="underline" textLength="108" x="261" y="140.3198">DEFAULT_X: double</text><rect fill="none" height="6" style="stroke: #C82930; stroke-width: 1.0;" width="6" x="249" y="147.8164"/><text fill="#000000" font-family="sans-serif" font-size="11" lengthAdjust="spacingAndGlyphs" text-decoration="underline" textLength="108" x="261" y="153.1245">DEFAULT_Y: double</text><line style="stroke: #A80036; stroke-width: 1.5;" x1="242" x2="442" y1="159.7188" y2="159.7188"/><polygon fill="#4177AF" points="252,167.6211,248,173.6211,256,173.6211" style="stroke: #1963A0; stroke-width: 1.0;"/><text fill="#000000" font-family="sans-serif" font-size="11" lengthAdjust="spacingAndGlyphs" textLength="176" x="261" y="173.9292">createNewEmplacement(): void</text><ellipse cx="252" cy="184.4258" fill="#84BE84" rx="3" ry="3" style="stroke: #038048; stroke-width: 1.0;"/><text fill="#000000" font-family="sans-serif" font-size="11" lengthAdjust="spacingAndGlyphs" textLength="105" x="261" y="186.7339">checkHeure(): void</text><ellipse cx="252" cy="197.2305" fill="#84BE84" rx="3" ry="3" style="stroke: #038048; stroke-width: 1.0;"/><text fill="#000000" font-family="sans-serif" font-size="11" lengthAdjust="spacingAndGlyphs" textLength="148" x="261" y="199.5386">testGetHeureDebut(): void</text><ellipse cx="252" cy="210.0352" fill="#84BE84" rx="3" ry="3" style="stroke: #038048; stroke-width: 1.0;"/><text fill="#000000" font-family="sans-serif" font-size="11" lengthAdjust="spacingAndGlyphs" textLength="131" x="261" y="212.3433">testGetHeureFin(): void</text><ellipse cx="252" cy="222.8398" fill="#84BE84" rx="3" ry="3" style="stroke: #038048; stroke-width: 1.0;"/><text fill="#000000" font-family="sans-serif" font-size="11" lengthAdjust="spacingAndGlyphs" textLength="93" x="261" y="225.1479">testClient(): void</text><ellipse cx="252" cy="235.6445" fill="#84BE84" rx="3" ry="3" style="stroke: #038048; stroke-width: 1.0;"/><text fill="#000000" font-family="sans-serif" font-size="11" lengthAdjust="spacingAndGlyphs" textLength="109" x="261" y="237.9526">testToString(): void</text></a><!--class model.RouteTest--><a href="RouteTest.html" target="_top" xlink:actuate="onRequest" xlink:show="new" xlink:title="RouteTest.html" xlink:type="simple"><rect fill="#FEFECE" filter="url(#fkybxdfeuq3s1)" height="201.6563" id="model.RouteTest" style="stroke: #A80036; stroke-width: 1.5;" width="184" x="22" y="55.5"/><ellipse cx="77.75" cy="71.5" fill="#ADD1B2" rx="11" ry="11" style="stroke: #A80036; stroke-width: 1.0;"/><path d="M80.7188,77.1406 Q80.1406,77.4375 79.5,77.5781 Q78.8594,77.7344 78.1563,77.7344 Q75.6563,77.7344 74.3281,76.0938 Q73.0156,74.4375 73.0156,71.3125 Q73.0156,68.1875 74.3281,66.5313 Q75.6563,64.875 78.1563,64.875 Q78.8594,64.875 79.5,65.0313 Q80.1563,65.1875 80.7188,65.4844 L80.7188,68.2031 Q80.0938,67.625 79.5,67.3594 Q78.9063,67.0781 78.2813,67.0781 Q76.9375,67.0781 76.25,68.1563 Q75.5625,69.2188 75.5625,71.3125 Q75.5625,73.4063 76.25,74.4844 Q76.9375,75.5469 78.2813,75.5469 Q78.9063,75.5469 79.5,75.2813 Q80.0938,75 80.7188,74.4219 L80.7188,77.1406 Z "/><text fill="#000000" font-family="sans-serif" font-size="12" lengthAdjust="spacingAndGlyphs" textLength="64" x="98.25" y="75.6543">RouteTest</text><line style="stroke: #A80036; stroke-width: 1.5;" x1="23" x2="205" y1="87.5" y2="87.5"/><rect fill="none" height="6" style="stroke: #C82930; stroke-width: 1.0;" width="6" x="30" y="96.4023"/><text fill="#000000" font-family="sans-serif" font-size="11" lengthAdjust="spacingAndGlyphs" text-decoration="underline" textLength="108" x="42" y="101.7104">DEFAULT_X: double</text><rect fill="none" height="6" style="stroke: #C82930; stroke-width: 1.0;" width="6" x="30" y="109.207"/><text fill="#000000" font-family="sans-serif" font-size="11" lengthAdjust="spacingAndGlyphs" text-decoration="underline" textLength="108" x="42" y="114.5151">DEFAULT_Y: double</text><rect fill="none" height="6" style="stroke: #C82930; stroke-width: 1.0;" width="6" x="30" y="122.0117"/><text fill="#000000" font-family="sans-serif" font-size="11" lengthAdjust="spacingAndGlyphs" text-decoration="underline" textLength="158" x="42" y="127.3198">DEFAULT_HEURE_DEBUT: int</text><rect fill="none" height="6" style="stroke: #C82930; stroke-width: 1.0;" width="6" x="30" y="134.8164"/><text fill="#000000" font-family="sans-serif" font-size="11" lengthAdjust="spacingAndGlyphs" text-decoration="underline" textLength="137" x="42" y="140.1245">DEFAULT_HEURE_FIN: int</text><rect fill="none" height="6" style="stroke: #C82930; stroke-width: 1.0;" width="6" x="30" y="147.6211"/><text fill="#000000" font-family="sans-serif" font-size="11" lengthAdjust="spacingAndGlyphs" text-decoration="underline" textLength="133" x="42" y="152.9292">DEFAULT_COST: double</text><rect fill="none" height="6" style="stroke: #C82930; stroke-width: 1.0;" width="6" x="30" y="160.4258"/><text fill="#000000" font-family="sans-serif" font-size="11" lengthAdjust="spacingAndGlyphs" text-decoration="underline" textLength="103" x="42" y="165.7339">DEFAULT_TIME: int</text><line style="stroke: #A80036; stroke-width: 1.5;" x1="23" x2="205" y1="172.3281" y2="172.3281"/><polygon fill="#4177AF" points="33,180.2305,29,186.2305,37,186.2305" style="stroke: #1963A0; stroke-width: 1.0;"/><text fill="#000000" font-family="sans-serif" font-size="11" lengthAdjust="spacingAndGlyphs" textLength="131" x="42" y="186.5386">createNewRoute(): void</text><ellipse cx="33" cy="197.0352" fill="#84BE84" rx="3" ry="3" style="stroke: #038048; stroke-width: 1.0;"/><text fill="#000000" font-family="sans-serif" font-size="11" lengthAdjust="spacingAndGlyphs" textLength="110" x="42" y="199.3433">testGetFrom(): void</text><ellipse cx="33" cy="209.8398" fill="#84BE84" rx="3" ry="3" style="stroke: #038048; stroke-width: 1.0;"/><text fill="#000000" font-family="sans-serif" font-size="11" lengthAdjust="spacingAndGlyphs" textLength="95" x="42" y="212.1479">testGetTo(): void</text><ellipse cx="33" cy="222.6445" fill="#84BE84" rx="3" ry="3" style="stroke: #038048; stroke-width: 1.0;"/><text fill="#000000" font-family="sans-serif" font-size="11" lengthAdjust="spacingAndGlyphs" textLength="107" x="42" y="224.9526">testGetCout(): void</text><ellipse cx="33" cy="235.4492" fill="#84BE84" rx="3" ry="3" style="stroke: #038048; stroke-width: 1.0;"/><text fill="#000000" font-family="sans-serif" font-size="11" lengthAdjust="spacingAndGlyphs" textLength="120" x="42" y="237.7573">testGetTemps(): void</text><ellipse cx="33" cy="248.2539" fill="#84BE84" rx="3" ry="3" style="stroke: #038048; stroke-width: 1.0;"/><text fill="#000000" font-family="sans-serif" font-size="11" lengthAdjust="spacingAndGlyphs" textLength="109" x="42" y="250.562">testToString(): void</text></a><!--class model.Client--><rect fill="#FEFECE" filter="url(#fkybxdfeuq3s1)" height="48" id="model.Client" style="stroke: #A80036; stroke-width: 1.5;" width="67" x="1477.5" y="424"/><ellipse cx="1492.5" cy="440" fill="#ADD1B2" rx="11" ry="11" style="stroke: #A80036; stroke-width: 1.0;"/><path d="M1495.4688,445.6406 Q1494.8906,445.9375 1494.25,446.0781 Q1493.6094,446.2344 1492.9063,446.2344 Q1490.4063,446.2344 1489.0781,444.5938 Q1487.7656,442.9375 1487.7656,439.8125 Q1487.7656,436.6875 1489.0781,435.0313 Q1490.4063,433.375 1492.9063,433.375 Q1493.6094,433.375 1494.25,433.5313 Q1494.9063,433.6875 1495.4688,433.9844 L1495.4688,436.7031 Q1494.8438,436.125 1494.25,435.8594 Q1493.6563,435.5781 1493.0313,435.5781 Q1491.6875,435.5781 1491,436.6563 Q1490.3125,437.7188 1490.3125,439.8125 Q1490.3125,441.9063 1491,442.9844 Q1491.6875,444.0469 1493.0313,444.0469 Q1493.6563,444.0469 1494.25,443.7813 Q1494.8438,443.5 1495.4688,442.9219 L1495.4688,445.6406 Z "/><text fill="#000000" font-family="sans-serif" font-size="12" lengthAdjust="spacingAndGlyphs" textLength="35" x="1506.5" y="444.1543">Client</text><line style="stroke: #A80036; stroke-width: 1.5;" x1="1478.5" x2="1543.5" y1="456" y2="456"/><line style="stroke: #A80036; stroke-width: 1.5;" x1="1478.5" x2="1543.5" y1="464" y2="464"/><!--class model.Vehicule--><rect fill="#FEFECE" filter="url(#fkybxdfeuq3s1)" height="48" id="model.Vehicule" style="stroke: #A80036; stroke-width: 1.5;" width="85" x="1032.5" y="424"/><ellipse cx="1047.5" cy="440" fill="#ADD1B2" rx="11" ry="11" style="stroke: #A80036; stroke-width: 1.0;"/><path d="M1050.4688,445.6406 Q1049.8906,445.9375 1049.25,446.0781 Q1048.6094,446.2344 1047.9063,446.2344 Q1045.4063,446.2344 1044.0781,444.5938 Q1042.7656,442.9375 1042.7656,439.8125 Q1042.7656,436.6875 1044.0781,435.0313 Q1045.4063,433.375 1047.9063,433.375 Q1048.6094,433.375 1049.25,433.5313 Q1049.9063,433.6875 1050.4688,433.9844 L1050.4688,436.7031 Q1049.8438,436.125 1049.25,435.8594 Q1048.6563,435.5781 1048.0313,435.5781 Q1046.6875,435.5781 1046,436.6563 Q1045.3125,437.7188 1045.3125,439.8125 Q1045.3125,441.9063 1046,442.9844 Q1046.6875,444.0469 1048.0313,444.0469 Q1048.6563,444.0469 1049.25,443.7813 Q1049.8438,443.5 1050.4688,442.9219 L1050.4688,445.6406 Z "/><text fill="#000000" font-family="sans-serif" font-size="12" lengthAdjust="spacingAndGlyphs" textLength="53" x="1061.5" y="444.1543">Vehicule</text><line style="stroke: #A80036; stroke-width: 1.5;" x1="1033.5" x2="1116.5" y1="456" y2="456"/><line style="stroke: #A80036; stroke-width: 1.5;" x1="1033.5" x2="1116.5" y1="464" y2="464"/><!--class model.Depot--><rect fill="#FEFECE" filter="url(#fkybxdfeuq3s1)" height="48" id="model.Depot" style="stroke: #A80036; stroke-width: 1.5;" width="70" x="847" y="424"/><ellipse cx="862" cy="440" fill="#ADD1B2" rx="11" ry="11" style="stroke: #A80036; stroke-width: 1.0;"/><path d="M864.9688,445.6406 Q864.3906,445.9375 863.75,446.0781 Q863.1094,446.2344 862.4063,446.2344 Q859.9063,446.2344 858.5781,444.5938 Q857.2656,442.9375 857.2656,439.8125 Q857.2656,436.6875 858.5781,435.0313 Q859.9063,433.375 862.4063,433.375 Q863.1094,433.375 863.75,433.5313 Q864.4063,433.6875 864.9688,433.9844 L864.9688,436.7031 Q864.3438,436.125 863.75,435.8594 Q863.1563,435.5781 862.5313,435.5781 Q861.1875,435.5781 860.5,436.6563 Q859.8125,437.7188 859.8125,439.8125 Q859.8125,441.9063 860.5,442.9844 Q861.1875,444.0469 862.5313,444.0469 Q863.1563,444.0469 863.75,443.7813 Q864.3438,443.5 864.9688,442.9219 L864.9688,445.6406 Z "/><text fill="#000000" font-family="sans-serif" font-size="12" lengthAdjust="spacingAndGlyphs" textLength="38" x="876" y="444.1543">Depot</text><line style="stroke: #A80036; stroke-width: 1.5;" x1="848" x2="916" y1="456" y2="456"/><line style="stroke: #A80036; stroke-width: 1.5;" x1="848" x2="916" y1="464" y2="464"/><!--class model.Instance--><rect fill="#FEFECE" filter="url(#fkybxdfeuq3s1)" height="48" id="model.Instance" style="stroke: #A80036; stroke-width: 1.5;" width="86" x="1245" y="424"/><ellipse cx="1260" cy="440" fill="#ADD1B2" rx="11" ry="11" style="stroke: #A80036; stroke-width: 1.0;"/><path d="M1262.9688,445.6406 Q1262.3906,445.9375 1261.75,446.0781 Q1261.1094,446.2344 1260.4063,446.2344 Q1257.9063,446.2344 1256.5781,444.5938 Q1255.2656,442.9375 1255.2656,439.8125 Q1255.2656,436.6875 1256.5781,435.0313 Q1257.9063,433.375 1260.4063,433.375 Q1261.1094,433.375 1261.75,433.5313 Q1262.4063,433.6875 1262.9688,433.9844 L1262.9688,436.7031 Q1262.3438,436.125 1261.75,435.8594 Q1261.1563,435.5781 1260.5313,435.5781 Q1259.1875,435.5781 1258.5,436.6563 Q1257.8125,437.7188 1257.8125,439.8125 Q1257.8125,441.9063 1258.5,442.9844 Q1259.1875,444.0469 1260.5313,444.0469 Q1261.1563,444.0469 1261.75,443.7813 Q1262.3438,443.5 1262.9688,442.9219 L1262.9688,445.6406 Z "/><text fill="#000000" font-family="sans-serif" font-size="12" lengthAdjust="spacingAndGlyphs" textLength="54" x="1274" y="444.1543">Instance</text><line style="stroke: #A80036; stroke-width: 1.5;" x1="1246" x2="1330" y1="456" y2="456"/><line style="stroke: #A80036; stroke-width: 1.5;" x1="1246" x2="1330" y1="464" y2="464"/><!--class model.Planning--><rect fill="#FEFECE" filter="url(#fkybxdfeuq3s1)" height="48" id="model.Planning" style="stroke: #A80036; stroke-width: 1.5;" width="86" x="547" y="424"/><ellipse cx="562" cy="440" fill="#ADD1B2" rx="11" ry="11" style="stroke: #A80036; stroke-width: 1.0;"/><path d="M564.9688,445.6406 Q564.3906,445.9375 563.75,446.0781 Q563.1094,446.2344 562.4063,446.2344 Q559.9063,446.2344 558.5781,444.5938 Q557.2656,442.9375 557.2656,439.8125 Q557.2656,436.6875 558.5781,435.0313 Q559.9063,433.375 562.4063,433.375 Q563.1094,433.375 563.75,433.5313 Q564.4063,433.6875 564.9688,433.9844 L564.9688,436.7031 Q564.3438,436.125 563.75,435.8594 Q563.1563,435.5781 562.5313,435.5781 Q561.1875,435.5781 560.5,436.6563 Q559.8125,437.7188 559.8125,439.8125 Q559.8125,441.9063 560.5,442.9844 Q561.1875,444.0469 562.5313,444.0469 Q563.1563,444.0469 563.75,443.7813 Q564.3438,443.5 564.9688,442.9219 L564.9688,445.6406 Z "/><text fill="#000000" font-family="sans-serif" font-size="12" lengthAdjust="spacingAndGlyphs" textLength="54" x="576" y="444.1543">Planning</text><line style="stroke: #A80036; stroke-width: 1.5;" x1="548" x2="632" y1="456" y2="456"/><line style="stroke: #A80036; stroke-width: 1.5;" x1="548" x2="632" y1="464" y2="464"/><!--class model.Emplacement--><rect fill="#FEFECE" filter="url(#fkybxdfeuq3s1)" height="48" id="model.Emplacement" style="stroke: #A80036; stroke-width: 1.5;" width="117" x="316.5" y="424"/><ellipse cx="331.5" cy="440" fill="#ADD1B2" rx="11" ry="11" style="stroke: #A80036; stroke-width: 1.0;"/><path d="M334.4688,445.6406 Q333.8906,445.9375 333.25,446.0781 Q332.6094,446.2344 331.9063,446.2344 Q329.4063,446.2344 328.0781,444.5938 Q326.7656,442.9375 326.7656,439.8125 Q326.7656,436.6875 328.0781,435.0313 Q329.4063,433.375 331.9063,433.375 Q332.6094,433.375 333.25,433.5313 Q333.9063,433.6875 334.4688,433.9844 L334.4688,436.7031 Q333.8438,436.125 333.25,435.8594 Q332.6563,435.5781 332.0313,435.5781 Q330.6875,435.5781 330,436.6563 Q329.3125,437.7188 329.3125,439.8125 Q329.3125,441.9063 330,442.9844 Q330.6875,444.0469 332.0313,444.0469 Q332.6563,444.0469 333.25,443.7813 Q333.8438,443.5 334.4688,442.9219 L334.4688,445.6406 Z "/><text fill="#000000" font-family="sans-serif" font-size="12" lengthAdjust="spacingAndGlyphs" textLength="85" x="345.5" y="444.1543">Emplacement</text><line style="stroke: #A80036; stroke-width: 1.5;" x1="317.5" x2="432.5" y1="456" y2="456"/><line style="stroke: #A80036; stroke-width: 1.5;" x1="317.5" x2="432.5" y1="464" y2="464"/><!--class model.Point--><rect fill="#FEFECE" filter="url(#fkybxdfeuq3s1)" height="48" id="model.Point" style="stroke: #A80036; stroke-width: 1.5;" width="64" x="185" y="424"/><ellipse cx="200" cy="440" fill="#ADD1B2" rx="11" ry="11" style="stroke: #A80036; stroke-width: 1.0;"/><path d="M202.9688,445.6406 Q202.3906,445.9375 201.75,446.0781 Q201.1094,446.2344 200.4063,446.2344 Q197.9063,446.2344 196.5781,444.5938 Q195.2656,442.9375 195.2656,439.8125 Q195.2656,436.6875 196.5781,435.0313 Q197.9063,433.375 200.4063,433.375 Q201.1094,433.375 201.75,433.5313 Q202.4063,433.6875 202.9688,433.9844 L202.9688,436.7031 Q202.3438,436.125 201.75,435.8594 Q201.1563,435.5781 200.5313,435.5781 Q199.1875,435.5781 198.5,436.6563 Q197.8125,437.7188 197.8125,439.8125 Q197.8125,441.9063 198.5,442.9844 Q199.1875,444.0469 200.5313,444.0469 Q201.1563,444.0469 201.75,443.7813 Q202.3438,443.5 202.9688,442.9219 L202.9688,445.6406 Z "/><text fill="#000000" font-family="sans-serif" font-size="12" lengthAdjust="spacingAndGlyphs" textLength="32" x="214" y="444.1543">Point</text><line style="stroke: #A80036; stroke-width: 1.5;" x1="186" x2="248" y1="456" y2="456"/><line style="stroke: #A80036; stroke-width: 1.5;" x1="186" x2="248" y1="464" y2="464"/><!--class model.Route--><rect fill="#FEFECE" filter="url(#fkybxdfeuq3s1)" height="48" id="model.Route" style="stroke: #A80036; stroke-width: 1.5;" width="69" x="22.5" y="424"/><ellipse cx="37.5" cy="440" fill="#ADD1B2" rx="11" ry="11" style="stroke: #A80036; stroke-width: 1.0;"/><path d="M40.4688,445.6406 Q39.8906,445.9375 39.25,446.0781 Q38.6094,446.2344 37.9063,446.2344 Q35.4063,446.2344 34.0781,444.5938 Q32.7656,442.9375 32.7656,439.8125 Q32.7656,436.6875 34.0781,435.0313 Q35.4063,433.375 37.9063,433.375 Q38.6094,433.375 39.25,433.5313 Q39.9063,433.6875 40.4688,433.9844 L40.4688,436.7031 Q39.8438,436.125 39.25,435.8594 Q38.6563,435.5781 38.0313,435.5781 Q36.6875,435.5781 36,436.6563 Q35.3125,437.7188 35.3125,439.8125 Q35.3125,441.9063 36,442.9844 Q36.6875,444.0469 38.0313,444.0469 Q38.6563,444.0469 39.25,443.7813 Q39.8438,443.5 40.4688,442.9219 L40.4688,445.6406 Z "/><text fill="#000000" font-family="sans-serif" font-size="12" lengthAdjust="spacingAndGlyphs" textLength="37" x="51.5" y="444.1543">Route</text><line style="stroke: #A80036; stroke-width: 1.5;" x1="23.5" x2="90.5" y1="456" y2="456"/><line style="stroke: #A80036; stroke-width: 1.5;" x1="23.5" x2="90.5" y1="464" y2="464"/><!--link model.ClientTest to model.Client--><path d="M1511,244.7507 C1511,303.9272 1511,378.1642 1511,418.5339 " fill="none" id="model.ClientTest-model.Client" style="stroke: #A80036; stroke-width: 1.0;"/><polygon fill="#A80036" points="1511,423.7622,1515,414.7622,1511,418.7622,1507,414.7622,1511,423.7622" style="stroke: #A80036; stroke-width: 1.0;"/><text fill="#000000" font-family="sans-serif" font-size="13" lengthAdjust="spacingAndGlyphs" textLength="88" x="1512" y="351.5669">clientInstance</text><!--link model.VehiculeTest to model.Vehicule--><path d="M1063.1467,244.7507 C1066.5978,303.9272 1070.9272,378.1642 1073.2816,418.5339 " fill="none" id="model.VehiculeTest-model.Vehicule" style="stroke: #A80036; stroke-width: 1.0;"/><polygon fill="#A80036" points="1073.5865,423.7622,1077.0556,414.5446,1073.2954,418.7707,1069.0692,415.0104,1073.5865,423.7622" style="stroke: #A80036; stroke-width: 1.0;"/><text fill="#000000" font-family="sans-serif" font-size="13" lengthAdjust="spacingAndGlyphs" textLength="106" x="1071" y="351.5669">vehiculeInstance</text><!--link model.VehiculeTest to model.Depot--><path d="M1004.7166,244.7507 C968.8415,304.1687 923.7989,378.7705 899.4934,419.0265 " fill="none" id="model.VehiculeTest-model.Depot" style="stroke: #A80036; stroke-width: 1.0;"/><polygon fill="#A80036" points="896.6341,423.7622,904.7101,418.125,899.2184,419.4819,897.8616,413.9901,896.6341,423.7622" style="stroke: #A80036; stroke-width: 1.0;"/><text fill="#000000" font-family="sans-serif" font-size="13" lengthAdjust="spacingAndGlyphs" textLength="37" x="953" y="351.5669">depot</text><!--link model.InstanceTest to model.Instance--><path d="M1288,270.0362 C1288,323.7529 1288,383.6148 1288,418.4187 " fill="none" id="model.InstanceTest-model.Instance" style="stroke: #A80036; stroke-width: 1.0;"/><polygon fill="#A80036" points="1288,423.7846,1292,414.7846,1288,418.7846,1284,414.7846,1288,423.7846" style="stroke: #A80036; stroke-width: 1.0;"/><text fill="#000000" font-family="sans-serif" font-size="13" lengthAdjust="spacingAndGlyphs" textLength="108" x="1289" y="351.5669">instanceInstance</text><!--link model.PlanningTest to model.Planning--><path d="M568.6888,199.5118 C573.8363,259.5317 583.0399,366.8448 587.4745,418.5529 " fill="none" id="model.PlanningTest-model.Planning" style="stroke: #A80036; stroke-width: 1.0;"/><polygon fill="#A80036" points="587.9142,423.6794,591.1305,414.3705,587.4869,418.6977,583.1597,415.0542,587.9142,423.6794" style="stroke: #A80036; stroke-width: 1.0;"/><text fill="#000000" font-family="sans-serif" font-size="13" lengthAdjust="spacingAndGlyphs" textLength="108" x="583" y="351.5669">planningInstance</text><!--link model.DepotTest to model.Depot--><path d="M804.8403,225.5949 C807.6804,266.5263 814.4068,318.851 830,363 C837.1093,383.1285 849.447,403.6018 860.3208,419.4105 " fill="none" id="model.DepotTest-model.Depot" style="stroke: #A80036; stroke-width: 1.0;"/><polygon fill="#A80036" points="863.3434,423.7416,861.4727,414.072,860.4818,419.6414,854.9124,418.6506,863.3434,423.7416" style="stroke: #A80036; stroke-width: 1.0;"/><text fill="#000000" font-family="sans-serif" font-size="13" lengthAdjust="spacingAndGlyphs" textLength="91" x="831" y="351.5669">depotInstance</text><!--link model.EmplacementTest to model.Emplacement--><path d="M351.9906,244.7507 C358.6899,303.9272 367.0941,378.1642 371.6642,418.5339 " fill="none" id="model.EmplacementTest-model.Emplacement" style="stroke: #A80036; stroke-width: 1.0;"/><polygon fill="#A80036" points="372.2561,423.7622,375.2183,414.3694,371.6937,418.7939,367.2691,415.2693,372.2561,423.7622" style="stroke: #A80036; stroke-width: 1.0;"/><text fill="#000000" font-family="sans-serif" font-size="13" lengthAdjust="spacingAndGlyphs" textLength="143" x="366" y="351.5669">emplacementInstance</text><!--link model.RouteTest to model.Point--><path d="M150.9373,257.8958 C159.5681,281.8397 168.6705,307.2979 177,331 C187.4986,360.8741 199.1789,395.1662 207.1935,418.8666 " fill="none" id="model.RouteTest-model.Point" style="stroke: #A80036; stroke-width: 1.0;"/><polygon fill="#A80036" points="208.8464,423.7578,209.7546,413.9509,207.2457,419.021,202.1756,416.512,208.8464,423.7578" style="stroke: #A80036; stroke-width: 1.0;"/><text fill="#000000" font-family="sans-serif" font-size="13" lengthAdjust="spacingAndGlyphs" textLength="86" x="188" y="344.0669">pointInstance</text><text fill="#000000" font-family="sans-serif" font-size="13" lengthAdjust="spacingAndGlyphs" textLength="40" x="211" y="359.1997">point2</text><!--link model.RouteTest to model.Route--><path d="M94.2241,257.6345 C83.1299,314.3707 70.0838,381.0891 62.7547,418.5705 " fill="none" id="model.RouteTest-model.Route" style="stroke: #A80036; stroke-width: 1.0;"/><polygon fill="#A80036" points="61.7157,423.8837,67.3685,415.8186,62.6753,418.9766,59.5173,414.2833,61.7157,423.8837" style="stroke: #A80036; stroke-width: 1.0;"/><text fill="#000000" font-family="sans-serif" font-size="13" lengthAdjust="spacingAndGlyphs" textLength="88" x="80" y="351.5669">routeInstance</text><text fill="#888888" font-family="sans-serif" font-size="10" lengthAdjust="spacingAndGlyphs" textLength="186" x="727.5" y="507.2822">UMLDoclet 2.0.3, PlantUML 1.2019.06</text><!--
@startuml
    namespace model {

        class ClientTest [[ClientTest.html]] {
            {static} -DEFAULT_DEMANDE: int
            ~createNewClient(): void
            +testAddEmplacement(): void
            +testGetDemande(): void
            +testPosition(): void
            +testGetEmplacements(): void
            +testVehicule(): void
            +testToString(): void
            +testClear(): void
            +testCheck(): void
        }

        class VehiculeTest [[VehiculeTest.html]] {
            {static} -DEFAULT_HEURE_DEBUT: int
            {static} -DEFAULT_HEURE_FIN: int
            {static} -DEFAULT_X: double
            {static} -DEFAULT_Y: double
            {static} -DEFAULT_CAPACITY: int
            ~createNewPoint(): void
            +testCheck(): void
            +testClear(): void
            +testGetCapaciteRestante(): void
            +testToString(): void
        }

        class InstanceTest [[InstanceTest.html]] {
            {static} -DEFAULT_HEURE_DEBUT: int
            {static} -DEFAULT_HEURE_FIN: int
            {static} -DEFAULT_X: double
            {static} -DEFAULT_Y: double
            ~createNewInstance(): void
            +testCapaciteVehicule(): void
            +testCoutVehicule(): void
            +testDepot(): void
            +testClients(): void
            +testPlanningCurrent(): void
            +testNbVehicules(): void
            +testAddNewPlanning(): void
            +testAddVehicule(): void
            +testToString(): void
        }

        class PlanningTest [[PlanningTest.html]] {
            ~createNewInstance(): void
            +testVehicules(): void
            +testToString(): void
        }

        class DepotTest [[DepotTest.html]] {
            {static} -DEFAULT_HEURE_DEBUT: int
            {static} -DEFAULT_HEURE_FIN: int
            {static} -DEFAULT_X: double
            {static} -DEFAULT_Y: double
            ~createNewDepot(): void
            +instanciateFromEmplacement(): void
            +testToString(): void
        }

        class EmplacementTest [[EmplacementTest.html]] {
            {static} -DEFAULT_HEURE_DEBUT: int
            {static} -DEFAULT_HEURE_FIN: int
            {static} -DEFAULT_X: double
            {static} -DEFAULT_Y: double
            ~createNewEmplacement(): void
            +checkHeure(): void
            +testGetHeureDebut(): void
            +testGetHeureFin(): void
            +testClient(): void
            +testToString(): void
        }

        class RouteTest [[RouteTest.html]] {
            {static} -DEFAULT_X: double
            {static} -DEFAULT_Y: double
            {static} -DEFAULT_HEURE_DEBUT: int
            {static} -DEFAULT_HEURE_FIN: int
            {static} -DEFAULT_COST: double
            {static} -DEFAULT_TIME: int
            ~createNewRoute(): void
            +testGetFrom(): void
            +testGetTo(): void
            +testGetCout(): void
            +testGetTemps(): void
            +testToString(): void
        }

        ClientTest - -> Client: clientInstance
        VehiculeTest - -> Vehicule: vehiculeInstance
        VehiculeTest - -> Depot: depot
        InstanceTest - -> Instance: instanceInstance
        PlanningTest - -> Planning: planningInstance
        DepotTest - -> Depot: depotInstance
        EmplacementTest - -> Emplacement: emplacementInstance
        RouteTest - -> Point: pointInstance\npoint2
        RouteTest - -> Route: routeInstance
    }

    center footer UMLDoclet 2.0.3, PlantUML 1.2019.06
@enduml

PlantUML version 1.2019.06(Fri May 24 19:10:25 CEST 2019)
(APACHE source distribution)
Java Runtime: OpenJDK Runtime Environment
JVM: OpenJDK 64-Bit Server VM
Java Version: 11.0.4+4-post-Debian-1
Operating System: Linux
OS Version: 4.19.0-5-amd64
Default Encoding: UTF-8
Language: fr
Country: FR
--></g></svg>