<?xml version="1.0" encoding="UTF-8" standalone="no"?><svg xmlns="http://www.w3.org/2000/svg" xmlns:xlink="http://www.w3.org/1999/xlink" contentScriptType="application/ecmascript" contentStyleType="text/css" height="286px" preserveAspectRatio="none" style="width:209px;height:286px;" version="1.1" viewBox="0 0 209 286" width="209px" zoomAndPan="magnify"><defs><filter height="300%" id="f12lwmrpbz756i" width="300%" x="-1" y="-1"><feGaussianBlur result="blurOut" stdDeviation="2.0"/><feColorMatrix in="blurOut" result="blurOut2" type="matrix" values="0 0 0 0 0 0 0 0 0 0 0 0 0 0 0 0 0 0 .4 0"/><feOffset dx="4.0" dy="4.0" in="blurOut2" result="blurOut3"/><feBlend in="SourceGraphic" in2="blurOut3" mode="normal"/></filter></defs><g><!--class model.RouteTest--><a href="RouteTest.html" target="_top" xlink:actuate="onRequest" xlink:show="new" xlink:title="RouteTest.html" xlink:type="simple"><rect fill="#FEFECE" filter="url(#f12lwmrpbz756i)" height="246.0078" id="model.RouteTest" style="stroke: #A80036; stroke-width: 1.5;" width="184" x="6" y="8"/><ellipse cx="57.25" cy="26.9688" fill="#ADD1B2" rx="11" ry="11" style="stroke: #A80036; stroke-width: 1.0;"/><path d="M60.2188,32.6094 Q59.6406,32.9063 59,33.0469 Q58.3594,33.2031 57.6563,33.2031 Q55.1563,33.2031 53.8281,31.5625 Q52.5156,29.9063 52.5156,26.7813 Q52.5156,23.6563 53.8281,22 Q55.1563,20.3438 57.6563,20.3438 Q58.3594,20.3438 59,20.5 Q59.6563,20.6563 60.2188,20.9531 L60.2188,23.6719 Q59.5938,23.0938 59,22.8281 Q58.4063,22.5469 57.7813,22.5469 Q56.4375,22.5469 55.75,23.625 Q55.0625,24.6875 55.0625,26.7813 Q55.0625,28.875 55.75,29.9531 Q56.4375,31.0156 57.7813,31.0156 Q58.4063,31.0156 59,30.75 Q59.5938,30.4688 60.2188,29.8906 L60.2188,32.6094 Z "/><text fill="#000000" font-family="sans-serif" font-size="14" lengthAdjust="spacingAndGlyphs" textLength="73" x="77.75" y="25.9951">RouteTest</text><text fill="#000000" font-family="sans-serif" font-size="10" lengthAdjust="spacingAndGlyphs" textLength="30" x="99.25" y="38.5791">model</text><line style="stroke: #A80036; stroke-width: 1.5;" x1="7" x2="189" y1="45.9375" y2="45.9375"/><rect fill="none" height="6" style="stroke: #C82930; stroke-width: 1.0;" width="6" x="14" y="54.8398"/><text fill="#000000" font-family="sans-serif" font-size="11" lengthAdjust="spacingAndGlyphs" text-decoration="underline" textLength="108" x="26" y="60.1479">DEFAULT_X: double</text><rect fill="none" height="6" style="stroke: #C82930; stroke-width: 1.0;" width="6" x="14" y="67.6445"/><text fill="#000000" font-family="sans-serif" font-size="11" lengthAdjust="spacingAndGlyphs" text-decoration="underline" textLength="108" x="26" y="72.9526">DEFAULT_Y: double</text><rect fill="none" height="6" style="stroke: #C82930; stroke-width: 1.0;" width="6" x="14" y="80.4492"/><text fill="#000000" font-family="sans-serif" font-size="11" lengthAdjust="spacingAndGlyphs" text-decoration="underline" textLength="158" x="26" y="85.7573">DEFAULT_HEURE_DEBUT: int</text><rect fill="none" height="6" style="stroke: #C82930; stroke-width: 1.0;" width="6" x="14" y="93.2539"/><text fill="#000000" font-family="sans-serif" font-size="11" lengthAdjust="spacingAndGlyphs" text-decoration="underline" textLength="137" x="26" y="98.562">DEFAULT_HEURE_FIN: int</text><rect fill="none" height="6" style="stroke: #C82930; stroke-width: 1.0;" width="6" x="14" y="106.0586"/><text fill="#000000" font-family="sans-serif" font-size="11" lengthAdjust="spacingAndGlyphs" text-decoration="underline" textLength="133" x="26" y="111.3667">DEFAULT_COST: double</text><rect fill="none" height="6" style="stroke: #C82930; stroke-width: 1.0;" width="6" x="14" y="118.8633"/><text fill="#000000" font-family="sans-serif" font-size="11" lengthAdjust="spacingAndGlyphs" text-decoration="underline" textLength="103" x="26" y="124.1714">DEFAULT_TIME: int</text><rect fill="none" height="6" style="stroke: #C82930; stroke-width: 1.0;" width="6" x="14" y="131.668"/><text fill="#000000" font-family="sans-serif" font-size="11" lengthAdjust="spacingAndGlyphs" textLength="112" x="26" y="136.9761">pointInstance: Point</text><rect fill="none" height="6" style="stroke: #C82930; stroke-width: 1.0;" width="6" x="14" y="144.4727"/><text fill="#000000" font-family="sans-serif" font-size="11" lengthAdjust="spacingAndGlyphs" textLength="71" x="26" y="149.7808">point2: Point</text><rect fill="none" height="6" style="stroke: #C82930; stroke-width: 1.0;" width="6" x="14" y="157.2773"/><text fill="#000000" font-family="sans-serif" font-size="11" lengthAdjust="spacingAndGlyphs" textLength="118" x="26" y="162.5854">routeInstance: Route</text><line style="stroke: #A80036; stroke-width: 1.5;" x1="7" x2="189" y1="169.1797" y2="169.1797"/><polygon fill="#4177AF" points="17,177.082,13,183.082,21,183.082" style="stroke: #1963A0; stroke-width: 1.0;"/><text fill="#000000" font-family="sans-serif" font-size="11" lengthAdjust="spacingAndGlyphs" textLength="131" x="26" y="183.3901">createNewRoute(): void</text><ellipse cx="17" cy="193.8867" fill="#84BE84" rx="3" ry="3" style="stroke: #038048; stroke-width: 1.0;"/><text fill="#000000" font-family="sans-serif" font-size="11" lengthAdjust="spacingAndGlyphs" textLength="110" x="26" y="196.1948">testGetFrom(): void</text><ellipse cx="17" cy="206.6914" fill="#84BE84" rx="3" ry="3" style="stroke: #038048; stroke-width: 1.0;"/><text fill="#000000" font-family="sans-serif" font-size="11" lengthAdjust="spacingAndGlyphs" textLength="95" x="26" y="208.9995">testGetTo(): void</text><ellipse cx="17" cy="219.4961" fill="#84BE84" rx="3" ry="3" style="stroke: #038048; stroke-width: 1.0;"/><text fill="#000000" font-family="sans-serif" font-size="11" lengthAdjust="spacingAndGlyphs" textLength="107" x="26" y="221.8042">testGetCout(): void</text><ellipse cx="17" cy="232.3008" fill="#84BE84" rx="3" ry="3" style="stroke: #038048; stroke-width: 1.0;"/><text fill="#000000" font-family="sans-serif" font-size="11" lengthAdjust="spacingAndGlyphs" textLength="120" x="26" y="234.6089">testGetTemps(): void</text><ellipse cx="17" cy="245.1055" fill="#84BE84" rx="3" ry="3" style="stroke: #038048; stroke-width: 1.0;"/><text fill="#000000" font-family="sans-serif" font-size="11" lengthAdjust="spacingAndGlyphs" textLength="109" x="26" y="247.4136">testToString(): void</text></a><text fill="#888888" font-family="sans-serif" font-size="10" lengthAdjust="spacingAndGlyphs" textLength="186" x="11" y="273.2822">UMLDoclet 2.0.3, PlantUML 1.2019.06</text><!--
@startuml
    set namespaceSeparator none
    hide empty fields
    hide empty methods

    class "<size:14>RouteTest\n<size:10>model" as model.RouteTest [[RouteTest.html]] {
        {static} -DEFAULT_X: double
        {static} -DEFAULT_Y: double
        {static} -DEFAULT_HEURE_DEBUT: int
        {static} -DEFAULT_HEURE_FIN: int
        {static} -DEFAULT_COST: double
        {static} -DEFAULT_TIME: int
        -pointInstance: Point
        -point2: Point
        -routeInstance: Route
        ~createNewRoute(): void
        +testGetFrom(): void
        +testGetTo(): void
        +testGetCout(): void
        +testGetTemps(): void
        +testToString(): void
    }

    center footer UMLDoclet 2.0.3, PlantUML 1.2019.06
@enduml

PlantUML version 1.2019.06(Fri May 24 19:10:25 CEST 2019)
(APACHE source distribution)
Java Runtime: OpenJDK Runtime Environment
JVM: OpenJDK 64-Bit Server VM
Java Version: 11.0.4+4-post-Debian-1
Operating System: Linux
OS Version: 4.19.0-5-amd64
Default Encoding: UTF-8
Language: fr
Country: FR
--></g></svg>