<?xml version="1.0" encoding="UTF-8" standalone="no"?><svg xmlns="http://www.w3.org/2000/svg" xmlns:xlink="http://www.w3.org/1999/xlink" contentScriptType="application/ecmascript" contentStyleType="text/css" height="248px" preserveAspectRatio="none" style="width:223px;height:248px;" version="1.1" viewBox="0 0 223 248" width="223px" zoomAndPan="magnify"><defs><filter height="300%" id="fto4072mzdx5c" width="300%" x="-1" y="-1"><feGaussianBlur result="blurOut" stdDeviation="2.0"/><feColorMatrix in="blurOut" result="blurOut2" type="matrix" values="0 0 0 0 0 0 0 0 0 0 0 0 0 0 0 0 0 0 .4 0"/><feOffset dx="4.0" dy="4.0" in="blurOut2" result="blurOut3"/><feBlend in="SourceGraphic" in2="blurOut3" mode="normal"/></filter></defs><g><!--class model.VehiculeTest--><a href="VehiculeTest.html" target="_top" xlink:actuate="onRequest" xlink:show="new" xlink:title="VehiculeTest.html" xlink:type="simple"><rect fill="#FEFECE" filter="url(#fto4072mzdx5c)" height="207.5938" id="model.VehiculeTest" style="stroke: #A80036; stroke-width: 1.5;" width="206" x="6" y="8"/><ellipse cx="59.75" cy="26.9688" fill="#ADD1B2" rx="11" ry="11" style="stroke: #A80036; stroke-width: 1.0;"/><path d="M62.7188,32.6094 Q62.1406,32.9063 61.5,33.0469 Q60.8594,33.2031 60.1563,33.2031 Q57.6563,33.2031 56.3281,31.5625 Q55.0156,29.9063 55.0156,26.7813 Q55.0156,23.6563 56.3281,22 Q57.6563,20.3438 60.1563,20.3438 Q60.8594,20.3438 61.5,20.5 Q62.1563,20.6563 62.7188,20.9531 L62.7188,23.6719 Q62.0938,23.0938 61.5,22.8281 Q60.9063,22.5469 60.2813,22.5469 Q58.9375,22.5469 58.25,23.625 Q57.5625,24.6875 57.5625,26.7813 Q57.5625,28.875 58.25,29.9531 Q58.9375,31.0156 60.2813,31.0156 Q60.9063,31.0156 61.5,30.75 Q62.0938,30.4688 62.7188,29.8906 L62.7188,32.6094 Z "/><text fill="#000000" font-family="sans-serif" font-size="14" lengthAdjust="spacingAndGlyphs" textLength="90" x="80.25" y="25.9951">VehiculeTest</text><text fill="#000000" font-family="sans-serif" font-size="10" lengthAdjust="spacingAndGlyphs" textLength="30" x="110.25" y="38.5791">model</text><line style="stroke: #A80036; stroke-width: 1.5;" x1="7" x2="211" y1="45.9375" y2="45.9375"/><rect fill="none" height="6" style="stroke: #C82930; stroke-width: 1.0;" width="6" x="14" y="54.8398"/><text fill="#000000" font-family="sans-serif" font-size="11" lengthAdjust="spacingAndGlyphs" text-decoration="underline" textLength="158" x="26" y="60.1479">DEFAULT_HEURE_DEBUT: int</text><rect fill="none" height="6" style="stroke: #C82930; stroke-width: 1.0;" width="6" x="14" y="67.6445"/><text fill="#000000" font-family="sans-serif" font-size="11" lengthAdjust="spacingAndGlyphs" text-decoration="underline" textLength="137" x="26" y="72.9526">DEFAULT_HEURE_FIN: int</text><rect fill="none" height="6" style="stroke: #C82930; stroke-width: 1.0;" width="6" x="14" y="80.4492"/><text fill="#000000" font-family="sans-serif" font-size="11" lengthAdjust="spacingAndGlyphs" text-decoration="underline" textLength="108" x="26" y="85.7573">DEFAULT_X: double</text><rect fill="none" height="6" style="stroke: #C82930; stroke-width: 1.0;" width="6" x="14" y="93.2539"/><text fill="#000000" font-family="sans-serif" font-size="11" lengthAdjust="spacingAndGlyphs" text-decoration="underline" textLength="108" x="26" y="98.562">DEFAULT_Y: double</text><rect fill="none" height="6" style="stroke: #C82930; stroke-width: 1.0;" width="6" x="14" y="106.0586"/><text fill="#000000" font-family="sans-serif" font-size="11" lengthAdjust="spacingAndGlyphs" text-decoration="underline" textLength="131" x="26" y="111.3667">DEFAULT_CAPACITY: int</text><rect fill="none" height="6" style="stroke: #C82930; stroke-width: 1.0;" width="6" x="14" y="118.8633"/><text fill="#000000" font-family="sans-serif" font-size="11" lengthAdjust="spacingAndGlyphs" textLength="149" x="26" y="124.1714">vehiculeInstance: Vehicule</text><rect fill="none" height="6" style="stroke: #C82930; stroke-width: 1.0;" width="6" x="14" y="131.668"/><text fill="#000000" font-family="sans-serif" font-size="11" lengthAdjust="spacingAndGlyphs" textLength="73" x="26" y="136.9761">depot: Depot</text><line style="stroke: #A80036; stroke-width: 1.5;" x1="7" x2="211" y1="143.5703" y2="143.5703"/><polygon fill="#4177AF" points="17,151.4727,13,157.4727,21,157.4727" style="stroke: #1963A0; stroke-width: 1.0;"/><text fill="#000000" font-family="sans-serif" font-size="11" lengthAdjust="spacingAndGlyphs" textLength="127" x="26" y="157.7808">createNewPoint(): void</text><ellipse cx="17" cy="168.2773" fill="#84BE84" rx="3" ry="3" style="stroke: #038048; stroke-width: 1.0;"/><text fill="#000000" font-family="sans-serif" font-size="11" lengthAdjust="spacingAndGlyphs" textLength="95" x="26" y="170.5854">testCheck(): void</text><ellipse cx="17" cy="181.082" fill="#84BE84" rx="3" ry="3" style="stroke: #038048; stroke-width: 1.0;"/><text fill="#000000" font-family="sans-serif" font-size="11" lengthAdjust="spacingAndGlyphs" textLength="91" x="26" y="183.3901">testClear(): void</text><ellipse cx="17" cy="193.8867" fill="#84BE84" rx="3" ry="3" style="stroke: #038048; stroke-width: 1.0;"/><text fill="#000000" font-family="sans-serif" font-size="11" lengthAdjust="spacingAndGlyphs" textLength="180" x="26" y="196.1948">testGetCapaciteRestante(): void</text><ellipse cx="17" cy="206.6914" fill="#84BE84" rx="3" ry="3" style="stroke: #038048; stroke-width: 1.0;"/><text fill="#000000" font-family="sans-serif" font-size="11" lengthAdjust="spacingAndGlyphs" textLength="109" x="26" y="208.9995">testToString(): void</text></a><text fill="#888888" font-family="sans-serif" font-size="10" lengthAdjust="spacingAndGlyphs" textLength="186" x="22" y="235.2822">UMLDoclet 2.0.3, PlantUML 1.2019.06</text><!--
@startuml
    set namespaceSeparator none
    hide empty fields
    hide empty methods

    class "<size:14>VehiculeTest\n<size:10>model" as model.VehiculeTest [[VehiculeTest.html]] {
        {static} -DEFAULT_HEURE_DEBUT: int
        {static} -DEFAULT_HEURE_FIN: int
        {static} -DEFAULT_X: double
        {static} -DEFAULT_Y: double
        {static} -DEFAULT_CAPACITY: int
        -vehiculeInstance: Vehicule
        -depot: Depot
        ~createNewPoint(): void
        +testCheck(): void
        +testClear(): void
        +testGetCapaciteRestante(): void
        +testToString(): void
    }

    center footer UMLDoclet 2.0.3, PlantUML 1.2019.06
@enduml

PlantUML version 1.2019.06(Fri May 24 19:10:25 CEST 2019)
(APACHE source distribution)
Java Runtime: OpenJDK Runtime Environment
JVM: OpenJDK 64-Bit Server VM
Java Version: 11.0.4+4-post-Debian-1
Operating System: Linux
OS Version: 4.19.0-5-amd64
Default Encoding: UTF-8
Language: fr
Country: FR
--></g></svg>