<?xml version="1.0" encoding="UTF-8" standalone="no"?><svg xmlns="http://www.w3.org/2000/svg" xmlns:xlink="http://www.w3.org/1999/xlink" contentScriptType="application/ecmascript" contentStyleType="text/css" height="324px" preserveAspectRatio="none" style="width:591px;height:324px;" version="1.1" viewBox="0 0 591 324" width="591px" zoomAndPan="magnify"><defs><filter height="300%" id="fq839vbjcwn5b" width="300%" x="-1" y="-1"><feGaussianBlur result="blurOut" stdDeviation="2.0"/><feColorMatrix in="blurOut" result="blurOut2" type="matrix" values="0 0 0 0 0 0 0 0 0 0 0 0 0 0 0 0 0 0 .4 0"/><feOffset dx="4.0" dy="4.0" in="blurOut2" result="blurOut3"/><feBlend in="SourceGraphic" in2="blurOut3" mode="normal"/></filter></defs><g><!--cluster io.output--><polygon fill="#FFFFFF" filter="url(#fq839vbjcwn5b)" points="14,137,91,137,98,159.2969,569,159.2969,569,284,14,284,14,137" style="stroke: #000000; stroke-width: 1.5;"/><line style="stroke: #000000; stroke-width: 1.5;" x1="14" x2="98" y1="159.2969" y2="159.2969"/><text fill="#000000" font-family="sans-serif" font-size="14" font-weight="bold" lengthAdjust="spacingAndGlyphs" textLength="71" x="18" y="151.9951">io.output</text><!--cluster java.lang--><polygon fill="#FFFFFF" filter="url(#fq839vbjcwn5b)" points="28,16,103,16,110,38.2969,196,38.2969,196,112,28,112,28,16" style="stroke: #000000; stroke-width: 1.5;"/><line style="stroke: #000000; stroke-width: 1.5;" x1="28" x2="110" y1="38.2969" y2="38.2969"/><text fill="#000000" font-family="sans-serif" font-size="14" font-weight="bold" lengthAdjust="spacingAndGlyphs" textLength="69" x="32" y="30.9951">java.lang</text><!--class io.output.SolutionWriter--><a href="SolutionWriter.html" target="_top" xlink:actuate="onRequest" xlink:show="new" xlink:title="SolutionWriter.html" xlink:type="simple"><rect fill="#FEFECE" filter="url(#fq839vbjcwn5b)" height="112.0234" id="io.output.SolutionWriter" style="stroke: #A80036; stroke-width: 1.5;" width="324" x="237" y="164"/><ellipse cx="350.75" cy="180" fill="#ADD1B2" rx="11" ry="11" style="stroke: #A80036; stroke-width: 1.0;"/><path d="M353.7188,185.6406 Q353.1406,185.9375 352.5,186.0781 Q351.8594,186.2344 351.1563,186.2344 Q348.6563,186.2344 347.3281,184.5938 Q346.0156,182.9375 346.0156,179.8125 Q346.0156,176.6875 347.3281,175.0313 Q348.6563,173.375 351.1563,173.375 Q351.8594,173.375 352.5,173.5313 Q353.1563,173.6875 353.7188,173.9844 L353.7188,176.7031 Q353.0938,176.125 352.5,175.8594 Q351.9063,175.5781 351.2813,175.5781 Q349.9375,175.5781 349.25,176.6563 Q348.5625,177.7188 348.5625,179.8125 Q348.5625,181.9063 349.25,182.9844 Q349.9375,184.0469 351.2813,184.0469 Q351.9063,184.0469 352.5,183.7813 Q353.0938,183.5 353.7188,182.9219 L353.7188,185.6406 Z "/><text fill="#000000" font-family="sans-serif" font-size="12" lengthAdjust="spacingAndGlyphs" textLength="88" x="371.25" y="184.1543">SolutionWriter</text><line style="stroke: #A80036; stroke-width: 1.5;" x1="238" x2="560" y1="196" y2="196"/><rect fill="none" height="6" style="stroke: #C82930; stroke-width: 1.0;" width="6" x="245" y="204.9023"/><text fill="#000000" font-family="sans-serif" font-size="11" lengthAdjust="spacingAndGlyphs" text-decoration="underline" textLength="94" x="257" y="210.2104">LOGGER: Logger</text><line style="stroke: #A80036; stroke-width: 1.5;" x1="238" x2="560" y1="216.8047" y2="216.8047"/><ellipse cx="248" cy="228.707" fill="#84BE84" rx="3" ry="3" style="stroke: #038048; stroke-width: 1.0;"/><text fill="#000000" font-family="sans-serif" font-size="11" lengthAdjust="spacingAndGlyphs" textLength="137" x="257" y="231.0151">write(Instance): boolean</text><ellipse cx="248" cy="241.5117" fill="#84BE84" rx="3" ry="3" style="stroke: #038048; stroke-width: 1.0;"/><text fill="#000000" font-family="sans-serif" font-size="11" lengthAdjust="spacingAndGlyphs" textLength="179" x="257" y="243.8198">write(Instance, String): boolean</text><rect fill="#F24D5C" height="6" style="stroke: #C82930; stroke-width: 1.0;" width="6" x="245" y="251.3164"/><text fill="#000000" font-family="sans-serif" font-size="11" lengthAdjust="spacingAndGlyphs" textLength="285" x="257" y="256.6245">printTsv(PrintWriter, List&lt;? extends Object&gt;): void</text><rect fill="#F24D5C" height="6" style="stroke: #C82930; stroke-width: 1.0;" width="6" x="245" y="264.1211"/><text fill="#000000" font-family="sans-serif" font-size="11" lengthAdjust="spacingAndGlyphs" textLength="298" x="257" y="269.4292">printTsvLn(PrintWriter, List&lt;? extends Object&gt;): void</text></a><!--class io.output.WriterException--><a href="WriterException.html" target="_top" xlink:actuate="onRequest" xlink:show="new" xlink:title="WriterException.html" xlink:type="simple"><rect fill="#FEFECE" filter="url(#fq839vbjcwn5b)" height="86.4141" id="io.output.WriterException" style="stroke: #A80036; stroke-width: 1.5;" width="180" x="22" y="177"/><ellipse cx="59.5" cy="193" fill="#ADD1B2" rx="11" ry="11" style="stroke: #A80036; stroke-width: 1.0;"/><path d="M62.4688,198.6406 Q61.8906,198.9375 61.25,199.0781 Q60.6094,199.2344 59.9063,199.2344 Q57.4063,199.2344 56.0781,197.5938 Q54.7656,195.9375 54.7656,192.8125 Q54.7656,189.6875 56.0781,188.0313 Q57.4063,186.375 59.9063,186.375 Q60.6094,186.375 61.25,186.5313 Q61.9063,186.6875 62.4688,186.9844 L62.4688,189.7031 Q61.8438,189.125 61.25,188.8594 Q60.6563,188.5781 60.0313,188.5781 Q58.6875,188.5781 58,189.6563 Q57.3125,190.7188 57.3125,192.8125 Q57.3125,194.9063 58,195.9844 Q58.6875,197.0469 60.0313,197.0469 Q60.6563,197.0469 61.25,196.7813 Q61.8438,196.5 62.4688,195.9219 L62.4688,198.6406 Z "/><text fill="#000000" font-family="sans-serif" font-size="12" lengthAdjust="spacingAndGlyphs" textLength="98" x="78.5" y="197.1543">WriterException</text><line style="stroke: #A80036; stroke-width: 1.5;" x1="23" x2="201" y1="209" y2="209"/><rect fill="none" height="6" style="stroke: #C82930; stroke-width: 1.0;" width="6" x="30" y="217.9023"/><text fill="#000000" font-family="sans-serif" font-size="11" lengthAdjust="spacingAndGlyphs" text-decoration="underline" textLength="126" x="42" y="223.2104">serialVersionUID: long</text><line style="stroke: #A80036; stroke-width: 1.5;" x1="23" x2="201" y1="229.8047" y2="229.8047"/><ellipse cx="33" cy="241.707" fill="#84BE84" rx="3" ry="3" style="stroke: #038048; stroke-width: 1.0;"/><text fill="#000000" font-family="sans-serif" font-size="11" lengthAdjust="spacingAndGlyphs" textLength="129" x="42" y="244.0151">WriterException(String)</text><ellipse cx="33" cy="254.5117" fill="#84BE84" rx="3" ry="3" style="stroke: #038048; stroke-width: 1.0;"/><text fill="#000000" font-family="sans-serif" font-size="11" lengthAdjust="spacingAndGlyphs" textLength="154" x="42" y="256.8198">WriterException(Throwable)</text></a><!--class java.lang.Exception--><a href="https://docs.oracle.com/en/java/javase/11/docs/api/java.base/java/lang/Exception.html?is-external=true" target="_top" xlink:actuate="onRequest" xlink:show="new" xlink:title="https://docs.oracle.com/en/java/javase/11/docs/api/java.base/java/lang/Exception.html?is-external=true" xlink:type="simple"><rect fill="#FEFECE" filter="url(#fq839vbjcwn5b)" height="60.8047" id="java.lang.Exception" style="stroke: #A80036; stroke-width: 1.5;" width="152" x="36" y="43"/><ellipse cx="77.55" cy="59" fill="#ADD1B2" rx="11" ry="11" style="stroke: #A80036; stroke-width: 1.0;"/><path d="M80.5188,64.6406 Q79.9406,64.9375 79.3,65.0781 Q78.6594,65.2344 77.9563,65.2344 Q75.4563,65.2344 74.1281,63.5938 Q72.8156,61.9375 72.8156,58.8125 Q72.8156,55.6875 74.1281,54.0313 Q75.4563,52.375 77.9563,52.375 Q78.6594,52.375 79.3,52.5313 Q79.9563,52.6875 80.5188,52.9844 L80.5188,55.7031 Q79.8938,55.125 79.3,54.8594 Q78.7063,54.5781 78.0813,54.5781 Q76.7375,54.5781 76.05,55.6563 Q75.3625,56.7188 75.3625,58.8125 Q75.3625,60.9063 76.05,61.9844 Q76.7375,63.0469 78.0813,63.0469 Q78.7063,63.0469 79.3,62.7813 Q79.8938,62.5 80.5188,61.9219 L80.5188,64.6406 Z "/><text fill="#000000" font-family="sans-serif" font-size="12" lengthAdjust="spacingAndGlyphs" textLength="61" x="97.45" y="63.1543">Exception</text><line style="stroke: #A80036; stroke-width: 1.5;" x1="37" x2="187" y1="75" y2="75"/><polygon fill="none" points="47,82.9023,43,88.9023,51,88.9023" style="stroke: #1963A0; stroke-width: 1.0;"/><text fill="#000000" font-family="sans-serif" font-size="11" lengthAdjust="spacingAndGlyphs" text-decoration="underline" textLength="126" x="56" y="89.2104">serialVersionUID: long</text><line style="stroke: #A80036; stroke-width: 1.5;" x1="37" x2="187" y1="95.8047" y2="95.8047"/></a><!--link java.lang.Exception to io.output.WriterException--><path d="M112,124.265 C112,141.3947 112,160.3411 112,176.8275 " fill="none" id="java.lang.Exception-io.output.WriterException" style="stroke: #A80036; stroke-width: 1.0;"/><polygon fill="none" points="105.0001,124.2112,112,104.2112,119.0001,124.2112,105.0001,124.2112" style="stroke: #A80036; stroke-width: 1.0;"/><text fill="#888888" font-family="sans-serif" font-size="10" lengthAdjust="spacingAndGlyphs" textLength="186" x="204.5" y="311.2822">UMLDoclet 2.0.3, PlantUML 1.2019.06</text><!--
@startuml
    namespace io.output {

        class SolutionWriter [[SolutionWriter.html]] {
            {static} -LOGGER: Logger
            +write(Instance): boolean
            +write(Instance, String): boolean
            -printTsv(PrintWriter, List<? extends Object>): void
            -printTsvLn(PrintWriter, List<? extends Object>): void
        }

        class WriterException [[WriterException.html]] {
            {static} -serialVersionUID: long
            +WriterException(String)
            +WriterException(Throwable)
        }

        java.lang.Exception <|- - WriterException
    }

    namespace java.lang {
        class Exception [[https://docs.oracle.com/en/java/javase/11/docs/api/java.base/java/lang/Exception.html?is-external=true]] {
            {static} ~serialVersionUID: long
        }
    }

    center footer UMLDoclet 2.0.3, PlantUML 1.2019.06
@enduml

PlantUML version 1.2019.06(Fri May 24 19:10:25 CEST 2019)
(APACHE source distribution)
Java Runtime: OpenJDK Runtime Environment
JVM: OpenJDK 64-Bit Server VM
Java Version: 11.0.4+4-post-Debian-1
Operating System: Linux
OS Version: 4.19.0-5-amd64
Default Encoding: UTF-8
Language: fr
Country: FR
--></g></svg>