<?xml version="1.0" encoding="UTF-8" standalone="no"?><svg xmlns="http://www.w3.org/2000/svg" xmlns:xlink="http://www.w3.org/1999/xlink" contentScriptType="application/ecmascript" contentStyleType="text/css" height="158px" preserveAspectRatio="none" style="width:341px;height:158px;" version="1.1" viewBox="0 0 341 158" width="341px" zoomAndPan="magnify"><defs><filter height="300%" id="fwwnzctwlgy2n" width="300%" x="-1" y="-1"><feGaussianBlur result="blurOut" stdDeviation="2.0"/><feColorMatrix in="blurOut" result="blurOut2" type="matrix" values="0 0 0 0 0 0 0 0 0 0 0 0 0 0 0 0 0 0 .4 0"/><feOffset dx="4.0" dy="4.0" in="blurOut2" result="blurOut3"/><feBlend in="SourceGraphic" in2="blurOut3" mode="normal"/></filter></defs><g><!--class io.output.SolutionWriter--><a href="SolutionWriter.html" target="_top" xlink:actuate="onRequest" xlink:show="new" xlink:title="SolutionWriter.html" xlink:type="simple"><rect fill="#FEFECE" filter="url(#fwwnzctwlgy2n)" height="117.9609" id="io.output.SolutionWriter" style="stroke: #A80036; stroke-width: 1.5;" width="324" x="6" y="8"/><ellipse cx="115.75" cy="26.9688" fill="#ADD1B2" rx="11" ry="11" style="stroke: #A80036; stroke-width: 1.0;"/><path d="M118.7188,32.6094 Q118.1406,32.9063 117.5,33.0469 Q116.8594,33.2031 116.1563,33.2031 Q113.6563,33.2031 112.3281,31.5625 Q111.0156,29.9063 111.0156,26.7813 Q111.0156,23.6563 112.3281,22 Q113.6563,20.3438 116.1563,20.3438 Q116.8594,20.3438 117.5,20.5 Q118.1563,20.6563 118.7188,20.9531 L118.7188,23.6719 Q118.0938,23.0938 117.5,22.8281 Q116.9063,22.5469 116.2813,22.5469 Q114.9375,22.5469 114.25,23.625 Q113.5625,24.6875 113.5625,26.7813 Q113.5625,28.875 114.25,29.9531 Q114.9375,31.0156 116.2813,31.0156 Q116.9063,31.0156 117.5,30.75 Q118.0938,30.4688 118.7188,29.8906 L118.7188,32.6094 Z "/><text fill="#000000" font-family="sans-serif" font-size="14" lengthAdjust="spacingAndGlyphs" textLength="96" x="136.25" y="25.9951">SolutionWriter</text><text fill="#000000" font-family="sans-serif" font-size="10" lengthAdjust="spacingAndGlyphs" textLength="43" x="162.75" y="38.5791">io.output</text><line style="stroke: #A80036; stroke-width: 1.5;" x1="7" x2="329" y1="45.9375" y2="45.9375"/><rect fill="none" height="6" style="stroke: #C82930; stroke-width: 1.0;" width="6" x="14" y="54.8398"/><text fill="#000000" font-family="sans-serif" font-size="11" lengthAdjust="spacingAndGlyphs" text-decoration="underline" textLength="94" x="26" y="60.1479">LOGGER: Logger</text><line style="stroke: #A80036; stroke-width: 1.5;" x1="7" x2="329" y1="66.7422" y2="66.7422"/><ellipse cx="17" cy="78.6445" fill="#84BE84" rx="3" ry="3" style="stroke: #038048; stroke-width: 1.0;"/><text fill="#000000" font-family="sans-serif" font-size="11" lengthAdjust="spacingAndGlyphs" textLength="137" x="26" y="80.9526">write(Instance): boolean</text><ellipse cx="17" cy="91.4492" fill="#84BE84" rx="3" ry="3" style="stroke: #038048; stroke-width: 1.0;"/><text fill="#000000" font-family="sans-serif" font-size="11" lengthAdjust="spacingAndGlyphs" textLength="179" x="26" y="93.7573">write(Instance, String): boolean</text><rect fill="#F24D5C" height="6" style="stroke: #C82930; stroke-width: 1.0;" width="6" x="14" y="101.2539"/><text fill="#000000" font-family="sans-serif" font-size="11" lengthAdjust="spacingAndGlyphs" textLength="285" x="26" y="106.562">printTsv(PrintWriter, List&lt;? extends Object&gt;): void</text><rect fill="#F24D5C" height="6" style="stroke: #C82930; stroke-width: 1.0;" width="6" x="14" y="114.0586"/><text fill="#000000" font-family="sans-serif" font-size="11" lengthAdjust="spacingAndGlyphs" textLength="298" x="26" y="119.3667">printTsvLn(PrintWriter, List&lt;? extends Object&gt;): void</text></a><text fill="#888888" font-family="sans-serif" font-size="10" lengthAdjust="spacingAndGlyphs" textLength="186" x="81" y="145.2822">UMLDoclet 2.0.3, PlantUML 1.2019.06</text><!--
@startuml
    set namespaceSeparator none
    hide empty fields
    hide empty methods

    class "<size:14>SolutionWriter\n<size:10>io.output" as io.output.SolutionWriter [[SolutionWriter.html]] {
        {static} -LOGGER: Logger
        +write(Instance): boolean
        +write(Instance, String): boolean
        -printTsv(PrintWriter, List<? extends Object>): void
        -printTsvLn(PrintWriter, List<? extends Object>): void
    }

    center footer UMLDoclet 2.0.3, PlantUML 1.2019.06
@enduml

PlantUML version 1.2019.06(Fri May 24 19:10:25 CEST 2019)
(APACHE source distribution)
Java Runtime: OpenJDK Runtime Environment
JVM: OpenJDK 64-Bit Server VM
Java Version: 11.0.4+4-post-Debian-1
Operating System: Linux
OS Version: 4.19.0-5-amd64
Default Encoding: UTF-8
Language: fr
Country: FR
--></g></svg>