<?xml version="1.0" encoding="UTF-8" standalone="no"?><svg xmlns="http://www.w3.org/2000/svg" xmlns:xlink="http://www.w3.org/1999/xlink" contentScriptType="application/ecmascript" contentStyleType="text/css" height="230px" preserveAspectRatio="none" style="width:207px;height:230px;" version="1.1" viewBox="0 0 207 230" width="207px" zoomAndPan="magnify"><defs><filter height="300%" id="fq9yzzyn7ncjh" width="300%" x="-1" y="-1"><feGaussianBlur result="blurOut" stdDeviation="2.0"/><feColorMatrix in="blurOut" result="blurOut2" type="matrix" values="0 0 0 0 0 0 0 0 0 0 0 0 0 0 0 0 0 0 .4 0"/><feOffset dx="4.0" dy="4.0" in="blurOut2" result="blurOut3"/><feBlend in="SourceGraphic" in2="blurOut3" mode="normal"/></filter></defs><g><!--class io.output.WriterException--><a href="WriterException.html" target="_top" xlink:actuate="onRequest" xlink:show="new" xlink:title="WriterException.html" xlink:type="simple"><rect fill="#FEFECE" filter="url(#fq9yzzyn7ncjh)" height="92.3516" id="io.output.WriterException" style="stroke: #A80036; stroke-width: 1.5;" width="180" x="6" y="106"/><ellipse cx="39" cy="124.9688" fill="#ADD1B2" rx="11" ry="11" style="stroke: #A80036; stroke-width: 1.0;"/><path d="M41.9688,130.6094 Q41.3906,130.9063 40.75,131.0469 Q40.1094,131.2031 39.4063,131.2031 Q36.9063,131.2031 35.5781,129.5625 Q34.2656,127.9063 34.2656,124.7813 Q34.2656,121.6563 35.5781,120 Q36.9063,118.3438 39.4063,118.3438 Q40.1094,118.3438 40.75,118.5 Q41.4063,118.6563 41.9688,118.9531 L41.9688,121.6719 Q41.3438,121.0938 40.75,120.8281 Q40.1563,120.5469 39.5313,120.5469 Q38.1875,120.5469 37.5,121.625 Q36.8125,122.6875 36.8125,124.7813 Q36.8125,126.875 37.5,127.9531 Q38.1875,129.0156 39.5313,129.0156 Q40.1563,129.0156 40.75,128.75 Q41.3438,128.4688 41.9688,127.8906 L41.9688,130.6094 Z "/><text fill="#000000" font-family="sans-serif" font-size="14" lengthAdjust="spacingAndGlyphs" textLength="108" x="57" y="123.9951">WriterException</text><text fill="#000000" font-family="sans-serif" font-size="10" lengthAdjust="spacingAndGlyphs" textLength="43" x="89.5" y="136.5791">io.output</text><line style="stroke: #A80036; stroke-width: 1.5;" x1="7" x2="185" y1="143.9375" y2="143.9375"/><rect fill="none" height="6" style="stroke: #C82930; stroke-width: 1.0;" width="6" x="14" y="152.8398"/><text fill="#000000" font-family="sans-serif" font-size="11" lengthAdjust="spacingAndGlyphs" text-decoration="underline" textLength="126" x="26" y="158.1479">serialVersionUID: long</text><line style="stroke: #A80036; stroke-width: 1.5;" x1="7" x2="185" y1="164.7422" y2="164.7422"/><ellipse cx="17" cy="176.6445" fill="#84BE84" rx="3" ry="3" style="stroke: #038048; stroke-width: 1.0;"/><text fill="#000000" font-family="sans-serif" font-size="11" lengthAdjust="spacingAndGlyphs" textLength="129" x="26" y="178.9526">WriterException(String)</text><ellipse cx="17" cy="189.4492" fill="#84BE84" rx="3" ry="3" style="stroke: #038048; stroke-width: 1.0;"/><text fill="#000000" font-family="sans-serif" font-size="11" lengthAdjust="spacingAndGlyphs" textLength="154" x="26" y="191.7573">WriterException(Throwable)</text></a><!--class java.lang.Exception--><a href="https://docs.oracle.com/en/java/javase/11/docs/api/java.base/java/lang/Exception.html?is-external=true" target="_top" xlink:actuate="onRequest" xlink:show="new" xlink:title="https://docs.oracle.com/en/java/javase/11/docs/api/java.base/java/lang/Exception.html?is-external=true" xlink:type="simple"><rect fill="#FEFECE" filter="url(#fq9yzzyn7ncjh)" height="37.9375" id="java.lang.Exception" style="stroke: #A80036; stroke-width: 1.5;" width="100" x="46" y="8"/><ellipse cx="61" cy="26.9688" fill="#ADD1B2" rx="11" ry="11" style="stroke: #A80036; stroke-width: 1.0;"/><path d="M63.9688,32.6094 Q63.3906,32.9063 62.75,33.0469 Q62.1094,33.2031 61.4063,33.2031 Q58.9063,33.2031 57.5781,31.5625 Q56.2656,29.9063 56.2656,26.7813 Q56.2656,23.6563 57.5781,22 Q58.9063,20.3438 61.4063,20.3438 Q62.1094,20.3438 62.75,20.5 Q63.4063,20.6563 63.9688,20.9531 L63.9688,23.6719 Q63.3438,23.0938 62.75,22.8281 Q62.1563,22.5469 61.5313,22.5469 Q60.1875,22.5469 59.5,23.625 Q58.8125,24.6875 58.8125,26.7813 Q58.8125,28.875 59.5,29.9531 Q60.1875,31.0156 61.5313,31.0156 Q62.1563,31.0156 62.75,30.75 Q63.3438,30.4688 63.9688,29.8906 L63.9688,32.6094 Z "/><text fill="#000000" font-family="sans-serif" font-size="14" lengthAdjust="spacingAndGlyphs" textLength="68" x="75" y="25.9951">Exception</text><text fill="#000000" font-family="sans-serif" font-size="10" lengthAdjust="spacingAndGlyphs" textLength="43" x="87.5" y="38.5791">java.lang</text></a><!--link java.lang.Exception to io.output.WriterException--><path d="M96,66.695 C96,79.1838 96,93.0804 96,105.9705 " fill="none" id="java.lang.Exception-io.output.WriterException" style="stroke: #A80036; stroke-width: 1.0;"/><polygon fill="none" points="89.0001,66.2573,96,46.2573,103.0001,66.2573,89.0001,66.2573" style="stroke: #A80036; stroke-width: 1.0;"/><text fill="#888888" font-family="sans-serif" font-size="10" lengthAdjust="spacingAndGlyphs" textLength="186" x="9" y="217.2822">UMLDoclet 2.0.3, PlantUML 1.2019.06</text><!--
@startuml
    set namespaceSeparator none
    hide empty fields
    hide empty methods

    class "<size:14>WriterException\n<size:10>io.output" as io.output.WriterException [[WriterException.html]] {
        {static} -serialVersionUID: long
        +WriterException(String)
        +WriterException(Throwable)
    }

    class "<size:14>Exception\n<size:10>java.lang" as java.lang.Exception [[https://docs.oracle.com/en/java/javase/11/docs/api/java.base/java/lang/Exception.html?is-external=true]]

    java.lang.Exception <|- - io.output.WriterException

    center footer UMLDoclet 2.0.3, PlantUML 1.2019.06
@enduml

PlantUML version 1.2019.06(Fri May 24 19:10:25 CEST 2019)
(APACHE source distribution)
Java Runtime: OpenJDK Runtime Environment
JVM: OpenJDK 64-Bit Server VM
Java Version: 11.0.4+4-post-Debian-1
Operating System: Linux
OS Version: 4.19.0-5-amd64
Default Encoding: UTF-8
Language: fr
Country: FR
--></g></svg>