<?xml version="1.0" encoding="UTF-8" standalone="no"?><svg xmlns="http://www.w3.org/2000/svg" xmlns:xlink="http://www.w3.org/1999/xlink" contentScriptType="application/ecmascript" contentStyleType="text/css" height="461px" preserveAspectRatio="none" style="width:336px;height:461px;" version="1.1" viewBox="0 0 336 461" width="336px" zoomAndPan="magnify"><defs><filter height="300%" id="f1qaai9t87zi86" width="300%" x="-1" y="-1"><feGaussianBlur result="blurOut" stdDeviation="2.0"/><feColorMatrix in="blurOut" result="blurOut2" type="matrix" values="0 0 0 0 0 0 0 0 0 0 0 0 0 0 0 0 0 0 .4 0"/><feOffset dx="4.0" dy="4.0" in="blurOut2" result="blurOut3"/><feBlend in="SourceGraphic" in2="blurOut3" mode="normal"/></filter></defs><g><!--class template.Itineraire--><a href="Itineraire.html" target="_top" xlink:actuate="onRequest" xlink:show="new" xlink:title="Itineraire.html" xlink:type="simple"><rect fill="#FEFECE" filter="url(#f1qaai9t87zi86)" height="322.8359" id="template.Itineraire" style="stroke: #A80036; stroke-width: 1.5;" width="319" x="6" y="106"/><ellipse cx="131.75" cy="124.9688" fill="#ADD1B2" rx="11" ry="11" style="stroke: #A80036; stroke-width: 1.0;"/><path d="M134.7188,130.6094 Q134.1406,130.9063 133.5,131.0469 Q132.8594,131.2031 132.1563,131.2031 Q129.6563,131.2031 128.3281,129.5625 Q127.0156,127.9063 127.0156,124.7813 Q127.0156,121.6563 128.3281,120 Q129.6563,118.3438 132.1563,118.3438 Q132.8594,118.3438 133.5,118.5 Q134.1563,118.6563 134.7188,118.9531 L134.7188,121.6719 Q134.0938,121.0938 133.5,120.8281 Q132.9063,120.5469 132.2813,120.5469 Q130.9375,120.5469 130.25,121.625 Q129.5625,122.6875 129.5625,124.7813 Q129.5625,126.875 130.25,127.9531 Q130.9375,129.0156 132.2813,129.0156 Q132.9063,129.0156 133.5,128.75 Q134.0938,128.4688 134.7188,127.8906 L134.7188,130.6094 Z "/><text fill="#000000" font-family="sans-serif" font-size="14" lengthAdjust="spacingAndGlyphs" textLength="59" x="152.25" y="123.9951">Itineraire</text><text fill="#000000" font-family="sans-serif" font-size="10" lengthAdjust="spacingAndGlyphs" textLength="44" x="159.75" y="136.5791">template</text><line style="stroke: #A80036; stroke-width: 1.5;" x1="7" x2="324" y1="143.9375" y2="143.9375"/><rect fill="none" height="6" style="stroke: #C82930; stroke-width: 1.0;" width="6" x="14" y="152.8398"/><text fill="#000000" font-family="sans-serif" font-size="11" lengthAdjust="spacingAndGlyphs" text-decoration="underline" textLength="126" x="26" y="158.1479">serialVersionUID: long</text><rect fill="none" height="6" style="stroke: #C82930; stroke-width: 1.0;" width="6" x="14" y="165.6445"/><text fill="#000000" font-family="sans-serif" font-size="11" lengthAdjust="spacingAndGlyphs" text-decoration="underline" textLength="94" x="26" y="170.9526">LOGGER: Logger</text><rect fill="none" height="6" style="stroke: #C82930; stroke-width: 1.0;" width="6" x="14" y="178.4492"/><text fill="#000000" font-family="sans-serif" font-size="11" lengthAdjust="spacingAndGlyphs" textLength="104" x="26" y="183.7573">instance: Instance</text><rect fill="none" height="6" style="stroke: #C82930; stroke-width: 1.0;" width="6" x="14" y="191.2539"/><text fill="#000000" font-family="sans-serif" font-size="11" lengthAdjust="spacingAndGlyphs" textLength="112" x="26" y="196.562">canvas2: MyCanvas</text><rect fill="none" height="6" style="stroke: #C82930; stroke-width: 1.0;" width="6" x="14" y="204.0586"/><text fill="#000000" font-family="sans-serif" font-size="11" lengthAdjust="spacingAndGlyphs" textLength="178" x="26" y="209.3667">clientEmplacementLabel: JLabel</text><rect fill="none" height="6" style="stroke: #C82930; stroke-width: 1.0;" width="6" x="14" y="216.8633"/><text fill="#000000" font-family="sans-serif" font-size="11" lengthAdjust="spacingAndGlyphs" textLength="95" x="26" y="222.1714">costLabel: JLabel</text><rect fill="none" height="6" style="stroke: #C82930; stroke-width: 1.0;" width="6" x="14" y="229.668"/><text fill="#000000" font-family="sans-serif" font-size="11" lengthAdjust="spacingAndGlyphs" textLength="103" x="26" y="234.9761">costNLabel: JLabel</text><rect fill="none" height="6" style="stroke: #C82930; stroke-width: 1.0;" width="6" x="14" y="242.4727"/><text fill="#000000" font-family="sans-serif" font-size="11" lengthAdjust="spacingAndGlyphs" textLength="121" x="26" y="247.7808">externalVlabel: JLabel</text><rect fill="none" height="6" style="stroke: #C82930; stroke-width: 1.0;" width="6" x="14" y="255.2773"/><text fill="#000000" font-family="sans-serif" font-size="11" lengthAdjust="spacingAndGlyphs" textLength="106" x="26" y="260.5854">fitInButton: JButton</text><rect fill="none" height="6" style="stroke: #C82930; stroke-width: 1.0;" width="6" x="14" y="268.082"/><text fill="#000000" font-family="sans-serif" font-size="11" lengthAdjust="spacingAndGlyphs" textLength="81" x="26" y="273.3901">jLabel1: JLabel</text><rect fill="none" height="6" style="stroke: #C82930; stroke-width: 1.0;" width="6" x="14" y="280.8867"/><text fill="#000000" font-family="sans-serif" font-size="11" lengthAdjust="spacingAndGlyphs" textLength="141" x="26" y="286.1948">jScrollPane2: JScrollPane</text><rect fill="none" height="6" style="stroke: #C82930; stroke-width: 1.0;" width="6" x="14" y="293.6914"/><text fill="#000000" font-family="sans-serif" font-size="11" lengthAdjust="spacingAndGlyphs" textLength="83" x="26" y="298.9995">jTable1: JTable</text><rect fill="none" height="6" style="stroke: #C82930; stroke-width: 1.0;" width="6" x="14" y="306.4961"/><text fill="#000000" font-family="sans-serif" font-size="11" lengthAdjust="spacingAndGlyphs" textLength="131" x="26" y="311.8042">levelZoomLabel: JLabel</text><rect fill="none" height="6" style="stroke: #C82930; stroke-width: 1.0;" width="6" x="14" y="319.3008"/><text fill="#000000" font-family="sans-serif" font-size="11" lengthAdjust="spacingAndGlyphs" textLength="122" x="26" y="324.6089">numberVLabel: JLabel</text><rect fill="none" height="6" style="stroke: #C82930; stroke-width: 1.0;" width="6" x="14" y="332.1055"/><text fill="#000000" font-family="sans-serif" font-size="11" lengthAdjust="spacingAndGlyphs" textLength="115" x="26" y="337.4136">zoomButton: JButton</text><line style="stroke: #A80036; stroke-width: 1.5;" x1="7" x2="324" y1="344.0078" y2="344.0078"/><ellipse cx="17" cy="355.9102" fill="#84BE84" rx="3" ry="3" style="stroke: #038048; stroke-width: 1.0;"/><text fill="#000000" font-family="sans-serif" font-size="11" lengthAdjust="spacingAndGlyphs" textLength="107" x="26" y="358.2183">Itineraire(Instance)</text><rect fill="#F24D5C" height="6" style="stroke: #C82930; stroke-width: 1.0;" width="6" x="14" y="365.7148"/><text fill="#000000" font-family="sans-serif" font-size="11" lengthAdjust="spacingAndGlyphs" textLength="150" x="26" y="371.0229">initialisationFenetre(): void</text><rect fill="#F24D5C" height="6" style="stroke: #C82930; stroke-width: 1.0;" width="6" x="14" y="378.5195"/><text fill="#000000" font-family="sans-serif" font-size="11" lengthAdjust="spacingAndGlyphs" textLength="128" x="26" y="383.8276">initComponents(): void</text><rect fill="#F24D5C" height="6" style="stroke: #C82930; stroke-width: 1.0;" width="6" x="14" y="391.3242"/><text fill="#000000" font-family="sans-serif" font-size="11" lengthAdjust="spacingAndGlyphs" textLength="256" x="26" y="396.6323">fitInButtonActionPerformed(ActionEvent): void</text><rect fill="#F24D5C" height="6" style="stroke: #C82930; stroke-width: 1.0;" width="6" x="14" y="404.1289"/><text fill="#000000" font-family="sans-serif" font-size="11" lengthAdjust="spacingAndGlyphs" textLength="293" x="26" y="409.437">canvas2MouseWheelMoved(MouseWheelEvent): void</text><rect fill="#F24D5C" height="6" style="stroke: #C82930; stroke-width: 1.0;" width="6" x="14" y="416.9336"/><text fill="#000000" font-family="sans-serif" font-size="11" lengthAdjust="spacingAndGlyphs" textLength="239" x="26" y="422.2417">canvas2MouseDragged(MouseEvent): void</text></a><!--class javax.swing.JFrame--><a href="https://docs.oracle.com/en/java/javase/11/docs/api/java.desktop/javax/swing/JFrame.html?is-external=true" target="_top" xlink:actuate="onRequest" xlink:show="new" xlink:title="https://docs.oracle.com/en/java/javase/11/docs/api/java.desktop/javax/swing/JFrame.html?is-external=true" xlink:type="simple"><rect fill="#FEFECE" filter="url(#f1qaai9t87zi86)" height="37.9375" id="javax.swing.JFrame" style="stroke: #A80036; stroke-width: 1.5;" width="88" x="121.5" y="8"/><ellipse cx="136.5" cy="26.9688" fill="#ADD1B2" rx="11" ry="11" style="stroke: #A80036; stroke-width: 1.0;"/><path d="M139.4688,32.6094 Q138.8906,32.9063 138.25,33.0469 Q137.6094,33.2031 136.9063,33.2031 Q134.4063,33.2031 133.0781,31.5625 Q131.7656,29.9063 131.7656,26.7813 Q131.7656,23.6563 133.0781,22 Q134.4063,20.3438 136.9063,20.3438 Q137.6094,20.3438 138.25,20.5 Q138.9063,20.6563 139.4688,20.9531 L139.4688,23.6719 Q138.8438,23.0938 138.25,22.8281 Q137.6563,22.5469 137.0313,22.5469 Q135.6875,22.5469 135,23.625 Q134.3125,24.6875 134.3125,26.7813 Q134.3125,28.875 135,29.9531 Q135.6875,31.0156 137.0313,31.0156 Q137.6563,31.0156 138.25,30.75 Q138.8438,30.4688 139.4688,29.8906 L139.4688,32.6094 Z "/><text fill="#000000" font-family="sans-serif" font-size="14" lengthAdjust="spacingAndGlyphs" textLength="46" x="155.5" y="25.9951">JFrame</text><text fill="#000000" font-family="sans-serif" font-size="10" lengthAdjust="spacingAndGlyphs" textLength="56" x="150.5" y="38.5791">javax.swing</text></a><!--link javax.swing.JFrame to template.Itineraire--><path d="M165.5,66.5135 C165.5,78.0617 165.5,91.4562 165.5,105.7415 " fill="none" id="javax.swing.JFrame-template.Itineraire" style="stroke: #A80036; stroke-width: 1.0;"/><polygon fill="none" points="158.5001,66.2746,165.5,46.2746,172.5001,66.2745,158.5001,66.2746" style="stroke: #A80036; stroke-width: 1.0;"/><text fill="#888888" font-family="sans-serif" font-size="10" lengthAdjust="spacingAndGlyphs" textLength="186" x="78.5" y="448.2822">UMLDoclet 2.0.3, PlantUML 1.2019.06</text><!--
@startuml
    set namespaceSeparator none
    hide empty fields
    hide empty methods

    class "<size:14>Itineraire\n<size:10>template" as template.Itineraire [[Itineraire.html]] {
        {static} -serialVersionUID: long
        {static} -LOGGER: Logger
        -instance: Instance
        -canvas2: MyCanvas
        -clientEmplacementLabel: JLabel
        -costLabel: JLabel
        -costNLabel: JLabel
        -externalVlabel: JLabel
        -fitInButton: JButton
        -jLabel1: JLabel
        -jScrollPane2: JScrollPane
        -jTable1: JTable
        -levelZoomLabel: JLabel
        -numberVLabel: JLabel
        -zoomButton: JButton
        +Itineraire(Instance)
        -initialisationFenetre(): void
        -initComponents(): void
        -fitInButtonActionPerformed(ActionEvent): void
        -canvas2MouseWheelMoved(MouseWheelEvent): void
        -canvas2MouseDragged(MouseEvent): void
    }

    class "<size:14>JFrame\n<size:10>javax.swing" as javax.swing.JFrame [[https://docs.oracle.com/en/java/javase/11/docs/api/java.desktop/javax/swing/JFrame.html?is-external=true]]

    javax.swing.JFrame <|- - template.Itineraire

    center footer UMLDoclet 2.0.3, PlantUML 1.2019.06
@enduml

PlantUML version 1.2019.06(Fri May 24 19:10:25 CEST 2019)
(APACHE source distribution)
Java Runtime: OpenJDK Runtime Environment
JVM: OpenJDK 64-Bit Server VM
Java Version: 11.0.4+4-post-Debian-1
Operating System: Linux
OS Version: 4.19.0-5-amd64
Default Encoding: UTF-8
Language: fr
Country: FR
--></g></svg>