<?xml version="1.0" encoding="UTF-8" standalone="no"?><svg xmlns="http://www.w3.org/2000/svg" xmlns:xlink="http://www.w3.org/1999/xlink" contentScriptType="application/ecmascript" contentStyleType="text/css" height="461px" preserveAspectRatio="none" style="width:370px;height:461px;" version="1.1" viewBox="0 0 370 461" width="370px" zoomAndPan="magnify"><defs><filter height="300%" id="f16cqonzejvu27" width="300%" x="-1" y="-1"><feGaussianBlur result="blurOut" stdDeviation="2.0"/><feColorMatrix in="blurOut" result="blurOut2" type="matrix" values="0 0 0 0 0 0 0 0 0 0 0 0 0 0 0 0 0 0 .4 0"/><feOffset dx="4.0" dy="4.0" in="blurOut2" result="blurOut3"/><feBlend in="SourceGraphic" in2="blurOut3" mode="normal"/></filter></defs><g><!--class template.ListeInstance--><a href="ListeInstance.html" target="_top" xlink:actuate="onRequest" xlink:show="new" xlink:title="ListeInstance.html" xlink:type="simple"><rect fill="#FEFECE" filter="url(#f16cqonzejvu27)" height="322.8359" id="template.ListeInstance" style="stroke: #A80036; stroke-width: 1.5;" width="353" x="6" y="106"/><ellipse cx="132.75" cy="124.9688" fill="#ADD1B2" rx="11" ry="11" style="stroke: #A80036; stroke-width: 1.0;"/><path d="M135.7188,130.6094 Q135.1406,130.9063 134.5,131.0469 Q133.8594,131.2031 133.1563,131.2031 Q130.6563,131.2031 129.3281,129.5625 Q128.0156,127.9063 128.0156,124.7813 Q128.0156,121.6563 129.3281,120 Q130.6563,118.3438 133.1563,118.3438 Q133.8594,118.3438 134.5,118.5 Q135.1563,118.6563 135.7188,118.9531 L135.7188,121.6719 Q135.0938,121.0938 134.5,120.8281 Q133.9063,120.5469 133.2813,120.5469 Q131.9375,120.5469 131.25,121.625 Q130.5625,122.6875 130.5625,124.7813 Q130.5625,126.875 131.25,127.9531 Q131.9375,129.0156 133.2813,129.0156 Q133.9063,129.0156 134.5,128.75 Q135.0938,128.4688 135.7188,127.8906 L135.7188,130.6094 Z "/><text fill="#000000" font-family="sans-serif" font-size="14" lengthAdjust="spacingAndGlyphs" textLength="91" x="153.25" y="123.9951">ListeInstance</text><text fill="#000000" font-family="sans-serif" font-size="10" lengthAdjust="spacingAndGlyphs" textLength="44" x="176.75" y="136.5791">template</text><line style="stroke: #A80036; stroke-width: 1.5;" x1="7" x2="358" y1="143.9375" y2="143.9375"/><rect fill="none" height="6" style="stroke: #C82930; stroke-width: 1.0;" width="6" x="14" y="152.8398"/><text fill="#000000" font-family="sans-serif" font-size="11" lengthAdjust="spacingAndGlyphs" text-decoration="underline" textLength="94" x="26" y="158.1479">LOGGER: Logger</text><rect fill="none" height="6" style="stroke: #C82930; stroke-width: 1.0;" width="6" x="14" y="165.6445"/><text fill="#000000" font-family="sans-serif" font-size="11" lengthAdjust="spacingAndGlyphs" text-decoration="underline" textLength="126" x="26" y="170.9526">serialVersionUID: long</text><rect fill="none" height="6" style="stroke: #C82930; stroke-width: 1.0;" width="6" x="14" y="178.4492"/><text fill="#000000" font-family="sans-serif" font-size="11" lengthAdjust="spacingAndGlyphs" textLength="188" x="26" y="183.7573">dlm: DefaultListModel&lt;Instance&gt;</text><rect fill="none" height="6" style="stroke: #C82930; stroke-width: 1.0;" width="6" x="14" y="191.2539"/><text fill="#000000" font-family="sans-serif" font-size="11" lengthAdjust="spacingAndGlyphs" textLength="133" x="26" y="196.562">daoFactory: DaoFactory</text><rect fill="none" height="6" style="stroke: #C82930; stroke-width: 1.0;" width="6" x="14" y="204.0586"/><text fill="#000000" font-family="sans-serif" font-size="11" lengthAdjust="spacingAndGlyphs" textLength="177" x="26" y="209.3667">jButtonDisplayInstance: JButton</text><rect fill="none" height="6" style="stroke: #C82930; stroke-width: 1.0;" width="6" x="14" y="216.8633"/><text fill="#000000" font-family="sans-serif" font-size="11" lengthAdjust="spacingAndGlyphs" textLength="167" x="26" y="222.1714">jButtonSolveInstance: JButton</text><rect fill="none" height="6" style="stroke: #C82930; stroke-width: 1.0;" width="6" x="14" y="229.668"/><text fill="#000000" font-family="sans-serif" font-size="11" lengthAdjust="spacingAndGlyphs" textLength="81" x="26" y="234.9761">jLabel1: JLabel</text><rect fill="none" height="6" style="stroke: #C82930; stroke-width: 1.0;" width="6" x="14" y="242.4727"/><text fill="#000000" font-family="sans-serif" font-size="11" lengthAdjust="spacingAndGlyphs" textLength="168" x="26" y="247.7808">jListInstance: JList&lt;Instance&gt;</text><rect fill="none" height="6" style="stroke: #C82930; stroke-width: 1.0;" width="6" x="14" y="255.2773"/><text fill="#000000" font-family="sans-serif" font-size="11" lengthAdjust="spacingAndGlyphs" textLength="141" x="26" y="260.5854">jScrollPane1: JScrollPane</text><rect fill="none" height="6" style="stroke: #C82930; stroke-width: 1.0;" width="6" x="14" y="268.082"/><text fill="#000000" font-family="sans-serif" font-size="11" lengthAdjust="spacingAndGlyphs" textLength="126" x="26" y="273.3901">jSelectectLabel: JLabel</text><rect fill="none" height="6" style="stroke: #C82930; stroke-width: 1.0;" width="6" x="14" y="280.8867"/><text fill="#000000" font-family="sans-serif" font-size="11" lengthAdjust="spacingAndGlyphs" textLength="141" x="26" y="286.1948">jSelectedInstance: JLabel</text><rect fill="none" height="6" style="stroke: #C82930; stroke-width: 1.0;" width="6" x="14" y="293.6914"/><text fill="#000000" font-family="sans-serif" font-size="11" lengthAdjust="spacingAndGlyphs" textLength="68" x="26" y="298.9995">jTitle: JLabel</text><rect fill="none" height="6" style="stroke: #C82930; stroke-width: 1.0;" width="6" x="14" y="306.4961"/><text fill="#000000" font-family="sans-serif" font-size="11" lengthAdjust="spacingAndGlyphs" textLength="123" x="26" y="311.8042">uploadButton: JButton</text><line style="stroke: #A80036; stroke-width: 1.5;" x1="7" x2="358" y1="318.3984" y2="318.3984"/><rect fill="#F24D5C" height="6" style="stroke: #C82930; stroke-width: 1.0;" width="6" x="14" y="327.3008"/><text fill="#000000" font-family="sans-serif" font-size="11" lengthAdjust="spacingAndGlyphs" textLength="150" x="26" y="332.6089">initialisationFenetre(): void</text><rect fill="#F24D5C" height="6" style="stroke: #C82930; stroke-width: 1.0;" width="6" x="14" y="340.1055"/><text fill="#000000" font-family="sans-serif" font-size="11" lengthAdjust="spacingAndGlyphs" textLength="115" x="26" y="345.4136">initConnexion(): void</text><rect fill="#F24D5C" height="6" style="stroke: #C82930; stroke-width: 1.0;" width="6" x="14" y="352.9102"/><text fill="#000000" font-family="sans-serif" font-size="11" lengthAdjust="spacingAndGlyphs" textLength="128" x="26" y="358.2183">initComponents(): void</text><rect fill="#F24D5C" height="6" style="stroke: #C82930; stroke-width: 1.0;" width="6" x="14" y="365.7148"/><text fill="#000000" font-family="sans-serif" font-size="11" lengthAdjust="spacingAndGlyphs" textLength="317" x="26" y="371.0229">jButtonSolveInstanceActionPerformed(ActionEvent): void</text><rect fill="#F24D5C" height="6" style="stroke: #C82930; stroke-width: 1.0;" width="6" x="14" y="378.5195"/><text fill="#000000" font-family="sans-serif" font-size="11" lengthAdjust="spacingAndGlyphs" textLength="294" x="26" y="383.8276">jListInstanceValueChanged(ListSelectionEvent): void</text><rect fill="#F24D5C" height="6" style="stroke: #C82930; stroke-width: 1.0;" width="6" x="14" y="391.3242"/><text fill="#000000" font-family="sans-serif" font-size="11" lengthAdjust="spacingAndGlyphs" textLength="327" x="26" y="396.6323">jButtonDisplayInstanceActionPerformed(ActionEvent): void</text><rect fill="#F24D5C" height="6" style="stroke: #C82930; stroke-width: 1.0;" width="6" x="14" y="404.1289"/><text fill="#000000" font-family="sans-serif" font-size="11" lengthAdjust="spacingAndGlyphs" textLength="273" x="26" y="409.437">uploadButtonActionPerformed(ActionEvent): void</text><rect fill="#F24D5C" height="6" style="stroke: #C82930; stroke-width: 1.0;" width="6" x="14" y="416.9336"/><text fill="#000000" font-family="sans-serif" font-size="11" lengthAdjust="spacingAndGlyphs" textLength="201" x="26" y="422.2417">createInstance(String): NaiveSolver</text></a><!--class javax.swing.JFrame--><a href="https://docs.oracle.com/en/java/javase/11/docs/api/java.desktop/javax/swing/JFrame.html?is-external=true" target="_top" xlink:actuate="onRequest" xlink:show="new" xlink:title="https://docs.oracle.com/en/java/javase/11/docs/api/java.desktop/javax/swing/JFrame.html?is-external=true" xlink:type="simple"><rect fill="#FEFECE" filter="url(#f16cqonzejvu27)" height="37.9375" id="javax.swing.JFrame" style="stroke: #A80036; stroke-width: 1.5;" width="88" x="138.5" y="8"/><ellipse cx="153.5" cy="26.9688" fill="#ADD1B2" rx="11" ry="11" style="stroke: #A80036; stroke-width: 1.0;"/><path d="M156.4688,32.6094 Q155.8906,32.9063 155.25,33.0469 Q154.6094,33.2031 153.9063,33.2031 Q151.4063,33.2031 150.0781,31.5625 Q148.7656,29.9063 148.7656,26.7813 Q148.7656,23.6563 150.0781,22 Q151.4063,20.3438 153.9063,20.3438 Q154.6094,20.3438 155.25,20.5 Q155.9063,20.6563 156.4688,20.9531 L156.4688,23.6719 Q155.8438,23.0938 155.25,22.8281 Q154.6563,22.5469 154.0313,22.5469 Q152.6875,22.5469 152,23.625 Q151.3125,24.6875 151.3125,26.7813 Q151.3125,28.875 152,29.9531 Q152.6875,31.0156 154.0313,31.0156 Q154.6563,31.0156 155.25,30.75 Q155.8438,30.4688 156.4688,29.8906 L156.4688,32.6094 Z "/><text fill="#000000" font-family="sans-serif" font-size="14" lengthAdjust="spacingAndGlyphs" textLength="46" x="172.5" y="25.9951">JFrame</text><text fill="#000000" font-family="sans-serif" font-size="10" lengthAdjust="spacingAndGlyphs" textLength="56" x="167.5" y="38.5791">javax.swing</text></a><!--link javax.swing.JFrame to template.ListeInstance--><path d="M182.5,66.5135 C182.5,78.0617 182.5,91.4562 182.5,105.7415 " fill="none" id="javax.swing.JFrame-template.ListeInstance" style="stroke: #A80036; stroke-width: 1.0;"/><polygon fill="none" points="175.5001,66.2746,182.5,46.2746,189.5001,66.2745,175.5001,66.2746" style="stroke: #A80036; stroke-width: 1.0;"/><text fill="#888888" font-family="sans-serif" font-size="10" lengthAdjust="spacingAndGlyphs" textLength="186" x="95.5" y="448.2822">UMLDoclet 2.0.3, PlantUML 1.2019.06</text><!--
@startuml
    set namespaceSeparator none
    hide empty fields
    hide empty methods

    class "<size:14>ListeInstance\n<size:10>template" as template.ListeInstance [[ListeInstance.html]] {
        {static} -LOGGER: Logger
        {static} -serialVersionUID: long
        -dlm: DefaultListModel<Instance>
        -daoFactory: DaoFactory
        -jButtonDisplayInstance: JButton
        -jButtonSolveInstance: JButton
        -jLabel1: JLabel
        -jListInstance: JList<Instance>
        -jScrollPane1: JScrollPane
        -jSelectectLabel: JLabel
        -jSelectedInstance: JLabel
        -jTitle: JLabel
        -uploadButton: JButton
        -initialisationFenetre(): void
        -initConnexion(): void
        -initComponents(): void
        -jButtonSolveInstanceActionPerformed(ActionEvent): void
        -jListInstanceValueChanged(ListSelectionEvent): void
        -jButtonDisplayInstanceActionPerformed(ActionEvent): void
        -uploadButtonActionPerformed(ActionEvent): void
        -createInstance(String): NaiveSolver
    }

    class "<size:14>JFrame\n<size:10>javax.swing" as javax.swing.JFrame [[https://docs.oracle.com/en/java/javase/11/docs/api/java.desktop/javax/swing/JFrame.html?is-external=true]]

    javax.swing.JFrame <|- - template.ListeInstance

    center footer UMLDoclet 2.0.3, PlantUML 1.2019.06
@enduml

PlantUML version 1.2019.06(Fri May 24 19:10:25 CEST 2019)
(APACHE source distribution)
Java Runtime: OpenJDK Runtime Environment
JVM: OpenJDK 64-Bit Server VM
Java Version: 11.0.4+4-post-Debian-1
Operating System: Linux
OS Version: 4.19.0-5-amd64
Default Encoding: UTF-8
Language: fr
Country: FR
--></g></svg>