<?xml version="1.0" encoding="UTF-8" standalone="no"?><svg xmlns="http://www.w3.org/2000/svg" xmlns:xlink="http://www.w3.org/1999/xlink" contentScriptType="application/ecmascript" contentStyleType="text/css" height="358px" preserveAspectRatio="none" style="width:323px;height:358px;" version="1.1" viewBox="0 0 323 358" width="323px" zoomAndPan="magnify"><defs><filter height="300%" id="fte5vkc9qygam" width="300%" x="-1" y="-1"><feGaussianBlur result="blurOut" stdDeviation="2.0"/><feColorMatrix in="blurOut" result="blurOut2" type="matrix" values="0 0 0 0 0 0 0 0 0 0 0 0 0 0 0 0 0 0 .4 0"/><feOffset dx="4.0" dy="4.0" in="blurOut2" result="blurOut3"/><feBlend in="SourceGraphic" in2="blurOut3" mode="normal"/></filter></defs><g><!--class template.MyCanvas--><a href="MyCanvas.html" target="_top" xlink:actuate="onRequest" xlink:show="new" xlink:title="MyCanvas.html" xlink:type="simple"><rect fill="#FEFECE" filter="url(#fte5vkc9qygam)" height="220.3984" id="template.MyCanvas" style="stroke: #A80036; stroke-width: 1.5;" width="306" x="6" y="106"/><ellipse cx="120.25" cy="124.9688" fill="#ADD1B2" rx="11" ry="11" style="stroke: #A80036; stroke-width: 1.0;"/><path d="M123.2188,130.6094 Q122.6406,130.9063 122,131.0469 Q121.3594,131.2031 120.6563,131.2031 Q118.1563,131.2031 116.8281,129.5625 Q115.5156,127.9063 115.5156,124.7813 Q115.5156,121.6563 116.8281,120 Q118.1563,118.3438 120.6563,118.3438 Q121.3594,118.3438 122,118.5 Q122.6563,118.6563 123.2188,118.9531 L123.2188,121.6719 Q122.5938,121.0938 122,120.8281 Q121.4063,120.5469 120.7813,120.5469 Q119.4375,120.5469 118.75,121.625 Q118.0625,122.6875 118.0625,124.7813 Q118.0625,126.875 118.75,127.9531 Q119.4375,129.0156 120.7813,129.0156 Q121.4063,129.0156 122,128.75 Q122.5938,128.4688 123.2188,127.8906 L123.2188,130.6094 Z "/><text fill="#000000" font-family="sans-serif" font-size="14" lengthAdjust="spacingAndGlyphs" textLength="69" x="140.75" y="123.9951">MyCanvas</text><text fill="#000000" font-family="sans-serif" font-size="10" lengthAdjust="spacingAndGlyphs" textLength="44" x="153.25" y="136.5791">template</text><line style="stroke: #A80036; stroke-width: 1.5;" x1="7" x2="311" y1="143.9375" y2="143.9375"/><rect fill="none" height="6" style="stroke: #C82930; stroke-width: 1.0;" width="6" x="14" y="152.8398"/><text fill="#000000" font-family="sans-serif" font-size="11" lengthAdjust="spacingAndGlyphs" textLength="104" x="26" y="158.1479">instance: Instance</text><rect fill="none" height="6" style="stroke: #C82930; stroke-width: 1.0;" width="6" x="14" y="165.6445"/><text fill="#000000" font-family="sans-serif" font-size="11" lengthAdjust="spacingAndGlyphs" textLength="76" x="26" y="170.9526">draggedX: int</text><rect fill="none" height="6" style="stroke: #C82930; stroke-width: 1.0;" width="6" x="14" y="178.4492"/><text fill="#000000" font-family="sans-serif" font-size="11" lengthAdjust="spacingAndGlyphs" textLength="76" x="26" y="183.7573">draggedY: int</text><rect fill="none" height="6" style="stroke: #C82930; stroke-width: 1.0;" width="6" x="14" y="191.2539"/><text fill="#000000" font-family="sans-serif" font-size="11" lengthAdjust="spacingAndGlyphs" textLength="52" x="26" y="196.562">zoom: int</text><line style="stroke: #A80036; stroke-width: 1.5;" x1="7" x2="311" y1="203.1563" y2="203.1563"/><ellipse cx="17" cy="215.0586" fill="#84BE84" rx="3" ry="3" style="stroke: #038048; stroke-width: 1.0;"/><text fill="#000000" font-family="sans-serif" font-size="11" lengthAdjust="spacingAndGlyphs" textLength="113" x="26" y="217.3667">MyCanvas(Instance)</text><ellipse cx="17" cy="227.8633" fill="#84BE84" rx="3" ry="3" style="stroke: #038048; stroke-width: 1.0;"/><text fill="#000000" font-family="sans-serif" font-size="11" lengthAdjust="spacingAndGlyphs" textLength="118" x="26" y="230.1714">paint(Graphics): void</text><rect fill="#F24D5C" height="6" style="stroke: #C82930; stroke-width: 1.0;" width="6" x="14" y="237.668"/><text fill="#000000" font-family="sans-serif" font-size="11" lengthAdjust="spacingAndGlyphs" textLength="280" x="26" y="242.9761">drawEmplacement(Graphics, Emplacement): void</text><rect fill="#F24D5C" height="6" style="stroke: #C82930; stroke-width: 1.0;" width="6" x="14" y="250.4727"/><text fill="#000000" font-family="sans-serif" font-size="11" lengthAdjust="spacingAndGlyphs" textLength="222" x="26" y="255.7808">drawInstance(Graphics, Instance): void</text><ellipse cx="17" cy="266.2773" fill="#84BE84" rx="3" ry="3" style="stroke: #038048; stroke-width: 1.0;"/><text fill="#000000" font-family="sans-serif" font-size="11" lengthAdjust="spacingAndGlyphs" textLength="79" x="26" y="268.5854">zoomIn(): void</text><ellipse cx="17" cy="279.082" fill="#84BE84" rx="3" ry="3" style="stroke: #038048; stroke-width: 1.0;"/><text fill="#000000" font-family="sans-serif" font-size="11" lengthAdjust="spacingAndGlyphs" textLength="89" x="26" y="281.3901">zoomOut(): void</text><ellipse cx="17" cy="291.8867" fill="#84BE84" rx="3" ry="3" style="stroke: #038048; stroke-width: 1.0;"/><text fill="#000000" font-family="sans-serif" font-size="11" lengthAdjust="spacingAndGlyphs" textLength="75" x="26" y="294.1948">center(): void</text><ellipse cx="17" cy="304.6914" fill="#84BE84" rx="3" ry="3" style="stroke: #038048; stroke-width: 1.0;"/><text fill="#000000" font-family="sans-serif" font-size="11" lengthAdjust="spacingAndGlyphs" textLength="164" x="26" y="306.9995">draggedCanvas(int, int): void</text><ellipse cx="17" cy="317.4961" fill="#84BE84" rx="3" ry="3" style="stroke: #038048; stroke-width: 1.0;"/><text fill="#000000" font-family="sans-serif" font-size="11" lengthAdjust="spacingAndGlyphs" textLength="82" x="26" y="319.8042">getZoom(): int</text></a><!--class java.awt.Canvas--><a href="https://docs.oracle.com/en/java/javase/11/docs/api/java.desktop/java/awt/Canvas.html?is-external=true" target="_top" xlink:actuate="onRequest" xlink:show="new" xlink:title="https://docs.oracle.com/en/java/javase/11/docs/api/java.desktop/java/awt/Canvas.html?is-external=true" xlink:type="simple"><rect fill="#FEFECE" filter="url(#fte5vkc9qygam)" height="37.9375" id="java.awt.Canvas" style="stroke: #A80036; stroke-width: 1.5;" width="82" x="118" y="8"/><ellipse cx="133" cy="26.9688" fill="#ADD1B2" rx="11" ry="11" style="stroke: #A80036; stroke-width: 1.0;"/><path d="M135.9688,32.6094 Q135.3906,32.9063 134.75,33.0469 Q134.1094,33.2031 133.4063,33.2031 Q130.9063,33.2031 129.5781,31.5625 Q128.2656,29.9063 128.2656,26.7813 Q128.2656,23.6563 129.5781,22 Q130.9063,20.3438 133.4063,20.3438 Q134.1094,20.3438 134.75,20.5 Q135.4063,20.6563 135.9688,20.9531 L135.9688,23.6719 Q135.3438,23.0938 134.75,22.8281 Q134.1563,22.5469 133.5313,22.5469 Q132.1875,22.5469 131.5,23.625 Q130.8125,24.6875 130.8125,26.7813 Q130.8125,28.875 131.5,29.9531 Q132.1875,31.0156 133.5313,31.0156 Q134.1563,31.0156 134.75,30.75 Q135.3438,30.4688 135.9688,29.8906 L135.9688,32.6094 Z "/><text fill="#000000" font-family="sans-serif" font-size="14" lengthAdjust="spacingAndGlyphs" textLength="50" x="147" y="25.9951">Canvas</text><text fill="#000000" font-family="sans-serif" font-size="10" lengthAdjust="spacingAndGlyphs" textLength="41" x="151.5" y="38.5791">java.awt</text></a><!--link java.awt.Canvas to template.MyCanvas--><path d="M159,66.4107 C159,78.2551 159,91.8736 159,105.966 " fill="none" id="java.awt.Canvas-template.MyCanvas" style="stroke: #A80036; stroke-width: 1.0;"/><polygon fill="none" points="152.0001,66.1625,159,46.1624,166.0001,66.1624,152.0001,66.1625" style="stroke: #A80036; stroke-width: 1.0;"/><text fill="#888888" font-family="sans-serif" font-size="10" lengthAdjust="spacingAndGlyphs" textLength="186" x="72" y="345.2822">UMLDoclet 2.0.3, PlantUML 1.2019.06</text><!--
@startuml
    set namespaceSeparator none
    hide empty fields
    hide empty methods

    class "<size:14>MyCanvas\n<size:10>template" as template.MyCanvas [[MyCanvas.html]] {
        -instance: Instance
        -draggedX: int
        -draggedY: int
        -zoom: int
        +MyCanvas(Instance)
        +paint(Graphics): void
        -drawEmplacement(Graphics, Emplacement): void
        -drawInstance(Graphics, Instance): void
        +zoomIn(): void
        +zoomOut(): void
        +center(): void
        +draggedCanvas(int, int): void
        +getZoom(): int
    }

    class "<size:14>Canvas\n<size:10>java.awt" as java.awt.Canvas [[https://docs.oracle.com/en/java/javase/11/docs/api/java.desktop/java/awt/Canvas.html?is-external=true]]

    java.awt.Canvas <|- - template.MyCanvas

    center footer UMLDoclet 2.0.3, PlantUML 1.2019.06
@enduml

PlantUML version 1.2019.06(Fri May 24 19:10:25 CEST 2019)
(APACHE source distribution)
Java Runtime: OpenJDK Runtime Environment
JVM: OpenJDK 64-Bit Server VM
Java Version: 11.0.4+4-post-Debian-1
Operating System: Linux
OS Version: 4.19.0-5-amd64
Default Encoding: UTF-8
Language: fr
Country: FR
--></g></svg>