<?xml version="1.0" encoding="UTF-8" standalone="no"?><svg xmlns="http://www.w3.org/2000/svg" xmlns:xlink="http://www.w3.org/1999/xlink" contentScriptType="application/ecmascript" contentStyleType="text/css" height="1026px" preserveAspectRatio="none" style="width:936px;height:1026px;" version="1.1" viewBox="0 0 936 1026" width="936px" zoomAndPan="magnify"><defs><filter height="300%" id="f16r3pxfyc8qrj" width="300%" x="-1" y="-1"><feGaussianBlur result="blurOut" stdDeviation="2.0"/><feColorMatrix in="blurOut" result="blurOut2" type="matrix" values="0 0 0 0 0 0 0 0 0 0 0 0 0 0 0 0 0 0 .4 0"/><feOffset dx="4.0" dy="4.0" in="blurOut2" result="blurOut3"/><feBlend in="SourceGraphic" in2="blurOut3" mode="normal"/></filter></defs><g><!--cluster template--><polygon fill="#FFFFFF" filter="url(#f16r3pxfyc8qrj)" points="14,207,89,207,96,229.2969,738,229.2969,738,986,14,986,14,207" style="stroke: #000000; stroke-width: 1.5;"/><line style="stroke: #000000; stroke-width: 1.5;" x1="14" x2="96" y1="229.2969" y2="229.2969"/><text fill="#000000" font-family="sans-serif" font-size="14" font-weight="bold" lengthAdjust="spacingAndGlyphs" textLength="69" x="18" y="221.9951">template</text><!--cluster java.awt--><polygon fill="#FFFFFF" filter="url(#f16r3pxfyc8qrj)" points="746,590,817,590,824,612.2969,914,612.2969,914,711,746,711,746,590" style="stroke: #000000; stroke-width: 1.5;"/><line style="stroke: #000000; stroke-width: 1.5;" x1="746" x2="824" y1="612.2969" y2="612.2969"/><text fill="#000000" font-family="sans-serif" font-size="14" font-weight="bold" lengthAdjust="spacingAndGlyphs" textLength="65" x="750" y="604.9951">java.awt</text><!--cluster javax.swing--><polygon fill="#FFFFFF" filter="url(#f16r3pxfyc8qrj)" points="272,16,370,16,377,38.2969,546,38.2969,546,176,272,176,272,16" style="stroke: #000000; stroke-width: 1.5;"/><line style="stroke: #000000; stroke-width: 1.5;" x1="272" x2="377" y1="38.2969" y2="38.2969"/><text fill="#000000" font-family="sans-serif" font-size="14" font-weight="bold" lengthAdjust="spacingAndGlyphs" textLength="92" x="276" y="30.9951">javax.swing</text><!--class template.MyCanvas--><a href="MyCanvas.html" target="_top" xlink:actuate="onRequest" xlink:show="new" xlink:title="MyCanvas.html" xlink:type="simple"><rect fill="#FEFECE" filter="url(#f16r3pxfyc8qrj)" height="214.4609" id="template.MyCanvas" style="stroke: #A80036; stroke-width: 1.5;" width="306" x="227" y="764"/><ellipse cx="345.25" cy="780" fill="#ADD1B2" rx="11" ry="11" style="stroke: #A80036; stroke-width: 1.0;"/><path d="M348.2188,785.6406 Q347.6406,785.9375 347,786.0781 Q346.3594,786.2344 345.6563,786.2344 Q343.1563,786.2344 341.8281,784.5938 Q340.5156,782.9375 340.5156,779.8125 Q340.5156,776.6875 341.8281,775.0313 Q343.1563,773.375 345.6563,773.375 Q346.3594,773.375 347,773.5313 Q347.6563,773.6875 348.2188,773.9844 L348.2188,776.7031 Q347.5938,776.125 347,775.8594 Q346.4063,775.5781 345.7813,775.5781 Q344.4375,775.5781 343.75,776.6563 Q343.0625,777.7188 343.0625,779.8125 Q343.0625,781.9063 343.75,782.9844 Q344.4375,784.0469 345.7813,784.0469 Q346.4063,784.0469 347,783.7813 Q347.5938,783.5 348.2188,782.9219 L348.2188,785.6406 Z "/><text fill="#000000" font-family="sans-serif" font-size="12" lengthAdjust="spacingAndGlyphs" textLength="61" x="365.75" y="784.1543">MyCanvas</text><line style="stroke: #A80036; stroke-width: 1.5;" x1="228" x2="532" y1="796" y2="796"/><rect fill="none" height="6" style="stroke: #C82930; stroke-width: 1.0;" width="6" x="235" y="804.9023"/><text fill="#000000" font-family="sans-serif" font-size="11" lengthAdjust="spacingAndGlyphs" textLength="104" x="247" y="810.2104">instance: Instance</text><rect fill="none" height="6" style="stroke: #C82930; stroke-width: 1.0;" width="6" x="235" y="817.707"/><text fill="#000000" font-family="sans-serif" font-size="11" lengthAdjust="spacingAndGlyphs" textLength="76" x="247" y="823.0151">draggedX: int</text><rect fill="none" height="6" style="stroke: #C82930; stroke-width: 1.0;" width="6" x="235" y="830.5117"/><text fill="#000000" font-family="sans-serif" font-size="11" lengthAdjust="spacingAndGlyphs" textLength="76" x="247" y="835.8198">draggedY: int</text><rect fill="none" height="6" style="stroke: #C82930; stroke-width: 1.0;" width="6" x="235" y="843.3164"/><text fill="#000000" font-family="sans-serif" font-size="11" lengthAdjust="spacingAndGlyphs" textLength="52" x="247" y="848.6245">zoom: int</text><line style="stroke: #A80036; stroke-width: 1.5;" x1="228" x2="532" y1="855.2188" y2="855.2188"/><ellipse cx="238" cy="867.1211" fill="#84BE84" rx="3" ry="3" style="stroke: #038048; stroke-width: 1.0;"/><text fill="#000000" font-family="sans-serif" font-size="11" lengthAdjust="spacingAndGlyphs" textLength="113" x="247" y="869.4292">MyCanvas(Instance)</text><ellipse cx="238" cy="879.9258" fill="#84BE84" rx="3" ry="3" style="stroke: #038048; stroke-width: 1.0;"/><text fill="#000000" font-family="sans-serif" font-size="11" lengthAdjust="spacingAndGlyphs" textLength="118" x="247" y="882.2339">paint(Graphics): void</text><rect fill="#F24D5C" height="6" style="stroke: #C82930; stroke-width: 1.0;" width="6" x="235" y="889.7305"/><text fill="#000000" font-family="sans-serif" font-size="11" lengthAdjust="spacingAndGlyphs" textLength="280" x="247" y="895.0386">drawEmplacement(Graphics, Emplacement): void</text><rect fill="#F24D5C" height="6" style="stroke: #C82930; stroke-width: 1.0;" width="6" x="235" y="902.5352"/><text fill="#000000" font-family="sans-serif" font-size="11" lengthAdjust="spacingAndGlyphs" textLength="222" x="247" y="907.8433">drawInstance(Graphics, Instance): void</text><ellipse cx="238" cy="918.3398" fill="#84BE84" rx="3" ry="3" style="stroke: #038048; stroke-width: 1.0;"/><text fill="#000000" font-family="sans-serif" font-size="11" lengthAdjust="spacingAndGlyphs" textLength="79" x="247" y="920.6479">zoomIn(): void</text><ellipse cx="238" cy="931.1445" fill="#84BE84" rx="3" ry="3" style="stroke: #038048; stroke-width: 1.0;"/><text fill="#000000" font-family="sans-serif" font-size="11" lengthAdjust="spacingAndGlyphs" textLength="89" x="247" y="933.4526">zoomOut(): void</text><ellipse cx="238" cy="943.9492" fill="#84BE84" rx="3" ry="3" style="stroke: #038048; stroke-width: 1.0;"/><text fill="#000000" font-family="sans-serif" font-size="11" lengthAdjust="spacingAndGlyphs" textLength="75" x="247" y="946.2573">center(): void</text><ellipse cx="238" cy="956.7539" fill="#84BE84" rx="3" ry="3" style="stroke: #038048; stroke-width: 1.0;"/><text fill="#000000" font-family="sans-serif" font-size="11" lengthAdjust="spacingAndGlyphs" textLength="164" x="247" y="959.062">draggedCanvas(int, int): void</text><ellipse cx="238" cy="969.5586" fill="#84BE84" rx="3" ry="3" style="stroke: #038048; stroke-width: 1.0;"/><text fill="#000000" font-family="sans-serif" font-size="11" lengthAdjust="spacingAndGlyphs" textLength="82" x="247" y="971.8667">getZoom(): int</text></a><!--class template.Itineraire--><a href="Itineraire.html" target="_top" xlink:actuate="onRequest" xlink:show="new" xlink:title="Itineraire.html" xlink:type="simple"><rect fill="#FEFECE" filter="url(#f16r3pxfyc8qrj)" height="304.0938" id="template.Itineraire" style="stroke: #A80036; stroke-width: 1.5;" width="319" x="22.5" y="240.5"/><ellipse cx="149.75" cy="256.5" fill="#ADD1B2" rx="11" ry="11" style="stroke: #A80036; stroke-width: 1.0;"/><path d="M152.7188,262.1406 Q152.1406,262.4375 151.5,262.5781 Q150.8594,262.7344 150.1563,262.7344 Q147.6563,262.7344 146.3281,261.0938 Q145.0156,259.4375 145.0156,256.3125 Q145.0156,253.1875 146.3281,251.5313 Q147.6563,249.875 150.1563,249.875 Q150.8594,249.875 151.5,250.0313 Q152.1563,250.1875 152.7188,250.4844 L152.7188,253.2031 Q152.0938,252.625 151.5,252.3594 Q150.9063,252.0781 150.2813,252.0781 Q148.9375,252.0781 148.25,253.1563 Q147.5625,254.2188 147.5625,256.3125 Q147.5625,258.4063 148.25,259.4844 Q148.9375,260.5469 150.2813,260.5469 Q150.9063,260.5469 151.5,260.2813 Q152.0938,260 152.7188,259.4219 L152.7188,262.1406 Z "/><text fill="#000000" font-family="sans-serif" font-size="12" lengthAdjust="spacingAndGlyphs" textLength="56" x="170.25" y="260.6543">Itineraire</text><line style="stroke: #A80036; stroke-width: 1.5;" x1="23.5" x2="340.5" y1="272.5" y2="272.5"/><rect fill="none" height="6" style="stroke: #C82930; stroke-width: 1.0;" width="6" x="30.5" y="281.4023"/><text fill="#000000" font-family="sans-serif" font-size="11" lengthAdjust="spacingAndGlyphs" text-decoration="underline" textLength="126" x="42.5" y="286.7104">serialVersionUID: long</text><rect fill="none" height="6" style="stroke: #C82930; stroke-width: 1.0;" width="6" x="30.5" y="294.207"/><text fill="#000000" font-family="sans-serif" font-size="11" lengthAdjust="spacingAndGlyphs" text-decoration="underline" textLength="94" x="42.5" y="299.5151">LOGGER: Logger</text><rect fill="none" height="6" style="stroke: #C82930; stroke-width: 1.0;" width="6" x="30.5" y="307.0117"/><text fill="#000000" font-family="sans-serif" font-size="11" lengthAdjust="spacingAndGlyphs" textLength="104" x="42.5" y="312.3198">instance: Instance</text><rect fill="none" height="6" style="stroke: #C82930; stroke-width: 1.0;" width="6" x="30.5" y="319.8164"/><text fill="#000000" font-family="sans-serif" font-size="11" lengthAdjust="spacingAndGlyphs" textLength="178" x="42.5" y="325.1245">clientEmplacementLabel: JLabel</text><rect fill="none" height="6" style="stroke: #C82930; stroke-width: 1.0;" width="6" x="30.5" y="332.6211"/><text fill="#000000" font-family="sans-serif" font-size="11" lengthAdjust="spacingAndGlyphs" textLength="95" x="42.5" y="337.9292">costLabel: JLabel</text><rect fill="none" height="6" style="stroke: #C82930; stroke-width: 1.0;" width="6" x="30.5" y="345.4258"/><text fill="#000000" font-family="sans-serif" font-size="11" lengthAdjust="spacingAndGlyphs" textLength="103" x="42.5" y="350.7339">costNLabel: JLabel</text><rect fill="none" height="6" style="stroke: #C82930; stroke-width: 1.0;" width="6" x="30.5" y="358.2305"/><text fill="#000000" font-family="sans-serif" font-size="11" lengthAdjust="spacingAndGlyphs" textLength="121" x="42.5" y="363.5386">externalVlabel: JLabel</text><rect fill="none" height="6" style="stroke: #C82930; stroke-width: 1.0;" width="6" x="30.5" y="371.0352"/><text fill="#000000" font-family="sans-serif" font-size="11" lengthAdjust="spacingAndGlyphs" textLength="106" x="42.5" y="376.3433">fitInButton: JButton</text><rect fill="none" height="6" style="stroke: #C82930; stroke-width: 1.0;" width="6" x="30.5" y="383.8398"/><text fill="#000000" font-family="sans-serif" font-size="11" lengthAdjust="spacingAndGlyphs" textLength="81" x="42.5" y="389.1479">jLabel1: JLabel</text><rect fill="none" height="6" style="stroke: #C82930; stroke-width: 1.0;" width="6" x="30.5" y="396.6445"/><text fill="#000000" font-family="sans-serif" font-size="11" lengthAdjust="spacingAndGlyphs" textLength="141" x="42.5" y="401.9526">jScrollPane2: JScrollPane</text><rect fill="none" height="6" style="stroke: #C82930; stroke-width: 1.0;" width="6" x="30.5" y="409.4492"/><text fill="#000000" font-family="sans-serif" font-size="11" lengthAdjust="spacingAndGlyphs" textLength="83" x="42.5" y="414.7573">jTable1: JTable</text><rect fill="none" height="6" style="stroke: #C82930; stroke-width: 1.0;" width="6" x="30.5" y="422.2539"/><text fill="#000000" font-family="sans-serif" font-size="11" lengthAdjust="spacingAndGlyphs" textLength="131" x="42.5" y="427.562">levelZoomLabel: JLabel</text><rect fill="none" height="6" style="stroke: #C82930; stroke-width: 1.0;" width="6" x="30.5" y="435.0586"/><text fill="#000000" font-family="sans-serif" font-size="11" lengthAdjust="spacingAndGlyphs" textLength="122" x="42.5" y="440.3667">numberVLabel: JLabel</text><rect fill="none" height="6" style="stroke: #C82930; stroke-width: 1.0;" width="6" x="30.5" y="447.8633"/><text fill="#000000" font-family="sans-serif" font-size="11" lengthAdjust="spacingAndGlyphs" textLength="115" x="42.5" y="453.1714">zoomButton: JButton</text><line style="stroke: #A80036; stroke-width: 1.5;" x1="23.5" x2="340.5" y1="459.7656" y2="459.7656"/><ellipse cx="33.5" cy="471.668" fill="#84BE84" rx="3" ry="3" style="stroke: #038048; stroke-width: 1.0;"/><text fill="#000000" font-family="sans-serif" font-size="11" lengthAdjust="spacingAndGlyphs" textLength="107" x="42.5" y="473.9761">Itineraire(Instance)</text><rect fill="#F24D5C" height="6" style="stroke: #C82930; stroke-width: 1.0;" width="6" x="30.5" y="481.4727"/><text fill="#000000" font-family="sans-serif" font-size="11" lengthAdjust="spacingAndGlyphs" textLength="150" x="42.5" y="486.7808">initialisationFenetre(): void</text><rect fill="#F24D5C" height="6" style="stroke: #C82930; stroke-width: 1.0;" width="6" x="30.5" y="494.2773"/><text fill="#000000" font-family="sans-serif" font-size="11" lengthAdjust="spacingAndGlyphs" textLength="128" x="42.5" y="499.5854">initComponents(): void</text><rect fill="#F24D5C" height="6" style="stroke: #C82930; stroke-width: 1.0;" width="6" x="30.5" y="507.082"/><text fill="#000000" font-family="sans-serif" font-size="11" lengthAdjust="spacingAndGlyphs" textLength="256" x="42.5" y="512.3901">fitInButtonActionPerformed(ActionEvent): void</text><rect fill="#F24D5C" height="6" style="stroke: #C82930; stroke-width: 1.0;" width="6" x="30.5" y="519.8867"/><text fill="#000000" font-family="sans-serif" font-size="11" lengthAdjust="spacingAndGlyphs" textLength="293" x="42.5" y="525.1948">canvas2MouseWheelMoved(MouseWheelEvent): void</text><rect fill="#F24D5C" height="6" style="stroke: #C82930; stroke-width: 1.0;" width="6" x="30.5" y="532.6914"/><text fill="#000000" font-family="sans-serif" font-size="11" lengthAdjust="spacingAndGlyphs" textLength="239" x="42.5" y="537.9995">canvas2MouseDragged(MouseEvent): void</text></a><!--class template.ListeInstance--><a href="ListeInstance.html" target="_top" xlink:actuate="onRequest" xlink:show="new" xlink:title="ListeInstance.html" xlink:type="simple"><rect fill="#FEFECE" filter="url(#f16r3pxfyc8qrj)" height="316.8984" id="template.ListeInstance" style="stroke: #A80036; stroke-width: 1.5;" width="353" x="376.5" y="234"/><ellipse cx="507.25" cy="250" fill="#ADD1B2" rx="11" ry="11" style="stroke: #A80036; stroke-width: 1.0;"/><path d="M510.2188,255.6406 Q509.6406,255.9375 509,256.0781 Q508.3594,256.2344 507.6563,256.2344 Q505.1563,256.2344 503.8281,254.5938 Q502.5156,252.9375 502.5156,249.8125 Q502.5156,246.6875 503.8281,245.0313 Q505.1563,243.375 507.6563,243.375 Q508.3594,243.375 509,243.5313 Q509.6563,243.6875 510.2188,243.9844 L510.2188,246.7031 Q509.5938,246.125 509,245.8594 Q508.4063,245.5781 507.7813,245.5781 Q506.4375,245.5781 505.75,246.6563 Q505.0625,247.7188 505.0625,249.8125 Q505.0625,251.9063 505.75,252.9844 Q506.4375,254.0469 507.7813,254.0469 Q508.4063,254.0469 509,253.7813 Q509.5938,253.5 510.2188,252.9219 L510.2188,255.6406 Z "/><text fill="#000000" font-family="sans-serif" font-size="12" lengthAdjust="spacingAndGlyphs" textLength="83" x="527.75" y="254.1543">ListeInstance</text><line style="stroke: #A80036; stroke-width: 1.5;" x1="377.5" x2="728.5" y1="266" y2="266"/><rect fill="none" height="6" style="stroke: #C82930; stroke-width: 1.0;" width="6" x="384.5" y="274.9023"/><text fill="#000000" font-family="sans-serif" font-size="11" lengthAdjust="spacingAndGlyphs" text-decoration="underline" textLength="94" x="396.5" y="280.2104">LOGGER: Logger</text><rect fill="none" height="6" style="stroke: #C82930; stroke-width: 1.0;" width="6" x="384.5" y="287.707"/><text fill="#000000" font-family="sans-serif" font-size="11" lengthAdjust="spacingAndGlyphs" text-decoration="underline" textLength="126" x="396.5" y="293.0151">serialVersionUID: long</text><rect fill="none" height="6" style="stroke: #C82930; stroke-width: 1.0;" width="6" x="384.5" y="300.5117"/><text fill="#000000" font-family="sans-serif" font-size="11" lengthAdjust="spacingAndGlyphs" textLength="188" x="396.5" y="305.8198">dlm: DefaultListModel&lt;Instance&gt;</text><rect fill="none" height="6" style="stroke: #C82930; stroke-width: 1.0;" width="6" x="384.5" y="313.3164"/><text fill="#000000" font-family="sans-serif" font-size="11" lengthAdjust="spacingAndGlyphs" textLength="133" x="396.5" y="318.6245">daoFactory: DaoFactory</text><rect fill="none" height="6" style="stroke: #C82930; stroke-width: 1.0;" width="6" x="384.5" y="326.1211"/><text fill="#000000" font-family="sans-serif" font-size="11" lengthAdjust="spacingAndGlyphs" textLength="177" x="396.5" y="331.4292">jButtonDisplayInstance: JButton</text><rect fill="none" height="6" style="stroke: #C82930; stroke-width: 1.0;" width="6" x="384.5" y="338.9258"/><text fill="#000000" font-family="sans-serif" font-size="11" lengthAdjust="spacingAndGlyphs" textLength="167" x="396.5" y="344.2339">jButtonSolveInstance: JButton</text><rect fill="none" height="6" style="stroke: #C82930; stroke-width: 1.0;" width="6" x="384.5" y="351.7305"/><text fill="#000000" font-family="sans-serif" font-size="11" lengthAdjust="spacingAndGlyphs" textLength="81" x="396.5" y="357.0386">jLabel1: JLabel</text><rect fill="none" height="6" style="stroke: #C82930; stroke-width: 1.0;" width="6" x="384.5" y="364.5352"/><text fill="#000000" font-family="sans-serif" font-size="11" lengthAdjust="spacingAndGlyphs" textLength="168" x="396.5" y="369.8433">jListInstance: JList&lt;Instance&gt;</text><rect fill="none" height="6" style="stroke: #C82930; stroke-width: 1.0;" width="6" x="384.5" y="377.3398"/><text fill="#000000" font-family="sans-serif" font-size="11" lengthAdjust="spacingAndGlyphs" textLength="141" x="396.5" y="382.6479">jScrollPane1: JScrollPane</text><rect fill="none" height="6" style="stroke: #C82930; stroke-width: 1.0;" width="6" x="384.5" y="390.1445"/><text fill="#000000" font-family="sans-serif" font-size="11" lengthAdjust="spacingAndGlyphs" textLength="126" x="396.5" y="395.4526">jSelectectLabel: JLabel</text><rect fill="none" height="6" style="stroke: #C82930; stroke-width: 1.0;" width="6" x="384.5" y="402.9492"/><text fill="#000000" font-family="sans-serif" font-size="11" lengthAdjust="spacingAndGlyphs" textLength="141" x="396.5" y="408.2573">jSelectedInstance: JLabel</text><rect fill="none" height="6" style="stroke: #C82930; stroke-width: 1.0;" width="6" x="384.5" y="415.7539"/><text fill="#000000" font-family="sans-serif" font-size="11" lengthAdjust="spacingAndGlyphs" textLength="68" x="396.5" y="421.062">jTitle: JLabel</text><rect fill="none" height="6" style="stroke: #C82930; stroke-width: 1.0;" width="6" x="384.5" y="428.5586"/><text fill="#000000" font-family="sans-serif" font-size="11" lengthAdjust="spacingAndGlyphs" textLength="123" x="396.5" y="433.8667">uploadButton: JButton</text><line style="stroke: #A80036; stroke-width: 1.5;" x1="377.5" x2="728.5" y1="440.4609" y2="440.4609"/><rect fill="#F24D5C" height="6" style="stroke: #C82930; stroke-width: 1.0;" width="6" x="384.5" y="449.3633"/><text fill="#000000" font-family="sans-serif" font-size="11" lengthAdjust="spacingAndGlyphs" textLength="150" x="396.5" y="454.6714">initialisationFenetre(): void</text><rect fill="#F24D5C" height="6" style="stroke: #C82930; stroke-width: 1.0;" width="6" x="384.5" y="462.168"/><text fill="#000000" font-family="sans-serif" font-size="11" lengthAdjust="spacingAndGlyphs" textLength="115" x="396.5" y="467.4761">initConnexion(): void</text><rect fill="#F24D5C" height="6" style="stroke: #C82930; stroke-width: 1.0;" width="6" x="384.5" y="474.9727"/><text fill="#000000" font-family="sans-serif" font-size="11" lengthAdjust="spacingAndGlyphs" textLength="128" x="396.5" y="480.2808">initComponents(): void</text><rect fill="#F24D5C" height="6" style="stroke: #C82930; stroke-width: 1.0;" width="6" x="384.5" y="487.7773"/><text fill="#000000" font-family="sans-serif" font-size="11" lengthAdjust="spacingAndGlyphs" textLength="317" x="396.5" y="493.0854">jButtonSolveInstanceActionPerformed(ActionEvent): void</text><rect fill="#F24D5C" height="6" style="stroke: #C82930; stroke-width: 1.0;" width="6" x="384.5" y="500.582"/><text fill="#000000" font-family="sans-serif" font-size="11" lengthAdjust="spacingAndGlyphs" textLength="294" x="396.5" y="505.8901">jListInstanceValueChanged(ListSelectionEvent): void</text><rect fill="#F24D5C" height="6" style="stroke: #C82930; stroke-width: 1.0;" width="6" x="384.5" y="513.3867"/><text fill="#000000" font-family="sans-serif" font-size="11" lengthAdjust="spacingAndGlyphs" textLength="327" x="396.5" y="518.6948">jButtonDisplayInstanceActionPerformed(ActionEvent): void</text><rect fill="#F24D5C" height="6" style="stroke: #C82930; stroke-width: 1.0;" width="6" x="384.5" y="526.1914"/><text fill="#000000" font-family="sans-serif" font-size="11" lengthAdjust="spacingAndGlyphs" textLength="273" x="396.5" y="531.4995">uploadButtonActionPerformed(ActionEvent): void</text><rect fill="#F24D5C" height="6" style="stroke: #C82930; stroke-width: 1.0;" width="6" x="384.5" y="538.9961"/><text fill="#000000" font-family="sans-serif" font-size="11" lengthAdjust="spacingAndGlyphs" textLength="201" x="396.5" y="544.3042">createInstance(String): NaiveSolver</text></a><!--class java.awt.Canvas--><a href="https://docs.oracle.com/en/java/javase/11/docs/api/java.desktop/java/awt/Canvas.html?is-external=true" target="_top" xlink:actuate="onRequest" xlink:show="new" xlink:title="https://docs.oracle.com/en/java/javase/11/docs/api/java.desktop/java/awt/Canvas.html?is-external=true" xlink:type="simple"><rect fill="#FEFECE" filter="url(#f16r3pxfyc8qrj)" height="86.4141" id="java.awt.Canvas" style="stroke: #A80036; stroke-width: 1.5;" width="152" x="754" y="617"/><ellipse cx="803.25" cy="633" fill="#ADD1B2" rx="11" ry="11" style="stroke: #A80036; stroke-width: 1.0;"/><path d="M806.2188,638.6406 Q805.6406,638.9375 805,639.0781 Q804.3594,639.2344 803.6563,639.2344 Q801.1563,639.2344 799.8281,637.5938 Q798.5156,635.9375 798.5156,632.8125 Q798.5156,629.6875 799.8281,628.0313 Q801.1563,626.375 803.6563,626.375 Q804.3594,626.375 805,626.5313 Q805.6563,626.6875 806.2188,626.9844 L806.2188,629.7031 Q805.5938,629.125 805,628.8594 Q804.4063,628.5781 803.7813,628.5781 Q802.4375,628.5781 801.75,629.6563 Q801.0625,630.7188 801.0625,632.8125 Q801.0625,634.9063 801.75,635.9844 Q802.4375,637.0469 803.7813,637.0469 Q804.4063,637.0469 805,636.7813 Q805.5938,636.5 806.2188,635.9219 L806.2188,638.6406 Z "/><text fill="#000000" font-family="sans-serif" font-size="12" lengthAdjust="spacingAndGlyphs" textLength="45" x="823.75" y="637.1543">Canvas</text><line style="stroke: #A80036; stroke-width: 1.5;" x1="755" x2="905" y1="649" y2="649"/><rect fill="none" height="6" style="stroke: #C82930; stroke-width: 1.0;" width="6" x="762" y="657.9023"/><text fill="#000000" font-family="sans-serif" font-size="11" lengthAdjust="spacingAndGlyphs" text-decoration="underline" textLength="70" x="774" y="663.2104">base: String</text><rect fill="none" height="6" style="stroke: #C82930; stroke-width: 1.0;" width="6" x="762" y="670.707"/><text fill="#000000" font-family="sans-serif" font-size="11" lengthAdjust="spacingAndGlyphs" text-decoration="underline" textLength="99" x="774" y="676.0151">nameCounter: int</text><rect fill="none" height="6" style="stroke: #C82930; stroke-width: 1.0;" width="6" x="762" y="683.5117"/><text fill="#000000" font-family="sans-serif" font-size="11" lengthAdjust="spacingAndGlyphs" text-decoration="underline" textLength="126" x="774" y="688.8198">serialVersionUID: long</text><line style="stroke: #A80036; stroke-width: 1.5;" x1="755" x2="905" y1="695.4141" y2="695.4141"/></a><!--class javax.swing.JFrame--><a href="https://docs.oracle.com/en/java/javase/11/docs/api/java.desktop/javax/swing/JFrame.html?is-external=true" target="_top" xlink:actuate="onRequest" xlink:show="new" xlink:title="https://docs.oracle.com/en/java/javase/11/docs/api/java.desktop/javax/swing/JFrame.html?is-external=true" xlink:type="simple"><rect fill="#FEFECE" filter="url(#f16r3pxfyc8qrj)" height="124.8281" id="javax.swing.JFrame" style="stroke: #A80036; stroke-width: 1.5;" width="257" x="280.5" y="43"/><ellipse cx="383.75" cy="59" fill="#ADD1B2" rx="11" ry="11" style="stroke: #A80036; stroke-width: 1.0;"/><path d="M386.7188,64.6406 Q386.1406,64.9375 385.5,65.0781 Q384.8594,65.2344 384.1563,65.2344 Q381.6563,65.2344 380.3281,63.5938 Q379.0156,61.9375 379.0156,58.8125 Q379.0156,55.6875 380.3281,54.0313 Q381.6563,52.375 384.1563,52.375 Q384.8594,52.375 385.5,52.5313 Q386.1563,52.6875 386.7188,52.9844 L386.7188,55.7031 Q386.0938,55.125 385.5,54.8594 Q384.9063,54.5781 384.2813,54.5781 Q382.9375,54.5781 382.25,55.6563 Q381.5625,56.7188 381.5625,58.8125 Q381.5625,60.9063 382.25,61.9844 Q382.9375,63.0469 384.2813,63.0469 Q384.9063,63.0469 385.5,62.7813 Q386.0938,62.5 386.7188,61.9219 L386.7188,64.6406 Z "/><text fill="#000000" font-family="sans-serif" font-size="12" lengthAdjust="spacingAndGlyphs" textLength="42" x="404.25" y="63.1543">JFrame</text><line style="stroke: #A80036; stroke-width: 1.5;" x1="281.5" x2="536.5" y1="75" y2="75"/><rect fill="none" height="6" style="stroke: #C82930; stroke-width: 1.0;" width="6" x="288.5" y="83.9023"/><text fill="#000000" font-family="sans-serif" font-size="11" lengthAdjust="spacingAndGlyphs" text-decoration="underline" textLength="231" x="300.5" y="89.2104">defaultLookAndFeelDecoratedKey: Object</text><rect fill="none" height="6" style="stroke: #C82930; stroke-width: 1.0;" width="6" x="288.5" y="96.707"/><text fill="#000000" font-family="sans-serif" font-size="11" lengthAdjust="spacingAndGlyphs" textLength="149" x="300.5" y="102.0151">defaultCloseOperation: int</text><rect fill="none" height="6" style="stroke: #C82930; stroke-width: 1.0;" width="6" x="288.5" y="109.5117"/><text fill="#000000" font-family="sans-serif" font-size="11" lengthAdjust="spacingAndGlyphs" textLength="191" x="300.5" y="114.8198">transferHandler: TransferHandler</text><polygon fill="none" points="291.5,120.3164,295.5,124.3164,291.5,128.3164,287.5,124.3164" style="stroke: #B38D22; stroke-width: 1.0;"/><text fill="#000000" font-family="sans-serif" font-size="11" lengthAdjust="spacingAndGlyphs" textLength="115" x="300.5" y="127.6245">rootPane: JRootPane</text><polygon fill="none" points="291.5,133.1211,295.5,137.1211,291.5,141.1211,287.5,137.1211" style="stroke: #B38D22; stroke-width: 1.0;"/><text fill="#000000" font-family="sans-serif" font-size="11" lengthAdjust="spacingAndGlyphs" textLength="200" x="300.5" y="140.4292">rootPaneCheckingEnabled: boolean</text><polygon fill="none" points="291.5,145.9258,295.5,149.9258,291.5,153.9258,287.5,149.9258" style="stroke: #B38D22; stroke-width: 1.0;"/><text fill="#000000" font-family="sans-serif" font-size="11" lengthAdjust="spacingAndGlyphs" textLength="214" x="300.5" y="153.2339">accessibleContext: AccessibleContext</text><line style="stroke: #A80036; stroke-width: 1.5;" x1="281.5" x2="536.5" y1="159.8281" y2="159.8281"/></a><!--link java.awt.Canvas to template.MyCanvas--><path d="M742.7817,712.3305 C666.3051,751.5541 594.6506,783.4465 533.0432,809.4837 " fill="none" id="java.awt.Canvas-template.MyCanvas" style="stroke: #A80036; stroke-width: 1.0;"/><polygon fill="none" points="739.7597,706.0126,760.7384,703.0304,746.1983,718.4442,739.7597,706.0126" style="stroke: #A80036; stroke-width: 1.0;"/><!--link javax.swing.JFrame to template.Itineraire--><path d="M346.8438,184.0852 C332.952,201.6488 317.76,220.8563 302.3989,240.2776 " fill="none" id="javax.swing.JFrame-template.Itineraire" style="stroke: #A80036; stroke-width: 1.0;"/><polygon fill="none" points="341.567,179.4727,359.4644,168.1287,352.5476,188.1577,341.567,179.4727" style="stroke: #A80036; stroke-width: 1.0;"/><!--link template.Itineraire to template.MyCanvas--><path d="M244.9205,544.5579 C273.6697,614.0351 307.1215,694.877 333.5431,758.7292 " fill="none" id="template.Itineraire-template.MyCanvas" style="stroke: #A80036; stroke-width: 1.0;"/><polygon fill="#A80036" points="335.5936,763.6845,335.8484,753.8389,333.6818,759.0644,328.4563,756.8979,335.5936,763.6845" style="stroke: #A80036; stroke-width: 1.0;"/><text fill="#000000" font-family="sans-serif" font-size="13" lengthAdjust="spacingAndGlyphs" textLength="53" x="314" y="664.5669">canvas2</text><!--link javax.swing.JFrame to template.ListeInstance--><path d="M449.5993,186.4168 C457.1085,201.3829 465.1843,217.4785 473.3936,233.8399 " fill="none" id="javax.swing.JFrame-template.ListeInstance" style="stroke: #A80036; stroke-width: 1.0;"/><polygon fill="none" points="443.1361,189.144,440.4235,168.1287,455.6493,182.8656,443.1361,189.144" style="stroke: #A80036; stroke-width: 1.0;"/><text fill="#888888" font-family="sans-serif" font-size="10" lengthAdjust="spacingAndGlyphs" textLength="186" x="377" y="1013.2822">UMLDoclet 2.0.3, PlantUML 1.2019.06</text><!--
@startuml
    namespace template {

        class MyCanvas [[MyCanvas.html]] {
            -instance: Instance
            -draggedX: int
            -draggedY: int
            -zoom: int
            +MyCanvas(Instance)
            +paint(Graphics): void
            -drawEmplacement(Graphics, Emplacement): void
            -drawInstance(Graphics, Instance): void
            +zoomIn(): void
            +zoomOut(): void
            +center(): void
            +draggedCanvas(int, int): void
            +getZoom(): int
        }

        class Itineraire [[Itineraire.html]] {
            {static} -serialVersionUID: long
            {static} -LOGGER: Logger
            -instance: Instance
            -clientEmplacementLabel: JLabel
            -costLabel: JLabel
            -costNLabel: JLabel
            -externalVlabel: JLabel
            -fitInButton: JButton
            -jLabel1: JLabel
            -jScrollPane2: JScrollPane
            -jTable1: JTable
            -levelZoomLabel: JLabel
            -numberVLabel: JLabel
            -zoomButton: JButton
            +Itineraire(Instance)
            -initialisationFenetre(): void
            -initComponents(): void
            -fitInButtonActionPerformed(ActionEvent): void
            -canvas2MouseWheelMoved(MouseWheelEvent): void
            -canvas2MouseDragged(MouseEvent): void
        }

        class ListeInstance [[ListeInstance.html]] {
            {static} -LOGGER: Logger
            {static} -serialVersionUID: long
            -dlm: DefaultListModel<Instance>
            -daoFactory: DaoFactory
            -jButtonDisplayInstance: JButton
            -jButtonSolveInstance: JButton
            -jLabel1: JLabel
            -jListInstance: JList<Instance>
            -jScrollPane1: JScrollPane
            -jSelectectLabel: JLabel
            -jSelectedInstance: JLabel
            -jTitle: JLabel
            -uploadButton: JButton
            -initialisationFenetre(): void
            -initConnexion(): void
            -initComponents(): void
            -jButtonSolveInstanceActionPerformed(ActionEvent): void
            -jListInstanceValueChanged(ListSelectionEvent): void
            -jButtonDisplayInstanceActionPerformed(ActionEvent): void
            -uploadButtonActionPerformed(ActionEvent): void
            -createInstance(String): NaiveSolver
        }

        java.awt.Canvas <|- - MyCanvas
        javax.swing.JFrame <|- - Itineraire
        Itineraire - -> MyCanvas: canvas2
        javax.swing.JFrame <|- - ListeInstance
    }

    namespace java.awt {
        class Canvas [[https://docs.oracle.com/en/java/javase/11/docs/api/java.desktop/java/awt/Canvas.html?is-external=true]] {
            {static} -base: String
            {static} -nameCounter: int
            {static} -serialVersionUID: long
        }
    }

    namespace javax.swing {
        class JFrame [[https://docs.oracle.com/en/java/javase/11/docs/api/java.desktop/javax/swing/JFrame.html?is-external=true]] {
            {static} -defaultLookAndFeelDecoratedKey: Object
            -defaultCloseOperation: int
            -transferHandler: TransferHandler
            #rootPane: JRootPane
            #rootPaneCheckingEnabled: boolean
            #accessibleContext: AccessibleContext
        }
    }

    center footer UMLDoclet 2.0.3, PlantUML 1.2019.06
@enduml

PlantUML version 1.2019.06(Fri May 24 19:10:25 CEST 2019)
(APACHE source distribution)
Java Runtime: OpenJDK Runtime Environment
JVM: OpenJDK 64-Bit Server VM
Java Version: 11.0.4+4-post-Debian-1
Operating System: Linux
OS Version: 4.19.0-5-amd64
Default Encoding: UTF-8
Language: fr
Country: FR
--></g></svg>