<?xml version="1.0" encoding="UTF-8" standalone="no"?><svg xmlns="http://www.w3.org/2000/svg" xmlns:xlink="http://www.w3.org/1999/xlink" contentScriptType="application/ecmascript" contentStyleType="text/css" height="222px" preserveAspectRatio="none" style="width:240px;height:222px;" version="1.1" viewBox="0 0 240 222" width="240px" zoomAndPan="magnify"><defs><filter height="300%" id="f1ucnoo10279g8" width="300%" x="-1" y="-1"><feGaussianBlur result="blurOut" stdDeviation="2.0"/><feColorMatrix in="blurOut" result="blurOut2" type="matrix" values="0 0 0 0 0 0 0 0 0 0 0 0 0 0 0 0 0 0 .4 0"/><feOffset dx="4.0" dy="4.0" in="blurOut2" result="blurOut3"/><feBlend in="SourceGraphic" in2="blurOut3" mode="normal"/></filter></defs><g><!--class utils.CliUtils--><a href="CliUtils.html" target="_top" xlink:actuate="onRequest" xlink:show="new" xlink:title="CliUtils.html" xlink:type="simple"><rect fill="#FEFECE" filter="url(#f1ucnoo10279g8)" height="84.3516" id="utils.CliUtils" style="stroke: #A80036; stroke-width: 1.5;" width="223" x="6" y="8"/><ellipse cx="90.75" cy="26.9688" fill="#ADD1B2" rx="11" ry="11" style="stroke: #A80036; stroke-width: 1.0;"/><path d="M93.7188,32.6094 Q93.1406,32.9063 92.5,33.0469 Q91.8594,33.2031 91.1563,33.2031 Q88.6563,33.2031 87.3281,31.5625 Q86.0156,29.9063 86.0156,26.7813 Q86.0156,23.6563 87.3281,22 Q88.6563,20.3438 91.1563,20.3438 Q91.8594,20.3438 92.5,20.5 Q93.1563,20.6563 93.7188,20.9531 L93.7188,23.6719 Q93.0938,23.0938 92.5,22.8281 Q91.9063,22.5469 91.2813,22.5469 Q89.9375,22.5469 89.25,23.625 Q88.5625,24.6875 88.5625,26.7813 Q88.5625,28.875 89.25,29.9531 Q89.9375,31.0156 91.2813,31.0156 Q91.9063,31.0156 92.5,30.75 Q93.0938,30.4688 93.7188,29.8906 L93.7188,32.6094 Z "/><text fill="#000000" font-family="sans-serif" font-size="14" lengthAdjust="spacingAndGlyphs" textLength="45" x="111.25" y="25.9951">CliUtils</text><text fill="#000000" font-family="sans-serif" font-size="10" lengthAdjust="spacingAndGlyphs" textLength="19" x="124.25" y="38.5791">utils</text><line style="stroke: #A80036; stroke-width: 1.5;" x1="7" x2="228" y1="45.9375" y2="45.9375"/><ellipse cx="17" cy="57.8398" fill="#84BE84" rx="3" ry="3" style="stroke: #038048; stroke-width: 1.0;"/><text fill="#000000" font-family="sans-serif" font-size="11" lengthAdjust="spacingAndGlyphs" text-decoration="underline" textLength="159" x="26" y="60.1479">printIntro(PrintStream): void</text><ellipse cx="17" cy="70.6445" fill="#84BE84" rx="3" ry="3" style="stroke: #038048; stroke-width: 1.0;"/><text fill="#000000" font-family="sans-serif" font-size="11" lengthAdjust="spacingAndGlyphs" text-decoration="underline" textLength="175" x="26" y="72.9526">printLicence(PrintStream): void</text><ellipse cx="17" cy="83.4492" fill="#84BE84" rx="3" ry="3" style="stroke: #038048; stroke-width: 1.0;"/><text fill="#000000" font-family="sans-serif" font-size="11" lengthAdjust="spacingAndGlyphs" text-decoration="underline" textLength="197" x="26" y="85.7573">parseArguments(String[]): Options</text></a><!--class utils.CliUtils.Options--><a href="CliUtils.Options.html" target="_top" xlink:actuate="onRequest" xlink:show="new" xlink:title="CliUtils.Options.html" xlink:type="simple"><rect fill="#FEFECE" filter="url(#f1ucnoo10279g8)" height="37.9375" id="utils.CliUtils.Options" style="stroke: #A80036; stroke-width: 1.5;" width="135" x="50" y="152"/><ellipse cx="65" cy="170.9688" fill="#EB937F" rx="11" ry="11" style="stroke: #A80036; stroke-width: 1.0;"/><path d="M69.1094,176.9688 L61.3906,176.9688 L61.3906,164.5781 L69.1094,164.5781 L69.1094,166.7344 L63.8438,166.7344 L63.8438,169.4063 L68.6094,169.4063 L68.6094,171.5625 L63.8438,171.5625 L63.8438,174.8125 L69.1094,174.8125 L69.1094,176.9688 Z "/><text fill="#000000" font-family="sans-serif" font-size="14" lengthAdjust="spacingAndGlyphs" textLength="103" x="79" y="169.9951">CliUtils.Options</text><text fill="#000000" font-family="sans-serif" font-size="10" lengthAdjust="spacingAndGlyphs" textLength="19" x="121" y="182.5791">utils</text></a><!--link utils.CliUtils to utils.CliUtils.Options--><path d="M117.5,107.4581 C117.5,123.4926 117.5,139.8128 117.5,151.8981 " fill="none" id="utils.CliUtils-utils.CliUtils.Options" style="stroke: #A80036; stroke-width: 1.0;"/><ellipse cx="117.5001" cy="100.3199" fill="#FFFFFF" rx="8" ry="8" style="stroke: #A80036; stroke-width: 1.0;"/><line style="stroke: #A80036; stroke-width: 1.0;" x1="117.5002" x2="117.5" y1="108.3199" y2="92.3199"/><line style="stroke: #A80036; stroke-width: 1.0;" x1="109.5001" x2="125.5001" y1="100.32" y2="100.3198"/><text fill="#888888" font-family="sans-serif" font-size="10" lengthAdjust="spacingAndGlyphs" textLength="186" x="30.5" y="209.2822">UMLDoclet 2.0.3, PlantUML 1.2019.06</text><!--
@startuml
    set namespaceSeparator none
    hide empty fields
    hide empty methods

    class "<size:14>CliUtils\n<size:10>utils" as utils.CliUtils [[CliUtils.html]] {
        {static} +printIntro(PrintStream): void
        {static} +printLicence(PrintStream): void
        {static} +parseArguments(String[]): Options
    }
    enum "<size:14>CliUtils.Options\n<size:10>utils" as utils.CliUtils.Options [[CliUtils.Options.html]]

    utils.CliUtils +- - utils.CliUtils.Options

    center footer UMLDoclet 2.0.3, PlantUML 1.2019.06
@enduml

PlantUML version 1.2019.06(Fri May 24 19:10:25 CEST 2019)
(APACHE source distribution)
Java Runtime: OpenJDK Runtime Environment
JVM: OpenJDK 64-Bit Server VM
Java Version: 11.0.4+4-post-Debian-1
Operating System: Linux
OS Version: 4.19.0-5-amd64
Default Encoding: UTF-8
Language: fr
Country: FR
--></g></svg>