<?xml version="1.0" encoding="UTF-8" standalone="no"?><svg xmlns="http://www.w3.org/2000/svg" xmlns:xlink="http://www.w3.org/1999/xlink" contentScriptType="application/ecmascript" contentStyleType="text/css" height="235px" preserveAspectRatio="none" style="width:198px;height:235px;" version="1.1" viewBox="0 0 198 235" width="198px" zoomAndPan="magnify"><defs><filter height="300%" id="f1ks79h0zzrl3m" width="300%" x="-1" y="-1"><feGaussianBlur result="blurOut" stdDeviation="2.0"/><feColorMatrix in="blurOut" result="blurOut2" type="matrix" values="0 0 0 0 0 0 0 0 0 0 0 0 0 0 0 0 0 0 .4 0"/><feOffset dx="4.0" dy="4.0" in="blurOut2" result="blurOut3"/><feBlend in="SourceGraphic" in2="blurOut3" mode="normal"/></filter></defs><g><!--class utils.CliUtils.Options--><a href="CliUtils.Options.html" target="_top" xlink:actuate="onRequest" xlink:show="new" xlink:title="CliUtils.Options.html" xlink:type="simple"><rect fill="#FEFECE" filter="url(#f1ks79h0zzrl3m)" height="97.1563" id="utils.CliUtils.Options" style="stroke: #A80036; stroke-width: 1.5;" width="135" x="19.5" y="106"/><ellipse cx="34.5" cy="124.9688" fill="#EB937F" rx="11" ry="11" style="stroke: #A80036; stroke-width: 1.0;"/><path d="M38.6094,130.9688 L30.8906,130.9688 L30.8906,118.5781 L38.6094,118.5781 L38.6094,120.7344 L33.3438,120.7344 L33.3438,123.4063 L38.1094,123.4063 L38.1094,125.5625 L33.3438,125.5625 L33.3438,128.8125 L38.6094,128.8125 L38.6094,130.9688 Z "/><text fill="#000000" font-family="sans-serif" font-size="14" lengthAdjust="spacingAndGlyphs" textLength="103" x="48.5" y="123.9951">CliUtils.Options</text><text fill="#000000" font-family="sans-serif" font-size="10" lengthAdjust="spacingAndGlyphs" textLength="19" x="90.5" y="136.5791">utils</text><line style="stroke: #A80036; stroke-width: 1.5;" x1="20.5" x2="153.5" y1="143.9375" y2="143.9375"/><ellipse cx="30.5" cy="155.8398" fill="none" rx="3" ry="3" style="stroke: #038048; stroke-width: 1.0;"/><text fill="#000000" font-family="sans-serif" font-size="11" lengthAdjust="spacingAndGlyphs" text-decoration="underline" textLength="28" x="39.5" y="158.1479">HELP</text><ellipse cx="30.5" cy="168.6445" fill="none" rx="3" ry="3" style="stroke: #038048; stroke-width: 1.0;"/><text fill="#000000" font-family="sans-serif" font-size="11" lengthAdjust="spacingAndGlyphs" text-decoration="underline" textLength="39" x="39.5" y="170.9526">USAGE</text><ellipse cx="30.5" cy="181.4492" fill="none" rx="3" ry="3" style="stroke: #038048; stroke-width: 1.0;"/><text fill="#000000" font-family="sans-serif" font-size="11" lengthAdjust="spacingAndGlyphs" text-decoration="underline" textLength="57" x="39.5" y="183.7573">UNKNOWN</text><ellipse cx="30.5" cy="194.2539" fill="none" rx="3" ry="3" style="stroke: #038048; stroke-width: 1.0;"/><text fill="#000000" font-family="sans-serif" font-size="11" lengthAdjust="spacingAndGlyphs" text-decoration="underline" textLength="54" x="39.5" y="196.562">NO_ARGS</text></a><!--class utils.CliUtils--><a href="CliUtils.html" target="_top" xlink:actuate="onRequest" xlink:show="new" xlink:title="CliUtils.html" xlink:type="simple"><rect fill="#FEFECE" filter="url(#f1ks79h0zzrl3m)" height="37.9375" id="utils.CliUtils" style="stroke: #A80036; stroke-width: 1.5;" width="77" x="48.5" y="8"/><ellipse cx="63.5" cy="26.9688" fill="#ADD1B2" rx="11" ry="11" style="stroke: #A80036; stroke-width: 1.0;"/><path d="M66.4688,32.6094 Q65.8906,32.9063 65.25,33.0469 Q64.6094,33.2031 63.9063,33.2031 Q61.4063,33.2031 60.0781,31.5625 Q58.7656,29.9063 58.7656,26.7813 Q58.7656,23.6563 60.0781,22 Q61.4063,20.3438 63.9063,20.3438 Q64.6094,20.3438 65.25,20.5 Q65.9063,20.6563 66.4688,20.9531 L66.4688,23.6719 Q65.8438,23.0938 65.25,22.8281 Q64.6563,22.5469 64.0313,22.5469 Q62.6875,22.5469 62,23.625 Q61.3125,24.6875 61.3125,26.7813 Q61.3125,28.875 62,29.9531 Q62.6875,31.0156 64.0313,31.0156 Q64.6563,31.0156 65.25,30.75 Q65.8438,30.4688 66.4688,29.8906 L66.4688,32.6094 Z "/><text fill="#000000" font-family="sans-serif" font-size="14" lengthAdjust="spacingAndGlyphs" textLength="45" x="77.5" y="25.9951">CliUtils</text><text fill="#000000" font-family="sans-serif" font-size="10" lengthAdjust="spacingAndGlyphs" textLength="19" x="90.5" y="38.5791">utils</text></a><!--link utils.CliUtils to utils.CliUtils.Options--><path d="M87,61.3681 C87,75.0207 87,90.9745 87,105.7811 " fill="none" id="utils.CliUtils-utils.CliUtils.Options" style="stroke: #A80036; stroke-width: 1.0;"/><ellipse cx="87.0001" cy="54.088" fill="#FFFFFF" rx="8" ry="8" style="stroke: #A80036; stroke-width: 1.0;"/><line style="stroke: #A80036; stroke-width: 1.0;" x1="87.0002" x2="87" y1="62.088" y2="46.088"/><line style="stroke: #A80036; stroke-width: 1.0;" x1="79.0001" x2="95.0001" y1="54.0881" y2="54.0879"/><text fill="#888888" font-family="sans-serif" font-size="10" lengthAdjust="spacingAndGlyphs" textLength="186" x="0" y="222.2822">UMLDoclet 2.0.3, PlantUML 1.2019.06</text><!--
@startuml
    set namespaceSeparator none
    hide empty fields
    hide empty methods

    enum "<size:14>CliUtils.Options\n<size:10>utils" as utils.CliUtils.Options [[CliUtils.Options.html]] {
        {static} +HELP
        {static} +USAGE
        {static} +UNKNOWN
        {static} +NO_ARGS
    }

    class "<size:14>CliUtils\n<size:10>utils" as utils.CliUtils [[CliUtils.html]]

    utils.CliUtils +- - utils.CliUtils.Options

    center footer UMLDoclet 2.0.3, PlantUML 1.2019.06
@enduml

PlantUML version 1.2019.06(Fri May 24 19:10:25 CEST 2019)
(APACHE source distribution)
Java Runtime: OpenJDK Runtime Environment
JVM: OpenJDK 64-Bit Server VM
Java Version: 11.0.4+4-post-Debian-1
Operating System: Linux
OS Version: 4.19.0-5-amd64
Default Encoding: UTF-8
Language: fr
Country: FR
--></g></svg>