<?xml version="1.0" encoding="UTF-8" standalone="no"?><svg xmlns="http://www.w3.org/2000/svg" xmlns:xlink="http://www.w3.org/1999/xlink" contentScriptType="application/ecmascript" contentStyleType="text/css" height="336px" preserveAspectRatio="none" style="width:274px;height:336px;" version="1.1" viewBox="0 0 274 336" width="274px" zoomAndPan="magnify"><defs><filter height="300%" id="fdonqrp696rwh" width="300%" x="-1" y="-1"><feGaussianBlur result="blurOut" stdDeviation="2.0"/><feColorMatrix in="blurOut" result="blurOut2" type="matrix" values="0 0 0 0 0 0 0 0 0 0 0 0 0 0 0 0 0 0 .4 0"/><feOffset dx="4.0" dy="4.0" in="blurOut2" result="blurOut3"/><feBlend in="SourceGraphic" in2="blurOut3" mode="normal"/></filter></defs><g><!--cluster utils--><polygon fill="#FFFFFF" filter="url(#fdonqrp696rwh)" points="14,16,53,16,60,38.2969,252,38.2969,252,296,14,296,14,16" style="stroke: #000000; stroke-width: 1.5;"/><line style="stroke: #000000; stroke-width: 1.5;" x1="14" x2="60" y1="38.2969" y2="38.2969"/><text fill="#000000" font-family="sans-serif" font-size="14" font-weight="bold" lengthAdjust="spacingAndGlyphs" textLength="33" x="18" y="30.9951">utils</text><!--class utils.CliUtils--><a href="CliUtils.html" target="_top" xlink:actuate="onRequest" xlink:show="new" xlink:title="CliUtils.html" xlink:type="simple"><rect fill="#FEFECE" filter="url(#fdonqrp696rwh)" height="86.4141" id="utils.CliUtils" style="stroke: #A80036; stroke-width: 1.5;" width="223" x="21.5" y="43"/><ellipse cx="108.25" cy="59" fill="#ADD1B2" rx="11" ry="11" style="stroke: #A80036; stroke-width: 1.0;"/><path d="M111.2188,64.6406 Q110.6406,64.9375 110,65.0781 Q109.3594,65.2344 108.6563,65.2344 Q106.1563,65.2344 104.8281,63.5938 Q103.5156,61.9375 103.5156,58.8125 Q103.5156,55.6875 104.8281,54.0313 Q106.1563,52.375 108.6563,52.375 Q109.3594,52.375 110,52.5313 Q110.6563,52.6875 111.2188,52.9844 L111.2188,55.7031 Q110.5938,55.125 110,54.8594 Q109.4063,54.5781 108.7813,54.5781 Q107.4375,54.5781 106.75,55.6563 Q106.0625,56.7188 106.0625,58.8125 Q106.0625,60.9063 106.75,61.9844 Q107.4375,63.0469 108.7813,63.0469 Q109.4063,63.0469 110,62.7813 Q110.5938,62.5 111.2188,61.9219 L111.2188,64.6406 Z "/><text fill="#000000" font-family="sans-serif" font-size="12" lengthAdjust="spacingAndGlyphs" textLength="41" x="128.75" y="63.1543">CliUtils</text><line style="stroke: #A80036; stroke-width: 1.5;" x1="22.5" x2="243.5" y1="75" y2="75"/><line style="stroke: #A80036; stroke-width: 1.5;" x1="22.5" x2="243.5" y1="83" y2="83"/><ellipse cx="32.5" cy="94.9023" fill="#84BE84" rx="3" ry="3" style="stroke: #038048; stroke-width: 1.0;"/><text fill="#000000" font-family="sans-serif" font-size="11" lengthAdjust="spacingAndGlyphs" text-decoration="underline" textLength="159" x="41.5" y="97.2104">printIntro(PrintStream): void</text><ellipse cx="32.5" cy="107.707" fill="#84BE84" rx="3" ry="3" style="stroke: #038048; stroke-width: 1.0;"/><text fill="#000000" font-family="sans-serif" font-size="11" lengthAdjust="spacingAndGlyphs" text-decoration="underline" textLength="175" x="41.5" y="110.0151">printLicence(PrintStream): void</text><ellipse cx="32.5" cy="120.5117" fill="#84BE84" rx="3" ry="3" style="stroke: #038048; stroke-width: 1.0;"/><text fill="#000000" font-family="sans-serif" font-size="11" lengthAdjust="spacingAndGlyphs" text-decoration="underline" textLength="197" x="41.5" y="122.8198">parseArguments(String[]): Options</text></a><!--class utils.CliUtils.Options--><a href="CliUtils.Options.html" target="_top" xlink:actuate="onRequest" xlink:show="new" xlink:title="CliUtils.Options.html" xlink:type="simple"><rect fill="#FEFECE" filter="url(#fdonqrp696rwh)" height="99.2188" id="utils.CliUtils.Options" style="stroke: #A80036; stroke-width: 1.5;" width="125" x="70.5" y="189"/><ellipse cx="85.5" cy="205" fill="#EB937F" rx="11" ry="11" style="stroke: #A80036; stroke-width: 1.0;"/><path d="M89.6094,211 L81.8906,211 L81.8906,198.6094 L89.6094,198.6094 L89.6094,200.7656 L84.3438,200.7656 L84.3438,203.4375 L89.1094,203.4375 L89.1094,205.5938 L84.3438,205.5938 L84.3438,208.8438 L89.6094,208.8438 L89.6094,211 Z "/><text fill="#000000" font-family="sans-serif" font-size="12" lengthAdjust="spacingAndGlyphs" textLength="93" x="99.5" y="209.1543">CliUtils.Options</text><line style="stroke: #A80036; stroke-width: 1.5;" x1="71.5" x2="194.5" y1="221" y2="221"/><ellipse cx="81.5" cy="232.9023" fill="none" rx="3" ry="3" style="stroke: #038048; stroke-width: 1.0;"/><text fill="#000000" font-family="sans-serif" font-size="11" lengthAdjust="spacingAndGlyphs" text-decoration="underline" textLength="28" x="90.5" y="235.2104">HELP</text><ellipse cx="81.5" cy="245.707" fill="none" rx="3" ry="3" style="stroke: #038048; stroke-width: 1.0;"/><text fill="#000000" font-family="sans-serif" font-size="11" lengthAdjust="spacingAndGlyphs" text-decoration="underline" textLength="39" x="90.5" y="248.0151">USAGE</text><ellipse cx="81.5" cy="258.5117" fill="none" rx="3" ry="3" style="stroke: #038048; stroke-width: 1.0;"/><text fill="#000000" font-family="sans-serif" font-size="11" lengthAdjust="spacingAndGlyphs" text-decoration="underline" textLength="57" x="90.5" y="260.8198">UNKNOWN</text><ellipse cx="81.5" cy="271.3164" fill="none" rx="3" ry="3" style="stroke: #038048; stroke-width: 1.0;"/><text fill="#000000" font-family="sans-serif" font-size="11" lengthAdjust="spacingAndGlyphs" text-decoration="underline" textLength="54" x="90.5" y="273.6245">NO_ARGS</text><line style="stroke: #A80036; stroke-width: 1.5;" x1="71.5" x2="194.5" y1="280.2188" y2="280.2188"/></a><!--link utils.CliUtils to utils.CliUtils.Options--><path d="M133,144.6738 C133,159.2784 133,174.7928 133,188.9119 " fill="none" id="utils.CliUtils-utils.CliUtils.Options" style="stroke: #A80036; stroke-width: 1.0;"/><ellipse cx="133.0001" cy="137.2925" fill="#FFFFFF" rx="8" ry="8" style="stroke: #A80036; stroke-width: 1.0;"/><line style="stroke: #A80036; stroke-width: 1.0;" x1="133.0002" x2="133" y1="145.2925" y2="129.2925"/><line style="stroke: #A80036; stroke-width: 1.0;" x1="125.0001" x2="141.0001" y1="137.2926" y2="137.2924"/><text fill="#888888" font-family="sans-serif" font-size="10" lengthAdjust="spacingAndGlyphs" textLength="186" x="46" y="323.2822">UMLDoclet 2.0.3, PlantUML 1.2019.06</text><!--
@startuml
    namespace utils {

        class CliUtils [[CliUtils.html]] {
            {static} +printIntro(PrintStream): void
            {static} +printLicence(PrintStream): void
            {static} +parseArguments(String[]): Options
        }

        enum utils.CliUtils.Options [[CliUtils.Options.html]] {
            {static} +HELP
            {static} +USAGE
            {static} +UNKNOWN
            {static} +NO_ARGS
        }

        CliUtils +- - utils.CliUtils.Options
    }

    center footer UMLDoclet 2.0.3, PlantUML 1.2019.06
@enduml

PlantUML version 1.2019.06(Fri May 24 19:10:25 CEST 2019)
(APACHE source distribution)
Java Runtime: OpenJDK Runtime Environment
JVM: OpenJDK 64-Bit Server VM
Java Version: 11.0.4+4-post-Debian-1
Operating System: Linux
OS Version: 4.19.0-5-amd64
Default Encoding: UTF-8
Language: fr
Country: FR
--></g></svg>