<?xml version="1.0" encoding="UTF-8" standalone="no"?><svg xmlns="http://www.w3.org/2000/svg" xmlns:xlink="http://www.w3.org/1999/xlink" contentScriptType="application/ecmascript" contentStyleType="text/css" height="165px" preserveAspectRatio="none" style="width:220px;height:165px;" version="1.1" viewBox="0 0 220 165" width="220px" zoomAndPan="magnify"><defs><filter height="300%" id="f1jwgbpjerjwf1" width="300%" x="-1" y="-1"><feGaussianBlur result="blurOut" stdDeviation="2.0"/><feColorMatrix in="blurOut" result="blurOut2" type="matrix" values="0 0 0 0 0 0 0 0 0 0 0 0 0 0 0 0 0 0 .4 0"/><feOffset dx="4.0" dy="4.0" in="blurOut2" result="blurOut3"/><feBlend in="SourceGraphic" in2="blurOut3" mode="normal"/></filter></defs><g><!--cluster dao.jpa--><polygon fill="#FFFFFF" filter="url(#f1jwgbpjerjwf1)" points="14,16,77,16,84,38.2969,198,38.2969,198,125,14,125,14,16" style="stroke: #000000; stroke-width: 1.5;"/><line style="stroke: #000000; stroke-width: 1.5;" x1="14" x2="84" y1="38.2969" y2="38.2969"/><text fill="#000000" font-family="sans-serif" font-size="14" font-weight="bold" lengthAdjust="spacingAndGlyphs" textLength="57" x="18" y="30.9951">dao.jpa</text><!--class dao.jpa.TestsDao--><a href="TestsDao.html" target="_top" xlink:actuate="onRequest" xlink:show="new" xlink:title="TestsDao.html" xlink:type="simple"><rect fill="#FEFECE" filter="url(#f1jwgbpjerjwf1)" height="73.6094" id="dao.jpa.TestsDao" style="stroke: #A80036; stroke-width: 1.5;" width="168" x="22" y="43"/><ellipse cx="72.25" cy="59" fill="#ADD1B2" rx="11" ry="11" style="stroke: #A80036; stroke-width: 1.0;"/><path d="M75.2188,64.6406 Q74.6406,64.9375 74,65.0781 Q73.3594,65.2344 72.6563,65.2344 Q70.1563,65.2344 68.8281,63.5938 Q67.5156,61.9375 67.5156,58.8125 Q67.5156,55.6875 68.8281,54.0313 Q70.1563,52.375 72.6563,52.375 Q73.3594,52.375 74,52.5313 Q74.6563,52.6875 75.2188,52.9844 L75.2188,55.7031 Q74.5938,55.125 74,54.8594 Q73.4063,54.5781 72.7813,54.5781 Q71.4375,54.5781 70.75,55.6563 Q70.0625,56.7188 70.0625,58.8125 Q70.0625,60.9063 70.75,61.9844 Q71.4375,63.0469 72.7813,63.0469 Q73.4063,63.0469 74,62.7813 Q74.5938,62.5 75.2188,61.9219 L75.2188,64.6406 Z "/><text fill="#000000" font-family="sans-serif" font-size="12" lengthAdjust="spacingAndGlyphs" textLength="59" x="92.75" y="63.1543">TestsDao</text><line style="stroke: #A80036; stroke-width: 1.5;" x1="23" x2="189" y1="75" y2="75"/><line style="stroke: #A80036; stroke-width: 1.5;" x1="23" x2="189" y1="83" y2="83"/><ellipse cx="33" cy="94.9023" fill="#84BE84" rx="3" ry="3" style="stroke: #038048; stroke-width: 1.0;"/><text fill="#000000" font-family="sans-serif" font-size="11" lengthAdjust="spacingAndGlyphs" textLength="115" x="42" y="97.2104">isDaoWorking(): void</text><ellipse cx="33" cy="107.707" fill="#84BE84" rx="3" ry="3" style="stroke: #038048; stroke-width: 1.0;"/><text fill="#000000" font-family="sans-serif" font-size="11" lengthAdjust="spacingAndGlyphs" textLength="142" x="42" y="110.0151">isInstancesEquals(): void</text></a><text fill="#888888" font-family="sans-serif" font-size="10" lengthAdjust="spacingAndGlyphs" textLength="186" x="19" y="152.2822">UMLDoclet 2.0.3, PlantUML 1.2019.06</text><!--
@startuml
    namespace dao.jpa {

        class TestsDao [[TestsDao.html]] {
            +isDaoWorking(): void
            +isInstancesEquals(): void
        }

    }

    center footer UMLDoclet 2.0.3, PlantUML 1.2019.06
@enduml

PlantUML version 1.2019.06(Fri May 24 19:10:25 CEST 2019)
(APACHE source distribution)
Java Runtime: OpenJDK Runtime Environment
JVM: OpenJDK 64-Bit Server VM
Java Version: 11.0.4+4-post-Debian-1
Operating System: Linux
OS Version: 4.19.0-5-amd64
Default Encoding: UTF-8
Language: fr
Country: FR
--></g></svg>