<?xml version="1.0" encoding="UTF-8" standalone="no"?><svg xmlns="http://www.w3.org/2000/svg" xmlns:xlink="http://www.w3.org/1999/xlink" contentScriptType="application/ecmascript" contentStyleType="text/css" height="112px" preserveAspectRatio="none" style="width:201px;height:112px;" version="1.1" viewBox="0 0 201 112" width="201px" zoomAndPan="magnify"><defs><filter height="300%" id="f1fnqjn9o60ky5" width="300%" x="-1" y="-1"><feGaussianBlur result="blurOut" stdDeviation="2.0"/><feColorMatrix in="blurOut" result="blurOut2" type="matrix" values="0 0 0 0 0 0 0 0 0 0 0 0 0 0 0 0 0 0 .4 0"/><feOffset dx="4.0" dy="4.0" in="blurOut2" result="blurOut3"/><feBlend in="SourceGraphic" in2="blurOut3" mode="normal"/></filter></defs><g><!--class dao.jpa.TestsDao--><a href="TestsDao.html" target="_top" xlink:actuate="onRequest" xlink:show="new" xlink:title="TestsDao.html" xlink:type="simple"><rect fill="#FEFECE" filter="url(#f1fnqjn9o60ky5)" height="71.5469" id="dao.jpa.TestsDao" style="stroke: #A80036; stroke-width: 1.5;" width="168" x="6" y="8"/><ellipse cx="52.25" cy="26.9688" fill="#ADD1B2" rx="11" ry="11" style="stroke: #A80036; stroke-width: 1.0;"/><path d="M55.2188,32.6094 Q54.6406,32.9063 54,33.0469 Q53.3594,33.2031 52.6563,33.2031 Q50.1563,33.2031 48.8281,31.5625 Q47.5156,29.9063 47.5156,26.7813 Q47.5156,23.6563 48.8281,22 Q50.1563,20.3438 52.6563,20.3438 Q53.3594,20.3438 54,20.5 Q54.6563,20.6563 55.2188,20.9531 L55.2188,23.6719 Q54.5938,23.0938 54,22.8281 Q53.4063,22.5469 52.7813,22.5469 Q51.4375,22.5469 50.75,23.625 Q50.0625,24.6875 50.0625,26.7813 Q50.0625,28.875 50.75,29.9531 Q51.4375,31.0156 52.7813,31.0156 Q53.4063,31.0156 54,30.75 Q54.5938,30.4688 55.2188,29.8906 L55.2188,32.6094 Z "/><text fill="#000000" font-family="sans-serif" font-size="14" lengthAdjust="spacingAndGlyphs" textLength="67" x="72.75" y="25.9951">TestsDao</text><text fill="#000000" font-family="sans-serif" font-size="10" lengthAdjust="spacingAndGlyphs" textLength="35" x="88.75" y="38.5791">dao.jpa</text><line style="stroke: #A80036; stroke-width: 1.5;" x1="7" x2="173" y1="45.9375" y2="45.9375"/><ellipse cx="17" cy="57.8398" fill="#84BE84" rx="3" ry="3" style="stroke: #038048; stroke-width: 1.0;"/><text fill="#000000" font-family="sans-serif" font-size="11" lengthAdjust="spacingAndGlyphs" textLength="115" x="26" y="60.1479">isDaoWorking(): void</text><ellipse cx="17" cy="70.6445" fill="#84BE84" rx="3" ry="3" style="stroke: #038048; stroke-width: 1.0;"/><text fill="#000000" font-family="sans-serif" font-size="11" lengthAdjust="spacingAndGlyphs" textLength="142" x="26" y="72.9526">isInstancesEquals(): void</text></a><text fill="#888888" font-family="sans-serif" font-size="10" lengthAdjust="spacingAndGlyphs" textLength="186" x="3" y="99.2822">UMLDoclet 2.0.3, PlantUML 1.2019.06</text><!--
@startuml
    set namespaceSeparator none
    hide empty fields
    hide empty methods

    class "<size:14>TestsDao\n<size:10>dao.jpa" as dao.jpa.TestsDao [[TestsDao.html]] {
        +isDaoWorking(): void
        +isInstancesEquals(): void
    }

    center footer UMLDoclet 2.0.3, PlantUML 1.2019.06
@enduml

PlantUML version 1.2019.06(Fri May 24 19:10:25 CEST 2019)
(APACHE source distribution)
Java Runtime: OpenJDK Runtime Environment
JVM: OpenJDK 64-Bit Server VM
Java Version: 11.0.4+4-post-Debian-1
Operating System: Linux
OS Version: 4.19.0-5-amd64
Default Encoding: UTF-8
Language: fr
Country: FR
--></g></svg>