<?xml version="1.0" encoding="UTF-8" standalone="no"?><svg xmlns="http://www.w3.org/2000/svg" xmlns:xlink="http://www.w3.org/1999/xlink" contentScriptType="application/ecmascript" contentStyleType="text/css" height="99px" preserveAspectRatio="none" style="width:226px;height:99px;" version="1.1" viewBox="0 0 226 99" width="226px" zoomAndPan="magnify"><defs><filter height="300%" id="f1gyqsvao7kpan" width="300%" x="-1" y="-1"><feGaussianBlur result="blurOut" stdDeviation="2.0"/><feColorMatrix in="blurOut" result="blurOut2" type="matrix" values="0 0 0 0 0 0 0 0 0 0 0 0 0 0 0 0 0 0 .4 0"/><feOffset dx="4.0" dy="4.0" in="blurOut2" result="blurOut3"/><feBlend in="SourceGraphic" in2="blurOut3" mode="normal"/></filter></defs><g><!--class algo.NaiveSolver--><a href="NaiveSolver.html" target="_top" xlink:actuate="onRequest" xlink:show="new" xlink:title="NaiveSolver.html" xlink:type="simple"><rect fill="#FEFECE" filter="url(#f1gyqsvao7kpan)" height="58.7422" id="algo.NaiveSolver" style="stroke: #A80036; stroke-width: 1.5;" width="209" x="6" y="8"/><ellipse cx="66.75" cy="26.9688" fill="#ADD1B2" rx="11" ry="11" style="stroke: #A80036; stroke-width: 1.0;"/><path d="M69.7188,32.6094 Q69.1406,32.9063 68.5,33.0469 Q67.8594,33.2031 67.1563,33.2031 Q64.6563,33.2031 63.3281,31.5625 Q62.0156,29.9063 62.0156,26.7813 Q62.0156,23.6563 63.3281,22 Q64.6563,20.3438 67.1563,20.3438 Q67.8594,20.3438 68.5,20.5 Q69.1563,20.6563 69.7188,20.9531 L69.7188,23.6719 Q69.0938,23.0938 68.5,22.8281 Q67.9063,22.5469 67.2813,22.5469 Q65.9375,22.5469 65.25,23.625 Q64.5625,24.6875 64.5625,26.7813 Q64.5625,28.875 65.25,29.9531 Q65.9375,31.0156 67.2813,31.0156 Q67.9063,31.0156 68.5,30.75 Q69.0938,30.4688 69.7188,29.8906 L69.7188,32.6094 Z "/><text fill="#000000" font-family="sans-serif" font-size="14" lengthAdjust="spacingAndGlyphs" textLength="79" x="87.25" y="25.9951">NaiveSolver</text><text fill="#000000" font-family="sans-serif" font-size="10" lengthAdjust="spacingAndGlyphs" textLength="20" x="116.75" y="38.5791">algo</text><line style="stroke: #A80036; stroke-width: 1.5;" x1="7" x2="214" y1="45.9375" y2="45.9375"/><ellipse cx="17" cy="57.8398" fill="#84BE84" rx="3" ry="3" style="stroke: #038048; stroke-width: 1.0;"/><text fill="#000000" font-family="sans-serif" font-size="11" lengthAdjust="spacingAndGlyphs" textLength="183" x="26" y="60.1479">isWorkingWithValidReader(): void</text></a><text fill="#888888" font-family="sans-serif" font-size="10" lengthAdjust="spacingAndGlyphs" textLength="186" x="23.5" y="86.2822">UMLDoclet 2.0.3, PlantUML 1.2019.06</text><!--
@startuml
    set namespaceSeparator none
    hide empty fields
    hide empty methods

    class "<size:14>NaiveSolver\n<size:10>algo" as algo.NaiveSolver [[NaiveSolver.html]] {
        +isWorkingWithValidReader(): void
    }

    center footer UMLDoclet 2.0.3, PlantUML 1.2019.06
@enduml

PlantUML version 1.2019.06(Fri May 24 19:10:25 CEST 2019)
(APACHE source distribution)
Java Runtime: OpenJDK Runtime Environment
JVM: OpenJDK 64-Bit Server VM
Java Version: 11.0.4+4-post-Debian-1
Operating System: Linux
OS Version: 4.19.0-5-amd64
Default Encoding: UTF-8
Language: fr
Country: FR
--></g></svg>