<?xml version="1.0" encoding="UTF-8" standalone="no"?><svg xmlns="http://www.w3.org/2000/svg" xmlns:xlink="http://www.w3.org/1999/xlink" contentScriptType="application/ecmascript" contentStyleType="text/css" height="152px" preserveAspectRatio="none" style="width:262px;height:152px;" version="1.1" viewBox="0 0 262 152" width="262px" zoomAndPan="magnify"><defs><filter height="300%" id="f1u5wpxd5833ey" width="300%" x="-1" y="-1"><feGaussianBlur result="blurOut" stdDeviation="2.0"/><feColorMatrix in="blurOut" result="blurOut2" type="matrix" values="0 0 0 0 0 0 0 0 0 0 0 0 0 0 0 0 0 0 .4 0"/><feOffset dx="4.0" dy="4.0" in="blurOut2" result="blurOut3"/><feBlend in="SourceGraphic" in2="blurOut3" mode="normal"/></filter></defs><g><!--cluster algo--><polygon fill="#FFFFFF" filter="url(#f1u5wpxd5833ey)" points="14,16,53,16,60,38.2969,240,38.2969,240,112,14,112,14,16" style="stroke: #000000; stroke-width: 1.5;"/><line style="stroke: #000000; stroke-width: 1.5;" x1="14" x2="60" y1="38.2969" y2="38.2969"/><text fill="#000000" font-family="sans-serif" font-size="14" font-weight="bold" lengthAdjust="spacingAndGlyphs" textLength="33" x="18" y="30.9951">algo</text><!--class algo.NaiveSolver--><a href="NaiveSolver.html" target="_top" xlink:actuate="onRequest" xlink:show="new" xlink:title="NaiveSolver.html" xlink:type="simple"><rect fill="#FEFECE" filter="url(#f1u5wpxd5833ey)" height="60.8047" id="algo.NaiveSolver" style="stroke: #A80036; stroke-width: 1.5;" width="209" x="22.5" y="43"/><ellipse cx="86.75" cy="59" fill="#ADD1B2" rx="11" ry="11" style="stroke: #A80036; stroke-width: 1.0;"/><path d="M89.7188,64.6406 Q89.1406,64.9375 88.5,65.0781 Q87.8594,65.2344 87.1563,65.2344 Q84.6563,65.2344 83.3281,63.5938 Q82.0156,61.9375 82.0156,58.8125 Q82.0156,55.6875 83.3281,54.0313 Q84.6563,52.375 87.1563,52.375 Q87.8594,52.375 88.5,52.5313 Q89.1563,52.6875 89.7188,52.9844 L89.7188,55.7031 Q89.0938,55.125 88.5,54.8594 Q87.9063,54.5781 87.2813,54.5781 Q85.9375,54.5781 85.25,55.6563 Q84.5625,56.7188 84.5625,58.8125 Q84.5625,60.9063 85.25,61.9844 Q85.9375,63.0469 87.2813,63.0469 Q87.9063,63.0469 88.5,62.7813 Q89.0938,62.5 89.7188,61.9219 L89.7188,64.6406 Z "/><text fill="#000000" font-family="sans-serif" font-size="12" lengthAdjust="spacingAndGlyphs" textLength="72" x="107.25" y="63.1543">NaiveSolver</text><line style="stroke: #A80036; stroke-width: 1.5;" x1="23.5" x2="230.5" y1="75" y2="75"/><line style="stroke: #A80036; stroke-width: 1.5;" x1="23.5" x2="230.5" y1="83" y2="83"/><ellipse cx="33.5" cy="94.9023" fill="#84BE84" rx="3" ry="3" style="stroke: #038048; stroke-width: 1.0;"/><text fill="#000000" font-family="sans-serif" font-size="11" lengthAdjust="spacingAndGlyphs" textLength="183" x="42.5" y="97.2104">isWorkingWithValidReader(): void</text></a><text fill="#888888" font-family="sans-serif" font-size="10" lengthAdjust="spacingAndGlyphs" textLength="186" x="40" y="139.2822">UMLDoclet 2.0.3, PlantUML 1.2019.06</text><!--
@startuml
    namespace algo {

        class NaiveSolver [[NaiveSolver.html]] {
            +isWorkingWithValidReader(): void
        }

    }

    center footer UMLDoclet 2.0.3, PlantUML 1.2019.06
@enduml

PlantUML version 1.2019.06(Fri May 24 19:10:25 CEST 2019)
(APACHE source distribution)
Java Runtime: OpenJDK Runtime Environment
JVM: OpenJDK 64-Bit Server VM
Java Version: 11.0.4+4-post-Debian-1
Operating System: Linux
OS Version: 4.19.0-5-amd64
Default Encoding: UTF-8
Language: fr
Country: FR
--></g></svg>