<?xml version="1.0" encoding="UTF-8" standalone="no"?><svg xmlns="http://www.w3.org/2000/svg" xmlns:xlink="http://www.w3.org/1999/xlink" contentScriptType="application/ecmascript" contentStyleType="text/css" height="264px" preserveAspectRatio="none" style="width:293px;height:264px;" version="1.1" viewBox="0 0 293 264" width="293px" zoomAndPan="magnify"><defs><filter height="300%" id="faxgerz6kjnvq" width="300%" x="-1" y="-1"><feGaussianBlur result="blurOut" stdDeviation="2.0"/><feColorMatrix in="blurOut" result="blurOut2" type="matrix" values="0 0 0 0 0 0 0 0 0 0 0 0 0 0 0 0 0 0 .4 0"/><feOffset dx="4.0" dy="4.0" in="blurOut2" result="blurOut3"/><feBlend in="SourceGraphic" in2="blurOut3" mode="normal"/></filter></defs><g><!--class io.input.JarInstanceResourceReader--><a href="JarInstanceResourceReader.html" target="_top" xlink:actuate="onRequest" xlink:show="new" xlink:title="JarInstanceResourceReader.html" xlink:type="simple"><rect fill="#FEFECE" filter="url(#faxgerz6kjnvq)" height="105.1563" id="io.input.JarInstanceResourceReader" style="stroke: #A80036; stroke-width: 1.5;" width="276" x="6" y="127"/><ellipse cx="44.4" cy="145.9688" fill="#ADD1B2" rx="11" ry="11" style="stroke: #A80036; stroke-width: 1.0;"/><path d="M47.3688,151.6094 Q46.7906,151.9063 46.15,152.0469 Q45.5094,152.2031 44.8063,152.2031 Q42.3063,152.2031 40.9781,150.5625 Q39.6656,148.9063 39.6656,145.7813 Q39.6656,142.6563 40.9781,141 Q42.3063,139.3438 44.8063,139.3438 Q45.5094,139.3438 46.15,139.5 Q46.8063,139.6563 47.3688,139.9531 L47.3688,142.6719 Q46.7438,142.0938 46.15,141.8281 Q45.5563,141.5469 44.9313,141.5469 Q43.5875,141.5469 42.9,142.625 Q42.2125,143.6875 42.2125,145.7813 Q42.2125,147.875 42.9,148.9531 Q43.5875,150.0156 44.9313,150.0156 Q45.5563,150.0156 46.15,149.75 Q46.7438,149.4688 47.3688,148.8906 L47.3688,151.6094 Z "/><text fill="#000000" font-family="sans-serif" font-size="14" lengthAdjust="spacingAndGlyphs" textLength="192" x="63.6" y="144.9951">JarInstanceResourceReader</text><text fill="#000000" font-family="sans-serif" font-size="10" lengthAdjust="spacingAndGlyphs" textLength="35" x="142.1" y="157.5791">io.input</text><line style="stroke: #A80036; stroke-width: 1.5;" x1="7" x2="281" y1="164.9375" y2="164.9375"/><rect fill="none" height="6" style="stroke: #C82930; stroke-width: 1.0;" width="6" x="14" y="173.8398"/><text fill="#000000" font-family="sans-serif" font-size="11" lengthAdjust="spacingAndGlyphs" text-decoration="underline" textLength="94" x="26" y="179.1479">LOGGER: Logger</text><rect fill="none" height="6" style="stroke: #C82930; stroke-width: 1.0;" width="6" x="14" y="186.6445"/><text fill="#000000" font-family="sans-serif" font-size="11" lengthAdjust="spacingAndGlyphs" text-decoration="underline" textLength="84" x="26" y="191.9526">MAX_INDEX: int</text><rect fill="none" height="6" style="stroke: #C82930; stroke-width: 1.0;" width="6" x="14" y="199.4492"/><text fill="#000000" font-family="sans-serif" font-size="11" lengthAdjust="spacingAndGlyphs" textLength="250" x="26" y="204.7573">loader: Class&lt;JarInstanceResourceReader&gt;</text><line style="stroke: #A80036; stroke-width: 1.5;" x1="7" x2="281" y1="211.3516" y2="211.3516"/><ellipse cx="17" cy="223.2539" fill="#84BE84" rx="3" ry="3" style="stroke: #038048; stroke-width: 1.0;"/><text fill="#000000" font-family="sans-serif" font-size="11" lengthAdjust="spacingAndGlyphs" textLength="239" x="26" y="225.562">iterator(): FilenameIterator&lt;InputStream&gt;</text></a><!--class java.lang.Iterable--><a href="https://docs.oracle.com/en/java/javase/11/docs/api/java.base/java/lang/Iterable.html?is-external=true" target="_top" xlink:actuate="onRequest" xlink:show="new" xlink:title="https://docs.oracle.com/en/java/javase/11/docs/api/java.base/java/lang/Iterable.html?is-external=true" xlink:type="simple"><rect fill="#FEFECE" filter="url(#faxgerz6kjnvq)" height="58.7422" id="java.lang.Iterable" style="stroke: #A80036; stroke-width: 1.5;" width="166" x="61" y="8"/><ellipse cx="76" cy="26.9688" fill="#B4A7E5" rx="11" ry="11" style="stroke: #A80036; stroke-width: 1.0;"/><path d="M71.9219,22.7344 L71.9219,20.5781 L79.3125,20.5781 L79.3125,22.7344 L76.8438,22.7344 L76.8438,30.8125 L79.3125,30.8125 L79.3125,32.9688 L71.9219,32.9688 L71.9219,30.8125 L74.3906,30.8125 L74.3906,22.7344 L71.9219,22.7344 Z "/><text fill="#000000" font-family="sans-serif" font-size="14" font-style="italic" lengthAdjust="spacingAndGlyphs" textLength="52" x="90" y="25.9951">Iterable</text><text fill="#000000" font-family="sans-serif" font-size="10" font-style="italic" lengthAdjust="spacingAndGlyphs" textLength="45" x="93.5" y="38.5791">java.lang</text><rect fill="#FFFFFF" height="15.9688" style="stroke: #000000; stroke-width: 1.0; stroke-dasharray: 2.0,2.0;" width="80" x="150" y="5"/><text fill="#000000" font-family="sans-serif" font-size="12" font-style="italic" lengthAdjust="spacingAndGlyphs" textLength="78" x="151" y="17.1387">InputStream</text><line style="stroke: #A80036; stroke-width: 1.5;" x1="62" x2="226" y1="45.9375" y2="45.9375"/><ellipse cx="72" cy="57.8398" fill="#84BE84" rx="3" ry="3" style="stroke: #038048; stroke-width: 1.0;"/><text fill="#000000" font-family="sans-serif" font-size="11" font-style="italic" lengthAdjust="spacingAndGlyphs" textLength="125" x="81" y="60.1479">iterator(): Iterator&lt;T&gt;</text></a><!--link java.lang.Iterable to io.input.JarInstanceResourceReader--><path d="M144,87.4513 C144,100.1974 144,113.9386 144,126.8168 " fill="none" id="java.lang.Iterable-io.input.JarInstanceResourceReader" style="stroke: #A80036; stroke-width: 1.0; stroke-dasharray: 7.0,7.0;"/><polygon fill="none" points="137.0001,87.2679,144,67.2679,151.0001,87.2678,137.0001,87.2679" style="stroke: #A80036; stroke-width: 1.0;"/><text fill="#888888" font-family="sans-serif" font-size="10" lengthAdjust="spacingAndGlyphs" textLength="186" x="57" y="251.2822">UMLDoclet 2.0.3, PlantUML 1.2019.06</text><!--
@startuml
    set namespaceSeparator none
    hide empty fields
    hide empty methods

    class "<size:14>JarInstanceResourceReader\n<size:10>io.input" as io.input.JarInstanceResourceReader [[JarInstanceResourceReader.html]] {
        {static} -LOGGER: Logger
        {static} -MAX_INDEX: int
        -loader: Class<JarInstanceResourceReader>
        +iterator(): FilenameIterator<InputStream>
    }

    interface "<size:14>Iterable\n<size:10>java.lang" as java.lang.Iterable<InputStream> [[https://docs.oracle.com/en/java/javase/11/docs/api/java.base/java/lang/Iterable.html?is-external=true]] {
        {abstract} +iterator(): Iterator<T>
    }

    java.lang.Iterable <|.. io.input.JarInstanceResourceReader

    center footer UMLDoclet 2.0.3, PlantUML 1.2019.06
@enduml

PlantUML version 1.2019.06(Fri May 24 19:10:25 CEST 2019)
(APACHE source distribution)
Java Runtime: OpenJDK Runtime Environment
JVM: OpenJDK 64-Bit Server VM
Java Version: 11.0.4+4-post-Debian-1
Operating System: Linux
OS Version: 4.19.0-5-amd64
Default Encoding: UTF-8
Language: fr
Country: FR
--></g></svg>