<?xml version="1.0" encoding="UTF-8" standalone="no"?><svg xmlns="http://www.w3.org/2000/svg" xmlns:xlink="http://www.w3.org/1999/xlink" contentScriptType="application/ecmascript" contentStyleType="text/css" height="760px" preserveAspectRatio="none" style="width:1468px;height:760px;" version="1.1" viewBox="0 0 1468 760" width="1468px" zoomAndPan="magnify"><defs><filter height="300%" id="f1fk6yrr3dlcck" width="300%" x="-1" y="-1"><feGaussianBlur result="blurOut" stdDeviation="2.0"/><feColorMatrix in="blurOut" result="blurOut2" type="matrix" values="0 0 0 0 0 0 0 0 0 0 0 0 0 0 0 0 0 0 .4 0"/><feOffset dx="4.0" dy="4.0" in="blurOut2" result="blurOut3"/><feBlend in="SourceGraphic" in2="blurOut3" mode="normal"/></filter></defs><g><!--cluster io.input--><polygon fill="#FFFFFF" filter="url(#f1fk6yrr3dlcck)" points="14,181,79,181,86,203.2969,1439,203.2969,1439,720,14,720,14,181" style="stroke: #000000; stroke-width: 1.5;"/><line style="stroke: #000000; stroke-width: 1.5;" x1="14" x2="86" y1="203.2969" y2="203.2969"/><text fill="#000000" font-family="sans-serif" font-size="14" font-weight="bold" lengthAdjust="spacingAndGlyphs" textLength="59" x="18" y="195.9951">io.input</text><!--cluster java.lang--><polygon fill="#FFFFFF" filter="url(#f1fk6yrr3dlcck)" points="605,22.5,680,22.5,687,44.7969,1047,44.7969,1047,143.5,605,143.5,605,22.5" style="stroke: #000000; stroke-width: 1.5;"/><line style="stroke: #000000; stroke-width: 1.5;" x1="605" x2="687" y1="44.7969" y2="44.7969"/><text fill="#000000" font-family="sans-serif" font-size="14" font-weight="bold" lengthAdjust="spacingAndGlyphs" textLength="69" x="609" y="37.4951">java.lang</text><!--cluster java.util--><polygon fill="#FFFFFF" filter="url(#f1fk6yrr3dlcck)" points="1132,16,1198,16,1205,38.2969,1446,38.2969,1446,150,1132,150,1132,16" style="stroke: #000000; stroke-width: 1.5;"/><line style="stroke: #000000; stroke-width: 1.5;" x1="1132" x2="1205" y1="38.2969" y2="38.2969"/><text fill="#000000" font-family="sans-serif" font-size="14" font-weight="bold" lengthAdjust="spacingAndGlyphs" textLength="60" x="1136" y="30.9951">java.util</text><!--class io.input.JarInstanceResourceReader--><a href="JarInstanceResourceReader.html" target="_top" xlink:actuate="onRequest" xlink:show="new" xlink:title="JarInstanceResourceReader.html" xlink:type="simple"><rect fill="#FEFECE" filter="url(#f1fk6yrr3dlcck)" height="99.2188" id="io.input.JarInstanceResourceReader" style="stroke: #A80036; stroke-width: 1.5;" width="276" x="553" y="291.5"/><ellipse cx="599.75" cy="307.5" fill="#ADD1B2" rx="11" ry="11" style="stroke: #A80036; stroke-width: 1.0;"/><path d="M602.7188,313.1406 Q602.1406,313.4375 601.5,313.5781 Q600.8594,313.7344 600.1563,313.7344 Q597.6563,313.7344 596.3281,312.0938 Q595.0156,310.4375 595.0156,307.3125 Q595.0156,304.1875 596.3281,302.5313 Q597.6563,300.875 600.1563,300.875 Q600.8594,300.875 601.5,301.0313 Q602.1563,301.1875 602.7188,301.4844 L602.7188,304.2031 Q602.0938,303.625 601.5,303.3594 Q600.9063,303.0781 600.2813,303.0781 Q598.9375,303.0781 598.25,304.1563 Q597.5625,305.2188 597.5625,307.3125 Q597.5625,309.4063 598.25,310.4844 Q598.9375,311.5469 600.2813,311.5469 Q600.9063,311.5469 601.5,311.2813 Q602.0938,311 602.7188,310.4219 L602.7188,313.1406 Z "/><text fill="#000000" font-family="sans-serif" font-size="12" lengthAdjust="spacingAndGlyphs" textLength="174" x="620.25" y="311.6543">JarInstanceResourceReader</text><line style="stroke: #A80036; stroke-width: 1.5;" x1="554" x2="828" y1="323.5" y2="323.5"/><rect fill="none" height="6" style="stroke: #C82930; stroke-width: 1.0;" width="6" x="561" y="332.4023"/><text fill="#000000" font-family="sans-serif" font-size="11" lengthAdjust="spacingAndGlyphs" text-decoration="underline" textLength="94" x="573" y="337.7104">LOGGER: Logger</text><rect fill="none" height="6" style="stroke: #C82930; stroke-width: 1.0;" width="6" x="561" y="345.207"/><text fill="#000000" font-family="sans-serif" font-size="11" lengthAdjust="spacingAndGlyphs" text-decoration="underline" textLength="84" x="573" y="350.5151">MAX_INDEX: int</text><rect fill="none" height="6" style="stroke: #C82930; stroke-width: 1.0;" width="6" x="561" y="358.0117"/><text fill="#000000" font-family="sans-serif" font-size="11" lengthAdjust="spacingAndGlyphs" textLength="250" x="573" y="363.3198">loader: Class&lt;JarInstanceResourceReader&gt;</text><line style="stroke: #A80036; stroke-width: 1.5;" x1="554" x2="828" y1="369.9141" y2="369.9141"/><ellipse cx="564" cy="381.8164" fill="#84BE84" rx="3" ry="3" style="stroke: #038048; stroke-width: 1.0;"/><text fill="#000000" font-family="sans-serif" font-size="11" lengthAdjust="spacingAndGlyphs" textLength="239" x="573" y="384.1245">iterator(): FilenameIterator&lt;InputStream&gt;</text></a><!--class io.input.ParserException--><a href="ParserException.html" target="_top" xlink:actuate="onRequest" xlink:show="new" xlink:title="ParserException.html" xlink:type="simple"><rect fill="#FEFECE" filter="url(#f1fk6yrr3dlcck)" height="112.0234" id="io.input.ParserException" style="stroke: #A80036; stroke-width: 1.5;" width="248" x="864" y="285"/><ellipse cx="932.75" cy="301" fill="#ADD1B2" rx="11" ry="11" style="stroke: #A80036; stroke-width: 1.0;"/><path d="M935.7188,306.6406 Q935.1406,306.9375 934.5,307.0781 Q933.8594,307.2344 933.1563,307.2344 Q930.6563,307.2344 929.3281,305.5938 Q928.0156,303.9375 928.0156,300.8125 Q928.0156,297.6875 929.3281,296.0313 Q930.6563,294.375 933.1563,294.375 Q933.8594,294.375 934.5,294.5313 Q935.1563,294.6875 935.7188,294.9844 L935.7188,297.7031 Q935.0938,297.125 934.5,296.8594 Q933.9063,296.5781 933.2813,296.5781 Q931.9375,296.5781 931.25,297.6563 Q930.5625,298.7188 930.5625,300.8125 Q930.5625,302.9063 931.25,303.9844 Q931.9375,305.0469 933.2813,305.0469 Q933.9063,305.0469 934.5,304.7813 Q935.0938,304.5 935.7188,303.9219 L935.7188,306.6406 Z "/><text fill="#000000" font-family="sans-serif" font-size="12" lengthAdjust="spacingAndGlyphs" textLength="102" x="953.25" y="305.1543">ParserException</text><line style="stroke: #A80036; stroke-width: 1.5;" x1="865" x2="1111" y1="317" y2="317"/><rect fill="none" height="6" style="stroke: #C82930; stroke-width: 1.0;" width="6" x="872" y="325.9023"/><text fill="#000000" font-family="sans-serif" font-size="11" lengthAdjust="spacingAndGlyphs" text-decoration="underline" textLength="126" x="884" y="331.2104">serialVersionUID: long</text><rect fill="none" height="6" style="stroke: #C82930; stroke-width: 1.0;" width="6" x="872" y="338.707"/><text fill="#000000" font-family="sans-serif" font-size="11" lengthAdjust="spacingAndGlyphs" text-decoration="underline" textLength="149" x="884" y="344.0151">COMPARISON_MSG: String</text><line style="stroke: #A80036; stroke-width: 1.5;" x1="865" x2="1111" y1="350.6094" y2="350.6094"/><ellipse cx="875" cy="362.5117" fill="#84BE84" rx="3" ry="3" style="stroke: #038048; stroke-width: 1.0;"/><text fill="#000000" font-family="sans-serif" font-size="11" lengthAdjust="spacingAndGlyphs" textLength="134" x="884" y="364.8198">ParserException(String)</text><ellipse cx="875" cy="375.3164" fill="#84BE84" rx="3" ry="3" style="stroke: #038048; stroke-width: 1.0;"/><text fill="#000000" font-family="sans-serif" font-size="11" lengthAdjust="spacingAndGlyphs" textLength="159" x="884" y="377.6245">ParserException(Throwable)</text><ellipse cx="875" cy="388.1211" fill="#84BE84" rx="3" ry="3" style="stroke: #038048; stroke-width: 1.0;"/><text fill="#000000" font-family="sans-serif" font-size="11" lengthAdjust="spacingAndGlyphs" textLength="222" x="884" y="390.4292">ParserException(String, Object, Object)</text></a><!--class io.input.TsvParser--><a href="TsvParser.html" target="_top" xlink:actuate="onRequest" xlink:show="new" xlink:title="TsvParser.html" xlink:type="simple"><rect fill="#FEFECE" filter="url(#f1fk6yrr3dlcck)" height="99.2188" id="io.input.TsvParser" style="stroke: #A80036; stroke-width: 1.5;" width="225" x="157.5" y="613"/><ellipse cx="235.25" cy="629" fill="#ADD1B2" rx="11" ry="11" style="stroke: #A80036; stroke-width: 1.0;"/><path d="M238.2188,634.6406 Q237.6406,634.9375 237,635.0781 Q236.3594,635.2344 235.6563,635.2344 Q233.1563,635.2344 231.8281,633.5938 Q230.5156,631.9375 230.5156,628.8125 Q230.5156,625.6875 231.8281,624.0313 Q233.1563,622.375 235.6563,622.375 Q236.3594,622.375 237,622.5313 Q237.6563,622.6875 238.2188,622.9844 L238.2188,625.7031 Q237.5938,625.125 237,624.8594 Q236.4063,624.5781 235.7813,624.5781 Q234.4375,624.5781 233.75,625.6563 Q233.0625,626.7188 233.0625,628.8125 Q233.0625,630.9063 233.75,631.9844 Q234.4375,633.0469 235.7813,633.0469 Q236.4063,633.0469 237,632.7813 Q237.5938,632.5 238.2188,631.9219 L238.2188,634.6406 Z "/><text fill="#000000" font-family="sans-serif" font-size="12" lengthAdjust="spacingAndGlyphs" textLength="61" x="255.75" y="633.1543">TsvParser</text><line style="stroke: #A80036; stroke-width: 1.5;" x1="158.5" x2="381.5" y1="645" y2="645"/><rect fill="none" height="6" style="stroke: #C82930; stroke-width: 1.0;" width="6" x="165.5" y="653.9023"/><text fill="#000000" font-family="sans-serif" font-size="11" lengthAdjust="spacingAndGlyphs" text-decoration="underline" textLength="94" x="177.5" y="659.2104">LOGGER: Logger</text><line style="stroke: #A80036; stroke-width: 1.5;" x1="158.5" x2="381.5" y1="665.8047" y2="665.8047"/><ellipse cx="168.5" cy="677.707" fill="#84BE84" rx="3" ry="3" style="stroke: #038048; stroke-width: 1.0;"/><text fill="#000000" font-family="sans-serif" font-size="11" lengthAdjust="spacingAndGlyphs" textLength="148" x="177.5" y="680.0151">parse(File): List&lt;String[]&gt;</text><ellipse cx="168.5" cy="690.5117" fill="#84BE84" rx="3" ry="3" style="stroke: #038048; stroke-width: 1.0;"/><text fill="#000000" font-family="sans-serif" font-size="11" lengthAdjust="spacingAndGlyphs" textLength="199" x="177.5" y="692.8198">parse(InputStream): List&lt;String[]&gt;</text><ellipse cx="168.5" cy="703.3164" fill="#84BE84" rx="3" ry="3" style="stroke: #038048; stroke-width: 1.0;"/><text fill="#000000" font-family="sans-serif" font-size="11" lengthAdjust="spacingAndGlyphs" textLength="169" x="177.5" y="705.6245">parse(Reader): List&lt;String[]&gt;</text></a><!--class io.input.FilenameIterator--><a href="FilenameIterator.html" target="_top" xlink:actuate="onRequest" xlink:show="new" xlink:title="FilenameIterator.html" xlink:type="simple"><rect fill="#FEFECE" filter="url(#f1fk6yrr3dlcck)" height="60.8047" id="io.input.FilenameIterator" style="stroke: #A80036; stroke-width: 1.5;" width="284" x="1147" y="310.5"/><ellipse cx="1162" cy="326.5" fill="#B4A7E5" rx="11" ry="11" style="stroke: #A80036; stroke-width: 1.0;"/><path d="M1157.9219,322.2656 L1157.9219,320.1094 L1165.3125,320.1094 L1165.3125,322.2656 L1162.8438,322.2656 L1162.8438,330.3438 L1165.3125,330.3438 L1165.3125,332.5 L1157.9219,332.5 L1157.9219,330.3438 L1160.3906,330.3438 L1160.3906,322.2656 L1157.9219,322.2656 Z "/><text fill="#000000" font-family="sans-serif" font-size="12" font-style="italic" lengthAdjust="spacingAndGlyphs" textLength="104" x="1176" y="330.6543">FilenameIterator</text><rect fill="#FFFFFF" height="15.9688" style="stroke: #000000; stroke-width: 1.0; stroke-dasharray: 2.0,2.0;" width="146" x="1288" y="307.5"/><text fill="#000000" font-family="sans-serif" font-size="12" font-style="italic" lengthAdjust="spacingAndGlyphs" textLength="144" x="1289" y="319.6387">E extends InputStream</text><line style="stroke: #A80036; stroke-width: 1.5;" x1="1148" x2="1430" y1="342.5" y2="342.5"/><line style="stroke: #A80036; stroke-width: 1.5;" x1="1148" x2="1430" y1="350.5" y2="350.5"/><ellipse cx="1158" cy="362.4023" fill="#84BE84" rx="3" ry="3" style="stroke: #038048; stroke-width: 1.0;"/><text fill="#000000" font-family="sans-serif" font-size="11" font-style="italic" lengthAdjust="spacingAndGlyphs" textLength="118" x="1167" y="364.7104">getFilename(): String</text></a><!--class io.input.InstanceFileParser--><a href="InstanceFileParser.html" target="_top" xlink:actuate="onRequest" xlink:show="new" xlink:title="InstanceFileParser.html" xlink:type="simple"><rect fill="#FEFECE" filter="url(#f1fk6yrr3dlcck)" height="265.6797" id="io.input.InstanceFileParser" style="stroke: #A80036; stroke-width: 1.5;" width="495" x="22.5" y="208"/><ellipse cx="207.75" cy="224" fill="#ADD1B2" rx="11" ry="11" style="stroke: #A80036; stroke-width: 1.0;"/><path d="M210.7188,229.6406 Q210.1406,229.9375 209.5,230.0781 Q208.8594,230.2344 208.1563,230.2344 Q205.6563,230.2344 204.3281,228.5938 Q203.0156,226.9375 203.0156,223.8125 Q203.0156,220.6875 204.3281,219.0313 Q205.6563,217.375 208.1563,217.375 Q208.8594,217.375 209.5,217.5313 Q210.1563,217.6875 210.7188,217.9844 L210.7188,220.7031 Q210.0938,220.125 209.5,219.8594 Q208.9063,219.5781 208.2813,219.5781 Q206.9375,219.5781 206.25,220.6563 Q205.5625,221.7188 205.5625,223.8125 Q205.5625,225.9063 206.25,226.9844 Q206.9375,228.0469 208.2813,228.0469 Q208.9063,228.0469 209.5,227.7813 Q210.0938,227.5 210.7188,226.9219 L210.7188,229.6406 Z "/><text fill="#000000" font-family="sans-serif" font-size="12" lengthAdjust="spacingAndGlyphs" textLength="116" x="228.25" y="228.1543">InstanceFileParser</text><line style="stroke: #A80036; stroke-width: 1.5;" x1="23.5" x2="516.5" y1="240" y2="240"/><rect fill="none" height="6" style="stroke: #C82930; stroke-width: 1.0;" width="6" x="30.5" y="248.9023"/><text fill="#000000" font-family="sans-serif" font-size="11" lengthAdjust="spacingAndGlyphs" text-decoration="underline" textLength="94" x="42.5" y="254.2104">LOGGER: Logger</text><rect fill="none" height="6" style="stroke: #C82930; stroke-width: 1.0;" width="6" x="30.5" y="261.707"/><text fill="#000000" font-family="sans-serif" font-size="11" lengthAdjust="spacingAndGlyphs" textLength="164" x="42.5" y="267.0151">dbf: DocumentBuilderFactory</text><rect fill="none" height="6" style="stroke: #C82930; stroke-width: 1.0;" width="6" x="30.5" y="274.5117"/><text fill="#000000" font-family="sans-serif" font-size="11" lengthAdjust="spacingAndGlyphs" textLength="119" x="42.5" y="279.8198">db: DocumentBuilder</text><line style="stroke: #A80036; stroke-width: 1.5;" x1="23.5" x2="516.5" y1="286.4141" y2="286.4141"/><ellipse cx="33.5" cy="298.3164" fill="#84BE84" rx="3" ry="3" style="stroke: #038048; stroke-width: 1.0;"/><text fill="#000000" font-family="sans-serif" font-size="11" lengthAdjust="spacingAndGlyphs" textLength="116" x="42.5" y="300.6245">parse(File): Instance</text><ellipse cx="33.5" cy="311.1211" fill="#84BE84" rx="3" ry="3" style="stroke: #038048; stroke-width: 1.0;"/><text fill="#000000" font-family="sans-serif" font-size="11" lengthAdjust="spacingAndGlyphs" textLength="167" x="42.5" y="313.4292">parse(InputStream): Instance</text><rect fill="#F24D5C" height="6" style="stroke: #C82930; stroke-width: 1.0;" width="6" x="30.5" y="320.9258"/><text fill="#000000" font-family="sans-serif" font-size="11" lengthAdjust="spacingAndGlyphs" textLength="183" x="42.5" y="326.2339">getNbCustomers(Document): int</text><rect fill="#F24D5C" height="6" style="stroke: #C82930; stroke-width: 1.0;" width="6" x="30.5" y="333.7305"/><text fill="#000000" font-family="sans-serif" font-size="11" lengthAdjust="spacingAndGlyphs" textLength="174" x="42.5" y="339.0386">getNbLocations(Document): int</text><rect fill="#F24D5C" height="6" style="stroke: #C82930; stroke-width: 1.0;" width="6" x="30.5" y="346.5352"/><text fill="#000000" font-family="sans-serif" font-size="11" lengthAdjust="spacingAndGlyphs" textLength="167" x="42.5" y="351.8433">getNbVehicles(Document): int</text><rect fill="#F24D5C" height="6" style="stroke: #C82930; stroke-width: 1.0;" width="6" x="30.5" y="359.3398"/><text fill="#000000" font-family="sans-serif" font-size="11" lengthAdjust="spacingAndGlyphs" textLength="193" x="42.5" y="364.6479">getVehicleCapacity(Document): int</text><rect fill="#F24D5C" height="6" style="stroke: #C82930; stroke-width: 1.0;" width="6" x="30.5" y="372.1445"/><text fill="#000000" font-family="sans-serif" font-size="11" lengthAdjust="spacingAndGlyphs" textLength="217" x="42.5" y="377.4526">getExternalVehicleCost(Document): int</text><rect fill="#F24D5C" height="6" style="stroke: #C82930; stroke-width: 1.0;" width="6" x="30.5" y="384.9492"/><text fill="#000000" font-family="sans-serif" font-size="11" lengthAdjust="spacingAndGlyphs" textLength="447" x="42.5" y="390.2573">getDepotsList(Document, Map&lt;Integer, Emplacement&gt;): Map&lt;Integer, Depot&gt;</text><rect fill="#F24D5C" height="6" style="stroke: #C82930; stroke-width: 1.0;" width="6" x="30.5" y="397.7539"/><text fill="#000000" font-family="sans-serif" font-size="11" lengthAdjust="spacingAndGlyphs" textLength="469" x="42.5" y="403.062">getCustomersList(Document, Map&lt;Integer, Emplacement&gt;): Map&lt;Integer, Client&gt;</text><rect fill="#F24D5C" height="6" style="stroke: #C82930; stroke-width: 1.0;" width="6" x="30.5" y="410.5586"/><text fill="#000000" font-family="sans-serif" font-size="11" lengthAdjust="spacingAndGlyphs" textLength="331" x="42.5" y="415.8667">getLocationsList(Document): Map&lt;Integer, Emplacement&gt;</text><rect fill="#F24D5C" height="6" style="stroke: #C82930; stroke-width: 1.0;" width="6" x="30.5" y="423.3633"/><text fill="#000000" font-family="sans-serif" font-size="11" lengthAdjust="spacingAndGlyphs" textLength="458" x="42.5" y="428.6714">getTravelCostsTimesList(Document, Map&lt;Integer, Emplacement&gt;): List&lt;Route&gt;</text><rect fill="#F24D5C" height="6" style="stroke: #C82930; stroke-width: 1.0;" width="6" x="30.5" y="436.168"/><text fill="#000000" font-family="sans-serif" font-size="11" lengthAdjust="spacingAndGlyphs" textLength="282" x="42.5" y="441.4761">getSingleNodeValueInteger(Document, String): int</text><rect fill="#F24D5C" height="6" style="stroke: #C82930; stroke-width: 1.0;" width="6" x="30.5" y="448.9727"/><text fill="#000000" font-family="sans-serif" font-size="11" lengthAdjust="spacingAndGlyphs" textLength="297" x="42.5" y="454.2808">getSingleNodeTsv(Document, String): List&lt;String[]&gt;</text><rect fill="#F24D5C" height="6" style="stroke: #C82930; stroke-width: 1.0;" width="6" x="30.5" y="461.7773"/><text fill="#000000" font-family="sans-serif" font-size="11" lengthAdjust="spacingAndGlyphs" text-decoration="underline" textLength="284" x="42.5" y="467.0854">createSuitableXmlRoot(InputStream): InputStream</text></a><!--class java.lang.Iterable--><a href="https://docs.oracle.com/en/java/javase/11/docs/api/java.base/java/lang/Iterable.html?is-external=true" target="_top" xlink:actuate="onRequest" xlink:show="new" xlink:title="https://docs.oracle.com/en/java/javase/11/docs/api/java.base/java/lang/Iterable.html?is-external=true" xlink:type="simple"><rect fill="#FEFECE" filter="url(#f1fk6yrr3dlcck)" height="86.4141" id="java.lang.Iterable" style="stroke: #A80036; stroke-width: 1.5;" width="239" x="612.5" y="49.5"/><ellipse cx="697.75" cy="65.5" fill="#B4A7E5" rx="11" ry="11" style="stroke: #A80036; stroke-width: 1.0;"/><path d="M693.6719,61.2656 L693.6719,59.1094 L701.0625,59.1094 L701.0625,61.2656 L698.5938,61.2656 L698.5938,69.3438 L701.0625,69.3438 L701.0625,71.5 L693.6719,71.5 L693.6719,69.3438 L696.1406,69.3438 L696.1406,61.2656 L693.6719,61.2656 Z "/><text fill="#000000" font-family="sans-serif" font-size="12" font-style="italic" lengthAdjust="spacingAndGlyphs" textLength="49" x="718.25" y="69.6543">Iterable</text><rect fill="#FFFFFF" height="15.9688" style="stroke: #000000; stroke-width: 1.0; stroke-dasharray: 2.0,2.0;" width="9" x="845.5" y="46.5"/><text fill="#000000" font-family="sans-serif" font-size="12" font-style="italic" lengthAdjust="spacingAndGlyphs" textLength="7" x="846.5" y="58.6387">T</text><line style="stroke: #A80036; stroke-width: 1.5;" x1="613.5" x2="850.5" y1="81.5" y2="81.5"/><line style="stroke: #A80036; stroke-width: 1.5;" x1="613.5" x2="850.5" y1="89.5" y2="89.5"/><ellipse cx="623.5" cy="101.4023" fill="#84BE84" rx="3" ry="3" style="stroke: #038048; stroke-width: 1.0;"/><text fill="#000000" font-family="sans-serif" font-size="11" font-style="italic" lengthAdjust="spacingAndGlyphs" textLength="125" x="632.5" y="103.7104">iterator(): Iterator&lt;T&gt;</text><ellipse cx="623.5" cy="114.207" fill="#84BE84" rx="3" ry="3" style="stroke: #038048; stroke-width: 1.0;"/><text fill="#000000" font-family="sans-serif" font-size="11" lengthAdjust="spacingAndGlyphs" textLength="213" x="632.5" y="116.5151">forEach(Consumer&lt;? super T&gt;): void</text><ellipse cx="623.5" cy="127.0117" fill="#84BE84" rx="3" ry="3" style="stroke: #038048; stroke-width: 1.0;"/><text fill="#000000" font-family="sans-serif" font-size="11" lengthAdjust="spacingAndGlyphs" textLength="160" x="632.5" y="129.3198">spliterator(): Spliterator&lt;T&gt;</text></a><!--class java.lang.Exception--><a href="https://docs.oracle.com/en/java/javase/11/docs/api/java.base/java/lang/Exception.html?is-external=true" target="_top" xlink:actuate="onRequest" xlink:show="new" xlink:title="https://docs.oracle.com/en/java/javase/11/docs/api/java.base/java/lang/Exception.html?is-external=true" xlink:type="simple"><rect fill="#FEFECE" filter="url(#f1fk6yrr3dlcck)" height="60.8047" id="java.lang.Exception" style="stroke: #A80036; stroke-width: 1.5;" width="152" x="887" y="62"/><ellipse cx="928.55" cy="78" fill="#ADD1B2" rx="11" ry="11" style="stroke: #A80036; stroke-width: 1.0;"/><path d="M931.5188,83.6406 Q930.9406,83.9375 930.3,84.0781 Q929.6594,84.2344 928.9563,84.2344 Q926.4563,84.2344 925.1281,82.5938 Q923.8156,80.9375 923.8156,77.8125 Q923.8156,74.6875 925.1281,73.0313 Q926.4563,71.375 928.9563,71.375 Q929.6594,71.375 930.3,71.5313 Q930.9563,71.6875 931.5188,71.9844 L931.5188,74.7031 Q930.8938,74.125 930.3,73.8594 Q929.7063,73.5781 929.0813,73.5781 Q927.7375,73.5781 927.05,74.6563 Q926.3625,75.7188 926.3625,77.8125 Q926.3625,79.9063 927.05,80.9844 Q927.7375,82.0469 929.0813,82.0469 Q929.7063,82.0469 930.3,81.7813 Q930.8938,81.5 931.5188,80.9219 L931.5188,83.6406 Z "/><text fill="#000000" font-family="sans-serif" font-size="12" lengthAdjust="spacingAndGlyphs" textLength="61" x="948.45" y="82.1543">Exception</text><line style="stroke: #A80036; stroke-width: 1.5;" x1="888" x2="1038" y1="94" y2="94"/><polygon fill="none" points="898,101.9023,894,107.9023,902,107.9023" style="stroke: #1963A0; stroke-width: 1.0;"/><text fill="#000000" font-family="sans-serif" font-size="11" lengthAdjust="spacingAndGlyphs" text-decoration="underline" textLength="126" x="907" y="108.2104">serialVersionUID: long</text><line style="stroke: #A80036; stroke-width: 1.5;" x1="888" x2="1038" y1="114.8047" y2="114.8047"/></a><!--class java.util.Iterator--><a href="https://docs.oracle.com/en/java/javase/11/docs/api/java.base/java/util/Iterator.html?is-external=true" target="_top" xlink:actuate="onRequest" xlink:show="new" xlink:title="https://docs.oracle.com/en/java/javase/11/docs/api/java.base/java/util/Iterator.html?is-external=true" xlink:type="simple"><rect fill="#FEFECE" filter="url(#f1fk6yrr3dlcck)" height="99.2188" id="java.util.Iterator" style="stroke: #A80036; stroke-width: 1.5;" width="298" x="1140" y="43"/><ellipse cx="1254.75" cy="59" fill="#B4A7E5" rx="11" ry="11" style="stroke: #A80036; stroke-width: 1.0;"/><path d="M1250.6719,54.7656 L1250.6719,52.6094 L1258.0625,52.6094 L1258.0625,54.7656 L1255.5938,54.7656 L1255.5938,62.8438 L1258.0625,62.8438 L1258.0625,65 L1250.6719,65 L1250.6719,62.8438 L1253.1406,62.8438 L1253.1406,54.7656 L1250.6719,54.7656 Z "/><text fill="#000000" font-family="sans-serif" font-size="12" font-style="italic" lengthAdjust="spacingAndGlyphs" textLength="48" x="1275.25" y="63.1543">Iterator</text><rect fill="#FFFFFF" height="15.9688" style="stroke: #000000; stroke-width: 1.0; stroke-dasharray: 2.0,2.0;" width="10" x="1431" y="40"/><text fill="#000000" font-family="sans-serif" font-size="12" font-style="italic" lengthAdjust="spacingAndGlyphs" textLength="8" x="1432" y="52.1387">E</text><line style="stroke: #A80036; stroke-width: 1.5;" x1="1141" x2="1437" y1="75" y2="75"/><line style="stroke: #A80036; stroke-width: 1.5;" x1="1141" x2="1437" y1="83" y2="83"/><ellipse cx="1151" cy="94.9023" fill="#84BE84" rx="3" ry="3" style="stroke: #038048; stroke-width: 1.0;"/><text fill="#000000" font-family="sans-serif" font-size="11" font-style="italic" lengthAdjust="spacingAndGlyphs" textLength="107" x="1160" y="97.2104">hasNext(): boolean</text><ellipse cx="1151" cy="107.707" fill="#84BE84" rx="3" ry="3" style="stroke: #038048; stroke-width: 1.0;"/><text fill="#000000" font-family="sans-serif" font-size="11" font-style="italic" lengthAdjust="spacingAndGlyphs" textLength="48" x="1160" y="110.0151">next(): E</text><ellipse cx="1151" cy="120.5117" fill="#84BE84" rx="3" ry="3" style="stroke: #038048; stroke-width: 1.0;"/><text fill="#000000" font-family="sans-serif" font-size="11" lengthAdjust="spacingAndGlyphs" textLength="82" x="1160" y="122.8198">remove(): void</text><ellipse cx="1151" cy="133.3164" fill="#84BE84" rx="3" ry="3" style="stroke: #038048; stroke-width: 1.0;"/><text fill="#000000" font-family="sans-serif" font-size="11" lengthAdjust="spacingAndGlyphs" textLength="272" x="1160" y="135.6245">forEachRemaining(Consumer&lt;? super E&gt;): void</text></a><!--link java.lang.Iterable to io.input.JarInstanceResourceReader--><path d="M721.6315,155.343 C714.6814,197.4678 705.6557,252.1723 699.2053,291.2677 " fill="none" id="java.lang.Iterable-io.input.JarInstanceResourceReader" style="stroke: #A80036; stroke-width: 1.0; stroke-dasharray: 7.0,7.0;"/><polygon fill="none" points="714.7427,154.0954,724.9052,135.5017,728.5559,156.3745,714.7427,154.0954" style="stroke: #A80036; stroke-width: 1.0;"/><!--link java.lang.Exception to io.input.ParserException--><path d="M968.112,143.3136 C972.2508,184.4528 978.0749,242.3447 982.3511,284.8504 " fill="none" id="java.lang.Exception-io.input.ParserException" style="stroke: #A80036; stroke-width: 1.0;"/><polygon fill="none" points="961.1278,143.8205,966.0906,123.2202,975.0575,142.419,961.1278,143.8205" style="stroke: #A80036; stroke-width: 1.0;"/><!--link java.util.Iterator to io.input.FilenameIterator--><path d="M1289,162.4078 C1289,211.0429 1289,273.5121 1289,310.2115 " fill="none" id="java.util.Iterator-io.input.FilenameIterator" style="stroke: #A80036; stroke-width: 1.0; stroke-dasharray: 7.0,7.0;"/><polygon fill="none" points="1282.0001,162.1905,1289,142.1904,1296.0001,162.1904,1282.0001,162.1905" style="stroke: #A80036; stroke-width: 1.0;"/><!--link io.input.InstanceFileParser to io.input.TsvParser--><path d="M270,474.0871 C270,520.8477 270,570.8281 270,607.5537 " fill="none" id="io.input.InstanceFileParser-io.input.TsvParser" style="stroke: #A80036; stroke-width: 1.0;"/><polygon fill="#A80036" points="270,612.8741,274,603.8741,270,607.8741,266,603.8741,270,612.8741" style="stroke: #A80036; stroke-width: 1.0;"/><text fill="#000000" font-family="sans-serif" font-size="13" lengthAdjust="spacingAndGlyphs" textLength="60" x="271" y="548.0669">tsvParser</text><text fill="#888888" font-family="sans-serif" font-size="10" lengthAdjust="spacingAndGlyphs" textLength="186" x="643" y="747.2822">UMLDoclet 2.0.3, PlantUML 1.2019.06</text><!--
@startuml
    namespace io.input {

        class JarInstanceResourceReader [[JarInstanceResourceReader.html]] {
            {static} -LOGGER: Logger
            {static} -MAX_INDEX: int
            -loader: Class<JarInstanceResourceReader>
            +iterator(): FilenameIterator<InputStream>
        }

        class ParserException [[ParserException.html]] {
            {static} -serialVersionUID: long
            {static} -COMPARISON_MSG: String
            +ParserException(String)
            +ParserException(Throwable)
            +ParserException(String, Object, Object)
        }

        class TsvParser [[TsvParser.html]] {
            {static} -LOGGER: Logger
            +parse(File): List<String[]>
            +parse(InputStream): List<String[]>
            +parse(Reader): List<String[]>
        }

        interface FilenameIterator<E extends InputStream> [[FilenameIterator.html]] {
            {abstract} +getFilename(): String
        }

        class InstanceFileParser [[InstanceFileParser.html]] {
            {static} -LOGGER: Logger
            -dbf: DocumentBuilderFactory
            -db: DocumentBuilder
            +parse(File): Instance
            +parse(InputStream): Instance
            -getNbCustomers(Document): int
            -getNbLocations(Document): int
            -getNbVehicles(Document): int
            -getVehicleCapacity(Document): int
            -getExternalVehicleCost(Document): int
            -getDepotsList(Document, Map<Integer, Emplacement>): Map<Integer, Depot>
            -getCustomersList(Document, Map<Integer, Emplacement>): Map<Integer, Client>
            -getLocationsList(Document): Map<Integer, Emplacement>
            -getTravelCostsTimesList(Document, Map<Integer, Emplacement>): List<Route>
            -getSingleNodeValueInteger(Document, String): int
            -getSingleNodeTsv(Document, String): List<String[]>
            {static} -createSuitableXmlRoot(InputStream): InputStream
        }

        java.lang.Iterable <|.. JarInstanceResourceReader
        java.lang.Exception <|- - ParserException
        java.util.Iterator <|.. FilenameIterator
        InstanceFileParser - -> TsvParser: tsvParser
    }

    namespace java.lang {
        interface Iterable<T> [[https://docs.oracle.com/en/java/javase/11/docs/api/java.base/java/lang/Iterable.html?is-external=true]] {
            {abstract} +iterator(): Iterator<T>
            +forEach(Consumer<? super T>): void
            +spliterator(): Spliterator<T>
        }
        class Exception [[https://docs.oracle.com/en/java/javase/11/docs/api/java.base/java/lang/Exception.html?is-external=true]] {
            {static} ~serialVersionUID: long
        }
    }

    namespace java.util {
        interface Iterator<E> [[https://docs.oracle.com/en/java/javase/11/docs/api/java.base/java/util/Iterator.html?is-external=true]] {
            {abstract} +hasNext(): boolean
            {abstract} +next(): E
            +remove(): void
            +forEachRemaining(Consumer<? super E>): void
        }
    }

    center footer UMLDoclet 2.0.3, PlantUML 1.2019.06
@enduml

PlantUML version 1.2019.06(Fri May 24 19:10:25 CEST 2019)
(APACHE source distribution)
Java Runtime: OpenJDK Runtime Environment
JVM: OpenJDK 64-Bit Server VM
Java Version: 11.0.4+4-post-Debian-1
Operating System: Linux
OS Version: 4.19.0-5-amd64
Default Encoding: UTF-8
Language: fr
Country: FR
--></g></svg>