<?xml version="1.0" encoding="UTF-8" standalone="no"?><svg xmlns="http://www.w3.org/2000/svg" xmlns:xlink="http://www.w3.org/1999/xlink" contentScriptType="application/ecmascript" contentStyleType="text/css" height="256px" preserveAspectRatio="none" style="width:265px;height:256px;" version="1.1" viewBox="0 0 265 256" width="265px" zoomAndPan="magnify"><defs><filter height="300%" id="f1y0ud7dh33y52" width="300%" x="-1" y="-1"><feGaussianBlur result="blurOut" stdDeviation="2.0"/><feColorMatrix in="blurOut" result="blurOut2" type="matrix" values="0 0 0 0 0 0 0 0 0 0 0 0 0 0 0 0 0 0 .4 0"/><feOffset dx="4.0" dy="4.0" in="blurOut2" result="blurOut3"/><feBlend in="SourceGraphic" in2="blurOut3" mode="normal"/></filter></defs><g><!--class io.input.ParserException--><a href="ParserException.html" target="_top" xlink:actuate="onRequest" xlink:show="new" xlink:title="ParserException.html" xlink:type="simple"><rect fill="#FEFECE" filter="url(#f1y0ud7dh33y52)" height="117.9609" id="io.input.ParserException" style="stroke: #A80036; stroke-width: 1.5;" width="248" x="6" y="106"/><ellipse cx="69.75" cy="124.9688" fill="#ADD1B2" rx="11" ry="11" style="stroke: #A80036; stroke-width: 1.0;"/><path d="M72.7188,130.6094 Q72.1406,130.9063 71.5,131.0469 Q70.8594,131.2031 70.1563,131.2031 Q67.6563,131.2031 66.3281,129.5625 Q65.0156,127.9063 65.0156,124.7813 Q65.0156,121.6563 66.3281,120 Q67.6563,118.3438 70.1563,118.3438 Q70.8594,118.3438 71.5,118.5 Q72.1563,118.6563 72.7188,118.9531 L72.7188,121.6719 Q72.0938,121.0938 71.5,120.8281 Q70.9063,120.5469 70.2813,120.5469 Q68.9375,120.5469 68.25,121.625 Q67.5625,122.6875 67.5625,124.7813 Q67.5625,126.875 68.25,127.9531 Q68.9375,129.0156 70.2813,129.0156 Q70.9063,129.0156 71.5,128.75 Q72.0938,128.4688 72.7188,127.8906 L72.7188,130.6094 Z "/><text fill="#000000" font-family="sans-serif" font-size="14" lengthAdjust="spacingAndGlyphs" textLength="112" x="90.25" y="123.9951">ParserException</text><text fill="#000000" font-family="sans-serif" font-size="10" lengthAdjust="spacingAndGlyphs" textLength="35" x="128.75" y="136.5791">io.input</text><line style="stroke: #A80036; stroke-width: 1.5;" x1="7" x2="253" y1="143.9375" y2="143.9375"/><rect fill="none" height="6" style="stroke: #C82930; stroke-width: 1.0;" width="6" x="14" y="152.8398"/><text fill="#000000" font-family="sans-serif" font-size="11" lengthAdjust="spacingAndGlyphs" text-decoration="underline" textLength="126" x="26" y="158.1479">serialVersionUID: long</text><rect fill="none" height="6" style="stroke: #C82930; stroke-width: 1.0;" width="6" x="14" y="165.6445"/><text fill="#000000" font-family="sans-serif" font-size="11" lengthAdjust="spacingAndGlyphs" text-decoration="underline" textLength="149" x="26" y="170.9526">COMPARISON_MSG: String</text><line style="stroke: #A80036; stroke-width: 1.5;" x1="7" x2="253" y1="177.5469" y2="177.5469"/><ellipse cx="17" cy="189.4492" fill="#84BE84" rx="3" ry="3" style="stroke: #038048; stroke-width: 1.0;"/><text fill="#000000" font-family="sans-serif" font-size="11" lengthAdjust="spacingAndGlyphs" textLength="134" x="26" y="191.7573">ParserException(String)</text><ellipse cx="17" cy="202.2539" fill="#84BE84" rx="3" ry="3" style="stroke: #038048; stroke-width: 1.0;"/><text fill="#000000" font-family="sans-serif" font-size="11" lengthAdjust="spacingAndGlyphs" textLength="159" x="26" y="204.562">ParserException(Throwable)</text><ellipse cx="17" cy="215.0586" fill="#84BE84" rx="3" ry="3" style="stroke: #038048; stroke-width: 1.0;"/><text fill="#000000" font-family="sans-serif" font-size="11" lengthAdjust="spacingAndGlyphs" textLength="222" x="26" y="217.3667">ParserException(String, Object, Object)</text></a><!--class java.lang.Exception--><a href="https://docs.oracle.com/en/java/javase/11/docs/api/java.base/java/lang/Exception.html?is-external=true" target="_top" xlink:actuate="onRequest" xlink:show="new" xlink:title="https://docs.oracle.com/en/java/javase/11/docs/api/java.base/java/lang/Exception.html?is-external=true" xlink:type="simple"><rect fill="#FEFECE" filter="url(#f1y0ud7dh33y52)" height="37.9375" id="java.lang.Exception" style="stroke: #A80036; stroke-width: 1.5;" width="100" x="80" y="8"/><ellipse cx="95" cy="26.9688" fill="#ADD1B2" rx="11" ry="11" style="stroke: #A80036; stroke-width: 1.0;"/><path d="M97.9688,32.6094 Q97.3906,32.9063 96.75,33.0469 Q96.1094,33.2031 95.4063,33.2031 Q92.9063,33.2031 91.5781,31.5625 Q90.2656,29.9063 90.2656,26.7813 Q90.2656,23.6563 91.5781,22 Q92.9063,20.3438 95.4063,20.3438 Q96.1094,20.3438 96.75,20.5 Q97.4063,20.6563 97.9688,20.9531 L97.9688,23.6719 Q97.3438,23.0938 96.75,22.8281 Q96.1563,22.5469 95.5313,22.5469 Q94.1875,22.5469 93.5,23.625 Q92.8125,24.6875 92.8125,26.7813 Q92.8125,28.875 93.5,29.9531 Q94.1875,31.0156 95.5313,31.0156 Q96.1563,31.0156 96.75,30.75 Q97.3438,30.4688 97.9688,29.8906 L97.9688,32.6094 Z "/><text fill="#000000" font-family="sans-serif" font-size="14" lengthAdjust="spacingAndGlyphs" textLength="68" x="109" y="25.9951">Exception</text><text fill="#000000" font-family="sans-serif" font-size="10" lengthAdjust="spacingAndGlyphs" textLength="43" x="121.5" y="38.5791">java.lang</text></a><!--link java.lang.Exception to io.input.ParserException--><path d="M130,66.2842 C130,78.6422 130,92.5722 130,105.9877 " fill="none" id="java.lang.Exception-io.input.ParserException" style="stroke: #A80036; stroke-width: 1.0;"/><polygon fill="none" points="123.0001,66.1883,130,46.1883,137.0001,66.1883,123.0001,66.1883" style="stroke: #A80036; stroke-width: 1.0;"/><text fill="#888888" font-family="sans-serif" font-size="10" lengthAdjust="spacingAndGlyphs" textLength="186" x="43" y="243.2822">UMLDoclet 2.0.3, PlantUML 1.2019.06</text><!--
@startuml
    set namespaceSeparator none
    hide empty fields
    hide empty methods

    class "<size:14>ParserException\n<size:10>io.input" as io.input.ParserException [[ParserException.html]] {
        {static} -serialVersionUID: long
        {static} -COMPARISON_MSG: String
        +ParserException(String)
        +ParserException(Throwable)
        +ParserException(String, Object, Object)
    }

    class "<size:14>Exception\n<size:10>java.lang" as java.lang.Exception [[https://docs.oracle.com/en/java/javase/11/docs/api/java.base/java/lang/Exception.html?is-external=true]]

    java.lang.Exception <|- - io.input.ParserException

    center footer UMLDoclet 2.0.3, PlantUML 1.2019.06
@enduml

PlantUML version 1.2019.06(Fri May 24 19:10:25 CEST 2019)
(APACHE source distribution)
Java Runtime: OpenJDK Runtime Environment
JVM: OpenJDK 64-Bit Server VM
Java Version: 11.0.4+4-post-Debian-1
Operating System: Linux
OS Version: 4.19.0-5-amd64
Default Encoding: UTF-8
Language: fr
Country: FR
--></g></svg>