<?xml version="1.0" encoding="UTF-8" standalone="no"?><svg xmlns="http://www.w3.org/2000/svg" xmlns:xlink="http://www.w3.org/1999/xlink" contentScriptType="application/ecmascript" contentStyleType="text/css" height="145px" preserveAspectRatio="none" style="width:242px;height:145px;" version="1.1" viewBox="0 0 242 145" width="242px" zoomAndPan="magnify"><defs><filter height="300%" id="fwl2w4x66kx2w" width="300%" x="-1" y="-1"><feGaussianBlur result="blurOut" stdDeviation="2.0"/><feColorMatrix in="blurOut" result="blurOut2" type="matrix" values="0 0 0 0 0 0 0 0 0 0 0 0 0 0 0 0 0 0 .4 0"/><feOffset dx="4.0" dy="4.0" in="blurOut2" result="blurOut3"/><feBlend in="SourceGraphic" in2="blurOut3" mode="normal"/></filter></defs><g><!--class io.input.TsvParser--><a href="TsvParser.html" target="_top" xlink:actuate="onRequest" xlink:show="new" xlink:title="TsvParser.html" xlink:type="simple"><rect fill="#FEFECE" filter="url(#fwl2w4x66kx2w)" height="105.1563" id="io.input.TsvParser" style="stroke: #A80036; stroke-width: 1.5;" width="225" x="6" y="8"/><ellipse cx="80.25" cy="26.9688" fill="#ADD1B2" rx="11" ry="11" style="stroke: #A80036; stroke-width: 1.0;"/><path d="M83.2188,32.6094 Q82.6406,32.9063 82,33.0469 Q81.3594,33.2031 80.6563,33.2031 Q78.1563,33.2031 76.8281,31.5625 Q75.5156,29.9063 75.5156,26.7813 Q75.5156,23.6563 76.8281,22 Q78.1563,20.3438 80.6563,20.3438 Q81.3594,20.3438 82,20.5 Q82.6563,20.6563 83.2188,20.9531 L83.2188,23.6719 Q82.5938,23.0938 82,22.8281 Q81.4063,22.5469 80.7813,22.5469 Q79.4375,22.5469 78.75,23.625 Q78.0625,24.6875 78.0625,26.7813 Q78.0625,28.875 78.75,29.9531 Q79.4375,31.0156 80.7813,31.0156 Q81.4063,31.0156 82,30.75 Q82.5938,30.4688 83.2188,29.8906 L83.2188,32.6094 Z "/><text fill="#000000" font-family="sans-serif" font-size="14" lengthAdjust="spacingAndGlyphs" textLength="68" x="100.75" y="25.9951">TsvParser</text><text fill="#000000" font-family="sans-serif" font-size="10" lengthAdjust="spacingAndGlyphs" textLength="35" x="117.25" y="38.5791">io.input</text><line style="stroke: #A80036; stroke-width: 1.5;" x1="7" x2="230" y1="45.9375" y2="45.9375"/><rect fill="none" height="6" style="stroke: #C82930; stroke-width: 1.0;" width="6" x="14" y="54.8398"/><text fill="#000000" font-family="sans-serif" font-size="11" lengthAdjust="spacingAndGlyphs" text-decoration="underline" textLength="94" x="26" y="60.1479">LOGGER: Logger</text><line style="stroke: #A80036; stroke-width: 1.5;" x1="7" x2="230" y1="66.7422" y2="66.7422"/><ellipse cx="17" cy="78.6445" fill="#84BE84" rx="3" ry="3" style="stroke: #038048; stroke-width: 1.0;"/><text fill="#000000" font-family="sans-serif" font-size="11" lengthAdjust="spacingAndGlyphs" textLength="148" x="26" y="80.9526">parse(File): List&lt;String[]&gt;</text><ellipse cx="17" cy="91.4492" fill="#84BE84" rx="3" ry="3" style="stroke: #038048; stroke-width: 1.0;"/><text fill="#000000" font-family="sans-serif" font-size="11" lengthAdjust="spacingAndGlyphs" textLength="199" x="26" y="93.7573">parse(InputStream): List&lt;String[]&gt;</text><ellipse cx="17" cy="104.2539" fill="#84BE84" rx="3" ry="3" style="stroke: #038048; stroke-width: 1.0;"/><text fill="#000000" font-family="sans-serif" font-size="11" lengthAdjust="spacingAndGlyphs" textLength="169" x="26" y="106.562">parse(Reader): List&lt;String[]&gt;</text></a><text fill="#888888" font-family="sans-serif" font-size="10" lengthAdjust="spacingAndGlyphs" textLength="186" x="31.5" y="132.2822">UMLDoclet 2.0.3, PlantUML 1.2019.06</text><!--
@startuml
    set namespaceSeparator none
    hide empty fields
    hide empty methods

    class "<size:14>TsvParser\n<size:10>io.input" as io.input.TsvParser [[TsvParser.html]] {
        {static} -LOGGER: Logger
        +parse(File): List<String[]>
        +parse(InputStream): List<String[]>
        +parse(Reader): List<String[]>
    }

    center footer UMLDoclet 2.0.3, PlantUML 1.2019.06
@enduml

PlantUML version 1.2019.06(Fri May 24 19:10:25 CEST 2019)
(APACHE source distribution)
Java Runtime: OpenJDK Runtime Environment
JVM: OpenJDK 64-Bit Server VM
Java Version: 11.0.4+4-post-Debian-1
Operating System: Linux
OS Version: 4.19.0-5-amd64
Default Encoding: UTF-8
Language: fr
Country: FR
--></g></svg>