<?xml version="1.0" encoding="UTF-8" standalone="no"?><svg xmlns="http://www.w3.org/2000/svg" xmlns:xlink="http://www.w3.org/1999/xlink" contentScriptType="application/ecmascript" contentStyleType="text/css" height="556px" preserveAspectRatio="none" style="width:1613px;height:556px;" version="1.1" viewBox="0 0 1613 556" width="1613px" zoomAndPan="magnify"><defs><filter height="300%" id="f1a5gl6ixp0z01" width="300%" x="-1" y="-1"><feGaussianBlur result="blurOut" stdDeviation="2.0"/><feColorMatrix in="blurOut" result="blurOut2" type="matrix" values="0 0 0 0 0 0 0 0 0 0 0 0 0 0 0 0 0 0 .4 0"/><feOffset dx="4.0" dy="4.0" in="blurOut2" result="blurOut3"/><feBlend in="SourceGraphic" in2="blurOut3" mode="normal"/></filter></defs><g><!--cluster dao--><polygon fill="#FFFFFF" filter="url(#f1a5gl6ixp0z01)" points="14,143,49,143,56,165.2969,1591,165.2969,1591,516,14,516,14,143" style="stroke: #000000; stroke-width: 1.5;"/><line style="stroke: #000000; stroke-width: 1.5;" x1="14" x2="56" y1="165.2969" y2="165.2969"/><text fill="#000000" font-family="sans-serif" font-size="14" font-weight="bold" lengthAdjust="spacingAndGlyphs" textLength="29" x="18" y="157.9951">dao</text><!--cluster java.lang--><polygon fill="#FFFFFF" filter="url(#f1a5gl6ixp0z01)" points="135,16,210,16,217,38.2969,303,38.2969,303,112,135,112,135,16" style="stroke: #000000; stroke-width: 1.5;"/><line style="stroke: #000000; stroke-width: 1.5;" x1="135" x2="217" y1="38.2969" y2="38.2969"/><text fill="#000000" font-family="sans-serif" font-size="14" font-weight="bold" lengthAdjust="spacingAndGlyphs" textLength="69" x="139" y="30.9951">java.lang</text><!--class dao.DaoFactory--><a href="DaoFactory.html" target="_top" xlink:actuate="onRequest" xlink:show="new" xlink:title="DaoFactory.html" xlink:type="simple"><rect fill="#FEFECE" filter="url(#f1a5gl6ixp0z01)" height="60.8047" id="dao.DaoFactory" style="stroke: #A80036; stroke-width: 1.5;" width="280" x="564" y="208.5"/><ellipse cx="663.75" cy="224.5" fill="#A9DCDF" rx="11" ry="11" style="stroke: #A80036; stroke-width: 1.0;"/><path d="M663.8594,219.8438 L662.7031,224.9219 L665.0313,224.9219 L663.8594,219.8438 Z M662.375,217.6094 L665.3594,217.6094 L668.7188,230 L666.2656,230 L665.5,226.9375 L662.2188,226.9375 L661.4688,230 L659.0313,230 L662.375,217.6094 Z "/><text fill="#000000" font-family="sans-serif" font-size="12" font-style="italic" lengthAdjust="spacingAndGlyphs" textLength="72" x="684.25" y="228.6543">DaoFactory</text><line style="stroke: #A80036; stroke-width: 1.5;" x1="565" x2="843" y1="240.5" y2="240.5"/><line style="stroke: #A80036; stroke-width: 1.5;" x1="565" x2="843" y1="248.5" y2="248.5"/><ellipse cx="575" cy="260.4023" fill="#84BE84" rx="3" ry="3" style="stroke: #038048; stroke-width: 1.0;"/><text fill="#000000" font-family="sans-serif" font-size="11" lengthAdjust="spacingAndGlyphs" text-decoration="underline" textLength="254" x="584" y="262.7104">getDaoFactory(PersistenceType): DaoFactory</text></a><!--class dao.DaoFactory.PersistenceType--><a href="DaoFactory.PersistenceType.html" target="_top" xlink:actuate="onRequest" xlink:show="new" xlink:title="DaoFactory.PersistenceType.html" xlink:type="simple"><rect fill="#FEFECE" filter="url(#f1a5gl6ixp0z01)" height="60.8047" id="dao.DaoFactory.PersistenceType" style="stroke: #A80036; stroke-width: 1.5;" width="210" x="22" y="447"/><ellipse cx="37" cy="463" fill="#EB937F" rx="11" ry="11" style="stroke: #A80036; stroke-width: 1.0;"/><path d="M41.1094,469 L33.3906,469 L33.3906,456.6094 L41.1094,456.6094 L41.1094,458.7656 L35.8438,458.7656 L35.8438,461.4375 L40.6094,461.4375 L40.6094,463.5938 L35.8438,463.5938 L35.8438,466.8438 L41.1094,466.8438 L41.1094,469 Z "/><text fill="#000000" font-family="sans-serif" font-size="12" lengthAdjust="spacingAndGlyphs" textLength="178" x="51" y="467.1543">DaoFactory.PersistenceType</text><line style="stroke: #A80036; stroke-width: 1.5;" x1="23" x2="231" y1="479" y2="479"/><ellipse cx="33" cy="490.9023" fill="none" rx="3" ry="3" style="stroke: #038048; stroke-width: 1.0;"/><text fill="#000000" font-family="sans-serif" font-size="11" lengthAdjust="spacingAndGlyphs" text-decoration="underline" textLength="17" x="42" y="493.2104">JPA</text><line style="stroke: #A80036; stroke-width: 1.5;" x1="23" x2="231" y1="499.8047" y2="499.8047"/></a><!--class dao.InstanceDao--><a href="InstanceDao.html" target="_top" xlink:actuate="onRequest" xlink:show="new" xlink:title="InstanceDao.html" xlink:type="simple"><rect fill="#FEFECE" filter="url(#f1a5gl6ixp0z01)" height="60.8047" id="dao.InstanceDao" style="stroke: #A80036; stroke-width: 1.5;" width="191" x="720.5" y="447"/><ellipse cx="772.25" cy="463" fill="#B4A7E5" rx="11" ry="11" style="stroke: #A80036; stroke-width: 1.0;"/><path d="M768.1719,458.7656 L768.1719,456.6094 L775.5625,456.6094 L775.5625,458.7656 L773.0938,458.7656 L773.0938,466.8438 L775.5625,466.8438 L775.5625,469 L768.1719,469 L768.1719,466.8438 L770.6406,466.8438 L770.6406,458.7656 L768.1719,458.7656 Z "/><text fill="#000000" font-family="sans-serif" font-size="12" font-style="italic" lengthAdjust="spacingAndGlyphs" textLength="79" x="792.75" y="467.1543">InstanceDao</text><line style="stroke: #A80036; stroke-width: 1.5;" x1="721.5" x2="910.5" y1="479" y2="479"/><line style="stroke: #A80036; stroke-width: 1.5;" x1="721.5" x2="910.5" y1="487" y2="487"/><ellipse cx="731.5" cy="498.9023" fill="#84BE84" rx="3" ry="3" style="stroke: #038048; stroke-width: 1.0;"/><text fill="#000000" font-family="sans-serif" font-size="11" font-style="italic" lengthAdjust="spacingAndGlyphs" textLength="165" x="740.5" y="501.2104">findByName(String): Instance</text></a><!--class dao.Dao--><a href="Dao.html" target="_top" xlink:actuate="onRequest" xlink:show="new" xlink:title="Dao.html" xlink:type="simple"><rect fill="#FEFECE" filter="url(#f1a5gl6ixp0z01)" height="137.6328" id="dao.Dao" style="stroke: #A80036; stroke-width: 1.5;" width="157" x="1042.5" y="170"/><ellipse cx="1098.75" cy="186" fill="#B4A7E5" rx="11" ry="11" style="stroke: #A80036; stroke-width: 1.0;"/><path d="M1094.6719,181.7656 L1094.6719,179.6094 L1102.0625,179.6094 L1102.0625,181.7656 L1099.5938,181.7656 L1099.5938,189.8438 L1102.0625,189.8438 L1102.0625,192 L1094.6719,192 L1094.6719,189.8438 L1097.1406,189.8438 L1097.1406,181.7656 L1094.6719,181.7656 Z "/><text fill="#000000" font-family="sans-serif" font-size="12" font-style="italic" lengthAdjust="spacingAndGlyphs" textLength="25" x="1119.25" y="190.1543">Dao</text><rect fill="#FFFFFF" height="15.9688" style="stroke: #000000; stroke-width: 1.0; stroke-dasharray: 2.0,2.0;" width="9" x="1193.5" y="167"/><text fill="#000000" font-family="sans-serif" font-size="12" font-style="italic" lengthAdjust="spacingAndGlyphs" textLength="7" x="1194.5" y="179.1387">T</text><line style="stroke: #A80036; stroke-width: 1.5;" x1="1043.5" x2="1198.5" y1="202" y2="202"/><line style="stroke: #A80036; stroke-width: 1.5;" x1="1043.5" x2="1198.5" y1="210" y2="210"/><ellipse cx="1053.5" cy="221.9023" fill="#84BE84" rx="3" ry="3" style="stroke: #038048; stroke-width: 1.0;"/><text fill="#000000" font-family="sans-serif" font-size="11" font-style="italic" lengthAdjust="spacingAndGlyphs" textLength="104" x="1062.5" y="224.2104">create(T): boolean</text><ellipse cx="1053.5" cy="234.707" fill="#84BE84" rx="3" ry="3" style="stroke: #038048; stroke-width: 1.0;"/><text fill="#000000" font-family="sans-serif" font-size="11" font-style="italic" lengthAdjust="spacingAndGlyphs" textLength="58" x="1062.5" y="237.0151">find(int): T</text><ellipse cx="1053.5" cy="247.5117" fill="#84BE84" rx="3" ry="3" style="stroke: #038048; stroke-width: 1.0;"/><text fill="#000000" font-family="sans-serif" font-size="11" font-style="italic" lengthAdjust="spacingAndGlyphs" textLength="131" x="1062.5" y="249.8198">findAll(): Collection&lt;T&gt;</text><ellipse cx="1053.5" cy="260.3164" fill="#84BE84" rx="3" ry="3" style="stroke: #038048; stroke-width: 1.0;"/><text fill="#000000" font-family="sans-serif" font-size="11" font-style="italic" lengthAdjust="spacingAndGlyphs" textLength="107" x="1062.5" y="262.6245">update(T): boolean</text><ellipse cx="1053.5" cy="273.1211" fill="#84BE84" rx="3" ry="3" style="stroke: #038048; stroke-width: 1.0;"/><text fill="#000000" font-family="sans-serif" font-size="11" font-style="italic" lengthAdjust="spacingAndGlyphs" textLength="103" x="1062.5" y="275.4292">delete(T): boolean</text><ellipse cx="1053.5" cy="285.9258" fill="#84BE84" rx="3" ry="3" style="stroke: #038048; stroke-width: 1.0;"/><text fill="#000000" font-family="sans-serif" font-size="11" font-style="italic" lengthAdjust="spacingAndGlyphs" textLength="110" x="1062.5" y="288.2339">deleteAll(): boolean</text><ellipse cx="1053.5" cy="298.7305" fill="#84BE84" rx="3" ry="3" style="stroke: #038048; stroke-width: 1.0;"/><text fill="#000000" font-family="sans-serif" font-size="11" font-style="italic" lengthAdjust="spacingAndGlyphs" textLength="69" x="1062.5" y="301.0386">close(): void</text></a><!--class dao.DaoException--><a href="DaoException.html" target="_top" xlink:actuate="onRequest" xlink:show="new" xlink:title="DaoException.html" xlink:type="simple"><rect fill="#FEFECE" filter="url(#f1a5gl6ixp0z01)" height="86.4141" id="dao.DaoException" style="stroke: #A80036; stroke-width: 1.5;" width="169" x="134.5" y="196"/><ellipse cx="172.45" cy="212" fill="#ADD1B2" rx="11" ry="11" style="stroke: #A80036; stroke-width: 1.0;"/><path d="M175.4188,217.6406 Q174.8406,217.9375 174.2,218.0781 Q173.5594,218.2344 172.8563,218.2344 Q170.3563,218.2344 169.0281,216.5938 Q167.7156,214.9375 167.7156,211.8125 Q167.7156,208.6875 169.0281,207.0313 Q170.3563,205.375 172.8563,205.375 Q173.5594,205.375 174.2,205.5313 Q174.8563,205.6875 175.4188,205.9844 L175.4188,208.7031 Q174.7938,208.125 174.2,207.8594 Q173.6063,207.5781 172.9813,207.5781 Q171.6375,207.5781 170.95,208.6563 Q170.2625,209.7188 170.2625,211.8125 Q170.2625,213.9063 170.95,214.9844 Q171.6375,216.0469 172.9813,216.0469 Q173.6063,216.0469 174.2,215.7813 Q174.7938,215.5 175.4188,214.9219 L175.4188,217.6406 Z "/><text fill="#000000" font-family="sans-serif" font-size="12" lengthAdjust="spacingAndGlyphs" textLength="86" x="191.55" y="216.1543">DaoException</text><line style="stroke: #A80036; stroke-width: 1.5;" x1="135.5" x2="302.5" y1="228" y2="228"/><rect fill="none" height="6" style="stroke: #C82930; stroke-width: 1.0;" width="6" x="142.5" y="236.9023"/><text fill="#000000" font-family="sans-serif" font-size="11" lengthAdjust="spacingAndGlyphs" text-decoration="underline" textLength="126" x="154.5" y="242.2104">serialVersionUID: long</text><line style="stroke: #A80036; stroke-width: 1.5;" x1="135.5" x2="302.5" y1="248.8047" y2="248.8047"/><ellipse cx="145.5" cy="260.707" fill="#84BE84" rx="3" ry="3" style="stroke: #038048; stroke-width: 1.0;"/><text fill="#000000" font-family="sans-serif" font-size="11" lengthAdjust="spacingAndGlyphs" textLength="118" x="154.5" y="263.0151">DaoException(String)</text><ellipse cx="145.5" cy="273.5117" fill="#84BE84" rx="3" ry="3" style="stroke: #038048; stroke-width: 1.0;"/><text fill="#000000" font-family="sans-serif" font-size="11" lengthAdjust="spacingAndGlyphs" textLength="143" x="154.5" y="275.8198">DaoException(Throwable)</text></a><!--class dao.RouteDao--><a href="RouteDao.html" target="_top" xlink:actuate="onRequest" xlink:show="new" xlink:title="RouteDao.html" xlink:type="simple"><rect fill="#FEFECE" filter="url(#f1a5gl6ixp0z01)" height="48" id="dao.RouteDao" style="stroke: #A80036; stroke-width: 1.5;" width="94" x="1489" y="453.5"/><ellipse cx="1504" cy="469.5" fill="#B4A7E5" rx="11" ry="11" style="stroke: #A80036; stroke-width: 1.0;"/><path d="M1499.9219,465.2656 L1499.9219,463.1094 L1507.3125,463.1094 L1507.3125,465.2656 L1504.8438,465.2656 L1504.8438,473.3438 L1507.3125,473.3438 L1507.3125,475.5 L1499.9219,475.5 L1499.9219,473.3438 L1502.3906,473.3438 L1502.3906,465.2656 L1499.9219,465.2656 Z "/><text fill="#000000" font-family="sans-serif" font-size="12" font-style="italic" lengthAdjust="spacingAndGlyphs" textLength="62" x="1518" y="473.6543">RouteDao</text><line style="stroke: #A80036; stroke-width: 1.5;" x1="1490" x2="1582" y1="485.5" y2="485.5"/><line style="stroke: #A80036; stroke-width: 1.5;" x1="1490" x2="1582" y1="493.5" y2="493.5"/></a><!--class dao.DepotDao--><a href="DepotDao.html" target="_top" xlink:actuate="onRequest" xlink:show="new" xlink:title="DepotDao.html" xlink:type="simple"><rect fill="#FEFECE" filter="url(#f1a5gl6ixp0z01)" height="48" id="dao.DepotDao" style="stroke: #A80036; stroke-width: 1.5;" width="95" x="412.5" y="453.5"/><ellipse cx="427.5" cy="469.5" fill="#B4A7E5" rx="11" ry="11" style="stroke: #A80036; stroke-width: 1.0;"/><path d="M423.4219,465.2656 L423.4219,463.1094 L430.8125,463.1094 L430.8125,465.2656 L428.3438,465.2656 L428.3438,473.3438 L430.8125,473.3438 L430.8125,475.5 L423.4219,475.5 L423.4219,473.3438 L425.8906,473.3438 L425.8906,465.2656 L423.4219,465.2656 Z "/><text fill="#000000" font-family="sans-serif" font-size="12" font-style="italic" lengthAdjust="spacingAndGlyphs" textLength="63" x="441.5" y="473.6543">DepotDao</text><line style="stroke: #A80036; stroke-width: 1.5;" x1="413.5" x2="506.5" y1="485.5" y2="485.5"/><line style="stroke: #A80036; stroke-width: 1.5;" x1="413.5" x2="506.5" y1="493.5" y2="493.5"/></a><!--class dao.ClientDao--><a href="ClientDao.html" target="_top" xlink:actuate="onRequest" xlink:show="new" xlink:title="ClientDao.html" xlink:type="simple"><rect fill="#FEFECE" filter="url(#f1a5gl6ixp0z01)" height="60.8047" id="dao.ClientDao" style="stroke: #A80036; stroke-width: 1.5;" width="227" x="1226.5" y="447"/><ellipse cx="1305.75" cy="463" fill="#B4A7E5" rx="11" ry="11" style="stroke: #A80036; stroke-width: 1.0;"/><path d="M1301.6719,458.7656 L1301.6719,456.6094 L1309.0625,456.6094 L1309.0625,458.7656 L1306.5938,458.7656 L1306.5938,466.8438 L1309.0625,466.8438 L1309.0625,469 L1301.6719,469 L1301.6719,466.8438 L1304.1406,466.8438 L1304.1406,458.7656 L1301.6719,458.7656 Z "/><text fill="#000000" font-family="sans-serif" font-size="12" font-style="italic" lengthAdjust="spacingAndGlyphs" textLength="60" x="1326.25" y="467.1543">ClientDao</text><line style="stroke: #A80036; stroke-width: 1.5;" x1="1227.5" x2="1452.5" y1="479" y2="479"/><line style="stroke: #A80036; stroke-width: 1.5;" x1="1227.5" x2="1452.5" y1="487" y2="487"/><ellipse cx="1237.5" cy="498.9023" fill="#84BE84" rx="3" ry="3" style="stroke: #038048; stroke-width: 1.0;"/><text fill="#000000" font-family="sans-serif" font-size="11" font-style="italic" lengthAdjust="spacingAndGlyphs" textLength="201" x="1246.5" y="501.2104">findNotServed(): Collection&lt;Client&gt;</text></a><!--class dao.VehiculeDao--><a href="VehiculeDao.html" target="_top" xlink:actuate="onRequest" xlink:show="new" xlink:title="VehiculeDao.html" xlink:type="simple"><rect fill="#FEFECE" filter="url(#f1a5gl6ixp0z01)" height="60.8047" id="dao.VehiculeDao" style="stroke: #A80036; stroke-width: 1.5;" width="245" x="946.5" y="447"/><ellipse cx="1025.75" cy="463" fill="#B4A7E5" rx="11" ry="11" style="stroke: #A80036; stroke-width: 1.0;"/><path d="M1021.6719,458.7656 L1021.6719,456.6094 L1029.0625,456.6094 L1029.0625,458.7656 L1026.5938,458.7656 L1026.5938,466.8438 L1029.0625,466.8438 L1029.0625,469 L1021.6719,469 L1021.6719,466.8438 L1024.1406,466.8438 L1024.1406,458.7656 L1021.6719,458.7656 Z "/><text fill="#000000" font-family="sans-serif" font-size="12" font-style="italic" lengthAdjust="spacingAndGlyphs" textLength="78" x="1046.25" y="467.1543">VehiculeDao</text><line style="stroke: #A80036; stroke-width: 1.5;" x1="947.5" x2="1190.5" y1="479" y2="479"/><line style="stroke: #A80036; stroke-width: 1.5;" x1="947.5" x2="1190.5" y1="487" y2="487"/><ellipse cx="957.5" cy="498.9023" fill="#84BE84" rx="3" ry="3" style="stroke: #038048; stroke-width: 1.0;"/><text fill="#000000" font-family="sans-serif" font-size="11" font-style="italic" lengthAdjust="spacingAndGlyphs" textLength="219" x="966.5" y="501.2104">findAllNotUsed(): Collection&lt;Vehicule&gt;</text></a><!--class dao.PlanningDao--><a href="PlanningDao.html" target="_top" xlink:actuate="onRequest" xlink:show="new" xlink:title="PlanningDao.html" xlink:type="simple"><rect fill="#FEFECE" filter="url(#f1a5gl6ixp0z01)" height="48" id="dao.PlanningDao" style="stroke: #A80036; stroke-width: 1.5;" width="110" x="267" y="453.5"/><ellipse cx="282" cy="469.5" fill="#B4A7E5" rx="11" ry="11" style="stroke: #A80036; stroke-width: 1.0;"/><path d="M277.9219,465.2656 L277.9219,463.1094 L285.3125,463.1094 L285.3125,465.2656 L282.8438,465.2656 L282.8438,473.3438 L285.3125,473.3438 L285.3125,475.5 L277.9219,475.5 L277.9219,473.3438 L280.3906,473.3438 L280.3906,465.2656 L277.9219,465.2656 Z "/><text fill="#000000" font-family="sans-serif" font-size="12" font-style="italic" lengthAdjust="spacingAndGlyphs" textLength="78" x="296" y="473.6543">PlanningDao</text><line style="stroke: #A80036; stroke-width: 1.5;" x1="268" x2="376" y1="485.5" y2="485.5"/><line style="stroke: #A80036; stroke-width: 1.5;" x1="268" x2="376" y1="493.5" y2="493.5"/></a><!--class dao.EmplacementDao--><a href="EmplacementDao.html" target="_top" xlink:actuate="onRequest" xlink:show="new" xlink:title="EmplacementDao.html" xlink:type="simple"><rect fill="#FEFECE" filter="url(#f1a5gl6ixp0z01)" height="48" id="dao.EmplacementDao" style="stroke: #A80036; stroke-width: 1.5;" width="142" x="543" y="453.5"/><ellipse cx="558" cy="469.5" fill="#B4A7E5" rx="11" ry="11" style="stroke: #A80036; stroke-width: 1.0;"/><path d="M553.9219,465.2656 L553.9219,463.1094 L561.3125,463.1094 L561.3125,465.2656 L558.8438,465.2656 L558.8438,473.3438 L561.3125,473.3438 L561.3125,475.5 L553.9219,475.5 L553.9219,473.3438 L556.3906,473.3438 L556.3906,465.2656 L553.9219,465.2656 Z "/><text fill="#000000" font-family="sans-serif" font-size="12" font-style="italic" lengthAdjust="spacingAndGlyphs" textLength="110" x="572" y="473.6543">EmplacementDao</text><line style="stroke: #A80036; stroke-width: 1.5;" x1="544" x2="684" y1="485.5" y2="485.5"/><line style="stroke: #A80036; stroke-width: 1.5;" x1="544" x2="684" y1="493.5" y2="493.5"/></a><!--class java.lang.Exception--><a href="https://docs.oracle.com/en/java/javase/11/docs/api/java.base/java/lang/Exception.html?is-external=true" target="_top" xlink:actuate="onRequest" xlink:show="new" xlink:title="https://docs.oracle.com/en/java/javase/11/docs/api/java.base/java/lang/Exception.html?is-external=true" xlink:type="simple"><rect fill="#FEFECE" filter="url(#f1a5gl6ixp0z01)" height="60.8047" id="java.lang.Exception" style="stroke: #A80036; stroke-width: 1.5;" width="152" x="143" y="43"/><ellipse cx="184.55" cy="59" fill="#ADD1B2" rx="11" ry="11" style="stroke: #A80036; stroke-width: 1.0;"/><path d="M187.5188,64.6406 Q186.9406,64.9375 186.3,65.0781 Q185.6594,65.2344 184.9563,65.2344 Q182.4563,65.2344 181.1281,63.5938 Q179.8156,61.9375 179.8156,58.8125 Q179.8156,55.6875 181.1281,54.0313 Q182.4563,52.375 184.9563,52.375 Q185.6594,52.375 186.3,52.5313 Q186.9563,52.6875 187.5188,52.9844 L187.5188,55.7031 Q186.8938,55.125 186.3,54.8594 Q185.7063,54.5781 185.0813,54.5781 Q183.7375,54.5781 183.05,55.6563 Q182.3625,56.7188 182.3625,58.8125 Q182.3625,60.9063 183.05,61.9844 Q183.7375,63.0469 185.0813,63.0469 Q185.7063,63.0469 186.3,62.7813 Q186.8938,62.5 187.5188,61.9219 L187.5188,64.6406 Z "/><text fill="#000000" font-family="sans-serif" font-size="12" lengthAdjust="spacingAndGlyphs" textLength="61" x="204.45" y="63.1543">Exception</text><line style="stroke: #A80036; stroke-width: 1.5;" x1="144" x2="294" y1="75" y2="75"/><polygon fill="none" points="154,82.9023,150,88.9023,158,88.9023" style="stroke: #1963A0; stroke-width: 1.0;"/><text fill="#000000" font-family="sans-serif" font-size="11" lengthAdjust="spacingAndGlyphs" text-decoration="underline" textLength="126" x="163" y="89.2104">serialVersionUID: long</text><line style="stroke: #A80036; stroke-width: 1.5;" x1="144" x2="294" y1="95.8047" y2="95.8047"/></a><!--link dao.DaoFactory to dao.ClientDao--><path d="M785.5196,269.5698 C906.0616,314.7731 1130.8246,399.0592 1253.9299,445.2237 " fill="none" id="dao.DaoFactory-dao.ClientDao" style="stroke: #A80036; stroke-width: 1.0;"/><polygon fill="#A80036" points="1258.628,446.9855,1251.6056,440.08,1253.9464,445.2298,1248.7965,447.5706,1258.628,446.9855" style="stroke: #A80036; stroke-width: 1.0;"/><text fill="#000000" font-family="sans-serif" font-size="13" lengthAdjust="spacingAndGlyphs" textLength="60" x="1096" y="382.0669">clientDao</text><!--link dao.DaoFactory to dao.DepotDao--><path d="M612.6381,269.6292 C577.2551,285.3497 538.8828,307.7034 512,338 C484.0265,369.5257 470.5915,417.4899 464.5236,448.1595 " fill="none" id="dao.DaoFactory-dao.DepotDao" style="stroke: #A80036; stroke-width: 1.0;"/><polygon fill="#A80036" points="463.543,453.3021,469.158,445.2106,464.4796,448.3906,461.2996,443.7121,463.543,453.3021" style="stroke: #A80036; stroke-width: 1.0;"/><text fill="#000000" font-family="sans-serif" font-size="13" lengthAdjust="spacingAndGlyphs" textLength="63" x="491" y="382.0669">depotDao</text><!--link dao.DaoFactory to dao.EmplacementDao--><path d="M692.4183,269.6914 C674.9202,316.0615 641.9779,403.3585 624.8945,448.6297 " fill="none" id="dao.DaoFactory-dao.EmplacementDao" style="stroke: #A80036; stroke-width: 1.0;"/><polygon fill="#A80036" points="623.0917,453.4069,630.0116,446.3987,624.857,448.7289,622.5268,443.5743,623.0917,453.4069" style="stroke: #A80036; stroke-width: 1.0;"/><text fill="#000000" font-family="sans-serif" font-size="13" lengthAdjust="spacingAndGlyphs" textLength="115" x="655" y="382.0669">emplacementDao</text><!--link dao.DaoFactory to dao.PlanningDao--><path d="M587.2201,269.5452 C524.7135,290.1414 449.2471,322.2319 393,369 C366.8734,390.7237 346.8737,424.5484 334.8584,448.6529 " fill="none" id="dao.DaoFactory-dao.PlanningDao" style="stroke: #A80036; stroke-width: 1.0;"/><polygon fill="#A80036" points="332.5623,453.3377,340.1149,447.0165,334.7628,448.8479,332.9313,443.4958,332.5623,453.3377" style="stroke: #A80036; stroke-width: 1.0;"/><text fill="#000000" font-family="sans-serif" font-size="13" lengthAdjust="spacingAndGlyphs" textLength="80" x="394" y="382.0669">planningDao</text><!--link dao.DaoFactory to dao.RouteDao--><path d="M844.1301,269.2671 C999.6605,304.6337 1256.9675,368.4415 1471,447 C1475.2968,448.5771 1479.6983,450.3293 1484.0859,452.1738 " fill="none" id="dao.DaoFactory-dao.RouteDao" style="stroke: #A80036; stroke-width: 1.0;"/><polygon fill="#A80036" points="1488.836,454.2077,1482.137,446.988,1484.2396,452.2396,1478.9881,454.3422,1488.836,454.2077" style="stroke: #A80036; stroke-width: 1.0;"/><text fill="#000000" font-family="sans-serif" font-size="13" lengthAdjust="spacingAndGlyphs" textLength="60" x="1288" y="382.0669">routeDao</text><!--link dao.DaoFactory to dao.VehiculeDao--><path d="M750.9701,269.6914 C819.5491,314.5026 946.6221,397.5353 1017.6162,443.9246 " fill="none" id="dao.DaoFactory-dao.VehiculeDao" style="stroke: #A80036; stroke-width: 1.0;"/><polygon fill="#A80036" points="1022.2101,446.9264,1016.8639,438.6549,1018.0244,444.1914,1012.4879,445.352,1022.2101,446.9264" style="stroke: #A80036; stroke-width: 1.0;"/><text fill="#000000" font-family="sans-serif" font-size="13" lengthAdjust="spacingAndGlyphs" textLength="78" x="929" y="382.0669">vehiculeDao</text><!--link dao.DaoFactory to dao.InstanceDao--><path d="M723.0444,269.5006 C738.7301,295.377 760.9259,333.7993 777,369 C787.8219,392.6991 797.7209,420.3464 804.838,441.8012 " fill="none" id="dao.DaoFactory-dao.InstanceDao" style="stroke: #A80036; stroke-width: 1.0;"/><polygon fill="#A80036" points="806.4043,446.5584,807.389,436.7589,804.8406,441.8092,799.7903,439.2608,806.4043,446.5584" style="stroke: #A80036; stroke-width: 1.0;"/><text fill="#000000" font-family="sans-serif" font-size="13" lengthAdjust="spacingAndGlyphs" textLength="80" x="784" y="382.0669">instanceDao</text><!--link dao.DaoFactory to dao.DaoFactory.PersistenceType--><path d="M597.4913,274.4959 C545.6251,292.4317 482.6053,315.1916 427,338 C343.0357,372.4409 248.4387,417.5072 188.3175,446.9639 " fill="none" id="dao.DaoFactory-dao.DaoFactory.PersistenceType" style="stroke: #A80036; stroke-width: 1.0;"/><ellipse cx="604.2444" cy="272.1721" fill="#FFFFFF" rx="8" ry="8" style="stroke: #A80036; stroke-width: 1.0;"/><line style="stroke: #A80036; stroke-width: 1.0;" x1="596.6797" x2="611.809" y1="274.7752" y2="269.569"/><line style="stroke: #A80036; stroke-width: 1.0;" x1="601.6412" x2="606.8475" y1="264.6075" y2="279.7368"/><!--link dao.Dao to dao.InstanceDao--><path d="M1119.2808,328.0478 C1115.0108,349.0327 1107.085,369.9404 1093,386 C1080.4143,400.35 986.5975,429.5285 911.5824,451.0954 " fill="none" id="dao.Dao-dao.InstanceDao" style="stroke: #A80036; stroke-width: 1.0; stroke-dasharray: 7.0,7.0;"/><polygon fill="none" points="1112.3942,326.7728,1122.3362,308.0603,1126.2335,328.8885,1112.3942,326.7728" style="stroke: #A80036; stroke-width: 1.0;"/><!--link java.lang.Exception to dao.DaoException--><path d="M219,124.3498 C219,147.2669 219,174.0383 219,195.9455 " fill="none" id="java.lang.Exception-dao.DaoException" style="stroke: #A80036; stroke-width: 1.0;"/><polygon fill="none" points="212.0001,124.2415,219,104.2414,226.0001,124.2414,212.0001,124.2415" style="stroke: #A80036; stroke-width: 1.0;"/><!--link dao.Dao to dao.RouteDao--><path d="M1219.5364,258.0684 C1279.9046,273.0129 1356.697,298.1134 1416,338 C1462.1245,369.0229 1500.9855,422.3196 1521.1485,453.2798 " fill="none" id="dao.Dao-dao.RouteDao" style="stroke: #A80036; stroke-width: 1.0; stroke-dasharray: 7.0,7.0;"/><polygon fill="none" points="1217.5921,264.8017,1199.7423,253.3829,1220.817,251.1782,1217.5921,264.8017" style="stroke: #A80036; stroke-width: 1.0;"/><!--link dao.Dao to dao.DepotDao--><path d="M1023.4776,269.8471 C951.7493,293.7692 852.6064,329.4355 769,369 C755.4956,375.3906 753.7378,380.1277 740,386 C649.0602,424.8728 618.7231,412.597 526,447 C519.9645,449.2394 513.7143,451.797 507.5746,454.4571 " fill="none" id="dao.Dao-dao.DepotDao" style="stroke: #A80036; stroke-width: 1.0; stroke-dasharray: 7.0,7.0;"/><polygon fill="none" points="1021.2959,263.1958,1042.4823,263.5695,1025.6871,276.4894,1021.2959,263.1958" style="stroke: #A80036; stroke-width: 1.0;"/><!--link dao.Dao to dao.ClientDao--><path d="M1219.4939,250.2792 C1292.442,264.495 1386.5746,296.5902 1431,369 C1448.4208,397.3945 1421.9059,426.1276 1393.0849,446.886 " fill="none" id="dao.Dao-dao.ClientDao" style="stroke: #A80036; stroke-width: 1.0; stroke-dasharray: 7.0,7.0;"/><polygon fill="none" points="1218.0021,257.1238,1199.5394,246.7251,1220.457,243.3407,1218.0021,257.1238" style="stroke: #A80036; stroke-width: 1.0;"/><!--link dao.Dao to dao.VehiculeDao--><path d="M1216.8543,288.6989 C1254.8853,315.3199 1284.7773,349.9941 1262,386 C1244.406,413.8123 1215.8149,433.3378 1185.9662,446.9796 " fill="none" id="dao.Dao-dao.VehiculeDao" style="stroke: #A80036; stroke-width: 1.0; stroke-dasharray: 7.0,7.0;"/><polygon fill="none" points="1212.8027,294.4135,1199.8842,277.6172,1220.4573,282.6914,1212.8027,294.4135" style="stroke: #A80036; stroke-width: 1.0;"/><!--link dao.Dao to dao.PlanningDao--><path d="M1022.8093,265.2884 C893.1187,300.0488 676.7657,358.1849 640,369 C530.3707,401.2488 502.2677,407.6019 395,447 C389.1981,449.131 383.1803,451.4552 377.2017,453.8389 " fill="none" id="dao.Dao-dao.PlanningDao" style="stroke: #A80036; stroke-width: 1.0; stroke-dasharray: 7.0,7.0;"/><polygon fill="none" points="1021.3196,258.4407,1042.4499,260.0253,1024.9434,271.9636,1021.3196,258.4407" style="stroke: #A80036; stroke-width: 1.0;"/><!--link dao.Dao to dao.EmplacementDao--><path d="M1025.3896,301.6208 C980.2888,329.5953 925.05,361.6654 873,386 C863.9954,390.2099 756.8331,427.7569 683.2069,453.4255 " fill="none" id="dao.Dao-dao.EmplacementDao" style="stroke: #A80036; stroke-width: 1.0; stroke-dasharray: 7.0,7.0;"/><polygon fill="none" points="1021.801,295.6088,1042.4665,290.9249,1029.2324,307.4737,1021.801,295.6088" style="stroke: #A80036; stroke-width: 1.0;"/><text fill="#888888" font-family="sans-serif" font-size="10" lengthAdjust="spacingAndGlyphs" textLength="186" x="715.5" y="543.2822">UMLDoclet 2.0.3, PlantUML 1.2019.06</text><!--
@startuml
    namespace dao {

        abstract class DaoFactory [[DaoFactory.html]] {
            {static} +getDaoFactory(PersistenceType): DaoFactory
        }

        enum dao.DaoFactory.PersistenceType [[DaoFactory.PersistenceType.html]] {
            {static} +JPA
        }

        interface InstanceDao [[InstanceDao.html]] {
            {abstract} +findByName(String): Instance
        }

        interface Dao<T> [[Dao.html]] {
            {abstract} +create(T): boolean
            {abstract} +find(int): T
            {abstract} +findAll(): Collection<T>
            {abstract} +update(T): boolean
            {abstract} +delete(T): boolean
            {abstract} +deleteAll(): boolean
            {abstract} +close(): void
        }

        class DaoException [[DaoException.html]] {
            {static} -serialVersionUID: long
            +DaoException(String)
            +DaoException(Throwable)
        }

        interface RouteDao [[RouteDao.html]]

        interface DepotDao [[DepotDao.html]]

        interface ClientDao [[ClientDao.html]] {
            {abstract} +findNotServed(): Collection<Client>
        }

        interface VehiculeDao [[VehiculeDao.html]] {
            {abstract} +findAllNotUsed(): Collection<Vehicule>
        }

        interface PlanningDao [[PlanningDao.html]]

        interface EmplacementDao [[EmplacementDao.html]]

        DaoFactory - -> ClientDao: clientDao
        DaoFactory - -> DepotDao: depotDao
        DaoFactory - -> EmplacementDao: emplacementDao
        DaoFactory - -> PlanningDao: planningDao
        DaoFactory - -> RouteDao: routeDao
        DaoFactory - -> VehiculeDao: vehiculeDao
        DaoFactory - -> InstanceDao: instanceDao
        DaoFactory +- - dao.DaoFactory.PersistenceType
        Dao <|.. InstanceDao
        java.lang.Exception <|- - DaoException
        Dao <|.. RouteDao
        Dao <|.. DepotDao
        Dao <|.. ClientDao
        Dao <|.. VehiculeDao
        Dao <|.. PlanningDao
        Dao <|.. EmplacementDao
    }

    namespace java.lang {
        class Exception [[https://docs.oracle.com/en/java/javase/11/docs/api/java.base/java/lang/Exception.html?is-external=true]] {
            {static} ~serialVersionUID: long
        }
    }

    center footer UMLDoclet 2.0.3, PlantUML 1.2019.06
@enduml

PlantUML version 1.2019.06(Fri May 24 19:10:25 CEST 2019)
(APACHE source distribution)
Java Runtime: OpenJDK Runtime Environment
JVM: OpenJDK 64-Bit Server VM
Java Version: 11.0.4+4-post-Debian-1
Operating System: Linux
OS Version: 4.19.0-5-amd64
Default Encoding: UTF-8
Language: fr
Country: FR
--></g></svg>