<?xml version="1.0" encoding="UTF-8" standalone="no"?><svg xmlns="http://www.w3.org/2000/svg" xmlns:xlink="http://www.w3.org/1999/xlink" contentScriptType="application/ecmascript" contentStyleType="text/css" height="316px" preserveAspectRatio="none" style="width:666px;height:316px;" version="1.1" viewBox="0 0 666 316" width="666px" zoomAndPan="magnify"><defs><filter height="300%" id="fvj8esveql9n3" width="300%" x="-1" y="-1"><feGaussianBlur result="blurOut" stdDeviation="2.0"/><feColorMatrix in="blurOut" result="blurOut2" type="matrix" values="0 0 0 0 0 0 0 0 0 0 0 0 0 0 0 0 0 0 .4 0"/><feOffset dx="4.0" dy="4.0" in="blurOut2" result="blurOut3"/><feBlend in="SourceGraphic" in2="blurOut3" mode="normal"/></filter></defs><g><!--class dao--><a href="dao/package-summary.html" target="_top" xlink:actuate="onRequest" xlink:show="new" xlink:title="dao/package-summary.html" xlink:type="simple"><rect fill="#FEFECE" filter="url(#fvj8esveql9n3)" height="23.9688" id="dao" style="stroke: #A80036; stroke-width: 1.5;" width="30" x="280" y="176"/><text fill="#000000" font-family="sans-serif" font-size="12" lengthAdjust="spacingAndGlyphs" textLength="24" x="283" y="192.1387">dao</text></a><!--class model--><a href="model/package-summary.html" target="_top" xlink:actuate="onRequest" xlink:show="new" xlink:title="model/package-summary.html" xlink:type="simple"><rect fill="#FEFECE" filter="url(#fvj8esveql9n3)" height="23.9688" id="model" style="stroke: #A80036; stroke-width: 1.5;" width="44" x="341" y="260"/><text fill="#000000" font-family="sans-serif" font-size="12" lengthAdjust="spacingAndGlyphs" textLength="38" x="344" y="276.1387">model</text></a><!--class dao.jpa--><a href="dao/jpa/package-summary.html" target="_top" xlink:actuate="onRequest" xlink:show="new" xlink:title="dao/jpa/package-summary.html" xlink:type="simple"><rect fill="#FEFECE" filter="url(#fvj8esveql9n3)" height="23.9688" id="dao.jpa" style="stroke: #A80036; stroke-width: 1.5;" width="53" x="320.5" y="92"/><text fill="#000000" font-family="sans-serif" font-size="12" lengthAdjust="spacingAndGlyphs" textLength="47" x="323.5" y="108.1387">dao.jpa</text></a><!--class template--><a href="template/package-summary.html" target="_top" xlink:actuate="onRequest" xlink:show="new" xlink:title="template/package-summary.html" xlink:type="simple"><rect fill="#FEFECE" filter="url(#fvj8esveql9n3)" height="23.9688" id="template" style="stroke: #A80036; stroke-width: 1.5;" width="62" x="422" y="8"/><text fill="#000000" font-family="sans-serif" font-size="12" lengthAdjust="spacingAndGlyphs" textLength="56" x="425" y="24.1387">template</text></a><!--class algo.iterative--><a href="algo/iterative/package-summary.html" target="_top" xlink:actuate="onRequest" xlink:show="new" xlink:title="algo/iterative/package-summary.html" xlink:type="simple"><rect fill="#FEFECE" filter="url(#fvj8esveql9n3)" height="23.9688" id="algo.iterative" style="stroke: #A80036; stroke-width: 1.5;" width="88" x="409" y="92"/><text fill="#000000" font-family="sans-serif" font-size="12" lengthAdjust="spacingAndGlyphs" textLength="82" x="412" y="108.1387">algo.iterative</text></a><!--class main--><a href="main/package-summary.html" target="_top" xlink:actuate="onRequest" xlink:show="new" xlink:title="main/package-summary.html" xlink:type="simple"><rect fill="#FEFECE" filter="url(#fvj8esveql9n3)" height="23.9688" id="main" style="stroke: #A80036; stroke-width: 1.5;" width="36" x="178" y="92"/><text fill="#000000" font-family="sans-serif" font-size="12" lengthAdjust="spacingAndGlyphs" textLength="30" x="181" y="108.1387">main</text></a><!--class io.input--><a href="io/input/package-summary.html" target="_top" xlink:actuate="onRequest" xlink:show="new" xlink:title="io/input/package-summary.html" xlink:type="simple"><rect fill="#FEFECE" filter="url(#fvj8esveql9n3)" height="23.9688" id="io.input" style="stroke: #A80036; stroke-width: 1.5;" width="53" x="22.5" y="176"/><text fill="#000000" font-family="sans-serif" font-size="12" lengthAdjust="spacingAndGlyphs" textLength="47" x="25.5" y="192.1387">io.input</text></a><!--class io.output--><a href="io/output/package-summary.html" target="_top" xlink:actuate="onRequest" xlink:show="new" xlink:title="io/output/package-summary.html" xlink:type="simple"><rect fill="#FEFECE" filter="url(#fvj8esveql9n3)" height="23.9688" id="io.output" style="stroke: #A80036; stroke-width: 1.5;" width="63" x="110.5" y="176"/><text fill="#000000" font-family="sans-serif" font-size="12" lengthAdjust="spacingAndGlyphs" textLength="57" x="113.5" y="192.1387">io.output</text></a><!--class algo--><a href="algo/package-summary.html" target="_top" xlink:actuate="onRequest" xlink:show="new" xlink:title="algo/package-summary.html" xlink:type="simple"><rect fill="#FEFECE" filter="url(#fvj8esveql9n3)" height="23.9688" id="algo" style="stroke: #A80036; stroke-width: 1.5;" width="33" x="487.5" y="176"/><text fill="#000000" font-family="sans-serif" font-size="12" lengthAdjust="spacingAndGlyphs" textLength="27" x="490.5" y="192.1387">algo</text></a><!--class algo.genetic--><a href="algo/genetic/package-summary.html" target="_top" xlink:actuate="onRequest" xlink:show="new" xlink:title="algo/genetic/package-summary.html" xlink:type="simple"><rect fill="#FEFECE" filter="url(#fvj8esveql9n3)" height="23.9688" id="algo.genetic" style="stroke: #A80036; stroke-width: 1.5;" width="84" x="532" y="92"/><text fill="#000000" font-family="sans-serif" font-size="12" lengthAdjust="spacingAndGlyphs" textLength="78" x="535" y="108.1387">algo.genetic</text></a><!--class org.w3c.dom--><a href="https://docs.oracle.com/en/java/javase/11/docs/api/java.xml/org/w3c/dom/package-summary.html?is-external=true" target="_top" xlink:actuate="onRequest" xlink:show="new" xlink:title="https://docs.oracle.com/en/java/javase/11/docs/api/java.xml/org/w3c/dom/package-summary.html?is-external=true" xlink:type="simple"><rect fill="#FEFECE" filter="url(#fvj8esveql9n3)" height="23.9688" id="org.w3c.dom" style="stroke: #A80036; stroke-width: 1.5;" width="86" x="6" y="260"/><text fill="#000000" font-family="sans-serif" font-size="12" lengthAdjust="spacingAndGlyphs" textLength="80" x="9" y="276.1387">org.w3c.dom</text></a><!--link dao to model--><path d="M304.7427,200.0352 C316.6596,214.756 336.8722,239.7245 350.0782,256.0377 " fill="none" id="dao-model" style="stroke: #A80036; stroke-width: 1.0;"/><polygon fill="#A80036" points="353.2753,259.9872,350.7216,250.4752,350.1293,256.101,344.5036,255.5087,353.2753,259.9872" style="stroke: #A80036; stroke-width: 1.0;"/><!--link dao.jpa to dao--><path d="M339.5497,116.0352 C330.514,130.6313 315.2416,155.302 305.1393,171.6211 " fill="none" id="dao.jpa-dao" style="stroke: #A80036; stroke-width: 1.0;"/><polygon fill="#A80036" points="302.4365,175.9872,310.5749,170.4404,305.0684,171.7359,303.7728,166.2294,302.4365,175.9872" style="stroke: #A80036; stroke-width: 1.0;"/><!--link dao.jpa to model--><path d="M348.1507,116.0821 C350.9393,145.3625 358.0682,220.2157 361.3279,254.4428 " fill="none" id="dao.jpa-model" style="stroke: #A80036; stroke-width: 1.0;"/><polygon fill="#A80036" points="361.8166,259.5741,364.9451,250.2353,361.3425,254.5966,356.9812,250.994,361.8166,259.5741" style="stroke: #A80036; stroke-width: 1.0;"/><!--link template to model--><path d="M484.1745,22.7687 C541.0852,29.4384 654.1151,50.9889 633,116 C618.7474,159.8823 609.0838,172.5485 572,200 C515.3862,241.9088 432.5214,260.7338 390.1473,268.033 " fill="none" id="template-model" style="stroke: #A80036; stroke-width: 1.0;"/><polygon fill="#A80036" points="385.185,268.8668,394.7235,271.3198,390.1158,268.0381,393.3976,263.4304,385.185,268.8668" style="stroke: #A80036; stroke-width: 1.0;"/><!--link template to dao--><path d="M421.771,25.5072 C386.5264,33.5165 330.5299,52.0354 303,92 C286.8878,115.3897 288.632,149.9936 291.632,170.6401 " fill="none" id="template-dao" style="stroke: #A80036; stroke-width: 1.0;"/><polygon fill="#A80036" points="292.4545,175.8228,294.9941,166.307,291.6707,170.8846,287.093,167.5612,292.4545,175.8228" style="stroke: #A80036; stroke-width: 1.0;"/><!--link template to algo.iterative--><path d="M453,32.0352 C453,46.3818 453,70.4615 453,86.777 " fill="none" id="template-algo.iterative" style="stroke: #A80036; stroke-width: 1.0;"/><polygon fill="#A80036" points="453,91.9872,457,82.9872,453,86.9872,449,82.9872,453,91.9872" style="stroke: #A80036; stroke-width: 1.0;"/><!--link main to io.input--><path d="M177.9749,114.3 C152.0676,129.1042 104.1761,156.4708 74.605,173.3686 " fill="none" id="main-io.input" style="stroke: #A80036; stroke-width: 1.0;"/><polygon fill="#A80036" points="70.0224,175.9872,79.8211,174.995,74.3636,173.5065,75.8521,168.049,70.0224,175.9872" style="stroke: #A80036; stroke-width: 1.0;"/><!--link main to dao--><path d="M210.1843,116.0352 C227.6809,130.8808 257.4606,156.1484 276.6739,172.4506 " fill="none" id="main-dao" style="stroke: #A80036; stroke-width: 1.0;"/><polygon fill="#A80036" points="280.842,175.9872,276.5675,167.1143,277.0295,172.7523,271.3915,173.2143,280.842,175.9872" style="stroke: #A80036; stroke-width: 1.0;"/><!--link main to io.output--><path d="M188.2631,116.0352 C178.8799,130.6313 163.0201,155.302 152.5293,171.6211 " fill="none" id="main-io.output" style="stroke: #A80036; stroke-width: 1.0;"/><polygon fill="#A80036" points="149.7225,175.9872,157.9541,170.5798,152.4264,171.7813,151.2248,166.2536,149.7225,175.9872" style="stroke: #A80036; stroke-width: 1.0;"/><!--link main to algo--><path d="M214.3444,109.003 C268.0231,123.6427 424.623,166.3517 482.3246,182.0885 " fill="none" id="main-algo" style="stroke: #A80036; stroke-width: 1.0;"/><polygon fill="#A80036" points="487.2732,183.4382,479.643,177.2109,482.4494,182.1225,477.5378,184.9289,487.2732,183.4382" style="stroke: #A80036; stroke-width: 1.0;"/><!--link main to model--><path d="M202.5342,116.2122 C213.2287,135.4786 235.91,173.462 262,200 C284.6917,223.0813 315.5553,243.8796 337.1719,257.1188 " fill="none" id="main-model" style="stroke: #A80036; stroke-width: 1.0;"/><polygon fill="#A80036" points="341.6381,259.8273,336.017,251.7401,337.3629,257.2345,331.8685,258.5804,341.6381,259.8273" style="stroke: #A80036; stroke-width: 1.0;"/><!--link algo to model--><path d="M487.2718,197.9658 C462.621,212.6513 416.376,240.2015 387.7794,257.2378 " fill="none" id="algo-model" style="stroke: #A80036; stroke-width: 1.0;"/><polygon fill="#A80036" points="383.3473,259.8782,393.1264,258.7083,387.6428,257.3192,389.032,251.8355,383.3473,259.8782" style="stroke: #A80036; stroke-width: 1.0;"/><!--link algo.iterative to algo--><path d="M460.3071,116.0352 C469.169,130.6313 484.1477,155.302 494.0557,171.6211 " fill="none" id="algo.iterative-algo" style="stroke: #A80036; stroke-width: 1.0;"/><polygon fill="#A80036" points="496.7065,175.9872,495.4546,166.2182,494.1115,171.7133,488.6164,170.3702,496.7065,175.9872" style="stroke: #A80036; stroke-width: 1.0;"/><!--link algo.iterative to model--><path d="M446.5274,116.0821 C430.777,145.483 390.4111,220.8325 372.1804,254.8633 " fill="none" id="algo.iterative-model" style="stroke: #A80036; stroke-width: 1.0;"/><polygon fill="#A80036" points="369.6568,259.5741,377.4329,253.5299,372.018,255.1668,370.3812,249.7519,369.6568,259.5741" style="stroke: #A80036; stroke-width: 1.0;"/><!--link algo.genetic to model--><path d="M572.5647,116.2745 C569.6034,136.3191 561.0387,176.2227 538,200 C497.1959,242.1121 428.2217,260.5016 390.1935,267.777 " fill="none" id="algo.genetic-model" style="stroke: #A80036; stroke-width: 1.0;"/><polygon fill="#A80036" points="385.2639,268.6909,394.8422,270.9833,390.1801,267.7795,393.384,263.1174,385.2639,268.6909" style="stroke: #A80036; stroke-width: 1.0;"/><!--link algo.genetic to algo--><path d="M563.9707,116.0352 C551.7033,130.756 530.8963,155.7245 517.3019,172.0377 " fill="none" id="algo.genetic-algo" style="stroke: #A80036; stroke-width: 1.0;"/><polygon fill="#A80036" points="514.0107,175.9872,522.8454,171.6342,517.2117,172.1462,516.6997,166.5125,514.0107,175.9872" style="stroke: #A80036; stroke-width: 1.0;"/><!--link io.output to model--><path d="M173.6639,200.0352 C217.2462,216.6004 294.9686,246.1419 335.9658,261.7246 " fill="none" id="io.output-model" style="stroke: #A80036; stroke-width: 1.0;"/><polygon fill="#A80036" points="340.7787,263.5539,333.7872,256.6171,336.105,261.7774,330.9447,264.0951,340.7787,263.5539" style="stroke: #A80036; stroke-width: 1.0;"/><!--link io.input to model--><path d="M75.5181,195.2582 C81.2798,196.828 87.3429,198.4743 93,200 C181.8039,223.9499 287.1617,251.916 335.8471,264.8135 " fill="none" id="io.input-model" style="stroke: #A80036; stroke-width: 1.0;"/><polygon fill="#A80036" points="340.9397,266.1624,333.264,259.9912,336.1064,264.8821,331.2155,267.7245,340.9397,266.1624" style="stroke: #A80036; stroke-width: 1.0;"/><!--link io.input to org.w3c.dom--><path d="M49,200.0352 C49,214.3818 49,238.4615 49,254.777 " fill="none" id="io.input-org.w3c.dom" style="stroke: #A80036; stroke-width: 1.0;"/><polygon fill="#A80036" points="49,259.9872,53,250.9872,49,254.9872,45,250.9872,49,259.9872" style="stroke: #A80036; stroke-width: 1.0;"/><text fill="#888888" font-family="sans-serif" font-size="10" lengthAdjust="spacingAndGlyphs" textLength="186" x="234" y="303.2822">UMLDoclet 2.0.3, PlantUML 1.2019.06</text><!--
@startuml
    set namespaceSeparator none
    hide circle
    hide empty fields
    hide empty methods

    dao - -> model
    dao.jpa - -> dao
    dao.jpa - -> model
    template - -> model
    template - -> dao
    template - -> algo.iterative
    main - -> io.input
    main - -> dao
    main - -> io.output
    main - -> algo
    main - -> model
    algo - -> model
    algo.iterative - -> algo
    algo.iterative - -> model
    algo.genetic - -> model
    algo.genetic - -> algo
    io.output - -> model
    io.input - -> model
    io.input - -> org.w3c.dom

    class "dao" [[dao/package-summary.html]] {
    }
    class "model" [[model/package-summary.html]] {
    }
    class "dao.jpa" [[dao/jpa/package-summary.html]] {
    }
    class "template" [[template/package-summary.html]] {
    }
    class "algo.iterative" [[algo/iterative/package-summary.html]] {
    }
    class "main" [[main/package-summary.html]] {
    }
    class "io.input" [[io/input/package-summary.html]] {
    }
    class "io.output" [[io/output/package-summary.html]] {
    }
    class "algo" [[algo/package-summary.html]] {
    }
    class "algo.genetic" [[algo/genetic/package-summary.html]] {
    }
    class "org.w3c.dom" [[https://docs.oracle.com/en/java/javase/11/docs/api/java.xml/org/w3c/dom/package-summary.html?is-external=true]] {
    }

    center footer UMLDoclet 2.0.3, PlantUML 1.2019.06
@enduml

PlantUML version 1.2019.06(Fri May 24 19:10:25 CEST 2019)
(APACHE source distribution)
Java Runtime: OpenJDK Runtime Environment
JVM: OpenJDK 64-Bit Server VM
Java Version: 11.0.4+4-post-Debian-1
Operating System: Linux
OS Version: 4.19.0-5-amd64
Default Encoding: UTF-8
Language: fr
Country: FR
--></g></svg>