<?xml version="1.0" encoding="UTF-8" standalone="no"?><svg xmlns="http://www.w3.org/2000/svg" xmlns:xlink="http://www.w3.org/1999/xlink" contentScriptType="application/ecmascript" contentStyleType="text/css" height="410px" preserveAspectRatio="none" style="width:279px;height:410px;" version="1.1" viewBox="0 0 279 410" width="279px" zoomAndPan="magnify"><defs><filter height="300%" id="f9d3zym2hum6y" width="300%" x="-1" y="-1"><feGaussianBlur result="blurOut" stdDeviation="2.0"/><feColorMatrix in="blurOut" result="blurOut2" type="matrix" values="0 0 0 0 0 0 0 0 0 0 0 0 0 0 0 0 0 0 .4 0"/><feOffset dx="4.0" dy="4.0" in="blurOut2" result="blurOut3"/><feBlend in="SourceGraphic" in2="blurOut3" mode="normal"/></filter></defs><g><!--class model.Client--><a href="Client.html" target="_top" xlink:actuate="onRequest" xlink:show="new" xlink:title="Client.html" xlink:type="simple"><rect fill="#FEFECE" filter="url(#f9d3zym2hum6y)" height="271.6172" id="model.Client" style="stroke: #A80036; stroke-width: 1.5;" width="262" x="6" y="106"/><ellipse cx="113.25" cy="124.9688" fill="#ADD1B2" rx="11" ry="11" style="stroke: #A80036; stroke-width: 1.0;"/><path d="M116.2188,130.6094 Q115.6406,130.9063 115,131.0469 Q114.3594,131.2031 113.6563,131.2031 Q111.1563,131.2031 109.8281,129.5625 Q108.5156,127.9063 108.5156,124.7813 Q108.5156,121.6563 109.8281,120 Q111.1563,118.3438 113.6563,118.3438 Q114.3594,118.3438 115,118.5 Q115.6563,118.6563 116.2188,118.9531 L116.2188,121.6719 Q115.5938,121.0938 115,120.8281 Q114.4063,120.5469 113.7813,120.5469 Q112.4375,120.5469 111.75,121.625 Q111.0625,122.6875 111.0625,124.7813 Q111.0625,126.875 111.75,127.9531 Q112.4375,129.0156 113.7813,129.0156 Q114.4063,129.0156 115,128.75 Q115.5938,128.4688 116.2188,127.8906 L116.2188,130.6094 Z "/><text fill="#000000" font-family="sans-serif" font-size="14" lengthAdjust="spacingAndGlyphs" textLength="39" x="133.75" y="123.9951">Client</text><text fill="#000000" font-family="sans-serif" font-size="10" lengthAdjust="spacingAndGlyphs" textLength="30" x="138.25" y="136.5791">model</text><line style="stroke: #A80036; stroke-width: 1.5;" x1="7" x2="267" y1="143.9375" y2="143.9375"/><rect fill="none" height="6" style="stroke: #C82930; stroke-width: 1.0;" width="6" x="14" y="152.8398"/><text fill="#000000" font-family="sans-serif" font-size="11" lengthAdjust="spacingAndGlyphs" text-decoration="underline" textLength="126" x="26" y="158.1479">serialVersionUID: long</text><polygon fill="none" points="17,163.6445,21,167.6445,17,171.6445,13,167.6445" style="stroke: #B38D22; stroke-width: 1.0;"/><text fill="#000000" font-family="sans-serif" font-size="11" lengthAdjust="spacingAndGlyphs" textLength="58" x="26" y="170.9526">id: Integer</text><rect fill="none" height="6" style="stroke: #C82930; stroke-width: 1.0;" width="6" x="14" y="178.4492"/><text fill="#000000" font-family="sans-serif" font-size="11" lengthAdjust="spacingAndGlyphs" textLength="75" x="26" y="183.7573">demande: int</text><rect fill="none" height="6" style="stroke: #C82930; stroke-width: 1.0;" width="6" x="14" y="191.2539"/><text fill="#000000" font-family="sans-serif" font-size="11" lengthAdjust="spacingAndGlyphs" textLength="207" x="26" y="196.562">emplacements: List&lt;Emplacement&gt;</text><rect fill="none" height="6" style="stroke: #C82930; stroke-width: 1.0;" width="6" x="14" y="204.0586"/><text fill="#000000" font-family="sans-serif" font-size="11" lengthAdjust="spacingAndGlyphs" textLength="67" x="26" y="209.3667">position: int</text><rect fill="none" height="6" style="stroke: #C82930; stroke-width: 1.0;" width="6" x="14" y="216.8633"/><text fill="#000000" font-family="sans-serif" font-size="11" lengthAdjust="spacingAndGlyphs" textLength="101" x="26" y="222.1714">vehicule: Vehicule</text><line style="stroke: #A80036; stroke-width: 1.5;" x1="7" x2="267" y1="228.7656" y2="228.7656"/><ellipse cx="17" cy="240.668" fill="#84BE84" rx="3" ry="3" style="stroke: #038048; stroke-width: 1.0;"/><text fill="#000000" font-family="sans-serif" font-size="11" lengthAdjust="spacingAndGlyphs" textLength="40" x="26" y="242.9761">Client()</text><ellipse cx="17" cy="253.4727" fill="#84BE84" rx="3" ry="3" style="stroke: #038048; stroke-width: 1.0;"/><text fill="#000000" font-family="sans-serif" font-size="11" lengthAdjust="spacingAndGlyphs" textLength="54" x="26" y="255.7808">Client(int)</text><ellipse cx="17" cy="266.2773" fill="#84BE84" rx="3" ry="3" style="stroke: #038048; stroke-width: 1.0;"/><text fill="#000000" font-family="sans-serif" font-size="11" lengthAdjust="spacingAndGlyphs" textLength="236" x="26" y="268.5854">addEmplacement(Emplacement): boolean</text><ellipse cx="17" cy="279.082" fill="#84BE84" rx="3" ry="3" style="stroke: #038048; stroke-width: 1.0;"/><text fill="#000000" font-family="sans-serif" font-size="11" lengthAdjust="spacingAndGlyphs" textLength="102" x="26" y="281.3901">getDemande(): int</text><ellipse cx="17" cy="291.8867" fill="#84BE84" rx="3" ry="3" style="stroke: #038048; stroke-width: 1.0;"/><text fill="#000000" font-family="sans-serif" font-size="11" lengthAdjust="spacingAndGlyphs" textLength="93" x="26" y="294.1948">getPosition(): int</text><ellipse cx="17" cy="304.6914" fill="#84BE84" rx="3" ry="3" style="stroke: #038048; stroke-width: 1.0;"/><text fill="#000000" font-family="sans-serif" font-size="11" lengthAdjust="spacingAndGlyphs" textLength="116" x="26" y="306.9995">setPosition(int): void</text><ellipse cx="17" cy="317.4961" fill="#84BE84" rx="3" ry="3" style="stroke: #038048; stroke-width: 1.0;"/><text fill="#000000" font-family="sans-serif" font-size="11" lengthAdjust="spacingAndGlyphs" textLength="233" x="26" y="319.8042">getEmplacements(): List&lt;Emplacement&gt;</text><ellipse cx="17" cy="330.3008" fill="#84BE84" rx="3" ry="3" style="stroke: #038048; stroke-width: 1.0;"/><text fill="#000000" font-family="sans-serif" font-size="11" lengthAdjust="spacingAndGlyphs" textLength="128" x="26" y="332.6089">getVehicule(): Vehicule</text><ellipse cx="17" cy="343.1055" fill="#84BE84" rx="3" ry="3" style="stroke: #038048; stroke-width: 1.0;"/><text fill="#000000" font-family="sans-serif" font-size="11" lengthAdjust="spacingAndGlyphs" textLength="151" x="26" y="345.4136">setVehicule(Vehicule): void</text><ellipse cx="17" cy="355.9102" fill="#84BE84" rx="3" ry="3" style="stroke: #038048; stroke-width: 1.0;"/><text fill="#000000" font-family="sans-serif" font-size="11" lengthAdjust="spacingAndGlyphs" textLength="67" x="26" y="358.2183">clear(): void</text><ellipse cx="17" cy="368.7148" fill="#84BE84" rx="3" ry="3" style="stroke: #038048; stroke-width: 1.0;"/><text fill="#000000" font-family="sans-serif" font-size="11" lengthAdjust="spacingAndGlyphs" textLength="93" x="26" y="371.0229">check(): boolean</text></a><!--class java.io.Serializable--><a href="https://docs.oracle.com/en/java/javase/11/docs/api/java.base/java/io/Serializable.html?is-external=true" target="_top" xlink:actuate="onRequest" xlink:show="new" xlink:title="https://docs.oracle.com/en/java/javase/11/docs/api/java.base/java/io/Serializable.html?is-external=true" xlink:type="simple"><rect fill="#FEFECE" filter="url(#f9d3zym2hum6y)" height="37.9375" id="java.io.Serializable" style="stroke: #A80036; stroke-width: 1.5;" width="108" x="83" y="8"/><ellipse cx="98" cy="26.9688" fill="#B4A7E5" rx="11" ry="11" style="stroke: #A80036; stroke-width: 1.0;"/><path d="M93.9219,22.7344 L93.9219,20.5781 L101.3125,20.5781 L101.3125,22.7344 L98.8438,22.7344 L98.8438,30.8125 L101.3125,30.8125 L101.3125,32.9688 L93.9219,32.9688 L93.9219,30.8125 L96.3906,30.8125 L96.3906,22.7344 L93.9219,22.7344 Z "/><text fill="#000000" font-family="sans-serif" font-size="14" font-style="italic" lengthAdjust="spacingAndGlyphs" textLength="76" x="112" y="25.9951">Serializable</text><text fill="#000000" font-family="sans-serif" font-size="10" font-style="italic" lengthAdjust="spacingAndGlyphs" textLength="33" x="133.5" y="38.5791">java.io</text></a><!--link java.io.Serializable to model.Client--><path d="M137,66.5298 C137,78.1757 137,91.6261 137,105.7944 " fill="none" id="java.io.Serializable-model.Client" style="stroke: #A80036; stroke-width: 1.0; stroke-dasharray: 7.0,7.0;"/><polygon fill="none" points="130.0001,66.0798,137,46.0798,144.0001,66.0798,130.0001,66.0798" style="stroke: #A80036; stroke-width: 1.0;"/><text fill="#888888" font-family="sans-serif" font-size="10" lengthAdjust="spacingAndGlyphs" textLength="186" x="50" y="397.2822">UMLDoclet 2.0.3, PlantUML 1.2019.06</text><!--
@startuml
    set namespaceSeparator none
    hide empty fields
    hide empty methods

    class "<size:14>Client\n<size:10>model" as model.Client [[Client.html]] {
        {static} -serialVersionUID: long
        #id: Integer
        -demande: int
        -emplacements: List<Emplacement>
        -position: int
        -vehicule: Vehicule
        +Client()
        +Client(int)
        +addEmplacement(Emplacement): boolean
        +getDemande(): int
        +getPosition(): int
        +setPosition(int): void
        +getEmplacements(): List<Emplacement>
        +getVehicule(): Vehicule
        +setVehicule(Vehicule): void
        +clear(): void
        +check(): boolean
    }

    interface "<size:14>Serializable\n<size:10>java.io" as java.io.Serializable [[https://docs.oracle.com/en/java/javase/11/docs/api/java.base/java/io/Serializable.html?is-external=true]]

    java.io.Serializable <|.. model.Client

    center footer UMLDoclet 2.0.3, PlantUML 1.2019.06
@enduml

PlantUML version 1.2019.06(Fri May 24 19:10:25 CEST 2019)
(APACHE source distribution)
Java Runtime: OpenJDK Runtime Environment
JVM: OpenJDK 64-Bit Server VM
Java Version: 11.0.4+4-post-Debian-1
Operating System: Linux
OS Version: 4.19.0-5-amd64
Default Encoding: UTF-8
Language: fr
Country: FR
--></g></svg>