<?xml version="1.0" encoding="UTF-8" standalone="no"?><svg xmlns="http://www.w3.org/2000/svg" xmlns:xlink="http://www.w3.org/1999/xlink" contentScriptType="application/ecmascript" contentStyleType="text/css" height="222px" preserveAspectRatio="none" style="width:287px;height:222px;" version="1.1" viewBox="0 0 287 222" width="287px" zoomAndPan="magnify"><defs><filter height="300%" id="f1ulm44qyybov0" width="300%" x="-1" y="-1"><feGaussianBlur result="blurOut" stdDeviation="2.0"/><feColorMatrix in="blurOut" result="blurOut2" type="matrix" values="0 0 0 0 0 0 0 0 0 0 0 0 0 0 0 0 0 0 .4 0"/><feOffset dx="4.0" dy="4.0" in="blurOut2" result="blurOut3"/><feBlend in="SourceGraphic" in2="blurOut3" mode="normal"/></filter></defs><g><!--class model.Depot--><a href="Depot.html" target="_top" xlink:actuate="onRequest" xlink:show="new" xlink:title="Depot.html" xlink:type="simple"><rect fill="#FEFECE" filter="url(#f1ulm44qyybov0)" height="84.3516" id="model.Depot" style="stroke: #A80036; stroke-width: 1.5;" width="195" x="48" y="106"/><ellipse cx="119.75" cy="124.9688" fill="#ADD1B2" rx="11" ry="11" style="stroke: #A80036; stroke-width: 1.0;"/><path d="M122.7188,130.6094 Q122.1406,130.9063 121.5,131.0469 Q120.8594,131.2031 120.1563,131.2031 Q117.6563,131.2031 116.3281,129.5625 Q115.0156,127.9063 115.0156,124.7813 Q115.0156,121.6563 116.3281,120 Q117.6563,118.3438 120.1563,118.3438 Q120.8594,118.3438 121.5,118.5 Q122.1563,118.6563 122.7188,118.9531 L122.7188,121.6719 Q122.0938,121.0938 121.5,120.8281 Q120.9063,120.5469 120.2813,120.5469 Q118.9375,120.5469 118.25,121.625 Q117.5625,122.6875 117.5625,124.7813 Q117.5625,126.875 118.25,127.9531 Q118.9375,129.0156 120.2813,129.0156 Q120.9063,129.0156 121.5,128.75 Q122.0938,128.4688 122.7188,127.8906 L122.7188,130.6094 Z "/><text fill="#000000" font-family="sans-serif" font-size="14" lengthAdjust="spacingAndGlyphs" textLength="43" x="140.25" y="123.9951">Depot</text><text fill="#000000" font-family="sans-serif" font-size="10" lengthAdjust="spacingAndGlyphs" textLength="30" x="146.75" y="136.5791">model</text><line style="stroke: #A80036; stroke-width: 1.5;" x1="49" x2="242" y1="143.9375" y2="143.9375"/><ellipse cx="59" cy="155.8398" fill="#84BE84" rx="3" ry="3" style="stroke: #038048; stroke-width: 1.0;"/><text fill="#000000" font-family="sans-serif" font-size="11" lengthAdjust="spacingAndGlyphs" textLength="41" x="68" y="158.1479">Depot()</text><ellipse cx="59" cy="168.6445" fill="#84BE84" rx="3" ry="3" style="stroke: #038048; stroke-width: 1.0;"/><text fill="#000000" font-family="sans-serif" font-size="11" lengthAdjust="spacingAndGlyphs" textLength="169" x="68" y="170.9526">Depot(int, int, double, double)</text><ellipse cx="59" cy="181.4492" fill="#84BE84" rx="3" ry="3" style="stroke: #038048; stroke-width: 1.0;"/><text fill="#000000" font-family="sans-serif" font-size="11" lengthAdjust="spacingAndGlyphs" textLength="118" x="68" y="183.7573">Depot(Emplacement)</text></a><!--class model.Emplacement--><a href="Emplacement.html" target="_top" xlink:actuate="onRequest" xlink:show="new" xlink:title="Emplacement.html" xlink:type="simple"><rect fill="#FEFECE" filter="url(#f1ulm44qyybov0)" height="37.9375" id="model.Emplacement" style="stroke: #A80036; stroke-width: 1.5;" width="127" x="6" y="8"/><ellipse cx="21" cy="26.9688" fill="#ADD1B2" rx="11" ry="11" style="stroke: #A80036; stroke-width: 1.0;"/><path d="M23.9688,32.6094 Q23.3906,32.9063 22.75,33.0469 Q22.1094,33.2031 21.4063,33.2031 Q18.9063,33.2031 17.5781,31.5625 Q16.2656,29.9063 16.2656,26.7813 Q16.2656,23.6563 17.5781,22 Q18.9063,20.3438 21.4063,20.3438 Q22.1094,20.3438 22.75,20.5 Q23.4063,20.6563 23.9688,20.9531 L23.9688,23.6719 Q23.3438,23.0938 22.75,22.8281 Q22.1563,22.5469 21.5313,22.5469 Q20.1875,22.5469 19.5,23.625 Q18.8125,24.6875 18.8125,26.7813 Q18.8125,28.875 19.5,29.9531 Q20.1875,31.0156 21.5313,31.0156 Q22.1563,31.0156 22.75,30.75 Q23.3438,30.4688 23.9688,29.8906 L23.9688,32.6094 Z "/><text fill="#000000" font-family="sans-serif" font-size="14" lengthAdjust="spacingAndGlyphs" textLength="95" x="35" y="25.9951">Emplacement</text><text fill="#000000" font-family="sans-serif" font-size="10" lengthAdjust="spacingAndGlyphs" textLength="30" x="67.5" y="38.5791">model</text></a><!--class java.io.Serializable--><a href="https://docs.oracle.com/en/java/javase/11/docs/api/java.base/java/io/Serializable.html?is-external=true" target="_top" xlink:actuate="onRequest" xlink:show="new" xlink:title="https://docs.oracle.com/en/java/javase/11/docs/api/java.base/java/io/Serializable.html?is-external=true" xlink:type="simple"><rect fill="#FEFECE" filter="url(#f1ulm44qyybov0)" height="37.9375" id="java.io.Serializable" style="stroke: #A80036; stroke-width: 1.5;" width="108" x="168.5" y="8"/><ellipse cx="183.5" cy="26.9688" fill="#B4A7E5" rx="11" ry="11" style="stroke: #A80036; stroke-width: 1.0;"/><path d="M179.4219,22.7344 L179.4219,20.5781 L186.8125,20.5781 L186.8125,22.7344 L184.3438,22.7344 L184.3438,30.8125 L186.8125,30.8125 L186.8125,32.9688 L179.4219,32.9688 L179.4219,30.8125 L181.8906,30.8125 L181.8906,22.7344 L179.4219,22.7344 Z "/><text fill="#000000" font-family="sans-serif" font-size="14" font-style="italic" lengthAdjust="spacingAndGlyphs" textLength="76" x="197.5" y="25.9951">Serializable</text><text fill="#000000" font-family="sans-serif" font-size="10" font-style="italic" lengthAdjust="spacingAndGlyphs" textLength="33" x="219" y="38.5791">java.io</text></a><!--link model.Emplacement to model.Depot--><path d="M92.4068,63.4701 C100.796,76.8265 110.357,92.0487 119.0322,105.8605 " fill="none" id="model.Emplacement-model.Depot" style="stroke: #A80036; stroke-width: 1.0;"/><polygon fill="none" points="86.2524,66.8324,81.5424,46.1728,98.1079,59.3859,86.2524,66.8324" style="stroke: #A80036; stroke-width: 1.0;"/><!--link java.io.Serializable to model.Depot--><path d="M199.2918,63.4701 C190.7922,76.8265 181.1054,92.0487 172.316,105.8605 " fill="none" id="java.io.Serializable-model.Depot" style="stroke: #A80036; stroke-width: 1.0; stroke-dasharray: 7.0,7.0;"/><polygon fill="none" points="193.6559,59.2879,210.2991,46.1728,205.4672,66.8042,193.6559,59.2879" style="stroke: #A80036; stroke-width: 1.0;"/><text fill="#888888" font-family="sans-serif" font-size="10" lengthAdjust="spacingAndGlyphs" textLength="186" x="54.5" y="209.2822">UMLDoclet 2.0.3, PlantUML 1.2019.06</text><!--
@startuml
    set namespaceSeparator none
    hide empty fields
    hide empty methods

    class "<size:14>Depot\n<size:10>model" as model.Depot [[Depot.html]] {
        +Depot()
        +Depot(int, int, double, double)
        +Depot(Emplacement)
    }

    class "<size:14>Emplacement\n<size:10>model" as model.Emplacement [[Emplacement.html]]
    interface "<size:14>Serializable\n<size:10>java.io" as java.io.Serializable [[https://docs.oracle.com/en/java/javase/11/docs/api/java.base/java/io/Serializable.html?is-external=true]]

    model.Emplacement <|- - model.Depot
    java.io.Serializable <|.. model.Depot

    center footer UMLDoclet 2.0.3, PlantUML 1.2019.06
@enduml

PlantUML version 1.2019.06(Fri May 24 19:10:25 CEST 2019)
(APACHE source distribution)
Java Runtime: OpenJDK Runtime Environment
JVM: OpenJDK 64-Bit Server VM
Java Version: 11.0.4+4-post-Debian-1
Operating System: Linux
OS Version: 4.19.0-5-amd64
Default Encoding: UTF-8
Language: fr
Country: FR
--></g></svg>