<?xml version="1.0" encoding="UTF-8" standalone="no"?><svg xmlns="http://www.w3.org/2000/svg" xmlns:xlink="http://www.w3.org/1999/xlink" contentScriptType="application/ecmascript" contentStyleType="text/css" height="307px" preserveAspectRatio="none" style="width:256px;height:307px;" version="1.1" viewBox="0 0 256 307" width="256px" zoomAndPan="magnify"><defs><filter height="300%" id="f1xyjlwtegevs7" width="300%" x="-1" y="-1"><feGaussianBlur result="blurOut" stdDeviation="2.0"/><feColorMatrix in="blurOut" result="blurOut2" type="matrix" values="0 0 0 0 0 0 0 0 0 0 0 0 0 0 0 0 0 0 .4 0"/><feOffset dx="4.0" dy="4.0" in="blurOut2" result="blurOut3"/><feBlend in="SourceGraphic" in2="blurOut3" mode="normal"/></filter></defs><g><!--class model.Emplacement--><a href="Emplacement.html" target="_top" xlink:actuate="onRequest" xlink:show="new" xlink:title="Emplacement.html" xlink:type="simple"><rect fill="#FEFECE" filter="url(#f1xyjlwtegevs7)" height="169.1797" id="model.Emplacement" style="stroke: #A80036; stroke-width: 1.5;" width="239" x="6" y="106"/><ellipse cx="73.75" cy="124.9688" fill="#ADD1B2" rx="11" ry="11" style="stroke: #A80036; stroke-width: 1.0;"/><path d="M76.7188,130.6094 Q76.1406,130.9063 75.5,131.0469 Q74.8594,131.2031 74.1563,131.2031 Q71.6563,131.2031 70.3281,129.5625 Q69.0156,127.9063 69.0156,124.7813 Q69.0156,121.6563 70.3281,120 Q71.6563,118.3438 74.1563,118.3438 Q74.8594,118.3438 75.5,118.5 Q76.1563,118.6563 76.7188,118.9531 L76.7188,121.6719 Q76.0938,121.0938 75.5,120.8281 Q74.9063,120.5469 74.2813,120.5469 Q72.9375,120.5469 72.25,121.625 Q71.5625,122.6875 71.5625,124.7813 Q71.5625,126.875 72.25,127.9531 Q72.9375,129.0156 74.2813,129.0156 Q74.9063,129.0156 75.5,128.75 Q76.0938,128.4688 76.7188,127.8906 L76.7188,130.6094 Z "/><text fill="#000000" font-family="sans-serif" font-size="14" lengthAdjust="spacingAndGlyphs" textLength="95" x="94.25" y="123.9951">Emplacement</text><text fill="#000000" font-family="sans-serif" font-size="10" lengthAdjust="spacingAndGlyphs" textLength="30" x="126.75" y="136.5791">model</text><line style="stroke: #A80036; stroke-width: 1.5;" x1="7" x2="244" y1="143.9375" y2="143.9375"/><rect fill="none" height="6" style="stroke: #C82930; stroke-width: 1.0;" width="6" x="14" y="152.8398"/><text fill="#000000" font-family="sans-serif" font-size="11" lengthAdjust="spacingAndGlyphs" textLength="70" x="26" y="158.1479">client: Client</text><rect fill="none" height="6" style="stroke: #C82930; stroke-width: 1.0;" width="6" x="14" y="165.6445"/><text fill="#000000" font-family="sans-serif" font-size="11" lengthAdjust="spacingAndGlyphs" textLength="88" x="26" y="170.9526">heureDebut: int</text><rect fill="none" height="6" style="stroke: #C82930; stroke-width: 1.0;" width="6" x="14" y="178.4492"/><text fill="#000000" font-family="sans-serif" font-size="11" lengthAdjust="spacingAndGlyphs" textLength="71" x="26" y="183.7573">heureFin: int</text><line style="stroke: #A80036; stroke-width: 1.5;" x1="7" x2="244" y1="190.3516" y2="190.3516"/><ellipse cx="17" cy="202.2539" fill="#84BE84" rx="3" ry="3" style="stroke: #038048; stroke-width: 1.0;"/><text fill="#000000" font-family="sans-serif" font-size="11" lengthAdjust="spacingAndGlyphs" textLength="85" x="26" y="204.562">Emplacement()</text><ellipse cx="17" cy="215.0586" fill="#84BE84" rx="3" ry="3" style="stroke: #038048; stroke-width: 1.0;"/><text fill="#000000" font-family="sans-serif" font-size="11" lengthAdjust="spacingAndGlyphs" textLength="213" x="26" y="217.3667">Emplacement(int, int, double, double)</text><ellipse cx="17" cy="227.8633" fill="#84BE84" rx="3" ry="3" style="stroke: #038048; stroke-width: 1.0;"/><text fill="#000000" font-family="sans-serif" font-size="11" lengthAdjust="spacingAndGlyphs" textLength="115" x="26" y="230.1714">getHeureDebut(): int</text><ellipse cx="17" cy="240.668" fill="#84BE84" rx="3" ry="3" style="stroke: #038048; stroke-width: 1.0;"/><text fill="#000000" font-family="sans-serif" font-size="11" lengthAdjust="spacingAndGlyphs" textLength="98" x="26" y="242.9761">getHeureFin(): int</text><ellipse cx="17" cy="253.4727" fill="#84BE84" rx="3" ry="3" style="stroke: #038048; stroke-width: 1.0;"/><text fill="#000000" font-family="sans-serif" font-size="11" lengthAdjust="spacingAndGlyphs" textLength="98" x="26" y="255.7808">getClient(): Client</text><ellipse cx="17" cy="266.2773" fill="#84BE84" rx="3" ry="3" style="stroke: #038048; stroke-width: 1.0;"/><text fill="#000000" font-family="sans-serif" font-size="11" lengthAdjust="spacingAndGlyphs" textLength="121" x="26" y="268.5854">setClient(Client): void</text></a><!--class model.Point--><a href="Point.html" target="_top" xlink:actuate="onRequest" xlink:show="new" xlink:title="Point.html" xlink:type="simple"><rect fill="#FEFECE" filter="url(#f1xyjlwtegevs7)" height="37.9375" id="model.Point" style="stroke: #A80036; stroke-width: 1.5;" width="66" x="31.5" y="8"/><ellipse cx="46.5" cy="26.9688" fill="#A9DCDF" rx="11" ry="11" style="stroke: #A80036; stroke-width: 1.0;"/><path d="M46.6094,22.3125 L45.4531,27.3906 L47.7813,27.3906 L46.6094,22.3125 Z M45.125,20.0781 L48.1094,20.0781 L51.4688,32.4688 L49.0156,32.4688 L48.25,29.4063 L44.9688,29.4063 L44.2188,32.4688 L41.7813,32.4688 L45.125,20.0781 Z "/><text fill="#000000" font-family="sans-serif" font-size="14" font-style="italic" lengthAdjust="spacingAndGlyphs" textLength="34" x="60.5" y="25.9951">Point</text><text fill="#000000" font-family="sans-serif" font-size="10" font-style="italic" lengthAdjust="spacingAndGlyphs" textLength="31" x="62" y="38.5791">model</text></a><!--class java.io.Serializable--><a href="https://docs.oracle.com/en/java/javase/11/docs/api/java.base/java/io/Serializable.html?is-external=true" target="_top" xlink:actuate="onRequest" xlink:show="new" xlink:title="https://docs.oracle.com/en/java/javase/11/docs/api/java.base/java/io/Serializable.html?is-external=true" xlink:type="simple"><rect fill="#FEFECE" filter="url(#f1xyjlwtegevs7)" height="37.9375" id="java.io.Serializable" style="stroke: #A80036; stroke-width: 1.5;" width="108" x="132.5" y="8"/><ellipse cx="147.5" cy="26.9688" fill="#B4A7E5" rx="11" ry="11" style="stroke: #A80036; stroke-width: 1.0;"/><path d="M143.4219,22.7344 L143.4219,20.5781 L150.8125,20.5781 L150.8125,22.7344 L148.3438,22.7344 L148.3438,30.8125 L150.8125,30.8125 L150.8125,32.9688 L143.4219,32.9688 L143.4219,30.8125 L145.8906,30.8125 L145.8906,22.7344 L143.4219,22.7344 Z "/><text fill="#000000" font-family="sans-serif" font-size="14" font-style="italic" lengthAdjust="spacingAndGlyphs" textLength="76" x="161.5" y="25.9951">Serializable</text><text fill="#000000" font-family="sans-serif" font-size="10" font-style="italic" lengthAdjust="spacingAndGlyphs" textLength="33" x="183" y="38.5791">java.io</text></a><!--link model.Point to model.Emplacement--><path d="M78.7608,65.2237 C83.3365,77.488 88.6006,91.5974 93.9087,105.8251 " fill="none" id="model.Point-model.Emplacement" style="stroke: #A80036; stroke-width: 1.0;"/><polygon fill="none" points="72.0496,67.2607,71.6169,46.0755,85.1664,62.367,72.0496,67.2607" style="stroke: #A80036; stroke-width: 1.0;"/><!--link java.io.Serializable to model.Emplacement--><path d="M172.2392,65.2237 C167.6635,77.488 162.3994,91.5974 157.0913,105.8251 " fill="none" id="java.io.Serializable-model.Emplacement" style="stroke: #A80036; stroke-width: 1.0; stroke-dasharray: 7.0,7.0;"/><polygon fill="none" points="165.8336,62.367,179.3831,46.0755,178.9504,67.2607,165.8336,62.367" style="stroke: #A80036; stroke-width: 1.0;"/><text fill="#888888" font-family="sans-serif" font-size="10" lengthAdjust="spacingAndGlyphs" textLength="186" x="38.5" y="294.2822">UMLDoclet 2.0.3, PlantUML 1.2019.06</text><!--
@startuml
    set namespaceSeparator none
    hide empty fields
    hide empty methods

    class "<size:14>Emplacement\n<size:10>model" as model.Emplacement [[Emplacement.html]] {
        -client: Client
        -heureDebut: int
        -heureFin: int
        +Emplacement()
        +Emplacement(int, int, double, double)
        +getHeureDebut(): int
        +getHeureFin(): int
        +getClient(): Client
        +setClient(Client): void
    }

    abstract class "<size:14>Point\n<size:10>model" as model.Point [[Point.html]]
    interface "<size:14>Serializable\n<size:10>java.io" as java.io.Serializable [[https://docs.oracle.com/en/java/javase/11/docs/api/java.base/java/io/Serializable.html?is-external=true]]

    model.Point <|- - model.Emplacement
    java.io.Serializable <|.. model.Emplacement

    center footer UMLDoclet 2.0.3, PlantUML 1.2019.06
@enduml

PlantUML version 1.2019.06(Fri May 24 19:10:25 CEST 2019)
(APACHE source distribution)
Java Runtime: OpenJDK Runtime Environment
JVM: OpenJDK 64-Bit Server VM
Java Version: 11.0.4+4-post-Debian-1
Operating System: Linux
OS Version: 4.19.0-5-amd64
Default Encoding: UTF-8
Language: fr
Country: FR
--></g></svg>