<?xml version="1.0" encoding="UTF-8" standalone="no"?><svg xmlns="http://www.w3.org/2000/svg" xmlns:xlink="http://www.w3.org/1999/xlink" contentScriptType="application/ecmascript" contentStyleType="text/css" height="371px" preserveAspectRatio="none" style="width:286px;height:371px;" version="1.1" viewBox="0 0 286 371" width="286px" zoomAndPan="magnify"><defs><filter height="300%" id="f1uxuoeco3z5q6" width="300%" x="-1" y="-1"><feGaussianBlur result="blurOut" stdDeviation="2.0"/><feColorMatrix in="blurOut" result="blurOut2" type="matrix" values="0 0 0 0 0 0 0 0 0 0 0 0 0 0 0 0 0 0 .4 0"/><feOffset dx="4.0" dy="4.0" in="blurOut2" result="blurOut3"/><feBlend in="SourceGraphic" in2="blurOut3" mode="normal"/></filter></defs><g><!--class model.Planning--><a href="Planning.html" target="_top" xlink:actuate="onRequest" xlink:show="new" xlink:title="Planning.html" xlink:type="simple"><rect fill="#FEFECE" filter="url(#f1uxuoeco3z5q6)" height="233.2031" id="model.Planning" style="stroke: #A80036; stroke-width: 1.5;" width="269" x="6" y="106"/><ellipse cx="106.75" cy="124.9688" fill="#ADD1B2" rx="11" ry="11" style="stroke: #A80036; stroke-width: 1.0;"/><path d="M109.7188,130.6094 Q109.1406,130.9063 108.5,131.0469 Q107.8594,131.2031 107.1563,131.2031 Q104.6563,131.2031 103.3281,129.5625 Q102.0156,127.9063 102.0156,124.7813 Q102.0156,121.6563 103.3281,120 Q104.6563,118.3438 107.1563,118.3438 Q107.8594,118.3438 108.5,118.5 Q109.1563,118.6563 109.7188,118.9531 L109.7188,121.6719 Q109.0938,121.0938 108.5,120.8281 Q107.9063,120.5469 107.2813,120.5469 Q105.9375,120.5469 105.25,121.625 Q104.5625,122.6875 104.5625,124.7813 Q104.5625,126.875 105.25,127.9531 Q105.9375,129.0156 107.2813,129.0156 Q107.9063,129.0156 108.5,128.75 Q109.0938,128.4688 109.7188,127.8906 L109.7188,130.6094 Z "/><text fill="#000000" font-family="sans-serif" font-size="14" lengthAdjust="spacingAndGlyphs" textLength="59" x="127.25" y="123.9951">Planning</text><text fill="#000000" font-family="sans-serif" font-size="10" lengthAdjust="spacingAndGlyphs" textLength="30" x="141.75" y="136.5791">model</text><line style="stroke: #A80036; stroke-width: 1.5;" x1="7" x2="274" y1="143.9375" y2="143.9375"/><rect fill="none" height="6" style="stroke: #C82930; stroke-width: 1.0;" width="6" x="14" y="152.8398"/><text fill="#000000" font-family="sans-serif" font-size="11" lengthAdjust="spacingAndGlyphs" text-decoration="underline" textLength="126" x="26" y="158.1479">serialVersionUID: long</text><rect fill="none" height="6" style="stroke: #C82930; stroke-width: 1.0;" width="6" x="14" y="165.6445"/><text fill="#000000" font-family="sans-serif" font-size="11" lengthAdjust="spacingAndGlyphs" textLength="32" x="26" y="170.9526">id: int</text><rect fill="none" height="6" style="stroke: #C82930; stroke-width: 1.0;" width="6" x="14" y="178.4492"/><text fill="#000000" font-family="sans-serif" font-size="11" lengthAdjust="spacingAndGlyphs" textLength="146" x="26" y="183.7573">vehicules: List&lt;Vehicule&gt;</text><rect fill="none" height="6" style="stroke: #C82930; stroke-width: 1.0;" width="6" x="14" y="191.2539"/><text fill="#000000" font-family="sans-serif" font-size="11" lengthAdjust="spacingAndGlyphs" textLength="104" x="26" y="196.562">instance: Instance</text><rect fill="none" height="6" style="stroke: #C82930; stroke-width: 1.0;" width="6" x="14" y="204.0586"/><text fill="#000000" font-family="sans-serif" font-size="11" lengthAdjust="spacingAndGlyphs" textLength="70" x="26" y="209.3667">cout: double</text><line style="stroke: #A80036; stroke-width: 1.5;" x1="7" x2="274" y1="215.9609" y2="215.9609"/><ellipse cx="17" cy="227.8633" fill="#84BE84" rx="3" ry="3" style="stroke: #038048; stroke-width: 1.0;"/><text fill="#000000" font-family="sans-serif" font-size="11" lengthAdjust="spacingAndGlyphs" textLength="56" x="26" y="230.1714">Planning()</text><ellipse cx="17" cy="240.668" fill="#84BE84" rx="3" ry="3" style="stroke: #038048; stroke-width: 1.0;"/><text fill="#000000" font-family="sans-serif" font-size="11" lengthAdjust="spacingAndGlyphs" textLength="104" x="26" y="242.9761">Planning(Instance)</text><ellipse cx="17" cy="253.4727" fill="#84BE84" rx="3" ry="3" style="stroke: #038048; stroke-width: 1.0;"/><text fill="#000000" font-family="sans-serif" font-size="11" lengthAdjust="spacingAndGlyphs" textLength="243" x="26" y="255.7808">Planning(double, Instance, List&lt;Vehicule&gt;)</text><ellipse cx="17" cy="266.2773" fill="#84BE84" rx="3" ry="3" style="stroke: #038048; stroke-width: 1.0;"/><text fill="#000000" font-family="sans-serif" font-size="11" lengthAdjust="spacingAndGlyphs" textLength="173" x="26" y="268.5854">getVehicules(): List&lt;Vehicule&gt;</text><ellipse cx="17" cy="279.082" fill="#84BE84" rx="3" ry="3" style="stroke: #038048; stroke-width: 1.0;"/><text fill="#000000" font-family="sans-serif" font-size="11" lengthAdjust="spacingAndGlyphs" textLength="176" x="26" y="281.3901">addVehicule(Vehicule): boolean</text><ellipse cx="17" cy="291.8867" fill="#84BE84" rx="3" ry="3" style="stroke: #038048; stroke-width: 1.0;"/><text fill="#000000" font-family="sans-serif" font-size="11" lengthAdjust="spacingAndGlyphs" textLength="149" x="26" y="294.1948">recalculerCoutTotal(): void</text><ellipse cx="17" cy="304.6914" fill="#84BE84" rx="3" ry="3" style="stroke: #038048; stroke-width: 1.0;"/><text fill="#000000" font-family="sans-serif" font-size="11" lengthAdjust="spacingAndGlyphs" textLength="98" x="26" y="306.9995">getCout(): double</text><ellipse cx="17" cy="317.4961" fill="#84BE84" rx="3" ry="3" style="stroke: #038048; stroke-width: 1.0;"/><text fill="#000000" font-family="sans-serif" font-size="11" lengthAdjust="spacingAndGlyphs" textLength="67" x="26" y="319.8042">clear(): void</text><ellipse cx="17" cy="330.3008" fill="#84BE84" rx="3" ry="3" style="stroke: #038048; stroke-width: 1.0;"/><text fill="#000000" font-family="sans-serif" font-size="11" lengthAdjust="spacingAndGlyphs" textLength="93" x="26" y="332.6089">check(): boolean</text></a><!--class java.io.Serializable--><a href="https://docs.oracle.com/en/java/javase/11/docs/api/java.base/java/io/Serializable.html?is-external=true" target="_top" xlink:actuate="onRequest" xlink:show="new" xlink:title="https://docs.oracle.com/en/java/javase/11/docs/api/java.base/java/io/Serializable.html?is-external=true" xlink:type="simple"><rect fill="#FEFECE" filter="url(#f1uxuoeco3z5q6)" height="37.9375" id="java.io.Serializable" style="stroke: #A80036; stroke-width: 1.5;" width="108" x="86.5" y="8"/><ellipse cx="101.5" cy="26.9688" fill="#B4A7E5" rx="11" ry="11" style="stroke: #A80036; stroke-width: 1.0;"/><path d="M97.4219,22.7344 L97.4219,20.5781 L104.8125,20.5781 L104.8125,22.7344 L102.3438,22.7344 L102.3438,30.8125 L104.8125,30.8125 L104.8125,32.9688 L97.4219,32.9688 L97.4219,30.8125 L99.8906,30.8125 L99.8906,22.7344 L97.4219,22.7344 Z "/><text fill="#000000" font-family="sans-serif" font-size="14" font-style="italic" lengthAdjust="spacingAndGlyphs" textLength="76" x="115.5" y="25.9951">Serializable</text><text fill="#000000" font-family="sans-serif" font-size="10" font-style="italic" lengthAdjust="spacingAndGlyphs" textLength="33" x="137" y="38.5791">java.io</text></a><!--link java.io.Serializable to model.Planning--><path d="M140.5,66.1907 C140.5,77.956 140.5,91.5138 140.5,105.625 " fill="none" id="java.io.Serializable-model.Planning" style="stroke: #A80036; stroke-width: 1.0; stroke-dasharray: 7.0,7.0;"/><polygon fill="none" points="133.5001,66.1014,140.5,46.1013,147.5001,66.1013,133.5001,66.1014" style="stroke: #A80036; stroke-width: 1.0;"/><text fill="#888888" font-family="sans-serif" font-size="10" lengthAdjust="spacingAndGlyphs" textLength="186" x="53.5" y="358.2822">UMLDoclet 2.0.3, PlantUML 1.2019.06</text><!--
@startuml
    set namespaceSeparator none
    hide empty fields
    hide empty methods

    class "<size:14>Planning\n<size:10>model" as model.Planning [[Planning.html]] {
        {static} -serialVersionUID: long
        -id: int
        -vehicules: List<Vehicule>
        -instance: Instance
        -cout: double
        +Planning()
        +Planning(Instance)
        +Planning(double, Instance, List<Vehicule>)
        +getVehicules(): List<Vehicule>
        +addVehicule(Vehicule): boolean
        +recalculerCoutTotal(): void
        +getCout(): double
        +clear(): void
        +check(): boolean
    }

    interface "<size:14>Serializable\n<size:10>java.io" as java.io.Serializable [[https://docs.oracle.com/en/java/javase/11/docs/api/java.base/java/io/Serializable.html?is-external=true]]

    java.io.Serializable <|.. model.Planning

    center footer UMLDoclet 2.0.3, PlantUML 1.2019.06
@enduml

PlantUML version 1.2019.06(Fri May 24 19:10:25 CEST 2019)
(APACHE source distribution)
Java Runtime: OpenJDK Runtime Environment
JVM: OpenJDK 64-Bit Server VM
Java Version: 11.0.4+4-post-Debian-1
Operating System: Linux
OS Version: 4.19.0-5-amd64
Default Encoding: UTF-8
Language: fr
Country: FR
--></g></svg>