<?xml version="1.0" encoding="UTF-8" standalone="no"?><svg xmlns="http://www.w3.org/2000/svg" xmlns:xlink="http://www.w3.org/1999/xlink" contentScriptType="application/ecmascript" contentStyleType="text/css" height="346px" preserveAspectRatio="none" style="width:216px;height:346px;" version="1.1" viewBox="0 0 216 346" width="216px" zoomAndPan="magnify"><defs><filter height="300%" id="f1h0nvxum3nxbp" width="300%" x="-1" y="-1"><feGaussianBlur result="blurOut" stdDeviation="2.0"/><feColorMatrix in="blurOut" result="blurOut2" type="matrix" values="0 0 0 0 0 0 0 0 0 0 0 0 0 0 0 0 0 0 .4 0"/><feOffset dx="4.0" dy="4.0" in="blurOut2" result="blurOut3"/><feBlend in="SourceGraphic" in2="blurOut3" mode="normal"/></filter></defs><g><!--class model.Route--><a href="Route.html" target="_top" xlink:actuate="onRequest" xlink:show="new" xlink:title="Route.html" xlink:type="simple"><rect fill="#FEFECE" filter="url(#f1h0nvxum3nxbp)" height="207.5938" id="model.Route" style="stroke: #A80036; stroke-width: 1.5;" width="198" x="6" y="106"/><ellipse cx="79.75" cy="124.9688" fill="#ADD1B2" rx="11" ry="11" style="stroke: #A80036; stroke-width: 1.0;"/><path d="M82.7188,130.6094 Q82.1406,130.9063 81.5,131.0469 Q80.8594,131.2031 80.1563,131.2031 Q77.6563,131.2031 76.3281,129.5625 Q75.0156,127.9063 75.0156,124.7813 Q75.0156,121.6563 76.3281,120 Q77.6563,118.3438 80.1563,118.3438 Q80.8594,118.3438 81.5,118.5 Q82.1563,118.6563 82.7188,118.9531 L82.7188,121.6719 Q82.0938,121.0938 81.5,120.8281 Q80.9063,120.5469 80.2813,120.5469 Q78.9375,120.5469 78.25,121.625 Q77.5625,122.6875 77.5625,124.7813 Q77.5625,126.875 78.25,127.9531 Q78.9375,129.0156 80.2813,129.0156 Q80.9063,129.0156 81.5,128.75 Q82.0938,128.4688 82.7188,127.8906 L82.7188,130.6094 Z "/><text fill="#000000" font-family="sans-serif" font-size="14" lengthAdjust="spacingAndGlyphs" textLength="42" x="100.25" y="123.9951">Route</text><text fill="#000000" font-family="sans-serif" font-size="10" lengthAdjust="spacingAndGlyphs" textLength="30" x="106.25" y="136.5791">model</text><line style="stroke: #A80036; stroke-width: 1.5;" x1="7" x2="203" y1="143.9375" y2="143.9375"/><rect fill="none" height="6" style="stroke: #C82930; stroke-width: 1.0;" width="6" x="14" y="152.8398"/><text fill="#000000" font-family="sans-serif" font-size="11" lengthAdjust="spacingAndGlyphs" text-decoration="underline" textLength="126" x="26" y="158.1479">serialVersionUID: long</text><rect fill="none" height="6" style="stroke: #C82930; stroke-width: 1.0;" width="6" x="14" y="165.6445"/><text fill="#000000" font-family="sans-serif" font-size="11" lengthAdjust="spacingAndGlyphs" textLength="32" x="26" y="170.9526">id: int</text><rect fill="none" height="6" style="stroke: #C82930; stroke-width: 1.0;" width="6" x="14" y="178.4492"/><text fill="#000000" font-family="sans-serif" font-size="11" lengthAdjust="spacingAndGlyphs" textLength="63" x="26" y="183.7573">from: Point</text><rect fill="none" height="6" style="stroke: #C82930; stroke-width: 1.0;" width="6" x="14" y="191.2539"/><text fill="#000000" font-family="sans-serif" font-size="11" lengthAdjust="spacingAndGlyphs" textLength="47" x="26" y="196.562">to: Point</text><rect fill="none" height="6" style="stroke: #C82930; stroke-width: 1.0;" width="6" x="14" y="204.0586"/><text fill="#000000" font-family="sans-serif" font-size="11" lengthAdjust="spacingAndGlyphs" textLength="70" x="26" y="209.3667">cout: double</text><rect fill="none" height="6" style="stroke: #C82930; stroke-width: 1.0;" width="6" x="14" y="216.8633"/><text fill="#000000" font-family="sans-serif" font-size="11" lengthAdjust="spacingAndGlyphs" textLength="58" x="26" y="222.1714">temps: int</text><line style="stroke: #A80036; stroke-width: 1.5;" x1="7" x2="203" y1="228.7656" y2="228.7656"/><ellipse cx="17" cy="240.668" fill="#84BE84" rx="3" ry="3" style="stroke: #038048; stroke-width: 1.0;"/><text fill="#000000" font-family="sans-serif" font-size="11" lengthAdjust="spacingAndGlyphs" textLength="40" x="26" y="242.9761">Route()</text><ellipse cx="17" cy="253.4727" fill="#84BE84" rx="3" ry="3" style="stroke: #038048; stroke-width: 1.0;"/><text fill="#000000" font-family="sans-serif" font-size="11" lengthAdjust="spacingAndGlyphs" textLength="172" x="26" y="255.7808">Route(Point, Point, double, int)</text><ellipse cx="17" cy="266.2773" fill="#84BE84" rx="3" ry="3" style="stroke: #038048; stroke-width: 1.0;"/><text fill="#000000" font-family="sans-serif" font-size="11" lengthAdjust="spacingAndGlyphs" textLength="91" x="26" y="268.5854">getFrom(): Point</text><ellipse cx="17" cy="279.082" fill="#84BE84" rx="3" ry="3" style="stroke: #038048; stroke-width: 1.0;"/><text fill="#000000" font-family="sans-serif" font-size="11" lengthAdjust="spacingAndGlyphs" textLength="76" x="26" y="281.3901">getTo(): Point</text><ellipse cx="17" cy="291.8867" fill="#84BE84" rx="3" ry="3" style="stroke: #038048; stroke-width: 1.0;"/><text fill="#000000" font-family="sans-serif" font-size="11" lengthAdjust="spacingAndGlyphs" textLength="98" x="26" y="294.1948">getCout(): double</text><ellipse cx="17" cy="304.6914" fill="#84BE84" rx="3" ry="3" style="stroke: #038048; stroke-width: 1.0;"/><text fill="#000000" font-family="sans-serif" font-size="11" lengthAdjust="spacingAndGlyphs" textLength="87" x="26" y="306.9995">getTemps(): int</text></a><!--class java.io.Serializable--><a href="https://docs.oracle.com/en/java/javase/11/docs/api/java.base/java/io/Serializable.html?is-external=true" target="_top" xlink:actuate="onRequest" xlink:show="new" xlink:title="https://docs.oracle.com/en/java/javase/11/docs/api/java.base/java/io/Serializable.html?is-external=true" xlink:type="simple"><rect fill="#FEFECE" filter="url(#f1h0nvxum3nxbp)" height="37.9375" id="java.io.Serializable" style="stroke: #A80036; stroke-width: 1.5;" width="108" x="51" y="8"/><ellipse cx="66" cy="26.9688" fill="#B4A7E5" rx="11" ry="11" style="stroke: #A80036; stroke-width: 1.0;"/><path d="M61.9219,22.7344 L61.9219,20.5781 L69.3125,20.5781 L69.3125,22.7344 L66.8438,22.7344 L66.8438,30.8125 L69.3125,30.8125 L69.3125,32.9688 L61.9219,32.9688 L61.9219,30.8125 L64.3906,30.8125 L64.3906,22.7344 L61.9219,22.7344 Z "/><text fill="#000000" font-family="sans-serif" font-size="14" font-style="italic" lengthAdjust="spacingAndGlyphs" textLength="76" x="80" y="25.9951">Serializable</text><text fill="#000000" font-family="sans-serif" font-size="10" font-style="italic" lengthAdjust="spacingAndGlyphs" textLength="33" x="101.5" y="38.5791">java.io</text></a><!--link java.io.Serializable to model.Route--><path d="M105,66.5059 C105,78.3418 105,91.9152 105,105.8885 " fill="none" id="java.io.Serializable-model.Route" style="stroke: #A80036; stroke-width: 1.0; stroke-dasharray: 7.0,7.0;"/><polygon fill="none" points="98.0001,66.2384,105,46.2383,112.0001,66.2383,98.0001,66.2384" style="stroke: #A80036; stroke-width: 1.0;"/><text fill="#888888" font-family="sans-serif" font-size="10" lengthAdjust="spacingAndGlyphs" textLength="186" x="18" y="333.2822">UMLDoclet 2.0.3, PlantUML 1.2019.06</text><!--
@startuml
    set namespaceSeparator none
    hide empty fields
    hide empty methods

    class "<size:14>Route\n<size:10>model" as model.Route [[Route.html]] {
        {static} -serialVersionUID: long
        -id: int
        -from: Point
        -to: Point
        -cout: double
        -temps: int
        +Route()
        +Route(Point, Point, double, int)
        +getFrom(): Point
        +getTo(): Point
        +getCout(): double
        +getTemps(): int
    }

    interface "<size:14>Serializable\n<size:10>java.io" as java.io.Serializable [[https://docs.oracle.com/en/java/javase/11/docs/api/java.base/java/io/Serializable.html?is-external=true]]

    java.io.Serializable <|.. model.Route

    center footer UMLDoclet 2.0.3, PlantUML 1.2019.06
@enduml

PlantUML version 1.2019.06(Fri May 24 19:10:25 CEST 2019)
(APACHE source distribution)
Java Runtime: OpenJDK Runtime Environment
JVM: OpenJDK 64-Bit Server VM
Java Version: 11.0.4+4-post-Debian-1
Operating System: Linux
OS Version: 4.19.0-5-amd64
Default Encoding: UTF-8
Language: fr
Country: FR
--></g></svg>