<?xml version="1.0" encoding="UTF-8" standalone="no"?><svg xmlns="http://www.w3.org/2000/svg" xmlns:xlink="http://www.w3.org/1999/xlink" contentScriptType="application/ecmascript" contentStyleType="text/css" height="298px" preserveAspectRatio="none" style="width:447px;height:298px;" version="1.1" viewBox="0 0 447 298" width="447px" zoomAndPan="magnify"><defs><filter height="300%" id="f1gcvl2ipftwrd" width="300%" x="-1" y="-1"><feGaussianBlur result="blurOut" stdDeviation="2.0"/><feColorMatrix in="blurOut" result="blurOut2" type="matrix" values="0 0 0 0 0 0 0 0 0 0 0 0 0 0 0 0 0 0 .4 0"/><feOffset dx="4.0" dy="4.0" in="blurOut2" result="blurOut3"/><feBlend in="SourceGraphic" in2="blurOut3" mode="normal"/></filter></defs><g><!--cluster algo--><polygon fill="#FFFFFF" filter="url(#f1gcvl2ipftwrd)" points="14,137,53,137,60,159.2969,425,159.2969,425,258,14,258,14,137" style="stroke: #000000; stroke-width: 1.5;"/><line style="stroke: #000000; stroke-width: 1.5;" x1="14" x2="60" y1="159.2969" y2="159.2969"/><text fill="#000000" font-family="sans-serif" font-size="14" font-weight="bold" lengthAdjust="spacingAndGlyphs" textLength="33" x="18" y="151.9951">algo</text><!--cluster java.lang--><polygon fill="#FFFFFF" filter="url(#f1gcvl2ipftwrd)" points="241,16,316,16,323,38.2969,409,38.2969,409,112,241,112,241,16" style="stroke: #000000; stroke-width: 1.5;"/><line style="stroke: #000000; stroke-width: 1.5;" x1="241" x2="323" y1="38.2969" y2="38.2969"/><text fill="#000000" font-family="sans-serif" font-size="14" font-weight="bold" lengthAdjust="spacingAndGlyphs" textLength="69" x="245" y="30.9951">java.lang</text><!--class algo.SolverException--><a href="SolverException.html" target="_top" xlink:actuate="onRequest" xlink:show="new" xlink:title="SolverException.html" xlink:type="simple"><rect fill="#FEFECE" filter="url(#f1gcvl2ipftwrd)" height="86.4141" id="algo.SolverException" style="stroke: #A80036; stroke-width: 1.5;" width="183" x="233.5" y="164"/><ellipse cx="271.9" cy="180" fill="#ADD1B2" rx="11" ry="11" style="stroke: #A80036; stroke-width: 1.0;"/><path d="M274.8688,185.6406 Q274.2906,185.9375 273.65,186.0781 Q273.0094,186.2344 272.3063,186.2344 Q269.8063,186.2344 268.4781,184.5938 Q267.1656,182.9375 267.1656,179.8125 Q267.1656,176.6875 268.4781,175.0313 Q269.8063,173.375 272.3063,173.375 Q273.0094,173.375 273.65,173.5313 Q274.3063,173.6875 274.8688,173.9844 L274.8688,176.7031 Q274.2438,176.125 273.65,175.8594 Q273.0563,175.5781 272.4313,175.5781 Q271.0875,175.5781 270.4,176.6563 Q269.7125,177.7188 269.7125,179.8125 Q269.7125,181.9063 270.4,182.9844 Q271.0875,184.0469 272.4313,184.0469 Q273.0563,184.0469 273.65,183.7813 Q274.2438,183.5 274.8688,182.9219 L274.8688,185.6406 Z "/><text fill="#000000" font-family="sans-serif" font-size="12" lengthAdjust="spacingAndGlyphs" textLength="99" x="291.1" y="184.1543">SolverException</text><line style="stroke: #A80036; stroke-width: 1.5;" x1="234.5" x2="415.5" y1="196" y2="196"/><rect fill="none" height="6" style="stroke: #C82930; stroke-width: 1.0;" width="6" x="241.5" y="204.9023"/><text fill="#000000" font-family="sans-serif" font-size="11" lengthAdjust="spacingAndGlyphs" text-decoration="underline" textLength="126" x="253.5" y="210.2104">serialVersionUID: long</text><line style="stroke: #A80036; stroke-width: 1.5;" x1="234.5" x2="415.5" y1="216.8047" y2="216.8047"/><ellipse cx="244.5" cy="228.707" fill="#84BE84" rx="3" ry="3" style="stroke: #038048; stroke-width: 1.0;"/><text fill="#000000" font-family="sans-serif" font-size="11" lengthAdjust="spacingAndGlyphs" textLength="132" x="253.5" y="231.0151">SolverException(String)</text><ellipse cx="244.5" cy="241.5117" fill="#84BE84" rx="3" ry="3" style="stroke: #038048; stroke-width: 1.0;"/><text fill="#000000" font-family="sans-serif" font-size="11" lengthAdjust="spacingAndGlyphs" textLength="157" x="253.5" y="243.8198">SolverException(Throwable)</text></a><!--class algo.ISolver--><a href="ISolver.html" target="_top" xlink:actuate="onRequest" xlink:show="new" xlink:title="ISolver.html" xlink:type="simple"><rect fill="#FEFECE" filter="url(#f1gcvl2ipftwrd)" height="86.4141" id="algo.ISolver" style="stroke: #A80036; stroke-width: 1.5;" width="177" x="21.5" y="164"/><ellipse cx="84.75" cy="180" fill="#B4A7E5" rx="11" ry="11" style="stroke: #A80036; stroke-width: 1.0;"/><path d="M80.6719,175.7656 L80.6719,173.6094 L88.0625,173.6094 L88.0625,175.7656 L85.5938,175.7656 L85.5938,183.8438 L88.0625,183.8438 L88.0625,186 L80.6719,186 L80.6719,183.8438 L83.1406,183.8438 L83.1406,175.7656 L80.6719,175.7656 Z "/><text fill="#000000" font-family="sans-serif" font-size="12" font-style="italic" lengthAdjust="spacingAndGlyphs" textLength="42" x="105.25" y="184.1543">ISolver</text><line style="stroke: #A80036; stroke-width: 1.5;" x1="22.5" x2="197.5" y1="196" y2="196"/><line style="stroke: #A80036; stroke-width: 1.5;" x1="22.5" x2="197.5" y1="204" y2="204"/><ellipse cx="32.5" cy="215.9023" fill="#84BE84" rx="3" ry="3" style="stroke: #038048; stroke-width: 1.0;"/><text fill="#000000" font-family="sans-serif" font-size="11" font-style="italic" lengthAdjust="spacingAndGlyphs" textLength="128" x="41.5" y="218.2104">getInstance(): Instance</text><ellipse cx="32.5" cy="228.707" fill="#84BE84" rx="3" ry="3" style="stroke: #038048; stroke-width: 1.0;"/><text fill="#000000" font-family="sans-serif" font-size="11" font-style="italic" lengthAdjust="spacingAndGlyphs" textLength="151" x="41.5" y="231.0151">setInstance(Instance): void</text><ellipse cx="32.5" cy="241.5117" fill="#84BE84" rx="3" ry="3" style="stroke: #038048; stroke-width: 1.0;"/><text fill="#000000" font-family="sans-serif" font-size="11" font-style="italic" lengthAdjust="spacingAndGlyphs" textLength="91" x="41.5" y="243.8198">solve(): boolean</text></a><!--class java.lang.Exception--><a href="https://docs.oracle.com/en/java/javase/11/docs/api/java.base/java/lang/Exception.html?is-external=true" target="_top" xlink:actuate="onRequest" xlink:show="new" xlink:title="https://docs.oracle.com/en/java/javase/11/docs/api/java.base/java/lang/Exception.html?is-external=true" xlink:type="simple"><rect fill="#FEFECE" filter="url(#f1gcvl2ipftwrd)" height="60.8047" id="java.lang.Exception" style="stroke: #A80036; stroke-width: 1.5;" width="152" x="249" y="43"/><ellipse cx="290.55" cy="59" fill="#ADD1B2" rx="11" ry="11" style="stroke: #A80036; stroke-width: 1.0;"/><path d="M293.5188,64.6406 Q292.9406,64.9375 292.3,65.0781 Q291.6594,65.2344 290.9563,65.2344 Q288.4563,65.2344 287.1281,63.5938 Q285.8156,61.9375 285.8156,58.8125 Q285.8156,55.6875 287.1281,54.0313 Q288.4563,52.375 290.9563,52.375 Q291.6594,52.375 292.3,52.5313 Q292.9563,52.6875 293.5188,52.9844 L293.5188,55.7031 Q292.8938,55.125 292.3,54.8594 Q291.7063,54.5781 291.0813,54.5781 Q289.7375,54.5781 289.05,55.6563 Q288.3625,56.7188 288.3625,58.8125 Q288.3625,60.9063 289.05,61.9844 Q289.7375,63.0469 291.0813,63.0469 Q291.7063,63.0469 292.3,62.7813 Q292.8938,62.5 293.5188,61.9219 L293.5188,64.6406 Z "/><text fill="#000000" font-family="sans-serif" font-size="12" lengthAdjust="spacingAndGlyphs" textLength="61" x="310.45" y="63.1543">Exception</text><line style="stroke: #A80036; stroke-width: 1.5;" x1="250" x2="400" y1="75" y2="75"/><polygon fill="none" points="260,82.9023,256,88.9023,264,88.9023" style="stroke: #1963A0; stroke-width: 1.0;"/><text fill="#000000" font-family="sans-serif" font-size="11" lengthAdjust="spacingAndGlyphs" text-decoration="underline" textLength="126" x="269" y="89.2104">serialVersionUID: long</text><line style="stroke: #A80036; stroke-width: 1.5;" x1="250" x2="400" y1="95.8047" y2="95.8047"/></a><!--link java.lang.Exception to algo.SolverException--><path d="M325,124.2557 C325,137.3131 325,151.2382 325,163.8681 " fill="none" id="java.lang.Exception-algo.SolverException" style="stroke: #A80036; stroke-width: 1.0;"/><polygon fill="none" points="318.0001,124.1276,325,104.1276,332.0001,124.1276,318.0001,124.1276" style="stroke: #A80036; stroke-width: 1.0;"/><text fill="#888888" font-family="sans-serif" font-size="10" lengthAdjust="spacingAndGlyphs" textLength="186" x="132.5" y="285.2822">UMLDoclet 2.0.3, PlantUML 1.2019.06</text><!--
@startuml
    namespace algo {

        class SolverException [[SolverException.html]] {
            {static} -serialVersionUID: long
            +SolverException(String)
            +SolverException(Throwable)
        }

        interface ISolver [[ISolver.html]] {
            {abstract} +getInstance(): Instance
            {abstract} +setInstance(Instance): void
            {abstract} +solve(): boolean
        }

        java.lang.Exception <|- - SolverException
    }

    namespace java.lang {
        class Exception [[https://docs.oracle.com/en/java/javase/11/docs/api/java.base/java/lang/Exception.html?is-external=true]] {
            {static} ~serialVersionUID: long
        }
    }

    center footer UMLDoclet 2.0.3, PlantUML 1.2019.06
@enduml

PlantUML version 1.2019.06(Fri May 24 19:10:25 CEST 2019)
(APACHE source distribution)
Java Runtime: OpenJDK Runtime Environment
JVM: OpenJDK 64-Bit Server VM
Java Version: 11.0.4+4-post-Debian-1
Operating System: Linux
OS Version: 4.19.0-5-amd64
Default Encoding: UTF-8
Language: fr
Country: FR
--></g></svg>