<?xml version="1.0" encoding="UTF-8" standalone="no"?><svg xmlns="http://www.w3.org/2000/svg" xmlns:xlink="http://www.w3.org/1999/xlink" contentScriptType="application/ecmascript" contentStyleType="text/css" height="230px" preserveAspectRatio="none" style="width:208px;height:230px;" version="1.1" viewBox="0 0 208 230" width="208px" zoomAndPan="magnify"><defs><filter height="300%" id="f3g2w5cp6bfbt" width="300%" x="-1" y="-1"><feGaussianBlur result="blurOut" stdDeviation="2.0"/><feColorMatrix in="blurOut" result="blurOut2" type="matrix" values="0 0 0 0 0 0 0 0 0 0 0 0 0 0 0 0 0 0 .4 0"/><feOffset dx="4.0" dy="4.0" in="blurOut2" result="blurOut3"/><feBlend in="SourceGraphic" in2="blurOut3" mode="normal"/></filter></defs><g><!--class algo.SolverException--><a href="SolverException.html" target="_top" xlink:actuate="onRequest" xlink:show="new" xlink:title="SolverException.html" xlink:type="simple"><rect fill="#FEFECE" filter="url(#f3g2w5cp6bfbt)" height="92.3516" id="algo.SolverException" style="stroke: #A80036; stroke-width: 1.5;" width="183" x="6" y="106"/><ellipse cx="39.45" cy="124.9688" fill="#ADD1B2" rx="11" ry="11" style="stroke: #A80036; stroke-width: 1.0;"/><path d="M42.4188,130.6094 Q41.8406,130.9063 41.2,131.0469 Q40.5594,131.2031 39.8563,131.2031 Q37.3563,131.2031 36.0281,129.5625 Q34.7156,127.9063 34.7156,124.7813 Q34.7156,121.6563 36.0281,120 Q37.3563,118.3438 39.8563,118.3438 Q40.5594,118.3438 41.2,118.5 Q41.8563,118.6563 42.4188,118.9531 L42.4188,121.6719 Q41.7938,121.0938 41.2,120.8281 Q40.6063,120.5469 39.9813,120.5469 Q38.6375,120.5469 37.95,121.625 Q37.2625,122.6875 37.2625,124.7813 Q37.2625,126.875 37.95,127.9531 Q38.6375,129.0156 39.9813,129.0156 Q40.6063,129.0156 41.2,128.75 Q41.7938,128.4688 42.4188,127.8906 L42.4188,130.6094 Z "/><text fill="#000000" font-family="sans-serif" font-size="14" lengthAdjust="spacingAndGlyphs" textLength="110" x="57.55" y="123.9951">SolverException</text><text fill="#000000" font-family="sans-serif" font-size="10" lengthAdjust="spacingAndGlyphs" textLength="20" x="102.55" y="136.5791">algo</text><line style="stroke: #A80036; stroke-width: 1.5;" x1="7" x2="188" y1="143.9375" y2="143.9375"/><rect fill="none" height="6" style="stroke: #C82930; stroke-width: 1.0;" width="6" x="14" y="152.8398"/><text fill="#000000" font-family="sans-serif" font-size="11" lengthAdjust="spacingAndGlyphs" text-decoration="underline" textLength="126" x="26" y="158.1479">serialVersionUID: long</text><line style="stroke: #A80036; stroke-width: 1.5;" x1="7" x2="188" y1="164.7422" y2="164.7422"/><ellipse cx="17" cy="176.6445" fill="#84BE84" rx="3" ry="3" style="stroke: #038048; stroke-width: 1.0;"/><text fill="#000000" font-family="sans-serif" font-size="11" lengthAdjust="spacingAndGlyphs" textLength="132" x="26" y="178.9526">SolverException(String)</text><ellipse cx="17" cy="189.4492" fill="#84BE84" rx="3" ry="3" style="stroke: #038048; stroke-width: 1.0;"/><text fill="#000000" font-family="sans-serif" font-size="11" lengthAdjust="spacingAndGlyphs" textLength="157" x="26" y="191.7573">SolverException(Throwable)</text></a><!--class java.lang.Exception--><a href="https://docs.oracle.com/en/java/javase/11/docs/api/java.base/java/lang/Exception.html?is-external=true" target="_top" xlink:actuate="onRequest" xlink:show="new" xlink:title="https://docs.oracle.com/en/java/javase/11/docs/api/java.base/java/lang/Exception.html?is-external=true" xlink:type="simple"><rect fill="#FEFECE" filter="url(#f3g2w5cp6bfbt)" height="37.9375" id="java.lang.Exception" style="stroke: #A80036; stroke-width: 1.5;" width="100" x="47.5" y="8"/><ellipse cx="62.5" cy="26.9688" fill="#ADD1B2" rx="11" ry="11" style="stroke: #A80036; stroke-width: 1.0;"/><path d="M65.4688,32.6094 Q64.8906,32.9063 64.25,33.0469 Q63.6094,33.2031 62.9063,33.2031 Q60.4063,33.2031 59.0781,31.5625 Q57.7656,29.9063 57.7656,26.7813 Q57.7656,23.6563 59.0781,22 Q60.4063,20.3438 62.9063,20.3438 Q63.6094,20.3438 64.25,20.5 Q64.9063,20.6563 65.4688,20.9531 L65.4688,23.6719 Q64.8438,23.0938 64.25,22.8281 Q63.6563,22.5469 63.0313,22.5469 Q61.6875,22.5469 61,23.625 Q60.3125,24.6875 60.3125,26.7813 Q60.3125,28.875 61,29.9531 Q61.6875,31.0156 63.0313,31.0156 Q63.6563,31.0156 64.25,30.75 Q64.8438,30.4688 65.4688,29.8906 L65.4688,32.6094 Z "/><text fill="#000000" font-family="sans-serif" font-size="14" lengthAdjust="spacingAndGlyphs" textLength="68" x="76.5" y="25.9951">Exception</text><text fill="#000000" font-family="sans-serif" font-size="10" lengthAdjust="spacingAndGlyphs" textLength="43" x="89" y="38.5791">java.lang</text></a><!--link java.lang.Exception to algo.SolverException--><path d="M97.5,66.695 C97.5,79.1838 97.5,93.0804 97.5,105.9705 " fill="none" id="java.lang.Exception-algo.SolverException" style="stroke: #A80036; stroke-width: 1.0;"/><polygon fill="none" points="90.5001,66.2573,97.5,46.2573,104.5001,66.2573,90.5001,66.2573" style="stroke: #A80036; stroke-width: 1.0;"/><text fill="#888888" font-family="sans-serif" font-size="10" lengthAdjust="spacingAndGlyphs" textLength="186" x="10.5" y="217.2822">UMLDoclet 2.0.3, PlantUML 1.2019.06</text><!--
@startuml
    set namespaceSeparator none
    hide empty fields
    hide empty methods

    class "<size:14>SolverException\n<size:10>algo" as algo.SolverException [[SolverException.html]] {
        {static} -serialVersionUID: long
        +SolverException(String)
        +SolverException(Throwable)
    }

    class "<size:14>Exception\n<size:10>java.lang" as java.lang.Exception [[https://docs.oracle.com/en/java/javase/11/docs/api/java.base/java/lang/Exception.html?is-external=true]]

    java.lang.Exception <|- - algo.SolverException

    center footer UMLDoclet 2.0.3, PlantUML 1.2019.06
@enduml

PlantUML version 1.2019.06(Fri May 24 19:10:25 CEST 2019)
(APACHE source distribution)
Java Runtime: OpenJDK Runtime Environment
JVM: OpenJDK 64-Bit Server VM
Java Version: 11.0.4+4-post-Debian-1
Operating System: Linux
OS Version: 4.19.0-5-amd64
Default Encoding: UTF-8
Language: fr
Country: FR
--></g></svg>