<?xml version="1.0" encoding="UTF-8" standalone="no"?><svg xmlns="http://www.w3.org/2000/svg" xmlns:xlink="http://www.w3.org/1999/xlink" contentScriptType="application/ecmascript" contentStyleType="text/css" height="132px" preserveAspectRatio="none" style="width:256px;height:132px;" version="1.1" viewBox="0 0 256 132" width="256px" zoomAndPan="magnify"><defs><filter height="300%" id="f1e499659hd1u1" width="300%" x="-1" y="-1"><feGaussianBlur result="blurOut" stdDeviation="2.0"/><feColorMatrix in="blurOut" result="blurOut2" type="matrix" values="0 0 0 0 0 0 0 0 0 0 0 0 0 0 0 0 0 0 .4 0"/><feOffset dx="4.0" dy="4.0" in="blurOut2" result="blurOut3"/><feBlend in="SourceGraphic" in2="blurOut3" mode="normal"/></filter></defs><g><!--class io.input.InstanceParserTest--><a href="InstanceParserTest.html" target="_top" xlink:actuate="onRequest" xlink:show="new" xlink:title="InstanceParserTest.html" xlink:type="simple"><rect fill="#FEFECE" filter="url(#f1e499659hd1u1)" height="92.3516" id="io.input.InstanceParserTest" style="stroke: #A80036; stroke-width: 1.5;" width="239" x="6" y="8"/><ellipse cx="54.25" cy="26.9688" fill="#ADD1B2" rx="11" ry="11" style="stroke: #A80036; stroke-width: 1.0;"/><path d="M57.2188,32.6094 Q56.6406,32.9063 56,33.0469 Q55.3594,33.2031 54.6563,33.2031 Q52.1563,33.2031 50.8281,31.5625 Q49.5156,29.9063 49.5156,26.7813 Q49.5156,23.6563 50.8281,22 Q52.1563,20.3438 54.6563,20.3438 Q55.3594,20.3438 56,20.5 Q56.6563,20.6563 57.2188,20.9531 L57.2188,23.6719 Q56.5938,23.0938 56,22.8281 Q55.4063,22.5469 54.7813,22.5469 Q53.4375,22.5469 52.75,23.625 Q52.0625,24.6875 52.0625,26.7813 Q52.0625,28.875 52.75,29.9531 Q53.4375,31.0156 54.7813,31.0156 Q55.4063,31.0156 56,30.75 Q56.5938,30.4688 57.2188,29.8906 L57.2188,32.6094 Z "/><text fill="#000000" font-family="sans-serif" font-size="14" lengthAdjust="spacingAndGlyphs" textLength="134" x="74.75" y="25.9951">InstanceParserTest</text><text fill="#000000" font-family="sans-serif" font-size="10" lengthAdjust="spacingAndGlyphs" textLength="35" x="124.25" y="38.5791">io.input</text><line style="stroke: #A80036; stroke-width: 1.5;" x1="7" x2="244" y1="45.9375" y2="45.9375"/><rect fill="none" height="6" style="stroke: #C82930; stroke-width: 1.0;" width="6" x="14" y="54.8398"/><text fill="#000000" font-family="sans-serif" font-size="11" lengthAdjust="spacingAndGlyphs" textLength="151" x="26" y="60.1479">parser: InstanceFileParser</text><rect fill="none" height="6" style="stroke: #C82930; stroke-width: 1.0;" width="6" x="14" y="67.6445"/><text fill="#000000" font-family="sans-serif" font-size="11" lengthAdjust="spacingAndGlyphs" textLength="98" x="26" y="72.9526">testString: String</text><line style="stroke: #A80036; stroke-width: 1.5;" x1="7" x2="244" y1="79.5469" y2="79.5469"/><ellipse cx="17" cy="91.4492" fill="#84BE84" rx="3" ry="3" style="stroke: #038048; stroke-width: 1.0;"/><text fill="#000000" font-family="sans-serif" font-size="11" lengthAdjust="spacingAndGlyphs" textLength="213" x="26" y="93.7573">isWorkingWithValidInputStream(): void</text></a><text fill="#888888" font-family="sans-serif" font-size="10" lengthAdjust="spacingAndGlyphs" textLength="186" x="38.5" y="119.2822">UMLDoclet 2.0.3, PlantUML 1.2019.06</text><!--
@startuml
    set namespaceSeparator none
    hide empty fields
    hide empty methods

    class "<size:14>InstanceParserTest\n<size:10>io.input" as io.input.InstanceParserTest [[InstanceParserTest.html]] {
        -parser: InstanceFileParser
        -testString: String
        +isWorkingWithValidInputStream(): void
    }

    center footer UMLDoclet 2.0.3, PlantUML 1.2019.06
@enduml

PlantUML version 1.2019.06(Fri May 24 19:10:25 CEST 2019)
(APACHE source distribution)
Java Runtime: OpenJDK Runtime Environment
JVM: OpenJDK 64-Bit Server VM
Java Version: 11.0.4+4-post-Debian-1
Operating System: Linux
OS Version: 4.19.0-5-amd64
Default Encoding: UTF-8
Language: fr
Country: FR
--></g></svg>