<?xml version="1.0" encoding="UTF-8" standalone="no"?><svg xmlns="http://www.w3.org/2000/svg" xmlns:xlink="http://www.w3.org/1999/xlink" contentScriptType="application/ecmascript" contentStyleType="text/css" height="352px" preserveAspectRatio="none" style="width:535px;height:352px;" version="1.1" viewBox="0 0 535 352" width="535px" zoomAndPan="magnify"><defs><filter height="300%" id="f17ciw84s2j3y9" width="300%" x="-1" y="-1"><feGaussianBlur result="blurOut" stdDeviation="2.0"/><feColorMatrix in="blurOut" result="blurOut2" type="matrix" values="0 0 0 0 0 0 0 0 0 0 0 0 0 0 0 0 0 0 .4 0"/><feOffset dx="4.0" dy="4.0" in="blurOut2" result="blurOut3"/><feBlend in="SourceGraphic" in2="blurOut3" mode="normal"/></filter></defs><g><!--cluster io.input--><polygon fill="#FFFFFF" filter="url(#f17ciw84s2j3y9)" points="14,16,79,16,86,38.2969,513,38.2969,513,312,14,312,14,16" style="stroke: #000000; stroke-width: 1.5;"/><line style="stroke: #000000; stroke-width: 1.5;" x1="14" x2="86" y1="38.2969" y2="38.2969"/><text fill="#000000" font-family="sans-serif" font-size="14" font-weight="bold" lengthAdjust="spacingAndGlyphs" textLength="59" x="18" y="30.9951">io.input</text><!--class io.input.TsvParserTest--><a href="TsvParserTest.html" target="_top" xlink:actuate="onRequest" xlink:show="new" xlink:title="TsvParserTest.html" xlink:type="simple"><rect fill="#FEFECE" filter="url(#f17ciw84s2j3y9)" height="73.6094" id="io.input.TsvParserTest" style="stroke: #A80036; stroke-width: 1.5;" width="209" x="295.5" y="43"/><ellipse cx="351.75" cy="59" fill="#ADD1B2" rx="11" ry="11" style="stroke: #A80036; stroke-width: 1.0;"/><path d="M354.7188,64.6406 Q354.1406,64.9375 353.5,65.0781 Q352.8594,65.2344 352.1563,65.2344 Q349.6563,65.2344 348.3281,63.5938 Q347.0156,61.9375 347.0156,58.8125 Q347.0156,55.6875 348.3281,54.0313 Q349.6563,52.375 352.1563,52.375 Q352.8594,52.375 353.5,52.5313 Q354.1563,52.6875 354.7188,52.9844 L354.7188,55.7031 Q354.0938,55.125 353.5,54.8594 Q352.9063,54.5781 352.2813,54.5781 Q350.9375,54.5781 350.25,55.6563 Q349.5625,56.7188 349.5625,58.8125 Q349.5625,60.9063 350.25,61.9844 Q350.9375,63.0469 352.2813,63.0469 Q352.9063,63.0469 353.5,62.7813 Q354.0938,62.5 354.7188,61.9219 L354.7188,64.6406 Z "/><text fill="#000000" font-family="sans-serif" font-size="12" lengthAdjust="spacingAndGlyphs" textLength="88" x="372.25" y="63.1543">TsvParserTest</text><line style="stroke: #A80036; stroke-width: 1.5;" x1="296.5" x2="503.5" y1="75" y2="75"/><rect fill="none" height="6" style="stroke: #C82930; stroke-width: 1.0;" width="6" x="303.5" y="83.9023"/><text fill="#000000" font-family="sans-serif" font-size="11" lengthAdjust="spacingAndGlyphs" textLength="98" x="315.5" y="89.2104">testString: String</text><line style="stroke: #A80036; stroke-width: 1.5;" x1="296.5" x2="503.5" y1="95.8047" y2="95.8047"/><ellipse cx="306.5" cy="107.707" fill="#84BE84" rx="3" ry="3" style="stroke: #038048; stroke-width: 1.0;"/><text fill="#000000" font-family="sans-serif" font-size="11" lengthAdjust="spacingAndGlyphs" textLength="183" x="315.5" y="110.0151">isWorkingWithValidReader(): void</text></a><!--class io.input.InstanceParserTest--><a href="InstanceParserTest.html" target="_top" xlink:actuate="onRequest" xlink:show="new" xlink:title="InstanceParserTest.html" xlink:type="simple"><rect fill="#FEFECE" filter="url(#f17ciw84s2j3y9)" height="73.6094" id="io.input.InstanceParserTest" style="stroke: #A80036; stroke-width: 1.5;" width="239" x="21.5" y="43"/><ellipse cx="75.75" cy="59" fill="#ADD1B2" rx="11" ry="11" style="stroke: #A80036; stroke-width: 1.0;"/><path d="M78.7188,64.6406 Q78.1406,64.9375 77.5,65.0781 Q76.8594,65.2344 76.1563,65.2344 Q73.6563,65.2344 72.3281,63.5938 Q71.0156,61.9375 71.0156,58.8125 Q71.0156,55.6875 72.3281,54.0313 Q73.6563,52.375 76.1563,52.375 Q76.8594,52.375 77.5,52.5313 Q78.1563,52.6875 78.7188,52.9844 L78.7188,55.7031 Q78.0938,55.125 77.5,54.8594 Q76.9063,54.5781 76.2813,54.5781 Q74.9375,54.5781 74.25,55.6563 Q73.5625,56.7188 73.5625,58.8125 Q73.5625,60.9063 74.25,61.9844 Q74.9375,63.0469 76.2813,63.0469 Q76.9063,63.0469 77.5,62.7813 Q78.0938,62.5 78.7188,61.9219 L78.7188,64.6406 Z "/><text fill="#000000" font-family="sans-serif" font-size="12" lengthAdjust="spacingAndGlyphs" textLength="122" x="96.25" y="63.1543">InstanceParserTest</text><line style="stroke: #A80036; stroke-width: 1.5;" x1="22.5" x2="259.5" y1="75" y2="75"/><rect fill="none" height="6" style="stroke: #C82930; stroke-width: 1.0;" width="6" x="29.5" y="83.9023"/><text fill="#000000" font-family="sans-serif" font-size="11" lengthAdjust="spacingAndGlyphs" textLength="98" x="41.5" y="89.2104">testString: String</text><line style="stroke: #A80036; stroke-width: 1.5;" x1="22.5" x2="259.5" y1="95.8047" y2="95.8047"/><ellipse cx="32.5" cy="107.707" fill="#84BE84" rx="3" ry="3" style="stroke: #038048; stroke-width: 1.0;"/><text fill="#000000" font-family="sans-serif" font-size="11" lengthAdjust="spacingAndGlyphs" textLength="213" x="41.5" y="110.0151">isWorkingWithValidInputStream(): void</text></a><!--class io.input.TsvParser--><rect fill="#FEFECE" filter="url(#f17ciw84s2j3y9)" height="48" id="io.input.TsvParser" style="stroke: #A80036; stroke-width: 1.5;" width="93" x="353.5" y="256"/><ellipse cx="368.5" cy="272" fill="#ADD1B2" rx="11" ry="11" style="stroke: #A80036; stroke-width: 1.0;"/><path d="M371.4688,277.6406 Q370.8906,277.9375 370.25,278.0781 Q369.6094,278.2344 368.9063,278.2344 Q366.4063,278.2344 365.0781,276.5938 Q363.7656,274.9375 363.7656,271.8125 Q363.7656,268.6875 365.0781,267.0313 Q366.4063,265.375 368.9063,265.375 Q369.6094,265.375 370.25,265.5313 Q370.9063,265.6875 371.4688,265.9844 L371.4688,268.7031 Q370.8438,268.125 370.25,267.8594 Q369.6563,267.5781 369.0313,267.5781 Q367.6875,267.5781 367,268.6563 Q366.3125,269.7188 366.3125,271.8125 Q366.3125,273.9063 367,274.9844 Q367.6875,276.0469 369.0313,276.0469 Q369.6563,276.0469 370.25,275.7813 Q370.8438,275.5 371.4688,274.9219 L371.4688,277.6406 Z "/><text fill="#000000" font-family="sans-serif" font-size="12" lengthAdjust="spacingAndGlyphs" textLength="61" x="382.5" y="276.1543">TsvParser</text><line style="stroke: #A80036; stroke-width: 1.5;" x1="354.5" x2="445.5" y1="288" y2="288"/><line style="stroke: #A80036; stroke-width: 1.5;" x1="354.5" x2="445.5" y1="296" y2="296"/><!--class io.input.InstanceFileParser--><rect fill="#FEFECE" filter="url(#f17ciw84s2j3y9)" height="48" id="io.input.InstanceFileParser" style="stroke: #A80036; stroke-width: 1.5;" width="148" x="67" y="256"/><ellipse cx="82" cy="272" fill="#ADD1B2" rx="11" ry="11" style="stroke: #A80036; stroke-width: 1.0;"/><path d="M84.9688,277.6406 Q84.3906,277.9375 83.75,278.0781 Q83.1094,278.2344 82.4063,278.2344 Q79.9063,278.2344 78.5781,276.5938 Q77.2656,274.9375 77.2656,271.8125 Q77.2656,268.6875 78.5781,267.0313 Q79.9063,265.375 82.4063,265.375 Q83.1094,265.375 83.75,265.5313 Q84.4063,265.6875 84.9688,265.9844 L84.9688,268.7031 Q84.3438,268.125 83.75,267.8594 Q83.1563,267.5781 82.5313,267.5781 Q81.1875,267.5781 80.5,268.6563 Q79.8125,269.7188 79.8125,271.8125 Q79.8125,273.9063 80.5,274.9844 Q81.1875,276.0469 82.5313,276.0469 Q83.1563,276.0469 83.75,275.7813 Q84.3438,275.5 84.9688,274.9219 L84.9688,277.6406 Z "/><text fill="#000000" font-family="sans-serif" font-size="12" lengthAdjust="spacingAndGlyphs" textLength="116" x="96" y="276.1543">InstanceFileParser</text><line style="stroke: #A80036; stroke-width: 1.5;" x1="68" x2="214" y1="288" y2="288"/><line style="stroke: #A80036; stroke-width: 1.5;" x1="68" x2="214" y1="296" y2="296"/><!--link io.input.TsvParserTest to io.input.TsvParser--><path d="M400,117.1497 C400,155.8035 400,215.5262 400,250.893 " fill="none" id="io.input.TsvParserTest-io.input.TsvParser" style="stroke: #A80036; stroke-width: 1.0;"/><polygon fill="#A80036" points="400,255.9289,404,246.9289,400,250.9289,396,246.9289,400,255.9289" style="stroke: #A80036; stroke-width: 1.0;"/><text fill="#000000" font-family="sans-serif" font-size="13" lengthAdjust="spacingAndGlyphs" textLength="41" x="401" y="191.0669">parser</text><!--link io.input.InstanceParserTest to io.input.InstanceFileParser--><path d="M141,117.1497 C141,155.8035 141,215.5262 141,250.893 " fill="none" id="io.input.InstanceParserTest-io.input.InstanceFileParser" style="stroke: #A80036; stroke-width: 1.0;"/><polygon fill="#A80036" points="141,255.9289,145,246.9289,141,250.9289,137,246.9289,141,255.9289" style="stroke: #A80036; stroke-width: 1.0;"/><text fill="#000000" font-family="sans-serif" font-size="13" lengthAdjust="spacingAndGlyphs" textLength="41" x="142" y="191.0669">parser</text><text fill="#888888" font-family="sans-serif" font-size="10" lengthAdjust="spacingAndGlyphs" textLength="186" x="176.5" y="339.2822">UMLDoclet 2.0.3, PlantUML 1.2019.06</text><!--
@startuml
    namespace io.input {

        class TsvParserTest [[TsvParserTest.html]] {
            -testString: String
            +isWorkingWithValidReader(): void
        }

        class InstanceParserTest [[InstanceParserTest.html]] {
            -testString: String
            +isWorkingWithValidInputStream(): void
        }

        TsvParserTest - -> TsvParser: parser
        InstanceParserTest - -> InstanceFileParser: parser
    }

    center footer UMLDoclet 2.0.3, PlantUML 1.2019.06
@enduml

PlantUML version 1.2019.06(Fri May 24 19:10:25 CEST 2019)
(APACHE source distribution)
Java Runtime: OpenJDK Runtime Environment
JVM: OpenJDK 64-Bit Server VM
Java Version: 11.0.4+4-post-Debian-1
Operating System: Linux
OS Version: 4.19.0-5-amd64
Default Encoding: UTF-8
Language: fr
Country: FR
--></g></svg>