<?xml version="1.0" encoding="UTF-8" standalone="no"?><svg xmlns="http://www.w3.org/2000/svg" xmlns:xlink="http://www.w3.org/1999/xlink" contentScriptType="application/ecmascript" contentStyleType="text/css" height="132px" preserveAspectRatio="none" style="width:226px;height:132px;" version="1.1" viewBox="0 0 226 132" width="226px" zoomAndPan="magnify"><defs><filter height="300%" id="f7wqj7m87fa9c" width="300%" x="-1" y="-1"><feGaussianBlur result="blurOut" stdDeviation="2.0"/><feColorMatrix in="blurOut" result="blurOut2" type="matrix" values="0 0 0 0 0 0 0 0 0 0 0 0 0 0 0 0 0 0 .4 0"/><feOffset dx="4.0" dy="4.0" in="blurOut2" result="blurOut3"/><feBlend in="SourceGraphic" in2="blurOut3" mode="normal"/></filter></defs><g><!--class io.input.TsvParserTest--><a href="TsvParserTest.html" target="_top" xlink:actuate="onRequest" xlink:show="new" xlink:title="TsvParserTest.html" xlink:type="simple"><rect fill="#FEFECE" filter="url(#f7wqj7m87fa9c)" height="92.3516" id="io.input.TsvParserTest" style="stroke: #A80036; stroke-width: 1.5;" width="209" x="6" y="8"/><ellipse cx="56.75" cy="26.9688" fill="#ADD1B2" rx="11" ry="11" style="stroke: #A80036; stroke-width: 1.0;"/><path d="M59.7188,32.6094 Q59.1406,32.9063 58.5,33.0469 Q57.8594,33.2031 57.1563,33.2031 Q54.6563,33.2031 53.3281,31.5625 Q52.0156,29.9063 52.0156,26.7813 Q52.0156,23.6563 53.3281,22 Q54.6563,20.3438 57.1563,20.3438 Q57.8594,20.3438 58.5,20.5 Q59.1563,20.6563 59.7188,20.9531 L59.7188,23.6719 Q59.0938,23.0938 58.5,22.8281 Q57.9063,22.5469 57.2813,22.5469 Q55.9375,22.5469 55.25,23.625 Q54.5625,24.6875 54.5625,26.7813 Q54.5625,28.875 55.25,29.9531 Q55.9375,31.0156 57.2813,31.0156 Q57.9063,31.0156 58.5,30.75 Q59.0938,30.4688 59.7188,29.8906 L59.7188,32.6094 Z "/><text fill="#000000" font-family="sans-serif" font-size="14" lengthAdjust="spacingAndGlyphs" textLength="99" x="77.25" y="25.9951">TsvParserTest</text><text fill="#000000" font-family="sans-serif" font-size="10" lengthAdjust="spacingAndGlyphs" textLength="35" x="109.25" y="38.5791">io.input</text><line style="stroke: #A80036; stroke-width: 1.5;" x1="7" x2="214" y1="45.9375" y2="45.9375"/><rect fill="none" height="6" style="stroke: #C82930; stroke-width: 1.0;" width="6" x="14" y="54.8398"/><text fill="#000000" font-family="sans-serif" font-size="11" lengthAdjust="spacingAndGlyphs" textLength="104" x="26" y="60.1479">parser: TsvParser</text><rect fill="none" height="6" style="stroke: #C82930; stroke-width: 1.0;" width="6" x="14" y="67.6445"/><text fill="#000000" font-family="sans-serif" font-size="11" lengthAdjust="spacingAndGlyphs" textLength="98" x="26" y="72.9526">testString: String</text><line style="stroke: #A80036; stroke-width: 1.5;" x1="7" x2="214" y1="79.5469" y2="79.5469"/><ellipse cx="17" cy="91.4492" fill="#84BE84" rx="3" ry="3" style="stroke: #038048; stroke-width: 1.0;"/><text fill="#000000" font-family="sans-serif" font-size="11" lengthAdjust="spacingAndGlyphs" textLength="183" x="26" y="93.7573">isWorkingWithValidReader(): void</text></a><text fill="#888888" font-family="sans-serif" font-size="10" lengthAdjust="spacingAndGlyphs" textLength="186" x="23.5" y="119.2822">UMLDoclet 2.0.3, PlantUML 1.2019.06</text><!--
@startuml
    set namespaceSeparator none
    hide empty fields
    hide empty methods

    class "<size:14>TsvParserTest\n<size:10>io.input" as io.input.TsvParserTest [[TsvParserTest.html]] {
        -parser: TsvParser
        -testString: String
        +isWorkingWithValidReader(): void
    }

    center footer UMLDoclet 2.0.3, PlantUML 1.2019.06
@enduml

PlantUML version 1.2019.06(Fri May 24 19:10:25 CEST 2019)
(APACHE source distribution)
Java Runtime: OpenJDK Runtime Environment
JVM: OpenJDK 64-Bit Server VM
Java Version: 11.0.4+4-post-Debian-1
Operating System: Linux
OS Version: 4.19.0-5-amd64
Default Encoding: UTF-8
Language: fr
Country: FR
--></g></svg>